<svg xmlns="http://www.w3.org/2000/svg" xmlns:xlink="http://www.w3.org/1999/xlink" width="217.322" height="147.305" viewBox="0 0 217.322 147.305">
  <defs>
    <linearGradient id="linear-gradient" x1="0.388" y1="0.71" x2="0.924" y2="-0.417" gradientUnits="objectBoundingBox">
      <stop offset="0" stop-color="#fff"/>
      <stop offset="1" stop-color="#18a7f8"/>
    </linearGradient>
  </defs>
  <path id="Blue" d="M12173.557,426c-3.048,0-10.612-.031-15.031-.318a10.7,10.7,0,0,1-4.543-1.515,17.99,17.99,0,0,1-4.381-3.632,17.457,17.457,0,0,1-4.607-11.467c0-4.015.016-46.859.033-91.137,12.994-13.021,29.758-22.974,49.826-29.584,19.443-6.4,41.905-9.652,66.762-9.652,21.881,0,39.115,2.508,52.689,7.667,13.273,5.044,23.254,12.713,30.511,23.445a75.832,75.832,0,0,1,8.735,17.848,129.676,129.676,0,0,1,5.35,22.042c2.362,14.657,3.416,32.237,3.416,57,0,6.654-.3,13.147-.895,19.3h-186.189C12175.162,426,12174.533,426,12173.557,426Z" transform="translate(-12144.994 -278.698)" opacity="0.37" fill="url(#linear-gradient)"/>
</svg>
