<svg xmlns="http://www.w3.org/2000/svg" xmlns:xlink="http://www.w3.org/1999/xlink" width="1610.65" height="722.754" viewBox="0 0 1610.65 722.754">
  <defs>
    <linearGradient id="linear-gradient" x1="0.388" y1="0.71" x2="0.924" y2="-0.417" gradientUnits="objectBoundingBox">
      <stop offset="0" stop-color="#fff"/>
      <stop offset="1" stop-color="#fff"/>
    </linearGradient>
  </defs>
  <path id="Вычитание_10" data-name="Вычитание 10" d="M22896.676,21429.752h0v0l-1542.844,0c-.227-19.355,1.547-40.557,5.578-66.723,3.643-23.639,8.777-49.061,14.213-75.975,8.141-40.33,17.369-86.041,24.2-138.3a379.933,379.933,0,0,1,6.855-37.756,347.829,347.829,0,0,1,10.051-34.607,327.6,327.6,0,0,1,12.893-31.609,319.133,319.133,0,0,1,15.387-28.775c5.373-8.918,11.27-17.7,17.527-26.092,6-8.051,12.5-15.98,19.318-23.57,6.516-7.25,13.5-14.385,20.76-21.205,6.91-6.494,14.262-12.885,21.852-18.994a438.891,438.891,0,0,1,45.576-31.992c14.121-8.668,29.508-17.094,45.734-25.041,29.924-14.658,58.1-25.525,80.742-34.258l.027-.01c17.744-6.842,31.758-12.248,40.973-17.246,6.2-3.361,13.113-7.242,20.438-11.348,15.455-8.668,32.971-18.49,53.047-28.775,23.3-11.937,45.121-21.945,66.7-30.59,12.715-5.1,25.484-9.758,37.951-13.859,13.611-4.48,27.32-8.443,40.748-11.781,14.463-3.592,29.045-6.568,43.336-8.848,15.277-2.434,30.658-4.141,45.719-5.072,3.479-.217,7.234-.328,11.164-.328,18.662,0,42.26,2.443,70.135,7.262,26.988,4.666,57.832,11.527,91.672,20.4,67.145,17.6,143.775,42.463,221.613,71.9,39.561,14.961,78.846,30.895,116.77,47.352,39.32,17.068,76.988,34.629,111.961,52.191,36.672,18.414,70.506,36.9,100.564,54.945,31.711,19.035,59.5,37.75,82.586,55.627,10.17,7.873,19.764,15.912,28.52,23.9,8.625,7.861,16.693,15.908,23.979,23.916a293.412,293.412,0,0,1,19.678,23.988,244.972,244.972,0,0,1,15.619,24.109,214.984,214.984,0,0,1,11.8,24.281,198.242,198.242,0,0,1,13.125,49.283,213.7,213.7,0,0,1,1.807,25.1,242.175,242.175,0,0,1-1.043,25.475c-.777,8.363-2.006,17.078-3.648,25.9-1.586,8.5-3.609,17.371-6.016,26.373-2.307,8.637-5.043,17.686-8.133,26.9-5.736,17.1-12.824,35.279-21.67,55.574C22916.422,21388.7,22907.762,21407.217,22896.676,21429.752Z" transform="translate(-21353.811 -20706.998)" opacity="0.37" fill="url(#linear-gradient)"/>
</svg>
