<svg xmlns="http://www.w3.org/2000/svg" xmlns:xlink="http://www.w3.org/1999/xlink" width="234.02" height="229.005" viewBox="0 0 234.02 229.005">
  <defs>
    <linearGradient id="linear-gradient" x1="0.388" y1="0.71" x2="0.924" y2="-0.417" gradientUnits="objectBoundingBox">
      <stop offset="0" stop-color="#fff"/>
      <stop offset="1" stop-color="#42d260"/>
    </linearGradient>
  </defs>
  <path id="Grren" d="M12176.4,446c-3.357,0-11.693-.034-16.565-.346a11.753,11.753,0,0,1-4.981-1.661,19.714,19.714,0,0,1-4.806-3.979,19.108,19.108,0,0,1-5.055-12.564c0-8.109.052-144.477.069-191.608a152.685,152.685,0,0,1,34.84-13.943,150.368,150.368,0,0,1,100.779,8.771,157.667,157.667,0,0,1,27.349,16.043,165.583,165.583,0,0,1,23.827,21.247,172.975,172.975,0,0,1,19.659,25.752,178.875,178.875,0,0,1,14.845,29.556,183.546,183.546,0,0,1,9.381,32.662,189.024,189.024,0,0,1,3.271,35.067,186.619,186.619,0,0,1-8.209,55h-192.65C12177.932,446,12177.313,446,12176.4,446Z" transform="translate(-12144.996 -216.999)" opacity="0.37" fill="url(#linear-gradient)"/>
</svg>
