<svg xmlns="http://www.w3.org/2000/svg" xmlns:xlink="http://www.w3.org/1999/xlink" width="217.32" height="197.704" viewBox="0 0 217.32 197.704">
  <defs>
    <linearGradient id="linear-gradient" x1="0.388" y1="0.71" x2="0.924" y2="-0.417" gradientUnits="objectBoundingBox">
      <stop offset="0" stop-color="#fff"/>
      <stop offset="1" stop-color="#f6bf5f"/>
    </linearGradient>
  </defs>
  <path id="Yellow" d="M12176.4,446c-3.357,0-11.693-.034-16.565-.346a11.746,11.746,0,0,1-4.98-1.661,19.7,19.7,0,0,1-4.807-3.979,19.108,19.108,0,0,1-5.055-12.564c0-8.31.056-155.7.062-172.484a182.658,182.658,0,0,1,26.265-5,252.7,252.7,0,0,1,29.694-1.664c23.985,0,46.1,3.2,65.744,9.517,19.755,6.352,36.894,15.822,50.942,28.146a124.16,124.16,0,0,1,32.924,46.164,147.815,147.815,0,0,1,8.7,29.648,186.308,186.308,0,0,1,2.989,33.924,319.671,319.671,0,0,1-3.719,50.3h-180.43S12177.5,446,12176.4,446Z" transform="translate(-12144.996 -248.3)" opacity="0.37" fill="url(#linear-gradient)"/>
</svg>
