<svg id="_1_inon" data-name="1 inon" xmlns="http://www.w3.org/2000/svg" width="63.188" height="63.188" viewBox="0 0 63.188 63.188">
  <path id="Path_15585" data-name="Path 15585" d="M53.405,0H35.428a3.7,3.7,0,0,0-3.7,3.7V9.914H23.531V3.7a3.7,3.7,0,0,0-3.7-3.7H1.851A1.851,1.851,0,0,0,0,1.851V53.405a1.851,1.851,0,0,0,1.851,1.851H53.405a1.851,1.851,0,0,0,1.851-1.851V1.851A1.851,1.851,0,0,0,53.405,0Z" fill="#f6bf5f"/>
  <path id="Path_15586" data-name="Path 15586" d="M61.3,53.405V1.851A1.851,1.851,0,0,0,59.444,0H41.467a3.7,3.7,0,0,0-3.7,3.7V9.914h-4.1V55.256H59.445A1.851,1.851,0,0,0,61.3,53.405Z" transform="translate(-6.039)" fill="#f6bf5f"/>
  <path id="Path_15587" data-name="Path 15587" d="M37.911,13.617h-11.9a1.851,1.851,0,0,1-1.851-1.851V0h15.6V11.765A1.851,1.851,0,0,1,37.911,13.617Z" transform="translate(-4.334)" fill="#18a7f8"/>
  <path id="Path_15588" data-name="Path 15588" d="M46.276,68.389a19.7,19.7,0,1,0-19.7-19.7A19.7,19.7,0,0,0,46.276,68.389Z" transform="translate(-4.768 -5.201)" fill="#6c38ef"/>
  <path id="Path_15589" data-name="Path 15589" d="M50.581,68.389a19.7,19.7,0,0,0,0-39.394Z" transform="translate(-9.073 -5.201)" fill="#6c38ef"/>
  <path id="Path_15590" data-name="Path 15590" d="M46.7,60.423l-9.914-9.914a1.852,1.852,0,0,1,0-2.618L42.4,42.282a1.852,1.852,0,0,1,2.618,0l3,3L60.921,32.368a1.852,1.852,0,0,1,2.618,0l5.608,5.608a1.852,1.852,0,0,1,0,2.618L49.319,60.423a1.851,1.851,0,0,1-2.618,0Z" transform="translate(-6.501 -5.709)" fill="#42d260"/>
  <path id="Path_15591" data-name="Path 15591" d="M66.111,32.368a1.852,1.852,0,0,0-2.618,0L50.582,45.279V60.965a1.845,1.845,0,0,0,1.309-.542L71.719,40.595a1.852,1.852,0,0,0,0-2.618Z" transform="translate(-9.073 -5.709)" fill="#42d260"/>
</svg>
