<svg id="_2_icon" data-name="2 icon" xmlns="http://www.w3.org/2000/svg" width="62.934" height="63.188" viewBox="0 0 62.934 63.188">
  <path id="Path_15592" data-name="Path 15592" d="M19.759,53.805a19.231,19.231,0,0,1,4.8,1.351.255.255,0,0,0,.344-.239V47.678a1.915,1.915,0,0,0-1.915-1.915H15.871a.255.255,0,0,1-.24-.343,17.935,17.935,0,0,0,1.241-4.5,4.331,4.331,0,0,0-8.662,0,17.934,17.934,0,0,0,1.241,4.5.255.255,0,0,1-.24.343H2.075A1.915,1.915,0,0,0,.16,47.678V68.595A1.915,1.915,0,0,0,2.075,70.51H22.992a1.915,1.915,0,0,0,1.915-1.915V61.355a.255.255,0,0,0-.344-.239,19.231,19.231,0,0,1-4.8,1.351,4.331,4.331,0,1,1,0-8.662Z" transform="translate(-0.159 -7.323)" fill="#6c38ef"/>
  <path id="Path_15593" data-name="Path 15593" d="M24.562,67.251c-.984.366-1.936.695-2.758.937v3.44a1.915,1.915,0,0,1-1.915,1.915H.159v1.186a1.915,1.915,0,0,0,1.915,1.915H22.991a1.915,1.915,0,0,0,1.915-1.915V67.49A.255.255,0,0,0,24.562,67.251Z" transform="translate(-0.159 -13.457)" fill="#6c38ef"/>
  <path id="Path_15594" data-name="Path 15594" d="M28.408,48.06H27.221v8.457c.821.242,1.773.571,2.758.937a.255.255,0,0,0,.344-.239V49.975A1.915,1.915,0,0,0,28.408,48.06Z" transform="translate(-5.576 -9.619)" fill="#6c38ef"/>
  <path id="Path_15595" data-name="Path 15595" d="M29.76,8.05a17.935,17.935,0,0,0-4.5,1.241.255.255,0,0,1-.343-.24V1.915A1.915,1.915,0,0,0,23,0H2.08A1.915,1.915,0,0,0,.165,1.915V22.832A1.915,1.915,0,0,0,2.08,24.747H9.319a.255.255,0,0,0,.239-.344,19.227,19.227,0,0,1-1.351-4.8,4.331,4.331,0,0,1,8.662,0,19.236,19.236,0,0,1-1.351,4.8.255.255,0,0,0,.239.344H23a1.915,1.915,0,0,0,1.915-1.915V15.711a.255.255,0,0,1,.343-.24,17.935,17.935,0,0,0,4.5,1.241,4.331,4.331,0,1,0,0-8.662Z" transform="translate(-0.16)" fill="#42d260"/>
  <path id="Path_15596" data-name="Path 15596" d="M34.689,10.238A4.334,4.334,0,0,1,30.5,15.66a17.936,17.936,0,0,1-4.5-1.241.255.255,0,0,0-.343.24V21.78a1.915,1.915,0,0,1-1.915,1.915h-3.44c-.242.821-.571,1.773-.937,2.758a.255.255,0,0,0,.239.344h7.239a1.915,1.915,0,0,0,1.915-1.915V17.76a.255.255,0,0,1,.343-.24,17.935,17.935,0,0,0,4.5,1.241,4.332,4.332,0,0,0,1.091-8.523Z" transform="translate(-3.998 -2.049)" fill="#42d260"/>
  <path id="Path_15597" data-name="Path 15597" d="M70.733,0H49.816A1.915,1.915,0,0,0,47.9,1.915V9.155a.255.255,0,0,0,.344.239,19.227,19.227,0,0,1,4.8-1.351,4.331,4.331,0,0,1,0,8.662,19.229,19.229,0,0,1-4.8-1.351.255.255,0,0,0-.344.239v7.239a1.915,1.915,0,0,0,1.915,1.915h7.121a.255.255,0,0,1,.24.343,17.935,17.935,0,0,0-1.241,4.5,4.331,4.331,0,0,0,8.662,0,17.939,17.939,0,0,0-1.241-4.5.255.255,0,0,1,.24-.343h7.136a1.915,1.915,0,0,0,1.915-1.915V1.915A1.916,1.916,0,0,0,70.733,0Z" transform="translate(-9.715)" fill="#f6bf5f"/>
  <path id="Path_15598" data-name="Path 15598" d="M72.778,0H71.592V19.731a1.915,1.915,0,0,1-1.915,1.915H62.541a.255.255,0,0,0-.24.343,17.935,17.935,0,0,1,1.241,4.5,4.334,4.334,0,0,1-5.422,4.192,4.332,4.332,0,0,0,8.523-1.091,17.936,17.936,0,0,0-1.241-4.5.255.255,0,0,1,.24-.343h7.136a1.915,1.915,0,0,0,1.915-1.915V1.915A1.915,1.915,0,0,0,72.778,0Z" transform="translate(-11.76)" fill="#f6bf5f"/>
  <path id="Path_15599" data-name="Path 15599" d="M61.191,48.06a.255.255,0,0,0-.239.344,19.229,19.229,0,0,1,1.351,4.8,4.331,4.331,0,0,1-8.662,0,19.227,19.227,0,0,1,1.351-4.8.255.255,0,0,0-.239-.344H47.513A1.915,1.915,0,0,0,45.6,49.975V57.1a.255.255,0,0,1-.343.24,17.937,17.937,0,0,0-4.5-1.241,4.331,4.331,0,1,0,0,8.662,17.932,17.932,0,0,0,4.5-1.241.255.255,0,0,1,.343.24v7.136a1.915,1.915,0,0,0,1.915,1.915H68.43a1.915,1.915,0,0,0,1.915-1.915V49.975A1.915,1.915,0,0,0,68.43,48.06Z" transform="translate(-7.417 -9.62)" fill="#18a7f8"/>
  <path id="Path_15600" data-name="Path 15600" d="M70.727,48.06H69.541v19.73a1.915,1.915,0,0,1-1.915,1.915H47.9v1.186a1.915,1.915,0,0,0,1.915,1.915H70.727a1.915,1.915,0,0,0,1.915-1.915V49.975a1.915,1.915,0,0,0-1.915-1.915Z" transform="translate(-9.714 -9.62)" fill="#18a7f8"/>
</svg>
