<svg id="_3_icon" data-name="3 icon" xmlns="http://www.w3.org/2000/svg" width="67.868" height="63.188" viewBox="0 0 67.868 63.188">
  <path id="Path_15601" data-name="Path 15601" d="M3.51,0H55a3.51,3.51,0,0,1,3.51,3.51V50.316A3.51,3.51,0,0,1,55,53.827H3.51A3.51,3.51,0,0,1,0,50.316V3.51A3.51,3.51,0,0,1,3.51,0Z" fill="#6c38ef"/>
  <path id="Path_15602" data-name="Path 15602" d="M7.618,5.278H5.278v2.34h2.34Z" transform="translate(-1.767 -1.767)" fill="#18a7f8"/>
  <path id="Path_15603" data-name="Path 15603" d="M14.655,5.278h-2.34v2.34h2.34Z" transform="translate(-4.124 -1.767)" fill="#18a7f8"/>
  <path id="Path_15604" data-name="Path 15604" d="M21.692,5.278h-2.34v2.34h2.34Z" transform="translate(-6.48 -1.767)" fill="#18a7f8"/>
  <path id="Path_15605" data-name="Path 15605" d="M17.585,14.074H69.071a3.51,3.51,0,0,1,3.51,3.51V64.39a3.51,3.51,0,0,1-3.51,3.51H17.585a3.51,3.51,0,0,1-3.51-3.51V17.585A3.51,3.51,0,0,1,17.585,14.074Z" transform="translate(-4.713 -4.713)" fill="#18a7f8"/>
  <path id="Path_15606" data-name="Path 15606" d="M69.333,14.074h-2.34L14.859,66.209A3.492,3.492,0,0,0,17.847,67.9H69.334a3.51,3.51,0,0,0,3.51-3.51V17.585A3.51,3.51,0,0,0,69.333,14.074Z" transform="translate(-4.976 -4.713)" fill="#18a7f8"/>
  <path id="Path_15607" data-name="Path 15607" d="M21.692,19.352h-2.34v2.34h2.34Z" transform="translate(-6.48 -6.48)" fill="#211260"/>
  <path id="Path_15608" data-name="Path 15608" d="M28.729,19.352h-2.34v2.34h2.34Z" transform="translate(-8.837 -6.48)" fill="#211260"/>
  <path id="Path_15609" data-name="Path 15609" d="M35.766,19.352h-2.34v2.34h2.34Z" transform="translate(-11.193 -6.48)" fill="#211260"/>
  <path id="Path_15610" data-name="Path 15610" d="M70.838,26.389H19.352v2.34H70.838Z" transform="translate(-6.48 -8.837)" fill="#211260"/>
  <path id="Path_15611" data-name="Path 15611" d="M28.713,35.185H19.352v2.34h9.361Z" transform="translate(-6.48 -11.782)" fill="#211260"/>
  <path id="Path_15612" data-name="Path 15612" d="M26.373,42.222H19.352v2.34h7.021Z" transform="translate(-6.48 -14.139)" fill="#211260"/>
  <path id="Path_15613" data-name="Path 15613" d="M66.771,56.248V49.227H62.8a13.935,13.935,0,0,0-1.5-3.611l2.808-2.808-4.965-4.965L56.34,40.651a13.932,13.932,0,0,0-3.611-1.5v-3.97H45.708v3.97a13.932,13.932,0,0,0-3.611,1.5l-2.808-2.808-4.965,4.965,2.808,2.808a13.917,13.917,0,0,0-1.5,3.611h-3.97v7.021h3.97a13.935,13.935,0,0,0,1.5,3.611l-2.808,2.808,4.965,4.965L42.1,64.824a13.932,13.932,0,0,0,3.611,1.5v3.97h7.021v-3.97a13.932,13.932,0,0,0,3.611-1.5l2.808,2.808,4.965-4.965-2.808-2.808a13.935,13.935,0,0,0,1.5-3.611Zm-17.552,3.51a7.021,7.021,0,1,1,7.021-7.021A7.02,7.02,0,0,1,49.219,59.758Z" transform="translate(-10.604 -11.782)" fill="#211260"/>
  <path id="Path_15614" data-name="Path 15614" d="M93.224,86.2H86.2v2.34h7.021Z" transform="translate(-28.867 -28.867)" fill="#211260"/>
  <path id="Path_15615" data-name="Path 15615" d="M63.325,48.292l2.808-2.808-2.305-2.306a71.158,71.158,0,0,1-6.745,8.345A7.021,7.021,0,0,1,46.7,60.767a90.5,90.5,0,0,1-9,5.928l3.612,3.612L44.12,67.5A13.923,13.923,0,0,0,47.729,69v3.97h7.021V69a13.935,13.935,0,0,0,3.611-1.5l2.808,2.808,4.965-4.965-2.808-2.808a13.932,13.932,0,0,0,1.5-3.611h3.97V51.9h-3.97A13.941,13.941,0,0,0,63.325,48.292Z" transform="translate(-12.624 -14.459)" fill="#211260"/>
  <path id="Path_15616" data-name="Path 15616" d="M12.307,19.352V60.307H8.8V22.862A3.51,3.51,0,0,1,12.307,19.352Z" transform="translate(-2.946 -6.48)" fill="#211260"/>
</svg>
