<svg xmlns="http://www.w3.org/2000/svg" width="21.094" height="24" viewBox="0 0 21.094 24"><defs><style>.a{fill:#f6583e;}</style></defs><path class="a" d="M21.094.7a.7.7,0,0,0-.7-.7H.7A.7.7,0,0,0,0,.7V23.3a.7.7,0,0,0,.7.7H20.391a.7.7,0,0,0,.7-.7ZM19.688,13.788l-7.372-3.195L19.688,7.4ZM10.547,9.827l-6.453-2.8H17Zm-1.768.766L1.406,13.788V7.4Zm1.768.766L17,14.156H4.094Zm9.141-9.954V5.625H1.406V1.406ZM1.406,22.594V15.562H19.688v7.031Zm0,0"/><path class="a" d="M60.7,61.406h11.25a.7.7,0,1,0,0-1.406H60.7a.7.7,0,0,0,0,1.406Zm0,0" transform="translate(-57.188 -57.188)"/><path class="a" d="M63.516,362H60.7a.7.7,0,0,0-.7.7v2.813a.7.7,0,0,0,.7.7h2.813a.7.7,0,0,0,.7-.7V362.7A.7.7,0,0,0,63.516,362Zm-.7,2.813H61.406v-1.406h1.406Zm0,0" transform="translate(-57.188 -345.031)"/><path class="a" d="M183.516,362H180.7a.7.7,0,0,0-.7.7v2.813a.7.7,0,0,0,.7.7h2.812a.7.7,0,0,0,.7-.7V362.7A.7.7,0,0,0,183.516,362Zm-.7,2.813h-1.406v-1.406h1.406Zm0,0" transform="translate(-171.562 -345.031)"/><path class="a" d="M303.516,362H300.7a.7.7,0,0,0-.7.7v2.813a.7.7,0,0,0,.7.7h2.813a.7.7,0,0,0,.7-.7V362.7A.7.7,0,0,0,303.516,362Zm-.7,2.813h-1.406v-1.406h1.406Zm0,0" transform="translate(-285.938 -345.031)"/></svg>