<svg xmlns="http://www.w3.org/2000/svg" xmlns:xlink="http://www.w3.org/1999/xlink" width="25.179" height="20.041" viewBox="0 0 25.179 20.041">
  <defs>
    <clipPath id="clip-path">
      <rect id="Rectangle_1786" data-name="Rectangle 1786" width="25.179" height="20.041" fill="#f6583e"/>
    </clipPath>
  </defs>
  <g id="Datying_app" data-name="Datying app" opacity="0.5">
    <g id="Group_13541" data-name="Group 13541" clip-path="url(#clip-path)">
      <path id="Path_43789" data-name="Path 43789" d="M12.588,20.03c-2.857,0-5.714-.03-8.57.01A3.668,3.668,0,0,1,.291,17.206c-.069-.315-.174-.622-.259-.934a.544.544,0,0,1,.562-.752q.422-.009.844,0c.108,0,.159-.028.146-.142a1.594,1.594,0,0,1,0-.179q0-6.511,0-13.022A2.1,2.1,0,0,1,3.2.062,2.628,2.628,0,0,1,3.835,0q8.749,0,17.5,0A2.112,2.112,0,0,1,23.59,2.276q0,6.485-.005,12.971c0,.219.043.3.274.278a5.812,5.812,0,0,1,.792,0,.536.536,0,0,1,.507.7c-.115.436-.229.872-.369,1.3a3.583,3.583,0,0,1-3.5,2.509q-4.349,0-8.7,0M12.58,15.5h9.7a.138.138,0,0,1,.026,0c.212.041.247-.062.247-.253q-.008-6.5,0-13a1.068,1.068,0,0,0-1.2-1.193H3.841A1.071,1.071,0,0,0,2.628,2.261q0,6.487-.005,12.974c0,.207.042.272.26.271q4.848-.011,9.7-.005M1.215,16.566c.039.152.069.267.1.381a2.453,2.453,0,0,0,2.593,2.027h17.27a3.315,3.315,0,0,0,.561-.028,2.5,2.5,0,0,0,2.09-2.38H22.292c-2.2,0-4.4,0-6.6,0a.268.268,0,0,0-.308.212c-.1.289-.226.568-.339.853a.978.978,0,0,1-.94.667c-1.108.017-2.217.015-3.326,0a1,1,0,0,1-.983-.719c-.093-.256-.2-.509-.266-.771-.05-.191-.136-.243-.333-.243-2.5.008-5,.005-7.5.005H1.215m13.253,0H11.133c-.486,0-.486,0-.309.455.045.116.06.23.246.228,1-.011,2-.006,2.994,0,.094,0,.161-.013.2-.115.059-.176.128-.349.209-.564" transform="translate(0 0)" fill="#f6583e"/>
      <path id="Path_43790" data-name="Path 43790" d="M137.6,120.2a2.216,2.216,0,0,1,.785-1.779,1.643,1.643,0,0,1,2.232.085c.129.122.185.121.314,0a1.655,1.655,0,0,1,2.556.29,2.554,2.554,0,0,1,.152,2.714,5.183,5.183,0,0,1-2.013,2.19c-.84.553-.866.554-1.7,0a5.106,5.106,0,0,1-2.133-2.469,3.3,3.3,0,0,1-.194-1.031m1.031.034a2.294,2.294,0,0,0,.378,1.1,5.091,5.091,0,0,0,1.664,1.557.166.166,0,0,0,.206,0,5.02,5.02,0,0,0,1.662-1.559,2.166,2.166,0,0,0,.371-1.3.99.99,0,0,0-.644-.977c-.385-.09-.7.1-.974.614a.57.57,0,0,1-.515.355.563.563,0,0,1-.523-.345,1.607,1.607,0,0,0-.341-.443.6.6,0,0,0-.907.013,1.263,1.263,0,0,0-.377.991" transform="translate(-128.191 -109.95)" fill="#f6583e"/>
      <path id="Path_43791" data-name="Path 43791" d="M230.832,39.988a2.5,2.5,0,0,1,1.036-1.907c.14-.1.191-.163.091-.345a1.586,1.586,0,0,1,.412-2,1.618,1.618,0,0,1,2.449,2.014c-.084.154-.069.212.069.314a2.534,2.534,0,0,1,1.07,2.023.507.507,0,0,1-.242.5.54.54,0,0,1-.561,0,.593.593,0,0,1-.256-.551,1.515,1.515,0,0,0-3.026.045c-.024.461-.37.7-.758.529-.221-.1-.3-.283-.284-.626m2.57-2.436a.561.561,0,0,0,.566-.565.577.577,0,1,0-1.153.023.559.559,0,0,0,.588.542" transform="translate(-215.041 -32.953)" fill="#f6583e"/>
      <path id="Path_43792" data-name="Path 43792" d="M64.045,35.366a1.614,1.614,0,0,1,1.414,2.4c-.086.154-.065.215.068.314a2.484,2.484,0,0,1,1.028,1.964c.016.373-.167.6-.5.609s-.527-.192-.547-.565a1.516,1.516,0,0,0-2.989-.322,2.543,2.543,0,0,0-.044.353c-.038.356-.239.549-.557.533a.512.512,0,0,1-.494-.614,2.509,2.509,0,0,1,1.079-1.991c.146-.1.186-.166.094-.347a1.614,1.614,0,0,1,1.445-2.337m-.01,2.181A.559.559,0,0,0,64.622,37a.577.577,0,1,0-1.153-.023.563.563,0,0,0,.565.566" transform="translate(-57.224 -32.947)" fill="#f6583e"/>
      <path id="Path_43793" data-name="Path 43793" d="M63.585,191.1c-.554,0-1.107.007-1.661,0a.52.52,0,0,1-.522-.727.47.47,0,0,1,.474-.322c1.141-.006,2.282-.009,3.423,0a.481.481,0,0,1,.515.537.49.49,0,0,1-.544.511c-.562.008-1.124,0-1.686,0" transform="translate(-57.165 -177.041)" fill="#f6583e"/>
      <path id="Path_43794" data-name="Path 43794" d="M243.758,191.094c-.554,0-1.107.005-1.661,0a.5.5,0,0,1-.563-.593.467.467,0,0,1,.491-.455q1.724-.014,3.449,0a.49.49,0,0,1,.509.523.5.5,0,0,1-.539.523c-.562.009-1.124,0-1.686,0" transform="translate(-225.011 -177.04)" fill="#f6583e"/>
      <path id="Path_43795" data-name="Path 43795" d="M63.643,141.079c.545,0,1.09,0,1.634,0,.381,0,.578.187.576.525s-.2.513-.561.514q-1.66.007-3.32,0c-.364,0-.565-.19-.569-.512s.206-.525.58-.528c.553,0,1.107,0,1.66,0" transform="translate(-57.203 -131.428)" fill="#f6583e"/>
      <path id="Path_43796" data-name="Path 43796" d="M243.784,141.081c.545,0,1.089,0,1.634,0,.377,0,.586.195.584.524s-.209.515-.591.516q-1.634.005-3.269,0c-.39,0-.587-.178-.591-.511s.2-.528.6-.53c.545,0,1.09,0,1.634,0" transform="translate(-225.03 -131.43)" fill="#f6583e"/>
      <path id="Path_43797" data-name="Path 43797" d="M63.631,166.652c-.545,0-1.089,0-1.634,0-.377,0-.588-.189-.591-.517s.2-.522.583-.523q1.647-.006,3.294,0c.382,0,.576.189.572.528s-.2.51-.59.512c-.545,0-1.09,0-1.634,0" transform="translate(-57.205 -154.281)" fill="#f6583e"/>
      <path id="Path_43798" data-name="Path 43798" d="M243.78,166.651c-.553,0-1.106,0-1.66,0-.364,0-.561-.184-.566-.51a.484.484,0,0,1,.545-.529q1.672-.008,3.345,0a.5.5,0,0,1,.56.521.5.5,0,0,1-.564.518c-.553,0-1.106,0-1.66,0" transform="translate(-225.033 -154.28)" fill="#f6583e"/>
    </g>
  </g>
</svg>
