<svg xmlns="http://www.w3.org/2000/svg" xmlns:xlink="http://www.w3.org/1999/xlink" width="24" height="24" viewBox="0 0 24 24">
  <defs>
    <clipPath id="clip-path">
      <rect id="Rectangle_1787" data-name="Rectangle 1787" width="24" height="24" fill="#f6583e" stroke="#f6583e" stroke-width="0.3"/>
    </clipPath>
  </defs>
  <g id="Fitness_app" data-name="Fitness app" opacity="0.5">
    <g id="Group_13542" data-name="Group 13542" clip-path="url(#clip-path)">
      <path id="Path_43816" data-name="Path 43816" d="M.073,17.414V2.773c.05-.01.044-.054.055-.089A2.376,2.376,0,0,1,2.629.833H8.1q6.59,0,13.181,0a2.357,2.357,0,0,1,2.438,2.425q0,6.833,0,13.665a2.043,2.043,0,0,1-.447,1.419,1.412,1.412,0,0,0-.35,1.057,1.145,1.145,0,0,1-1,1.121,4.189,4.189,0,0,1-.76.017c-.153,0-.208.029-.212.2a1.353,1.353,0,0,1-1.823,1.292c-.125-.04-.146-.023-.167.1a1.326,1.326,0,0,1-1.044,1.127,1.371,1.371,0,0,1-.889-.089,1.764,1.764,0,0,1-.293.775,1.694,1.694,0,0,1-.821.535h-.6c-.015-.015-.028-.036-.047-.043a1.39,1.39,0,0,1-1.01-1.474c0-.738,0-1.477,0-2.215,0-.151-.022-.21-.194-.209q-2.169.012-4.338,0c-.169,0-.2.052-.2.207.008.769,0,1.538,0,2.308a1.434,1.434,0,0,1-.416,1.041,1.916,1.916,0,0,1-.687.386H7.786c-.082-.112-.224-.115-.332-.182a1.446,1.446,0,0,1-.684-1.116A1.409,1.409,0,0,1,4.8,21.992a1.62,1.62,0,0,1-.74.116,1.361,1.361,0,0,1-1.215-1.367c0-.163-.049-.212-.208-.2a5.6,5.6,0,0,1-.577,0A1.187,1.187,0,0,1,.87,19.5a3.158,3.158,0,0,1-.008-.53A.439.439,0,0,0,.72,18.6a2.183,2.183,0,0,1-.563-.99c-.019-.068,0-.156-.084-.2m22.6.422a1.673,1.673,0,0,0,.263-.954q0-5.125,0-10.251c0-.229-.048-.287-.283-.287Q11.9,6.355,1.137,6.35a.772.772,0,0,1-.115,0c-.135-.021-.165.039-.165.167q.005,5.252.005,10.5a1.45,1.45,0,0,0,.259.815,1.327,1.327,0,0,1,1.187-.454c.115.005.232-.007.346,0,.138.012.18-.031.185-.177a1.356,1.356,0,0,1,1.827-1.314c.1.03.138.05.162-.083a1.349,1.349,0,0,1,1.8-1.1c.128.041.157.016.17-.1a1.2,1.2,0,0,1,.13-.416,1.378,1.378,0,0,1,2.606.631c.009.777.007,1.555,0,2.332,0,.167.023.234.218.233q2.147-.015,4.294,0c.164,0,.222-.027.219-.209-.012-.769-.008-1.539,0-2.309a1.387,1.387,0,0,1,1.214-1.423,1.367,1.367,0,0,1,1.516,1.141c.027.136.051.164.2.116a1.356,1.356,0,0,1,1.763,1.019c.032.175.051.219.243.157a1.345,1.345,0,0,1,1.754,1.238c.006.22.06.284.283.272a1.516,1.516,0,0,1,1.44.448M11.873,5.56q5.4,0,10.807.005c.215,0,.262-.06.258-.264-.013-.677,0-1.355-.005-2.032A1.576,1.576,0,0,0,21.3,1.621q-9.4,0-18.8,0A1.576,1.576,0,0,0,.86,3.268c0,.677.007,1.355-.005,2.032,0,.2.04.266.257.265q5.38-.012,10.761-.005m4.362,13.4q0-2.019,0-4.039a.619.619,0,0,0-.382-.647c-.421-.162-.806.144-.806.651q0,4.039,0,8.078a1.007,1.007,0,0,0,.03.25.58.58,0,0,0,.554.438.594.594,0,0,0,.571-.419.982.982,0,0,0,.032-.319q0-2,0-3.993m-8.676-.009q0,2.008,0,4.016c0,.448.228.724.594.724s.593-.28.595-.726c0-.046,0-.092,0-.138V15.9c0-.346,0-.692,0-1.039a.6.6,0,1,0-1.187.025c0,1.354,0,2.708,0,4.062m-.787.023c0-.977,0-1.953,0-2.93a.591.591,0,0,0-.478-.617.573.573,0,0,0-.689.511,5.847,5.847,0,0,0-.014.622q0,2.6,0,5.191a1.034,1.034,0,0,0,.047.387.587.587,0,0,0,.654.356.58.58,0,0,0,.48-.591c0-.977,0-1.953,0-2.93m10.25.01q0,1.43,0,2.861a.59.59,0,0,0,.583.658.583.583,0,0,0,.6-.646q.007-2.9,0-5.791a.64.64,0,0,0-.164-.466.6.6,0,0,0-.636-.144.578.578,0,0,0-.38.575c0,.984,0,1.969,0,2.953m-7.288-.817c-.163,0-.207.045-.2.205.011.4.009.8,0,1.2,0,.137.029.185.177.184q2.193-.008,4.385,0c.133,0,.169-.04.167-.17-.007-.4-.011-.8,0-1.2.005-.168-.033-.223-.212-.22m-10.426.778c0,.577,0,1.154,0,1.73a.589.589,0,1,0,1.173.01q.007-1.719,0-3.438a.591.591,0,1,0-1.173.013c0,.561,0,1.123,0,1.684m16.546.014c0-.561,0-1.123,0-1.684A.592.592,0,1,0,19,17.258q-.005,1.707,0,3.415a.591.591,0,1,0,1.173,0c0-.569,0-1.138,0-1.707m-17.333.035c0-.223,0-.446,0-.669,0-.1-.016-.159-.136-.155-.215.007-.431-.005-.646.006a.393.393,0,0,0-.408.432c-.006.238-.006.477,0,.715a.4.4,0,0,0,.414.428c.207.011.416,0,.623.005.126.005.157-.046.153-.162-.007-.2,0-.4,0-.6m18.121-.026c0,.208,0,.416,0,.623,0,.113.021.17.15.165.207-.009.416.005.623-.005a.4.4,0,0,0,.417-.426c.007-.238.006-.477,0-.715a.4.4,0,0,0-.429-.436c-.192-.008-.385.008-.577-.005-.161-.011-.194.056-.186.2.011.2,0,.4,0,.6" transform="translate(-0.068 -0.782)" fill="#f6583e" stroke="#f6583e" stroke-width="0.3"/>
      <path id="Path_43820" data-name="Path 43820" d="M166.1,130.595c0-.331,0-.662,0-.993a.939.939,0,0,1,1.44-.822q.809.465,1.6.958a.974.974,0,0,1,0,1.708q-.778.493-1.571.964a.941.941,0,0,1-1.467-.822c0-.331,0-.662,0-.993m.787,0c0,.323,0,.646,0,.969,0,.205.11.271.276.171q.778-.47,1.549-.952c.19-.119.185-.268-.01-.387q-.757-.46-1.52-.909c-.188-.111-.292-.053-.3.163-.006.315,0,.63,0,.945" transform="translate(-155.842 -120.697)" fill="#f6583e" stroke="#f6583e" stroke-width="0.3"/>
      <path id="Path_43821" data-name="Path 43821" d="M258.633,28.675c-.677,0-1.354.011-2.03,0a1.149,1.149,0,0,1-1.108-1.014,1.169,1.169,0,0,1,.752-1.262,1.194,1.194,0,0,1,.427-.081c1.307,0,2.615,0,3.922,0a1.18,1.18,0,0,1,.294,2.326,1.665,1.665,0,0,1-.389.034c-.623,0-1.246,0-1.869,0Zm-.009-.785c.638,0,1.275,0,1.913,0a.42.42,0,0,0,.41-.2c.163-.286-.051-.586-.424-.587q-1.879,0-3.757,0c-.309,0-.493.148-.5.392s.179.394.488.4c.622,0,1.245,0,1.867,0" transform="translate(-239.712 -24.689)" fill="#f6583e" stroke="#f6583e" stroke-width="0.3"/>
      <path id="Path_43822" data-name="Path 43822" d="M77.837,28.709a1.181,1.181,0,1,1,1.2-1.178,1.181,1.181,0,0,1-1.2,1.178m-.381-1.186a.387.387,0,0,0,.39.4.383.383,0,0,0,.392-.37.391.391,0,1,0-.782-.027" transform="translate(-71.932 -24.722)" fill="#f6583e" stroke="#f6583e" stroke-width="0.3"/>
      <path id="Path_43823" data-name="Path 43823" d="M27.942,27.549a1.167,1.167,0,0,1-1.2,1.161,1.181,1.181,0,0,1-1.161-1.183,1.193,1.193,0,0,1,1.195-1.178,1.178,1.178,0,0,1,1.167,1.2m-1.182.373a.38.38,0,0,0,.394-.39.4.4,0,0,0-.4-.395.409.409,0,0,0-.389.385.4.4,0,0,0,.391.4" transform="translate(-24.002 -24.722)" fill="#f6583e" stroke="#f6583e" stroke-width="0.3"/>
      <path id="Path_43824" data-name="Path 43824" d="M129.022,28.708a1.181,1.181,0,0,1,.012-2.362,1.193,1.193,0,0,1,1.184,1.19,1.18,1.18,0,0,1-1.2,1.172m.407-1.173a.407.407,0,0,0-.4-.4.393.393,0,0,0-.388.379.379.379,0,0,0,.377.406.394.394,0,0,0,.407-.383" transform="translate(-119.963 -24.72)" fill="#f6583e" stroke="#f6583e" stroke-width="0.3"/>
    </g>
  </g>
</svg>
