<svg xmlns="http://www.w3.org/2000/svg" width="151.037" height="225" viewBox="0 0 151.037 225"><defs><style>.a{fill:#f08c25;}.b{fill:#e27929;}.c{fill:#f99a14;}.d{fill:#ffaf00;}.e{fill:#fff;}.f,.g{fill:#ff8e3b;}.g{font-size:80px;font-family:SegoeUI-Bold, Segoe UI;font-weight:700;}</style></defs><path class="a" d="M78.614,221.248,39.592,294.767l35.435-3.274,17.151,31.184L131.2,249.158Z" transform="translate(-39.592 -143.998)"/><g transform="translate(32.237 77.25)"><path class="b" d="M143.174,323.515a4.982,4.982,0,0,0-2.341-6.38l-2.246-1.2a4.8,4.8,0,0,1,4.62-8.419l6.346,3.369a4.005,4.005,0,0,0,5.43-1.687l.156-.3a3.788,3.788,0,0,0-1.458-5.341L134.7,293.487a5,5,0,0,1-2.369-6.385,4.814,4.814,0,0,1,6.614-2.212l17.609,9.346a4.051,4.051,0,0,0,5.458-1.676l.1-.257.028-.056a4.217,4.217,0,0,0-1.737-5.737l-9.877-5.24a5,5,0,0,1-2.352-6.413,4.834,4.834,0,0,1,6.614-2.212l10.91,5.793a4.073,4.073,0,0,0,5.531-1.877,285.783,285.783,0,0,0,.056-.112,4.068,4.068,0,0,0-1.547-5.631l-11.771-6.246a4.986,4.986,0,0,1-2.341-6.369,4.814,4.814,0,0,1,6.614-2.212L191.28,271.4l-39.022,73.519L141.5,325.375A4.571,4.571,0,0,0,143.174,323.515Z" transform="translate(-131.92 -243.494)"/><path class="b" d="M262.386,221.248l39.022,73.519-35.435-3.274-17.151,31.184L209.8,249.158Z" transform="translate(-182.608 -221.248)"/></g><path class="a" d="M257.927,323.525a4.982,4.982,0,0,1,2.341-6.38l2.246-1.2a4.8,4.8,0,0,0-4.62-8.419l-6.346,3.369a4.005,4.005,0,0,1-5.43-1.687l-.156-.3a3.787,3.787,0,0,1,1.458-5.341l18.989-10.078a5,5,0,0,0,2.369-6.385,4.814,4.814,0,0,0-6.614-2.212l-17.609,9.346a4.051,4.051,0,0,1-5.458-1.676l-.1-.257-.028-.056a4.217,4.217,0,0,1,1.737-5.737l9.877-5.24a5,5,0,0,0,2.352-6.413,4.834,4.834,0,0,0-6.614-2.212l-10.922,5.8a4.074,4.074,0,0,1-5.531-1.877,285.846,285.846,0,0,1-.056-.112,4.068,4.068,0,0,1,1.547-5.631l11.771-6.246a4.986,4.986,0,0,0,2.341-6.369,4.814,4.814,0,0,0-6.614-2.212L209.816,271.42l39.022,73.519,10.754-19.547A4.65,4.65,0,0,1,257.927,323.525Z" transform="translate(-150.381 -166.254)"/><ellipse class="c" cx="65.2" cy="65.2" rx="65.2" ry="65.2" transform="translate(10.318 0)"/><path class="d" d="M143.542,66.842H102.224a5.872,5.872,0,0,1-5.849-5.849l.045-.4V60.5a6.107,6.107,0,0,1,6.117-6.162h28.636a7.243,7.243,0,0,0,7.369-6.609,7,7,0,0,0-6.966-7.324H101.241a5.9,5.9,0,0,1-5.8-6.162v-.179a5.9,5.9,0,0,1,5.8-6.162h31.743a7.228,7.228,0,0,0,7.324-6.564,6.976,6.976,0,0,0-6.966-7.324H110.1a65.192,65.192,0,0,0,.006,120.6h29.514a7.228,7.228,0,0,0,7.324-6.564,6.971,6.971,0,0,0-6.966-7.318l-33.575-.006a6.947,6.947,0,0,1-6.938-7.324,7.215,7.215,0,0,1,7.33-6.575H119.8a6.957,6.957,0,0,0-.2-13.91H99.872a5.8,5.8,0,0,1-5.8-5.849v-.492a5.494,5.494,0,0,1,5.492-5.849h43.58a7.24,7.24,0,0,0,7.369-6.564A6.978,6.978,0,0,0,143.542,66.842Z" transform="translate(-59.18 -9.122)"/><path class="e" d="M169.125,146.517a46.538,46.538,0,1,1,46.541-46.536A46.6,46.6,0,0,1,169.125,146.517Z" transform="translate(-93.607 -34.781)"/><g transform="translate(35.134 30.296)"><path class="e" d="M158.177,145.779a6.771,6.771,0,0,0-1.5,2.541,7.718,7.718,0,0,0-.5,3.017c.067,1.107.475,2.324.531,3.419.011.142-.022.278-.017.414a52.947,52.947,0,0,1-4.8-8.685,5.519,5.519,0,0,1,.318-1.706,18.724,18.724,0,0,1,1.447-2.368,9.6,9.6,0,0,0,.827-2.683,11.986,11.986,0,0,0,.218-3.066c-.078-.056-.162-.111-.24-.173a5.91,5.91,0,0,0-1.911,1.929,6.777,6.777,0,0,0-1.05,2.609c-.145,1.02,0,2.225-.162,3.221-.028.192-.106.359-.151.544a56.243,56.243,0,0,1-2.81-9.359,5.354,5.354,0,0,1,.7-1.842,15.53,15.53,0,0,1,1.81-1.768,7.762,7.762,0,0,0,1.251-2.25,10.114,10.114,0,0,0,.715-2.8l-.2-.223a4.963,4.963,0,0,0-2.14,1.28,5.719,5.719,0,0,0-1.452,2.127c-.318.9-.391,2.046-.726,2.912a4.589,4.589,0,0,1-.33.624,58.127,58.127,0,0,1-.849-9.6,5.014,5.014,0,0,1,1.145-1.91,13.438,13.438,0,0,1,2.006-1.144,6.286,6.286,0,0,0,1.553-1.774,8.875,8.875,0,0,0,1.128-2.473c-.05-.093-.1-.179-.151-.272a4.2,4.2,0,0,0-2.218.631,4.7,4.7,0,0,0-1.715,1.613c-.453.76-.709,1.817-1.173,2.535a3.794,3.794,0,0,1-.542.637,59.093,59.093,0,0,1,1.056-9.39c.028-.049.056-.093.084-.142a4.628,4.628,0,0,1,1.587-1.774,11.557,11.557,0,0,1,2.05-.525,4.949,4.949,0,0,0,1.737-1.286,7.845,7.845,0,0,0,1.464-2.1c-.034-.1-.061-.2-.095-.309a3.684,3.684,0,0,0-2.151.012,3.884,3.884,0,0,0-1.86,1.088c-.547.612-.972,1.558-1.525,2.1a3.34,3.34,0,0,1-.777.581,56.88,56.88,0,0,1,2.989-9.044c.022.037.05.068.073.105.106-.124.218-.241.324-.365a3.908,3.908,0,0,1,1.771-1.28,10.349,10.349,0,0,1,1.955.043,4.07,4.07,0,0,0,1.821-.8,7.05,7.05,0,0,0,1.737-1.706c-.006-.111-.017-.223-.022-.328a3.582,3.582,0,0,0-3.855.037c-.615.457-1.184,1.267-1.788,1.651a2.686,2.686,0,0,1-.922.4c.011-.068.011-.13.022-.2a53.078,53.078,0,0,1,7.765-11.727,53.312,53.312,0,0,0-7.6,10.435c.006-.111.05-.241.05-.352a15.829,15.829,0,0,0,.017-2.355,8.051,8.051,0,0,0-1.57-4.111l-.318.13a11.584,11.584,0,0,0-1.33,5.465A9.1,9.1,0,0,0,150.3,98.2a5.961,5.961,0,0,0,.905,1.947c.056.087.112.167.173.253a56.356,56.356,0,0,0-3.011,7.789c-.006-.025,0-.056-.006-.087a23.739,23.739,0,0,0-.559-2.429,9.175,9.175,0,0,0-2.48-3.962c-.095.068-.184.136-.279.2a12.73,12.73,0,0,0-.05,5.965,9.865,9.865,0,0,0,.944,2.219,6.626,6.626,0,0,0,1.358,1.83.332.332,0,0,1,.045.043,59.172,59.172,0,0,0-1.3,8.049,20.954,20.954,0,0,0-1.067-2.3,10.263,10.263,0,0,0-3.38-3.6c-.078.087-.156.173-.235.266a13.77,13.77,0,0,0,1.313,6.169,10.712,10.712,0,0,0,1.469,2.089,6.961,6.961,0,0,0,1.659,1.471,60.4,60.4,0,0,0,.346,8.036,22.748,22.748,0,0,0-1.514-1.991,11.614,11.614,0,0,0-4.24-3.023c-.061.105-.117.21-.179.315a14.418,14.418,0,0,0,2.749,6.04,11.046,11.046,0,0,0,1.983,1.824,6.952,6.952,0,0,0,1.821,1.026,58.9,58.9,0,0,0,1.955,7.721c-.631-.556-1.251-1.125-1.9-1.6a12.826,12.826,0,0,0-5.045-2.207c-.039.117-.073.235-.112.352a15.025,15.025,0,0,0,4.212,5.564,11.777,11.777,0,0,0,2.475,1.422,7.366,7.366,0,0,0,1.894.575,55.812,55.812,0,0,0,3.542,7.1c-.749-.4-1.492-.816-2.24-1.125a14.889,14.889,0,0,0-5.749-1.175c-.011.13-.022.253-.034.383a15.7,15.7,0,0,0,5.676,4.717,12.974,12.974,0,0,0,2.927.884,8.171,8.171,0,0,0,1.894.136,54.383,54.383,0,0,0,3.391,4.3l1.916-2.12a51.753,51.753,0,0,1-3.877-4.667,6.142,6.142,0,0,1-.017-1.533,19.892,19.892,0,0,1,.905-2.887,11.861,11.861,0,0,0,.251-3.035,13.815,13.815,0,0,0-.391-3.245A2.074,2.074,0,0,0,158.177,145.779Z" transform="translate(-162.216 -90.548)"/><path class="e" d="M313.8,145.8a6.771,6.771,0,0,1,1.5,2.541,7.719,7.719,0,0,1,.5,3.017c-.067,1.107-.475,2.324-.531,3.419-.011.142.022.278.017.414a52.952,52.952,0,0,0,4.8-8.686,5.521,5.521,0,0,0-.318-1.706,18.721,18.721,0,0,0-1.447-2.368,9.6,9.6,0,0,1-.827-2.683,11.984,11.984,0,0,1-.218-3.066c.078-.056.162-.111.24-.173a5.911,5.911,0,0,1,1.911,1.929,6.777,6.777,0,0,1,1.05,2.609c.145,1.02,0,2.226.162,3.221.028.192.106.359.151.544a56.247,56.247,0,0,0,2.81-9.359,5.354,5.354,0,0,0-.7-1.842,15.53,15.53,0,0,0-1.81-1.768,7.763,7.763,0,0,1-1.251-2.25,10.114,10.114,0,0,1-.715-2.8l.2-.223a4.963,4.963,0,0,1,2.14,1.28,5.72,5.72,0,0,1,1.453,2.127c.318.9.391,2.046.726,2.912a4.586,4.586,0,0,0,.33.624,58.131,58.131,0,0,0,.849-9.6,5.014,5.014,0,0,0-1.145-1.91,13.438,13.438,0,0,0-2.006-1.144,6.287,6.287,0,0,1-1.553-1.774A8.876,8.876,0,0,1,319,116.609c.05-.093.1-.179.151-.272a4.2,4.2,0,0,1,2.218.631,4.694,4.694,0,0,1,1.715,1.613c.453.76.71,1.817,1.173,2.535a3.793,3.793,0,0,0,.542.637,59.1,59.1,0,0,0-1.056-9.39c-.028-.049-.056-.093-.084-.142a4.628,4.628,0,0,0-1.587-1.774,11.556,11.556,0,0,0-2.05-.525,4.949,4.949,0,0,1-1.737-1.286,7.846,7.846,0,0,1-1.464-2.1c.034-.1.061-.2.095-.309a3.684,3.684,0,0,1,2.151.012,3.884,3.884,0,0,1,1.86,1.088c.547.612.972,1.558,1.525,2.1a3.34,3.34,0,0,0,.777.581,55.32,55.32,0,0,0-2.978-9.038c-.022.037-.05.068-.073.105-.106-.124-.218-.241-.324-.365a3.908,3.908,0,0,0-1.771-1.28,10.349,10.349,0,0,0-1.955.043,4.07,4.07,0,0,1-1.821-.8,7.05,7.05,0,0,1-1.737-1.706c.006-.111.017-.223.022-.328a3.582,3.582,0,0,1,3.855.037c.615.457,1.184,1.267,1.788,1.651a2.686,2.686,0,0,0,.922.4c-.011-.062-.017-.13-.022-.192A53.08,53.08,0,0,0,311.368,86.8a53.312,53.312,0,0,1,7.6,10.435c-.006-.111-.05-.241-.05-.352a15.83,15.83,0,0,1-.017-2.355,8.051,8.051,0,0,1,1.57-4.111l.318.13a11.585,11.585,0,0,1,1.33,5.465,9.1,9.1,0,0,1-.425,2.225,5.961,5.961,0,0,1-.905,1.947c-.056.087-.112.167-.173.253a56.359,56.359,0,0,1,3.011,7.789c.006-.025,0-.056.006-.087a20.735,20.735,0,0,1,.547-2.442,9.175,9.175,0,0,1,2.48-3.963c.095.068.19.13.285.2A12.813,12.813,0,0,1,327,107.9a9.867,9.867,0,0,1-.944,2.219,6.627,6.627,0,0,1-1.358,1.83.332.332,0,0,0-.045.043,59.176,59.176,0,0,1,1.3,8.049,20.956,20.956,0,0,1,1.067-2.3,10.263,10.263,0,0,1,3.38-3.6l.235.26a13.771,13.771,0,0,1-1.313,6.17,10.711,10.711,0,0,1-1.469,2.089,6.96,6.96,0,0,1-1.659,1.471,60.407,60.407,0,0,1-.346,8.037,22.743,22.743,0,0,1,1.514-1.991,11.614,11.614,0,0,1,4.24-3.023c.061.105.117.21.179.315a14.418,14.418,0,0,1-2.749,6.04,11.047,11.047,0,0,1-1.983,1.824,6.951,6.951,0,0,1-1.821,1.026,58.911,58.911,0,0,1-1.955,7.721c.631-.556,1.251-1.125,1.9-1.6a12.825,12.825,0,0,1,5.045-2.207c.039.117.073.235.112.352a15.026,15.026,0,0,1-4.212,5.564,11.777,11.777,0,0,1-2.475,1.422,7.366,7.366,0,0,1-1.894.575,55.818,55.818,0,0,1-3.542,7.1c.749-.4,1.492-.816,2.24-1.125a14.889,14.889,0,0,1,5.749-1.175c.011.13.022.253.034.383a15.7,15.7,0,0,1-5.676,4.717,12.973,12.973,0,0,1-2.927.884,8.171,8.171,0,0,1-1.894.136,54.375,54.375,0,0,1-3.391,4.3l-1.916-2.12a51.759,51.759,0,0,0,3.877-4.667,6.143,6.143,0,0,0,.017-1.533,19.886,19.886,0,0,0-.905-2.887,11.862,11.862,0,0,1-.251-3.035,13.815,13.815,0,0,1,.391-3.245C313.625,145.874,313.714,145.837,313.8,145.8Z" transform="translate(-228.995 -90.568)"/></g><path class="f" d="M228.72,98.464a20.2,20.2,0,0,1-6.892,9.13,35.68,35.68,0,0,1-4.892,3.184v10a36.017,36.017,0,0,0,9.717-6.237v41.22H237.59V98.464Z" transform="translate(-175.143 -60.191)"/><text class="g" transform="translate(114 95)"><tspan x="-46.016" y="0">0</tspan><tspan x="0" y="110"></tspan></text></svg>