<svg xmlns="http://www.w3.org/2000/svg" width="302" height="48" viewBox="0 0 151 24">
  <metadata><?xpacket begin="﻿" id="W5M0MpCehiHzreSzNTczkc9d"?>
<x:xmpmeta xmlns:x="adobe:ns:meta/" x:xmptk="Adobe XMP Core 5.6-c138 79.159824, 2016/09/14-01:09:01        ">
   <rdf:RDF xmlns:rdf="http://www.w3.org/1999/02/22-rdf-syntax-ns#">
      <rdf:Description rdf:about=""/>
   </rdf:RDF>
</x:xmpmeta>
                                                                                                    
                                                                                                    
                                                                                                    
                                                                                                    
                                                                                                    
                                                                                                    
                                                                                                    
                                                                                                    
                                                                                                    
                                                                                                    
                                                                                                    
                                                                                                    
                                                                                                    
                                                                                                    
                                                                                                    
                                                                                                    
                                                                                                    
                                                                                                    
                                                                                                    
                                                                                                    
                           
<?xpacket end="w"?></metadata>
<defs>
    <style>
      .cls-1 {
        fill: #fff;
        fill-rule: evenodd;
      }
    </style>
  </defs>
  <path id="logo" class="cls-1" d="M46,46.455h7.118V64h7.653V46.455h7.118V40H46v6.456Zm33.866,9.608L84.917,64h7l-5.663-8.583A7.216,7.216,0,0,0,91.04,48.2c0-5.241-3.6-8.165-8.763-8.165H71.409V64h6.276V56.063h2.181ZM77.685,45.277h3.941c2.258,0,3.253,1.139,3.253,2.886s-1.033,2.886-3.253,2.886H77.685V45.277ZM95.67,40V63.963h16.416V59.557H100.645v-5.7h10.408V49.607H100.645V44.366h11.441V40H95.67Zm33.56,18.837,7.385-11.621V64h4.018V40.036H136.96l-7.769,12.5-7.844-12.5H117.52V64h4.018V47.214l7.5,11.621h0.192Zm30.5-7.254a5.17,5.17,0,0,0,3.559-5.2c0-4.14-2.985-6.38-8-6.38H147.33V63.963h8.725c4.974,0,8.035-2.392,8.035-6.76A5.7,5.7,0,0,0,159.728,51.582Zm-9.337-1.139V42.695h4.936c3.215,0,5.013,1.215,5.013,3.836s-1.76,3.912-5.013,3.912h-4.936Zm0,2.583h5.7c3.252,0,5.013,1.595,5.013,4.14,0,2.507-1.722,4.139-5.013,4.139h-5.7V53.025ZM171.935,40h-1.99V63.963h1.99V40Zm5.51,1.177h9.146V64h1.225V41.176H197V40H177.484v1.177h-0.039Z" transform="translate(-46 -40)"/>
</svg>
