<svg id="email_1_" data-name="email(1)" xmlns="http://www.w3.org/2000/svg" width="37.977" height="37.977" viewBox="0 0 37.977 37.977">
  <g id="Group_3576" data-name="Group 3576" transform="translate(0)">
    <path id="Path_16010" data-name="Path 16010" d="M18.989,0A18.989,18.989,0,1,0,37.978,18.988,18.989,18.989,0,0,0,18.989,0Zm0,6.67,11.237,7.007H7.753Zm11.377,18.2h0A2.034,2.034,0,0,1,28.331,26.9H9.649a2.034,2.034,0,0,1-2.035-2.035V14.122a2.024,2.024,0,0,1,.032-.348l10.736,6.695c.013.008.027.014.041.021l.043.023a1.127,1.127,0,0,0,.234.091l.025.005a1.158,1.158,0,0,0,.265.034h0a1.137,1.137,0,0,0,.265-.034l.025-.005a1.138,1.138,0,0,0,.234-.091l.043-.023c.013-.008.028-.013.041-.021l10.736-6.695a2.022,2.022,0,0,1,.032.348V24.866Z" transform="translate(-0.001)" fill="#8e8e8e"/>
  </g>
</svg>
