<svg xmlns="http://www.w3.org/2000/svg" xmlns:xlink="http://www.w3.org/1999/xlink" width="141.921" height="99.404" viewBox="0 0 141.921 99.404">
  <defs>
    <clipPath id="clip-path">
      <rect id="Rectangle_1012" data-name="Rectangle 1012" width="141.921" height="99.404" fill="#fff"/>
    </clipPath>
  </defs>
  <g id="medicine" clip-path="url(#clip-path)">
    <path id="Path_15966" data-name="Path 15966" d="M88.861,74.479H20.607a5.746,5.746,0,0,1-3.964-1.567A5.227,5.227,0,0,1,15,69.13V20.516a5.227,5.227,0,0,1,1.642-3.782,5.747,5.747,0,0,1,3.964-1.567H88.861a5.747,5.747,0,0,1,3.965,1.567,5.227,5.227,0,0,1,1.642,3.782V69.13a5.227,5.227,0,0,1-1.642,3.782,5.746,5.746,0,0,1-3.964,1.567Z" transform="translate(-12.528 -12.809)" fill="#4ccfcd"/>
    <path id="Path_15967" data-name="Path 15967" d="M290.18,15.167H256.044V74.479H290.18a5.84,5.84,0,0,0,2.146-.407,5.633,5.633,0,0,0,1.819-1.159,5.341,5.341,0,0,0,1.215-1.735,5.135,5.135,0,0,0,.427-2.047V20.516a5.227,5.227,0,0,0-1.642-3.782,5.746,5.746,0,0,0-3.965-1.567Z" transform="translate(-213.847 -12.809)" fill="#4ccfcd"/>
    <path id="Path_15968" data-name="Path 15968" d="M173.041,408.728l2.688-16.332h21.9l2.412,16.33Z" transform="translate(-144.523 -330.726)" fill="#004db6"/>
    <path id="Path_15969" data-name="Path 15969" d="M256.044,408.734h13.324l-2.412-16.33H256.044Z" transform="translate(-213.847 -330.732)" fill="#0a0849"/>
    <path id="Path_15970" data-name="Path 15970" d="M76.333,64.2H8.079a8.29,8.29,0,0,1-5.71-2.26A7.541,7.541,0,0,1,0,56.488V7.874A7.541,7.541,0,0,1,2.369,2.427,8.289,8.289,0,0,1,8.079.167H76.333a8.29,8.29,0,0,1,5.71,2.26,7.541,7.541,0,0,1,2.369,5.447V56.488a7.541,7.541,0,0,1-2.369,5.447,8.29,8.29,0,0,1-5.71,2.26ZM8.079,4.884a3.216,3.216,0,0,0-2.215.877,2.926,2.926,0,0,0-.919,2.114V56.488A2.926,2.926,0,0,0,5.863,58.6a3.216,3.216,0,0,0,2.215.877H76.333a3.217,3.217,0,0,0,2.216-.877,2.926,2.926,0,0,0,.919-2.114V7.874a2.926,2.926,0,0,0-.919-2.114,3.216,3.216,0,0,0-2.215-.877Z" transform="translate(0 -0.167)" fill="#18a7f8"/>
    <path id="Path_15971" data-name="Path 15971" d="M290.18.167H256.044V4.884H290.18a3.217,3.217,0,0,1,2.215.877,2.927,2.927,0,0,1,.919,2.114V56.488A2.926,2.926,0,0,1,292.4,58.6a3.216,3.216,0,0,1-2.215.877H256.044V64.2H290.18a8.29,8.29,0,0,0,5.71-2.26,7.541,7.541,0,0,0,2.369-5.448V7.874a7.541,7.541,0,0,0-2.369-5.448,8.29,8.29,0,0,0-5.71-2.26Z" transform="translate(-213.847 -0.167)" fill="#18a7f8"/>
    <path id="Path_15972" data-name="Path 15972" d="M164.027,485.9H124.919a2.534,2.534,0,0,1-1.748-.691,2.283,2.283,0,0,1,0-3.335,2.534,2.534,0,0,1,1.748-.691h39.108a2.534,2.534,0,0,1,1.748.691,2.283,2.283,0,0,1,0,3.335A2.534,2.534,0,0,1,164.027,485.9Z" transform="translate(-102.267 -405.557)" fill="#18a7f8"/>
    <path id="Path_15973" data-name="Path 15973" d="M275.609,481.187H256.047V485.9h19.562a2.534,2.534,0,0,0,1.748-.691,2.283,2.283,0,0,0,0-3.335A2.534,2.534,0,0,0,275.609,481.187Z" transform="translate(-213.85 -405.557)" fill="#18a7f8"/>
    <path id="Path_15974" data-name="Path 15974" d="M205.379,292.884H213.8l1.714-4.224-1.714-4.224h-8.424Z" transform="translate(-171.532 -239.741)" fill="#b16e59"/>
    <path id="Path_15975" data-name="Path 15975" d="M256.493,284.436h8.442v8.448h-8.442Z" transform="translate(-214.222 -239.741)" fill="#a55c4f"/>
    <path id="Path_15976" data-name="Path 15976" d="M327.818,179.465l-2.431-.02a1.316,1.316,0,0,1-.905-.367,1.2,1.2,0,0,1-.368-.871c.006-.677,0-5.529,0-6.206a1.2,1.2,0,0,1,.377-.867,1.317,1.317,0,0,1,.909-.359h2.419a4.669,4.669,0,0,1,3.221,1.273,4.206,4.206,0,0,1,0,6.145,4.668,4.668,0,0,1-3.221,1.273Z" transform="translate(-270.699 -143.95)" fill="#a55c4f"/>
    <path id="Path_15977" data-name="Path 15977" d="M145.183,179.465h-2.521a4.666,4.666,0,0,1-3.2-1.282,4.2,4.2,0,0,1,0-6.127,4.666,4.666,0,0,1,3.2-1.282l2.431.02a1.317,1.317,0,0,1,.905.367,1.2,1.2,0,0,1,.368.87c-.006.677.1,5.529.1,6.206a1.2,1.2,0,0,1-.377.867,1.317,1.317,0,0,1-.909.359Z" transform="translate(-115.369 -143.95)" fill="#b16e59"/>
    <path id="Path_15978" data-name="Path 15978" d="M175.33,143.711a1.318,1.318,0,0,0-.909.359,1.2,1.2,0,0,0-.377.867c0,.362,0,8.006,0,8.223q0,.725-.011,1.39a31.173,31.173,0,0,0,.257,5.734,14.127,14.127,0,0,0,4.365,7.824c.172.157.358.318.536.466a72.8,72.8,0,0,0,8.424.584l1.714-14.575-1.714-10.768C181.6,143.763,175.683,143.711,175.33,143.711Z" transform="translate(-145.342 -121.142)" fill="#c18678"/>
    <path id="Path_15979" data-name="Path 15979" d="M270.038,153.46c0-.11.012-2.706.022-4.792.009-1.794.014-2.9.014-2.956a1.2,1.2,0,0,0-.377-.867,1.318,1.318,0,0,0-.909-.359h0c-.356,0-6.37-.053-12.3-.106v25.343c1.411-.34,5.467-.313,8.44-.6.167-.139.345-.293.507-.442a14.01,14.01,0,0,0,4.34-7.835l.005-.033a30.526,30.526,0,0,0,.274-5.614C270.049,154.655,270.041,154.1,270.038,153.46Z" transform="translate(-214.221 -121.705)" fill="#b16e59"/>
    <path id="Path_15980" data-name="Path 15980" d="M181.259,174.382l-7.1-9.59v4.252L179.309,176v10.343a13.246,13.246,0,0,0,8.424,3.037l1.649-7.865-1.65-7.134Z" transform="translate(-145.46 -138.908)" fill="#9ddff6"/>
    <path id="Path_15981" data-name="Path 15981" d="M262.982,174.555l-6.489,0v15a12.926,12.926,0,0,0,8.44-3.056V176.171l5.113-6.9c.006-1.245.014-2.94.02-4.276Z" transform="translate(-214.222 -139.081)" fill="#18a7f8"/>
    <path id="Path_15982" data-name="Path 15982" d="M265.443,73.12c-.843-.124-6.777-.984-8.941-.984H256.5V86.826a73.176,73.176,0,0,0,12.526-1.085,1.3,1.3,0,0,0,.756-.421,1.192,1.192,0,0,0,.3-.786V77.647a4.424,4.424,0,0,0-1.352-3.163,4.859,4.859,0,0,0-3.282-1.364Z" transform="translate(-214.225 -60.821)" fill="#e6f7ff"/>
    <path id="Path_15983" data-name="Path 15983" d="M178.792,73.121a4.859,4.859,0,0,0-3.283,1.364,4.425,4.425,0,0,0-1.352,3.163v6.888a1.193,1.193,0,0,0,.3.786,1.3,1.3,0,0,0,.756.421,72.764,72.764,0,0,0,12.509,1.085h.005l1.106-7.345-1.105-7.345c-2.1,0-8.029.851-8.935.984Z" transform="translate(-145.456 -60.821)" fill="#e6f7ff"/>
    <path id="Path_15984" data-name="Path 15984" d="M248.732,72.195V86.813c.4.007.873.012,1.279.012l.792-7.344-.792-7.345c-.333,0-.812.024-1.279.059Z" transform="translate(-207.74 -60.82)" fill="#e6f7ff"/>
    <path id="Path_15985" data-name="Path 15985" d="M257.76,86.813V72.2c-.5-.037-.941-.059-1.285-.059h-.006V86.826h0q.648,0,1.3-.012Z" transform="translate(-214.197 -60.821)" fill="#e6f7ff"/>
    <path id="Path_15986" data-name="Path 15986" d="M277.569,187.3a1.317,1.317,0,0,1-.909-.359,1.2,1.2,0,0,1-.377-.867V184.79a1.2,1.2,0,0,1,.377-.867,1.329,1.329,0,0,1,1.818,0,1.2,1.2,0,0,1,.377.867v1.281a1.2,1.2,0,0,1-.377.867,1.317,1.317,0,0,1-.909.359Z" transform="translate(-230.752 -154.729)" fill="#38336b"/>
    <path id="Path_15987" data-name="Path 15987" d="M222.235,187.3a1.317,1.317,0,0,1-.909-.359,1.2,1.2,0,0,1-.377-.867V184.79a1.2,1.2,0,0,1,.377-.867,1.329,1.329,0,0,1,1.818,0,1.2,1.2,0,0,1,.376.867v1.281a1.2,1.2,0,0,1-.376.867,1.318,1.318,0,0,1-.909.359Z" transform="translate(-184.537 -154.729)" fill="#524798"/>
    <path id="Path_15988" data-name="Path 15988" d="M613.11,211.317H578.088a5.114,5.114,0,0,1-3.528-1.394,4.651,4.651,0,0,1-1.461-3.365V140.318a4.651,4.651,0,0,1,1.461-3.365,5.113,5.113,0,0,1,3.528-1.394H613.11a5.113,5.113,0,0,1,3.528,1.394,4.651,4.651,0,0,1,1.461,3.365v66.239a4.572,4.572,0,0,1-.38,1.821,4.75,4.75,0,0,1-1.081,1.544,5.011,5.011,0,0,1-1.618,1.032,5.2,5.2,0,0,1-1.909.362Z" transform="translate(-478.651 -114.271)" fill="#c3e9fb"/>
    <path id="Path_15989" data-name="Path 15989" d="M600.582,201.034H565.56a7.656,7.656,0,0,1-5.273-2.087,6.965,6.965,0,0,1-2.188-5.031V127.677a6.965,6.965,0,0,1,2.188-5.031,7.655,7.655,0,0,1,5.273-2.087h35.023a7.655,7.655,0,0,1,5.273,2.087,6.964,6.964,0,0,1,2.188,5.031v66.239a6.964,6.964,0,0,1-2.188,5.031,7.656,7.656,0,0,1-5.273,2.087ZM565.56,125.276a2.582,2.582,0,0,0-1.779.7,2.35,2.35,0,0,0-.738,1.7v66.239a2.35,2.35,0,0,0,.738,1.7,2.582,2.582,0,0,0,1.779.7h35.023a2.583,2.583,0,0,0,1.779-.7,2.349,2.349,0,0,0,.738-1.7V127.677a2.349,2.349,0,0,0-.738-1.7,2.582,2.582,0,0,0-1.779-.7Z" transform="translate(-466.123 -101.63)" fill="#18a7f8"/>
    <path id="Path_15990" data-name="Path 15990" d="M697.481,547.144a2.377,2.377,0,1,0-2.488-2.374A2.433,2.433,0,0,0,697.481,547.144Z" transform="translate(-580.456 -457.142)" fill="#18a7f8"/>
    <path id="Path_15991" data-name="Path 15991" d="M679.874,184.471h-8.3a2.575,2.575,0,0,1-.946-.18,2.486,2.486,0,0,1-.8-.511,2.356,2.356,0,0,1-.536-.765,2.258,2.258,0,0,1,0-1.8,2.357,2.357,0,0,1,.536-.765,2.483,2.483,0,0,1,.8-.511,2.575,2.575,0,0,1,.946-.18h8.3a2.534,2.534,0,0,1,1.748.691,2.283,2.283,0,0,1,0,3.335,2.534,2.534,0,0,1-1.748.691Z" transform="translate(-558.83 -151.518)" fill="#18a7f8"/>
    <path id="Path_15992" data-name="Path 15992" d="M727.526,120.559H710.092v4.717h17.434a2.582,2.582,0,0,1,1.779.7,2.349,2.349,0,0,1,.738,1.7v66.239a2.349,2.349,0,0,1-.738,1.7,2.583,2.583,0,0,1-1.779.7H710.092v4.717h17.434a7.656,7.656,0,0,0,5.273-2.087,6.964,6.964,0,0,0,2.188-5.031V127.677a6.964,6.964,0,0,0-2.188-5.031,7.655,7.655,0,0,0-5.273-2.087Z" transform="translate(-593.067 -101.63)" fill="#18a7f8"/>
    <path id="Path_15993" data-name="Path 15993" d="M714.11,179.754h-4.018v4.717h4.018a2.534,2.534,0,0,0,1.748-.691,2.283,2.283,0,0,0,0-3.335,2.534,2.534,0,0,0-1.748-.691Z" transform="translate(-593.067 -151.518)" fill="#18a7f8"/>
    <path id="Path_15994" data-name="Path 15994" d="M710.092,542.4v4.757a2.555,2.555,0,0,0,1.763-.7,2.3,2.3,0,0,0,0-3.364,2.555,2.555,0,0,0-1.763-.7Z" transform="translate(-593.067 -457.141)" fill="#18a7f8"/>
    <path id="Path_15995" data-name="Path 15995" d="M665.957,278.386a7.863,7.863,0,1,0-8.233-7.854A8.05,8.05,0,0,0,665.957,278.386Z" transform="translate(-549.329 -221.403)" fill="#c18678"/>
    <path id="Path_15996" data-name="Path 15996" d="M650.586,406.993H626.354a1.6,1.6,0,0,1-.589-.112,1.549,1.549,0,0,1-.5-.319,1.468,1.468,0,0,1-.334-.477,1.412,1.412,0,0,1-.117-.562v-3.536a8,8,0,0,1,2.512-5.787,8.792,8.792,0,0,1,6.066-2.4h10.156a8.792,8.792,0,0,1,6.066,2.4,8,8,0,0,1,2.512,5.787v3.536a1.436,1.436,0,0,1-.451,1.039,1.578,1.578,0,0,1-1.089.43Z" transform="translate(-521.843 -331.912)" fill="#18a7f8"/>
    <path id="Path_15998" data-name="Path 15998" d="M142.725,121.011a.425.425,0,0,0-.425.425v1.475h-1.475a.425.425,0,0,0-.425.425v1.9a.425.425,0,0,0,.425.425H142.3v1.475a.425.425,0,0,0,.425.425h.95l.283-3.369-.283-3.179Z" transform="translate(-101.417 -105.007)" fill="#ff6c6c"/>
    <path id="Path_15999" data-name="Path 15999" d="M258.849,122.91h-1.475v-1.475a.425.425,0,0,0-.425-.425H256v6.548h.95a.425.425,0,0,0,.425-.425V125.66h1.475a.425.425,0,0,0,.425-.425v-1.9A.425.425,0,0,0,258.849,122.91Z" transform="translate(-213.742 -105.007)" fill="#e63950"/>
  </g>
</svg>
