<svg xmlns="http://www.w3.org/2000/svg" width="22.905" height="24" viewBox="0 0 22.905 24"><defs><style>.a{fill:#f6583e;}</style></defs><g transform="translate(-0.548)"><path class="a" d="M13.663,24H10.337a1.715,1.715,0,0,1-1.681-1.349l-.422-1.873A9.186,9.186,0,0,1,6.28,19.644l-1.822.575a1.737,1.737,0,0,1-2.024-.788L.776,16.563A1.748,1.748,0,0,1,1.1,14.428l1.412-1.3a9.931,9.931,0,0,1,0-2.26L1.1,9.578A1.746,1.746,0,0,1,.771,7.447L2.439,4.562a1.731,1.731,0,0,1,2.017-.781l1.824.575A9.211,9.211,0,0,1,8.234,3.222l.422-1.874A1.715,1.715,0,0,1,10.337,0h3.326a1.715,1.715,0,0,1,1.681,1.349l.422,1.873A9.186,9.186,0,0,1,17.72,4.356l1.822-.575a1.735,1.735,0,0,1,2.024.788l1.658,2.868A1.748,1.748,0,0,1,22.9,9.572l-1.412,1.3a10.008,10.008,0,0,1,0,2.26L22.9,14.422l.006.006a1.743,1.743,0,0,1,.327,2.125l-1.668,2.885a1.732,1.732,0,0,1-2.017.781l-1.825-.576a9.211,9.211,0,0,1-1.954,1.134l-.422,1.874A1.713,1.713,0,0,1,13.663,24ZM6.434,18.059a.755.755,0,0,1,.478.171A7.7,7.7,0,0,0,9.14,19.523a.752.752,0,0,1,.472.539l.509,2.26a.227.227,0,0,0,.218.178h3.326a.228.228,0,0,0,.218-.177l.509-2.26a.749.749,0,0,1,.472-.539,7.717,7.717,0,0,0,2.228-1.293.747.747,0,0,1,.7-.137l2.2.695a.223.223,0,0,0,.265-.093l1.668-2.884a.243.243,0,0,0-.049-.289l-1.688-1.552a.746.746,0,0,1-.233-.664,8.848,8.848,0,0,0,.1-1.307,8.724,8.724,0,0,0-.1-1.307.751.751,0,0,1,.233-.664l1.692-1.556a.243.243,0,0,0,.04-.294L20.266,5.312a.228.228,0,0,0-.272-.1l-2.2.694a.747.747,0,0,1-.7-.137,7.7,7.7,0,0,0-2.228-1.293.752.752,0,0,1-.472-.539l-.509-2.26a.234.234,0,0,0-.221-.177H10.337a.228.228,0,0,0-.218.177L9.61,3.938a.75.75,0,0,1-.471.539A7.7,7.7,0,0,0,6.911,5.77a.75.75,0,0,1-.7.137l-2.2-.7a.225.225,0,0,0-.265.093L2.074,8.188a.243.243,0,0,0,.051.291l1.687,1.55a.746.746,0,0,1,.233.664A8.848,8.848,0,0,0,3.945,12a8.724,8.724,0,0,0,.1,1.307.751.751,0,0,1-.233.664L2.12,15.527a.243.243,0,0,0-.04.294l1.658,2.867a.225.225,0,0,0,.272.1l2.2-.694a.73.73,0,0,1,.226-.035Z"/><path class="a" d="M11.251,16a.749.749,0,0,1-.732-.918l1.5-6.5a.75.75,0,1,1,1.461.336l-1.5,6.5A.749.749,0,0,1,11.251,16Z"/><path class="a" d="M15.25,15a.75.75,0,0,1-.5-1.308L16.629,12l-1.881-1.692a.751.751,0,1,1,1-1.116l2.5,2.25a.752.752,0,0,1,0,1.116l-2.5,2.25a.749.749,0,0,1-.5.192Z"/><path class="a" d="M8.75,15a.749.749,0,0,1-.5-.192l-2.5-2.25a.752.752,0,0,1,0-1.116l2.5-2.25a.751.751,0,0,1,1,1.116L7.371,12l1.881,1.692A.75.75,0,0,1,8.75,15Z"/></g></svg>