<svg xmlns="http://www.w3.org/2000/svg" width="19.5" height="24" viewBox="0 0 19.5 24"><defs><style>.a{fill:#f6583e;}</style></defs><g transform="translate(-1)"><path class="a" d="M11.25,4H6.75A1.752,1.752,0,0,1,5,2.25a.751.751,0,0,0-.75-.75h-.5a.75.75,0,0,1,0-1.5h.5A2.253,2.253,0,0,1,6.5,2.25a.25.25,0,0,0,.25.25h4.5a.25.25,0,0,0,.25-.25A2.253,2.253,0,0,1,13.75,0h.5a.75.75,0,0,1,0,1.5h-.5a.751.751,0,0,0-.75.75A1.752,1.752,0,0,1,11.25,4Z"/><path class="a" d="M14.25,24H3.75A2.752,2.752,0,0,1,1,21.25V2.75A2.752,2.752,0,0,1,3.75,0h10.5A2.752,2.752,0,0,1,17,2.75V7.77a.75.75,0,1,1-1.5,0V2.75A1.252,1.252,0,0,0,14.25,1.5H3.75A1.252,1.252,0,0,0,2.5,2.75v18.5A1.252,1.252,0,0,0,3.75,22.5h10.5a1.252,1.252,0,0,0,1.25-1.25.755.755,0,0,1,.75-.755.746.746,0,0,1,.75.745A2.754,2.754,0,0,1,14.25,24Z"/><path class="a" d="M15.25,14.5a.751.751,0,0,1-.569-1.239L15.762,12,14.68,10.738a.75.75,0,0,1,1.139-.977l1.5,1.75a.75.75,0,0,1,0,.977l-1.5,1.75a.747.747,0,0,1-.569.262Z" transform="translate(3 3)"/><path class="a" d="M8.75,14.5a.751.751,0,0,1-.57-.262l-1.5-1.75a.75.75,0,0,1,0-.977l1.5-1.75a.751.751,0,0,1,1.139.978L8.238,12,9.32,13.262A.749.749,0,0,1,8.75,14.5Z" transform="translate(3 3)"/><path class="a" d="M11.25,16a.75.75,0,0,1-.732-.918l1.5-6.5a.75.75,0,1,1,1.462.336l-1.5,6.5A.748.748,0,0,1,11.25,16Z" transform="translate(3 3)"/></g></svg>