<svg xmlns="http://www.w3.org/2000/svg" width="24.3" height="24.3" viewBox="0 0 24.3 24.3">
  <g id="Video_Chat" data-name="Video Chat" transform="translate(-0.409 -0.409)" opacity="0.5">
    <g id="Group_13540" data-name="Group 13540" transform="translate(0.559 0.559)">
      <path id="Path_43776" data-name="Path 43776" d="M0,22.031V1.969c.078-.026.06-.1.075-.157A2.394,2.394,0,0,1,2.455,0Q12,0,21.553,0a2.483,2.483,0,0,1,.625.075A2.4,2.4,0,0,1,24,2.516q0,9.479,0,18.957c0,.07,0,.141,0,.211A2.423,2.423,0,0,1,22.3,23.9c-.121.037-.258.02-.366.1H1.969c-.018-.073-.088-.055-.133-.068A2.4,2.4,0,0,1,.068,22.165c-.013-.046.006-.116-.068-.134M12,5.6q-5.484,0-10.967,0c-.2,0-.241.051-.241.244Q.8,13.665.8,21.492A1.607,1.607,0,0,0,2.518,23.2H21.477A1.611,1.611,0,0,0,23.2,21.474q0-7.815.006-15.63c0-.219-.067-.249-.261-.248Q17.474,5.6,12,5.6m0-.8q5.473,0,10.945.006c.22,0,.265-.063.261-.269-.013-.687,0-1.375-.005-2.062A1.6,1.6,0,0,0,21.539.8Q12,.8,2.461.8A1.6,1.6,0,0,0,.8,2.472c0,.687.008,1.375-.005,2.062,0,.207.042.269.261.269Q6.528,4.791,12,4.8" fill="#f6583e" stroke="#f6583e" stroke-width="0.3"/>
      <path id="Path_43778" data-name="Path 43778" d="M47.861,108.477c.781,0,1.561,0,2.342,0a4.392,4.392,0,0,1,4.441,3.489,8.575,8.575,0,0,1,.066,1.687c0,.148.017.219.2.242a1.1,1.1,0,0,1,.875.614.215.215,0,0,0,.232.135,2.248,2.248,0,0,1,.612.032,1.151,1.151,0,0,1,.906,1.083q.023,1.184,0,2.369a1.177,1.177,0,0,1-1.221,1.132,1.309,1.309,0,0,1-.189,0,.333.333,0,0,0-.384.2,1.125,1.125,0,0,1-1.006.571c-.394.01-.788,0-1.183,0a.79.79,0,0,1-.863-.838c0-.76,0-1.519,0-2.279,0-.722,0-1.444,0-2.166a.79.79,0,0,1,.92-.869c.252.007.309-.065.3-.293a7.309,7.309,0,0,0-.143-1.814,3.6,3.6,0,0,0-3.4-2.517q-2.519-.028-5.038,0a3.544,3.544,0,0,0-3.537,3.4c0,.346.009.692-.006,1.038-.007.159.056.187.2.18a1.212,1.212,0,0,1,.49.047.762.762,0,0,1,.526.755c0,1.519.007,3.038,0,4.557a.781.781,0,0,1-.858.8q-.568,0-1.135,0a1.184,1.184,0,0,1-1.093-.628.231.231,0,0,0-.249-.143,2.444,2.444,0,0,1-.5-.015,1.157,1.157,0,0,1-1.013-1.112c-.014-.789-.016-1.579,0-2.369a1.162,1.162,0,0,1,1.16-1.117.4.4,0,0,1,.071,0,.546.546,0,0,0,.637-.3.969.969,0,0,1,.8-.457c.14-.012.158-.07.16-.185a9.6,9.6,0,0,1,.087-1.843,4.4,4.4,0,0,1,4.228-3.377c.851-.014,1.7,0,2.555,0Zm-5.66,8.48c0-.706-.005-1.413,0-2.119,0-.16-.048-.205-.212-.2-.315.012-.63,0-.945,0s-.463.135-.464.421q-.008,1.883,0,3.765c0,.286.16.426.458.43.323,0,.646-.008.969,0,.159.006.2-.043.195-.188-.007-.706,0-1.413,0-2.119m11.3-.022c0,.714,0,1.428,0,2.142,0,.146.038.193.2.187.315-.012.63,0,.945,0s.479-.136.48-.431q.008-1.882,0-3.765c0-.285-.157-.416-.465-.42s-.631.008-.945,0c-.165-.006-.213.042-.211.2.009.7,0,1.4,0,2.1m-13.728.031c0-.466,0-.932,0-1.4,0-.057.039-.13-.075-.157-.452-.1-.73.094-.73.533q0,.981,0,1.961c0,.484.121.589.63.59.15,0,.183-.041.181-.177-.009-.451,0-.9,0-1.353m16.156-.031c0,.466,0,.932,0,1.4,0,.056-.041.131.071.16.438.111.733-.1.734-.534q0-.981,0-1.961c0-.489-.112-.588-.627-.588-.144,0-.187.032-.184.174.01.451,0,.9,0,1.352" transform="translate(-35.851 -101.426)" fill="#f6583e" stroke="#f6583e" stroke-width="0.3"/>
      <path id="Path_43779" data-name="Path 43779" d="M131.6,186.517a3.851,3.851,0,1,1,3.87-3.814,3.849,3.849,0,0,1-3.87,3.814m.026-.772a3.08,3.08,0,1,0-3.078-3.081,3.076,3.076,0,0,0,3.078,3.081" transform="translate(-119.627 -167.404)" fill="#f6583e" stroke="#f6583e" stroke-width="0.3"/>
      <path id="Path_43780" data-name="Path 43780" d="M117.245,326.8q-2.131,0-4.262,0c-.125,0-.22,0-.265.155a.324.324,0,0,1-.354.221.315.315,0,0,1-.328-.226c-.037-.154-.126-.15-.243-.15-.925,0-1.849,0-2.774,0a.467.467,0,0,1-.39-.134.355.355,0,0,1-.071-.4.359.359,0,0,1,.349-.238c.353,0,.707,0,1.06,0,.616,0,1.233,0,1.849,0,.1,0,.173,0,.206-.133a.342.342,0,0,1,.358-.256.329.329,0,0,1,.344.241c.037.156.13.148.246.148q4.205,0,8.411,0c.06,0,.12,0,.18,0,.268.006.44.152.444.375s-.176.391-.454.394c-.436,0-.872,0-1.308,0h-3" transform="translate(-101.084 -305.108)" fill="#f6583e" stroke="#f6583e" stroke-width="0.3"/>
      <path id="Path_43781" data-name="Path 43781" d="M77.157,326.41a4.141,4.141,0,0,1,0,.426.352.352,0,0,1-.361.329.342.342,0,0,1-.382-.3,3.539,3.539,0,0,1,0-.917.351.351,0,0,1,.38-.312.375.375,0,0,1,.369.352.336.336,0,0,1,0,.045c0,.127,0,.254,0,.382h-.007" transform="translate(-71.59 -305.097)" fill="#f6583e" stroke="#f6583e" stroke-width="0.3"/>
      <path id="Path_43782" data-name="Path 43782" d="M51.6,326.377c0,.135.008.27,0,.4a.378.378,0,0,1-.749.044,3.772,3.772,0,0,1,0-.917.37.37,0,0,1,.405-.311.379.379,0,0,1,.346.376c.007.134,0,.269,0,.4h0" transform="translate(-47.761 -305.063)" fill="#f6583e" stroke="#f6583e" stroke-width="0.3"/>
      <path id="Path_43783" data-name="Path 43783" d="M258.438,27.785c-.616,0-1.232,0-1.848,0a1.156,1.156,0,1,1,0-2.308c1.255,0,2.51,0,3.764,0a1.155,1.155,0,0,1,.313,2.273,1.414,1.414,0,0,1-.38.035h-1.848m0-.77c.623,0,1.246,0,1.869,0a.394.394,0,0,0,.415-.241c.117-.281-.084-.528-.437-.529q-1.835,0-3.671,0c-.3,0-.48.148-.481.387s.176.381.48.382c.608,0,1.216,0,1.824,0" transform="translate(-239.069 -23.938)" fill="#f6583e" stroke="#f6583e" stroke-width="0.3"/>
      <path id="Path_43784" data-name="Path 43784" d="M77.761,27.819a1.154,1.154,0,1,1,1.147-1.144,1.154,1.154,0,0,1-1.147,1.144m-.019-1.537a.388.388,0,0,0-.372.4.382.382,0,0,0,.764-.018.389.389,0,0,0-.391-.382" transform="translate(-71.777 -23.973)" fill="#f6583e" stroke="#f6583e" stroke-width="0.3"/>
      <path id="Path_43785" data-name="Path 43785" d="M27.816,26.663a1.142,1.142,0,0,1-1.155,1.152,1.154,1.154,0,0,1-1.152-1.139,1.167,1.167,0,0,1,1.15-1.169,1.153,1.153,0,0,1,1.158,1.156m-1.14-.385a.4.4,0,0,0-.4.38.386.386,0,0,0,.364.385.371.371,0,0,0,.4-.363.384.384,0,0,0-.368-.4" transform="translate(-23.971 -23.969)" fill="#f6583e" stroke="#f6583e" stroke-width="0.3"/>
      <path id="Path_43786" data-name="Path 43786" d="M128.94,27.814a1.141,1.141,0,0,1-1.153-1.154,1.153,1.153,0,0,1,1.159-1.154,1.167,1.167,0,0,1,1.148,1.149,1.153,1.153,0,0,1-1.154,1.16m.384-1.149a.4.4,0,0,0-.39-.389.385.385,0,0,0-.377.373.37.37,0,0,0,.372.394.385.385,0,0,0,.395-.378" transform="translate(-119.749 -23.969)" fill="#f6583e" stroke="#f6583e" stroke-width="0.3"/>
      <path id="Path_43788" data-name="Path 43788" d="M166.035,212.682c0-.33-.006-.661,0-.991a.916.916,0,0,1,1.382-.8q.81.462,1.6.957a.943.943,0,0,1,.014,1.638q-.784.506-1.589.978a.917.917,0,0,1-1.409-.8c-.006-.33,0-.661,0-.991m.768,0c0,.308,0,.616,0,.924q0,.347.292.173.74-.449,1.476-.905c.2-.126.2-.268,0-.39q-.74-.45-1.485-.89c-.184-.108-.283-.051-.286.163-.005.308,0,.616,0,.924" transform="translate(-155.564 -197.464)" fill="#f6583e" stroke="#f6583e" stroke-width="0.3"/>
    </g>
  </g>
</svg>
