<svg xmlns="http://www.w3.org/2000/svg" width="25.4" height="25.099" viewBox="0 0 25.4 25.099">
  <g id="WebRTC" transform="translate(-0.894 -0.859)" opacity="0.5">
    <path id="Path_43773" data-name="Path 43773" d="M8.066,5.6q-.184-.011-.372-.012a6.233,6.233,0,0,0-6.1,6.357,6.456,6.456,0,0,0,2.348,5.014A6.592,6.592,0,0,0,3.653,18.9a6.233,6.233,0,0,0,6.1,6.357,5.925,5.925,0,0,0,3.991-1.548,5.926,5.926,0,0,0,3.991,1.548,6.233,6.233,0,0,0,6.1-6.357,6.582,6.582,0,0,0-.355-2.138,6.469,6.469,0,0,0,2.114-4.812,6.233,6.233,0,0,0-6.1-6.357h-.065A6.015,6.015,0,0,0,8.066,5.6Z" transform="translate(0 0)" fill="none" stroke="#f6583e" stroke-width="1.4"/>
    <g id="Group_13537" data-name="Group 13537" transform="translate(7.948 8.635)">
      <path id="Path_43775" data-name="Path 43775" d="M0,8.495V1.074c.038-.008.03-.044.036-.067A1.3,1.3,0,0,1,1.007.036C1.03.03,1.066.038,1.074,0H11.1c.007.008.014.021.022.022a1.3,1.3,0,0,1,1.1,1.323q0,3.452,0,6.9a1.392,1.392,0,0,1-.067.445,1.3,1.3,0,0,1-1.291.9q-2.3,0-4.6,0a.287.287,0,0,0-.213.078c-.343.314-.69.624-1.036.935-.541.487-1.293.973-1.833,1.46a.451.451,0,0,1-.434.134c-.247-.063-.358-.259-.324-.567.072-.643.351-1.287.429-1.93.012-.1-.011-.111-.1-.11-.5,0-.994.007-1.491,0a1.3,1.3,0,0,1-1.2-.923A.468.468,0,0,0,0,8.495" transform="translate(0 0)" fill="none" stroke="#f6583e" stroke-linecap="round" stroke-linejoin="bevel" stroke-width="1.4"/>
    </g>
  </g>
</svg>
