<svg xmlns="http://www.w3.org/2000/svg" xmlns:xlink="http://www.w3.org/1999/xlink" width="298.198" height="232.079" viewBox="0 0 298.198 232.079">
  <defs>
    <linearGradient id="linear-gradient" y1="0.5" x2="1" y2="0.5" gradientUnits="objectBoundingBox">
      <stop offset="0" stop-color="#86b8e0"/>
      <stop offset="0.116" stop-color="#98c4e7"/>
      <stop offset="0.325" stop-color="#b2d5f1"/>
      <stop offset="0.54" stop-color="#c5e2f9"/>
      <stop offset="0.761" stop-color="#d0e9fd"/>
      <stop offset="1" stop-color="#d4ecff"/>
    </linearGradient>
    <radialGradient id="radial-gradient" cx="0.035" cy="0.308" r="1.288" gradientTransform="translate(0.212) scale(0.577 1)" gradientUnits="objectBoundingBox">
      <stop offset="0" stop-color="#211260"/>
      <stop offset="0.179" stop-color="#221263"/>
      <stop offset="0.346" stop-color="#28156e"/>
      <stop offset="0.508" stop-color="#321a81"/>
      <stop offset="0.666" stop-color="#40219c"/>
      <stop offset="0.822" stop-color="#522bbe"/>
      <stop offset="0.975" stop-color="#6835e7"/>
      <stop offset="1" stop-color="#6c38ef"/>
    </radialGradient>
    <linearGradient id="linear-gradient-2" x1="0.274" y1="0.9" x2="0.886" gradientUnits="objectBoundingBox">
      <stop offset="0" stop-color="#3da140"/>
      <stop offset="1" stop-color="#56c17d"/>
    </linearGradient>
  </defs>
  <g id="Mobile_services_1.3" transform="translate(-12.5 176.252)">
    <g id="PODLOJKA" transform="translate(8.062 113.863)">
      <g id="Blue" transform="translate(-294.633 -493.959)">
        <g id="Сгруппировать_5609" data-name="Сгруппировать 5609" transform="translate(299.071 252.093)">
          <g id="Сгруппировать_5608" data-name="Сгруппировать 5608">
            <path id="Контур_22754" data-name="Контур 22754" d="M537.257,304.827,441.107,360.7c-20.483,11.906-53.795,11.906-74.414,0L269.915,304.83c-10.375-5.992-15.556-13.853-15.533-21.7l-.031,11.119c-.022,7.85,5.158,15.711,15.533,21.7l96.778,55.875c20.617,11.9,53.931,11.9,74.414,0l96.147-55.878c10.178-5.914,15.27-13.65,15.292-21.4l.033-11.12C552.527,291.174,547.432,298.913,537.257,304.827Z" transform="translate(-254.351 -196.922)" fill="#5044ff"/>
            <g id="Сгруппировать_5607" data-name="Сгруппировать 5607" transform="translate(0.03)">
              <g id="Сгруппировать_5606" data-name="Сгруппировать 5606">
                <path id="Контур_22755" data-name="Контур 22755" d="M536.993,316.9c20.619,11.9,20.728,31.2.244,43.1l-96.15,55.875c-20.483,11.906-53.795,11.906-74.414,0L269.9,360c-20.617-11.906-20.725-31.2-.242-43.1L365.8,261.02c20.483-11.9,53.795-11.9,74.411,0Z" transform="translate(-254.362 -247.093)" fill="#f6f5ff"/>
              </g>
            </g>
          </g>
        </g>
      </g>
    </g>
    <g id="Сгруппировать_5629" data-name="Сгруппировать 5629" transform="translate(-80.219 -219.906)">
      <g id="Сгруппировать_5623" data-name="Сгруппировать 5623" transform="translate(172.099 106.097)" opacity="0.4">
        <path id="Контур_22758" data-name="Контур 22758" d="M524.865,132.945,508.9,123.728l15.964-9.216,15.964,9.217Zm-14.834-9.217,14.834,8.564,14.833-8.564-14.834-8.564Z" transform="translate(-354.913 -114.51)" fill="#fff"/>
        <path id="Контур_22759" data-name="Контур 22759" d="M462.665,132.943,446.7,123.727l15.964-9.217,15.964,9.217Zm-14.834-9.217,14.834,8.564,14.833-8.564-14.834-8.564Z" transform="translate(-323.51 -114.509)" fill="#fff"/>
        <path id="Контур_22760" data-name="Контур 22760" d="M493.765,150.9,477.8,141.683l15.964-9.217,15.964,9.217Zm-14.834-9.217,14.834,8.564,14.833-8.564-14.834-8.564Z" transform="translate(-339.212 -123.575)" fill="#fff"/>
        <path id="Контур_22761" data-name="Контур 22761" d="M524.866,168.855,508.9,159.638l15.964-9.216,15.964,9.217Zm-14.834-9.217,14.834,8.564,14.833-8.564-14.834-8.564Z" transform="translate(-354.914 -132.64)" fill="#fff"/>
        <path id="Контур_22762" data-name="Контур 22762" d="M400.464,132.943,384.5,123.727l15.964-9.217,15.965,9.217Zm-14.834-9.217,14.834,8.564,14.833-8.564-14.834-8.564Z" transform="translate(-292.108 -114.509)" fill="#fff"/>
        <path id="Контур_22763" data-name="Контур 22763" d="M431.565,150.9,415.6,141.683l15.964-9.217,15.964,9.217Zm-14.834-9.217,14.834,8.564,14.833-8.564-14.834-8.564Z" transform="translate(-307.809 -123.575)" fill="#fff"/>
        <path id="Контур_22764" data-name="Контур 22764" d="M462.666,168.855,446.7,159.638l15.964-9.217,15.964,9.217Zm-14.834-9.217,14.834,8.564,14.833-8.564-14.834-8.564Z" transform="translate(-323.511 -132.64)" fill="#fff"/>
        <path id="Контур_22765" data-name="Контур 22765" d="M493.766,186.81,477.8,177.594l15.964-9.217,15.964,9.217Zm-14.834-9.216,14.834,8.564,14.833-8.564-14.834-8.564Z" transform="translate(-339.212 -141.705)" fill="#fff"/>
        <path id="Контур_22766" data-name="Контур 22766" d="M524.867,204.767,508.9,195.549l15.964-9.217,15.964,9.217Zm-14.834-9.217,14.834,8.564L539.7,195.55l-14.834-8.564Z" transform="translate(-354.914 -150.77)" fill="#fff"/>
        <path id="Контур_22767" data-name="Контур 22767" d="M338.264,132.943,322.3,123.726l15.964-9.217,15.964,9.217Zm-14.834-9.217,14.834,8.564,14.833-8.564-14.834-8.564Z" transform="translate(-260.705 -114.509)" fill="#fff"/>
        <path id="Контур_22768" data-name="Контур 22768" d="M369.365,150.9,353.4,141.682l15.964-9.217,15.964,9.217Zm-14.834-9.217,14.834,8.564,14.833-8.564-14.834-8.564Z" transform="translate(-276.407 -123.574)" fill="#fff"/>
        <path id="Контур_22769" data-name="Контур 22769" d="M400.465,168.855,384.5,159.637l15.964-9.216,15.965,9.217Zm-14.834-9.217,14.834,8.564,14.833-8.564-14.834-8.564Z" transform="translate(-292.108 -132.64)" fill="#fff"/>
        <path id="Контур_22770" data-name="Контур 22770" d="M431.566,186.81,415.6,177.594l15.964-9.217,15.964,9.217Zm-14.834-9.217,14.834,8.564,14.833-8.564-14.834-8.564Z" transform="translate(-307.81 -141.705)" fill="#fff"/>
        <path id="Контур_22771" data-name="Контур 22771" d="M462.666,204.767,446.7,195.549l15.964-9.217,15.964,9.217Zm-14.834-9.217,14.834,8.564,14.834-8.564-14.834-8.564Z" transform="translate(-323.511 -150.77)" fill="#fff"/>
        <path id="Контур_22772" data-name="Контур 22772" d="M493.767,222.722,477.8,213.5l15.964-9.217,15.964,9.217ZM478.933,213.5l14.834,8.564L508.6,213.5l-14.834-8.564Z" transform="translate(-339.213 -159.835)" fill="#fff"/>
        <path id="Контур_22773" data-name="Контур 22773" d="M524.868,240.678,508.9,231.462l15.964-9.217,15.964,9.217Zm-14.834-9.216,14.834,8.563,14.833-8.563L524.868,222.9Z" transform="translate(-354.915 -168.9)" fill="#fff"/>
        <path id="Контур_22774" data-name="Контур 22774" d="M276.064,132.943,260.1,123.726l15.964-9.217,15.964,9.217Zm-14.834-9.217,14.834,8.564,14.833-8.564-14.834-8.564Z" transform="translate(-229.303 -114.509)" fill="#fff"/>
        <path id="Контур_22775" data-name="Контур 22775" d="M307.165,150.9,291.2,141.681l15.964-9.217,15.964,9.217Zm-14.834-9.217,14.834,8.564L322,141.681l-14.834-8.564Z" transform="translate(-245.004 -123.574)" fill="#fff"/>
        <path id="Контур_22776" data-name="Контур 22776" d="M338.265,168.854,322.3,159.637l15.964-9.217,15.964,9.217Zm-14.834-9.217,14.834,8.564,14.833-8.564-14.834-8.564Z" transform="translate(-260.706 -132.639)" fill="#fff"/>
        <path id="Контур_22777" data-name="Контур 22777" d="M369.366,186.81,353.4,177.592l15.964-9.216,15.964,9.217Zm-14.834-9.217,14.834,8.564,14.833-8.564-14.834-8.564Z" transform="translate(-276.408 -141.704)" fill="#fff"/>
        <path id="Контур_22778" data-name="Контур 22778" d="M400.466,204.766,384.5,195.549l15.964-9.217,15.964,9.217Zm-14.834-9.217,14.834,8.564,14.833-8.564-14.834-8.564Z" transform="translate(-292.109 -150.77)" fill="#fff"/>
        <path id="Контур_22779" data-name="Контур 22779" d="M431.567,222.722,415.6,213.5l15.964-9.216,15.964,9.217ZM416.733,213.5l14.834,8.564L446.4,213.5l-14.834-8.564Z" transform="translate(-307.81 -159.835)" fill="#fff"/>
        <path id="Контур_22780" data-name="Контур 22780" d="M462.667,240.678,446.7,231.461l15.964-9.217,15.965,9.217Zm-14.834-9.217,14.834,8.564,14.834-8.563L462.667,222.9Z" transform="translate(-323.512 -168.9)" fill="#fff"/>
        <path id="Контур_22781" data-name="Контур 22781" d="M493.768,258.634,477.8,249.417l15.964-9.217,15.964,9.217Zm-14.834-9.217,14.834,8.564,14.833-8.564-14.834-8.564Z" transform="translate(-339.213 -177.966)" fill="#fff"/>
        <path id="Контур_22782" data-name="Контур 22782" d="M524.869,276.589,508.9,267.372l15.964-9.217,15.964,9.217Zm-14.834-9.217,14.834,8.564,14.833-8.564-14.834-8.564Z" transform="translate(-354.915 -187.03)" fill="#fff"/>
        <path id="Контур_22783" data-name="Контур 22783" d="M244.964,150.9,229,141.681l15.964-9.217,15.965,9.217Zm-14.834-9.217,14.834,8.564,14.833-8.564-14.834-8.564Z" transform="translate(-213.602 -123.574)" fill="#fff"/>
        <path id="Контур_22784" data-name="Контур 22784" d="M276.065,168.854,260.1,159.637l15.964-9.217,15.964,9.217Zm-14.834-9.217,14.834,8.564,14.833-8.564-14.834-8.564Z" transform="translate(-229.303 -132.639)" fill="#fff"/>
        <path id="Контур_22785" data-name="Контур 22785" d="M307.166,186.81,291.2,177.592l15.964-9.216,15.964,9.216Zm-14.834-9.217,14.834,8.564L322,177.592l-14.834-8.564Z" transform="translate(-245.005 -141.704)" fill="#fff"/>
        <path id="Контур_22786" data-name="Контур 22786" d="M338.266,204.765,322.3,195.548l15.964-9.217,15.964,9.217Zm-14.834-9.217,14.834,8.564,14.833-8.564-14.834-8.564Z" transform="translate(-260.706 -150.769)" fill="#fff"/>
        <path id="Контур_22787" data-name="Контур 22787" d="M369.367,222.721,353.4,213.5l15.964-9.217,15.964,9.217ZM354.533,213.5l14.834,8.564L384.2,213.5l-14.834-8.564Z" transform="translate(-276.408 -159.834)" fill="#fff"/>
        <path id="Контур_22788" data-name="Контур 22788" d="M400.467,240.677,384.5,231.46l15.964-9.217,15.964,9.217Zm-14.834-9.217,14.834,8.564L415.3,231.46,400.467,222.9Z" transform="translate(-292.109 -168.9)" fill="#fff"/>
        <path id="Контур_22789" data-name="Контур 22789" d="M431.568,258.633,415.6,249.416l15.964-9.217,15.964,9.217Zm-14.834-9.217,14.834,8.564,14.833-8.563-14.834-8.564Z" transform="translate(-307.811 -177.965)" fill="#fff"/>
        <path id="Контур_22790" data-name="Контур 22790" d="M448.987,268.038l14.834,8.564,14.833-8.564-14.834-8.564Z" transform="translate(-324.665 -187.696)" fill="#fff"/>
        <path id="Контур_22791" data-name="Контур 22791" d="M213.865,168.853,197.9,159.636l15.964-9.217,15.964,9.217Zm-14.834-9.217,14.834,8.564,14.833-8.564-14.834-8.564Z" transform="translate(-197.901 -132.639)" fill="#fff"/>
        <path id="Контур_22792" data-name="Контур 22792" d="M244.965,186.809,229,177.591l15.964-9.217,15.965,9.217Zm-14.834-9.217,14.834,8.564,14.833-8.564-14.834-8.564Z" transform="translate(-213.602 -141.704)" fill="#fff"/>
        <path id="Контур_22793" data-name="Контур 22793" d="M276.066,204.765,260.1,195.548l15.964-9.217,15.964,9.217Zm-14.834-9.217,14.834,8.564,14.833-8.564-14.834-8.564Z" transform="translate(-229.304 -150.769)" fill="#fff"/>
        <path id="Контур_22794" data-name="Контур 22794" d="M307.166,222.721,291.2,213.5l15.964-9.216L323.13,213.5ZM292.332,213.5l14.834,8.564L322,213.5l-14.834-8.564Z" transform="translate(-245.005 -159.834)" fill="#fff"/>
        <path id="Контур_22795" data-name="Контур 22795" d="M338.267,240.677,322.3,231.46l15.964-9.217,15.964,9.217Zm-14.834-9.217,14.834,8.564L353.1,231.46,338.267,222.9Z" transform="translate(-260.707 -168.9)" fill="#fff"/>
        <path id="Контур_22796" data-name="Контур 22796" d="M369.368,258.632,353.4,249.415l15.964-9.217,15.964,9.217Zm-14.834-9.217,14.834,8.564,14.833-8.564-14.834-8.564Z" transform="translate(-276.409 -177.965)" fill="#fff"/>
        <path id="Контур_22797" data-name="Контур 22797" d="M400.468,276.588,384.5,267.371l15.964-9.217,15.964,9.217Zm-14.834-9.217,14.834,8.564,14.833-8.564-14.834-8.564Z" transform="translate(-292.11 -187.03)" fill="#fff"/>
        <path id="Контур_22798" data-name="Контур 22798" d="M213.866,204.764,197.9,195.547l15.964-9.217,15.964,9.217Zm-14.834-9.217,14.834,8.564,14.833-8.564-14.834-8.564Z" transform="translate(-197.901 -150.769)" fill="#fff"/>
        <path id="Контур_22799" data-name="Контур 22799" d="M244.966,222.72,229,213.5l15.964-9.217L260.93,213.5ZM230.132,213.5l14.834,8.564L259.8,213.5l-14.834-8.564Z" transform="translate(-213.603 -159.834)" fill="#fff"/>
        <path id="Контур_22800" data-name="Контур 22800" d="M276.067,240.676,260.1,231.459l15.964-9.217,15.964,9.217Zm-14.834-9.217,14.834,8.564L290.9,231.46,276.067,222.9Z" transform="translate(-229.304 -168.899)" fill="#fff"/>
        <path id="Контур_22801" data-name="Контур 22801" d="M307.167,258.632,291.2,249.415l15.964-9.217,15.965,9.217Zm-14.833-9.217,14.833,8.564L322,249.415l-14.834-8.564Z" transform="translate(-245.006 -177.965)" fill="#fff"/>
        <path id="Контур_22802" data-name="Контур 22802" d="M338.268,276.588,322.3,267.371l15.964-9.217,15.964,9.217Zm-14.834-9.217,14.834,8.564,14.833-8.564-14.834-8.564Z" transform="translate(-260.707 -187.03)" fill="#fff"/>
        <path id="Контур_22803" data-name="Контур 22803" d="M369.369,294.544,353.4,285.327l15.964-9.217,15.964,9.217Zm-14.834-9.217,14.834,8.564,14.833-8.564-14.834-8.564Z" transform="translate(-276.409 -196.095)" fill="#fff"/>
        <path id="Контур_22804" data-name="Контур 22804" d="M400.469,312.5l-15.964-9.217,15.964-9.217,15.964,9.217Zm-14.834-9.217,14.834,8.564,14.833-8.564-14.834-8.564Z" transform="translate(-292.11 -205.16)" fill="#fff"/>
        <path id="Контур_22805" data-name="Контур 22805" d="M213.867,240.676,197.9,231.459l15.964-9.217,15.964,9.217Zm-14.834-9.217,14.834,8.564,14.833-8.564L213.867,222.9Z" transform="translate(-197.902 -168.899)" fill="#fff"/>
        <path id="Контур_22806" data-name="Контур 22806" d="M244.967,258.632,229,249.414l15.964-9.217,15.965,9.217Zm-14.834-9.217,14.834,8.564,14.833-8.564-14.834-8.564Z" transform="translate(-213.603 -177.964)" fill="#fff"/>
        <path id="Контур_22807" data-name="Контур 22807" d="M276.068,276.587,260.1,267.371l15.964-9.217,15.964,9.217Zm-14.834-9.216,14.834,8.564,14.833-8.564-14.834-8.564Z" transform="translate(-229.305 -187.029)" fill="#fff"/>
        <path id="Контур_22808" data-name="Контур 22808" d="M307.169,294.543,291.2,285.326l15.964-9.216,15.965,9.217Zm-14.834-9.217,14.834,8.564L322,285.327l-14.834-8.564Z" transform="translate(-245.006 -196.095)" fill="#fff"/>
        <path id="Контур_22809" data-name="Контур 22809" d="M338.269,312.5,322.3,303.283l15.964-9.216,15.964,9.217Zm-14.834-9.217,14.834,8.564,14.833-8.564-14.834-8.564Z" transform="translate(-260.708 -205.16)" fill="#fff"/>
        <path id="Контур_22810" data-name="Контур 22810" d="M369.37,330.455l-15.964-9.217,15.964-9.216,15.964,9.217Zm-14.834-9.217L369.37,329.8l14.833-8.564-14.834-8.564Z" transform="translate(-276.41 -214.226)" fill="#fff"/>
        <path id="Контур_22811" data-name="Контур 22811" d="M400.47,348.411l-15.964-9.217,15.964-9.217,15.964,9.217Zm-14.833-9.217,14.833,8.564,14.833-8.564-14.833-8.564Z" transform="translate(-292.111 -223.291)" fill="#fff"/>
        <path id="Контур_22812" data-name="Контур 22812" d="M213.868,276.587,197.9,267.37l15.964-9.217,15.964,9.217Zm-14.834-9.217,14.834,8.564,14.833-8.564-14.834-8.564Z" transform="translate(-197.902 -187.029)" fill="#fff"/>
        <path id="Контур_22813" data-name="Контур 22813" d="M244.968,294.543,229,285.326l15.964-9.216,15.965,9.216Zm-14.834-9.217,14.834,8.564,14.833-8.564-14.834-8.564Z" transform="translate(-213.604 -196.095)" fill="#fff"/>
        <path id="Контур_22814" data-name="Контур 22814" d="M276.069,312.5l-15.964-9.217,15.964-9.217,15.964,9.217Zm-14.834-9.217,14.834,8.564,14.833-8.564-14.834-8.564Z" transform="translate(-229.305 -205.16)" fill="#fff"/>
        <path id="Контур_22815" data-name="Контур 22815" d="M307.17,330.454,291.2,321.238l15.964-9.217,15.964,9.217Zm-14.834-9.217L307.17,329.8,322,321.238l-14.834-8.564Z" transform="translate(-245.007 -214.225)" fill="#fff"/>
        <path id="Контур_22816" data-name="Контур 22816" d="M338.27,348.411l-15.964-9.217,15.964-9.216,15.964,9.217Zm-14.833-9.217,14.833,8.564,14.834-8.564L338.27,330.63Z" transform="translate(-260.708 -223.291)" fill="#fff"/>
        <path id="Контур_22817" data-name="Контур 22817" d="M213.869,312.5,197.9,303.281l15.964-9.216,15.964,9.217Zm-14.834-9.217,14.834,8.564,14.833-8.564-14.834-8.564Z" transform="translate(-197.903 -205.16)" fill="#fff"/>
        <path id="Контур_22818" data-name="Контур 22818" d="M244.969,330.454l-15.964-9.217,15.964-9.216,15.964,9.217Zm-14.834-9.217,14.834,8.564,14.833-8.564-14.834-8.564Z" transform="translate(-213.604 -214.225)" fill="#fff"/>
        <path id="Контур_22819" data-name="Контур 22819" d="M276.07,348.411l-15.964-9.217,15.964-9.216,15.964,9.216Zm-14.834-9.217,14.834,8.564,14.833-8.564L276.07,330.63Z" transform="translate(-229.306 -223.291)" fill="#fff"/>
        <path id="Контур_22820" data-name="Контур 22820" d="M213.87,348.409,197.9,339.193l15.964-9.216,15.964,9.217Zm-14.834-9.217,14.834,8.564,14.833-8.564-14.834-8.564Z" transform="translate(-197.903 -223.29)" fill="#fff"/>
      </g>
      <g id="Сгруппировать_5624" data-name="Сгруппировать 5624" transform="translate(146.793 144.903)">
        <path id="Контур_22821" data-name="Контур 22821" d="M147.544,210.673a.752.752,0,0,1-.665-1.1,8.45,8.45,0,0,1,3.068-3.375,4,4,0,0,1,2.163-.6l.092,0a4.614,4.614,0,0,0,3.135-1.949,7.439,7.439,0,0,1,1.951-1.692,3.956,3.956,0,0,1,2.162-.6,4.446,4.446,0,0,0,3.226-1.947,7.343,7.343,0,0,1,1.952-1.692,4,4,0,0,1,2.163-.6,4.453,4.453,0,0,0,3.226-1.947,7.414,7.414,0,0,1,1.951-1.692,3.441,3.441,0,0,1,3.094-.385.752.752,0,0,1-.6,1.378,2.007,2.007,0,0,0-1.743.307,5.933,5.933,0,0,0-1.547,1.351,5.893,5.893,0,0,1-4.457,2.489,2.433,2.433,0,0,0-1.336.4,5.946,5.946,0,0,0-1.547,1.351,5.9,5.9,0,0,1-4.456,2.488,2.46,2.46,0,0,0-1.336.4,5.922,5.922,0,0,0-1.547,1.35,5.873,5.873,0,0,1-4.457,2.489,2.5,2.5,0,0,0-1.336.4,6.922,6.922,0,0,0-2.489,2.77A.751.751,0,0,1,147.544,210.673Z" transform="translate(-146.793 -192.884)" fill="#fff"/>
      </g>
      <g id="Сгруппировать_5625" data-name="Сгруппировать 5625" transform="translate(279.229 218.91)">
        <path id="Контур_22822" data-name="Контур 22822" d="M417.156,359.77a3.194,3.194,0,0,1-1.446,2.5c-.8.461-1.445.087-1.445-.834a3.2,3.2,0,0,1,1.445-2.5C416.509,358.475,417.156,358.849,417.156,359.77Z" transform="translate(-414.265 -350.624)" fill="#fff"/>
        <path id="Контур_22823" data-name="Контур 22823" d="M426.618,354.308a3.194,3.194,0,0,1-1.445,2.5c-.8.461-1.445.088-1.445-.834a3.2,3.2,0,0,1,1.445-2.5C425.97,353.012,426.618,353.386,426.618,354.308Z" transform="translate(-419.042 -347.866)" fill="#fff"/>
        <path id="Контур_22824" data-name="Контур 22824" d="M436.08,348.845a3.2,3.2,0,0,1-1.445,2.5c-.8.46-1.445.087-1.445-.835a3.194,3.194,0,0,1,1.445-2.5C435.432,347.55,436.08,347.923,436.08,348.845Z" transform="translate(-423.819 -345.108)" fill="#fff"/>
        <path id="Контур_22825" data-name="Контур 22825" d="M445.542,343.382a3.2,3.2,0,0,1-1.445,2.5c-.8.461-1.445.087-1.445-.834a3.2,3.2,0,0,1,1.445-2.5C444.894,342.087,445.542,342.461,445.542,343.382Z" transform="translate(-428.596 -342.35)" fill="#fff"/>
      </g>
      <g id="Сгруппировать_5626" data-name="Сгруппировать 5626" transform="translate(345.976 142.314)">
        <path id="Контур_22826" data-name="Контур 22826" d="M551.961,202.633a3.2,3.2,0,0,1-1.445,2.5c-.8.461-1.445.088-1.445-.834a3.2,3.2,0,0,1,1.445-2.5C551.313,201.338,551.961,201.712,551.961,202.633Z" transform="translate(-549.07 -194.696)" fill="#fff"/>
        <path id="Контур_22827" data-name="Контур 22827" d="M560.013,197.984a3.2,3.2,0,0,1-1.445,2.5c-.8.461-1.445.087-1.445-.834a3.2,3.2,0,0,1,1.445-2.5C559.365,196.689,560.013,197.063,560.013,197.984Z" transform="translate(-553.135 -192.348)" fill="#fff"/>
        <path id="Контур_22828" data-name="Контур 22828" d="M551.961,193.335a3.194,3.194,0,0,1-1.445,2.5c-.8.461-1.445.088-1.445-.834a3.2,3.2,0,0,1,1.445-2.5C551.313,192.04,551.961,192.414,551.961,193.335Z" transform="translate(-549.07 -190.001)" fill="#fff"/>
        <path id="Контур_22829" data-name="Контур 22829" d="M560.013,188.686a3.2,3.2,0,0,1-1.445,2.5c-.8.461-1.445.087-1.445-.834a3.2,3.2,0,0,1,1.445-2.5C559.365,187.391,560.013,187.765,560.013,188.686Z" transform="translate(-553.135 -187.654)" fill="#fff"/>
      </g>
      <path id="Контур_22830" data-name="Контур 22830" d="M234.666,333.492a5.534,5.534,0,0,0-1.412,1.213c-.066-2.784-2.064-3.9-4.524-2.476a8.23,8.23,0,0,0-2.175,1.9c-1.095-1.914-3.364-2.358-5.993-.84a14.8,14.8,0,0,0-6.694,11.6,7.957,7.957,0,0,0,.067,1,2.524,2.524,0,0,0-1.875.379,7.079,7.079,0,0,0-3.2,5.548c0,2.042,1.434,2.87,3.2,1.849L234.666,340.6a6.808,6.808,0,0,0,3.08-5.334C237.745,333.306,236.366,332.51,234.666,333.492Z" transform="translate(-31.334 -118.019)" fill="#fff" opacity="0.5"/>
      <path id="Контур_22831" data-name="Контур 22831" d="M354.094,181.766l-48.28-27.958c-2.622-1.519-7.207-1.335-10.24.41L194.249,212.531c-3.033,1.745-3.366,4.392-.743,5.911L241.785,246.4c2.623,1.519,7.207,1.335,10.24-.41l101.325-58.313C356.384,185.931,356.717,183.285,354.094,181.766Z" transform="translate(-22.691 -27.733)" fill="#7dc3ea"/>
      <g id="Сгруппировать_5627" data-name="Сгруппировать 5627" transform="translate(165.057 97.847)">
        <path id="Контур_22832" data-name="Контур 22832" d="M245.392,237.085a9.933,9.933,0,0,1-4.9-1.15l-48.279-27.958a3.868,3.868,0,0,1-2.192-3.308c0-1.517,1.073-3,2.938-4.076L294.283,142.28c3.317-1.91,8.19-2.089,11.09-.409l48.28,27.958a3.867,3.867,0,0,1,2.193,3.307c0,1.517-1.073,3-2.938,4.076L251.583,235.526A12.7,12.7,0,0,1,245.392,237.085Zm55.107-94.65a11.11,11.11,0,0,0-5.367,1.319L193.806,202.067c-1.3.751-2.084,1.725-2.085,2.605a2.3,2.3,0,0,0,1.344,1.833l48.279,27.958c2.343,1.358,6.643,1.169,9.391-.411L352.06,175.739c1.3-.751,2.084-1.725,2.085-2.6A2.3,2.3,0,0,0,352.8,171.3l-48.28-27.958A8.218,8.218,0,0,0,300.5,142.435Z" transform="translate(-186.88 -119.492)" fill="#fff"/>
        <path id="Контур_22833" data-name="Контур 22833" d="M236.324,210.789l-50.245-29.1a4.03,4.03,0,0,1-2.365-3.586l-.011,0,.02-7.291,2.795,3.273c.181-.12.363-.239.562-.353l102.785-59.153c4.08-2.348,10.249-2.6,13.777-.552l49.539,28.687c1-1.1,3.1-3.416,3.1-3.416l-.024,7.131h0c.075,1.608-1.07,3.32-3.374,4.646L250.1,210.237C246.021,212.586,239.853,212.833,236.324,210.789Z" transform="translate(-183.691 -105.321)" fill="#396caa"/>
        <path id="Контур_22834" data-name="Контур 22834" d="M234.4,272.828l2.894,1.671c.384.222.7-.014.7-.526h0a1.666,1.666,0,0,0-.7-1.329l-2.894-1.671c-.384-.222-.7.013-.7.526h0A1.668,1.668,0,0,0,234.4,272.828Z" transform="translate(-208.933 -185.209)" fill="#173d7a"/>
        <path id="Контур_22835" data-name="Контур 22835" d="M350,114.587c4.08-2.348,10.249-2.6,13.777-.552l49.539,28.688c1-1.1,3.1-3.416,3.1-3.416l-.024,7.131h0c.075,1.608-1.07,3.32-3.374,4.646L310.24,210.237a15.892,15.892,0,0,1-7.418,1.927l.1-70.48Z" transform="translate(-243.83 -105.321)" fill="url(#linear-gradient)"/>
        <path id="Контур_22836" data-name="Контур 22836" d="M353.927,128.328l-50.245-29.1c-3.528-2.043-9.7-1.8-13.778.552L187.119,158.937c-4.08,2.348-4.529,5.908-1,7.952l50.245,29.1c3.528,2.043,9.7,1.8,13.777-.552L352.927,136.28C357.007,133.932,357.455,130.371,353.927,128.328Z" transform="translate(-183.71 -97.847)" fill="#d4ecff"/>
        <path id="Контур_22837" data-name="Контур 22837" d="M236.295,231.919l-50.245-29.1c-1.82-1.054-2.573-2.511-2.325-4a4.188,4.188,0,0,0,2.363,3.22l50.245,29.1c3.528,2.043,9.7,1.8,13.777-.552L352.9,171.436c1.976-1.137,3.092-2.558,3.325-3.955.12,1.633-1.018,3.383-3.363,4.733L250.073,231.367C245.992,233.716,239.823,233.963,236.295,231.919Z" transform="translate(-183.679 -133.002)" fill="#fff"/>
        <path id="Контур_22838" data-name="Контур 22838" d="M354.094,132.166l-48.28-27.958c-2.622-1.519-7.207-1.335-10.24.41L194.249,162.931c-3.033,1.745-3.366,4.392-.743,5.911L241.785,196.8c2.623,1.519,7.207,1.335,10.24-.41l101.325-58.313C356.384,136.332,356.717,133.686,354.094,132.166Z" transform="translate(-187.747 -100.539)" fill="url(#radial-gradient)"/>
      </g>
      <ellipse id="Эллипс_190" data-name="Эллипс 190" cx="13.545" cy="7.82" rx="13.545" ry="7.82" transform="translate(153.44 207.884)" fill="#7dc3ea"/>
      <path id="Контур_22839" data-name="Контур 22839" d="M172.895,325.379a20.456,20.456,0,0,1-10-2.388c-2.832-1.635-4.392-3.861-4.392-6.266s1.56-4.631,4.392-6.266c5.516-3.184,14.491-3.184,20.006,0,2.832,1.635,4.393,3.861,4.393,6.266s-1.56,4.631-4.392,6.266h0A20.459,20.459,0,0,1,172.895,325.379Zm0-15.633a18.719,18.719,0,0,0-9.153,2.185c-2.284,1.319-3.542,3.021-3.542,4.793s1.258,3.475,3.542,4.793c5.047,2.913,13.258,2.913,18.306,0,2.284-1.319,3.541-3.021,3.541-4.793s-1.258-3.475-3.542-4.793A18.721,18.721,0,0,0,172.894,309.747Z" transform="translate(-5.91 -106.134)" fill="#fff"/>
      <path id="Контур_22840" data-name="Контур 22840" d="M187.243,292.548v-4.727h-.893a10.752,10.752,0,0,0-4.039-3.778c-6.575-3.8-17.236-3.8-23.812,0a10.747,10.747,0,0,0-4.039,3.778h-.891v4.7h0c-.011,2.5,1.63,4.994,4.93,6.9,6.575,3.8,17.236,3.8,23.812,0C185.6,297.525,187.243,295.037,187.243,292.548Z" transform="translate(-3.421 -92.566)" fill="url(#linear-gradient-2)"/>
      <ellipse id="Эллипс_191" data-name="Эллипс 191" cx="16.837" cy="9.721" rx="16.837" ry="9.721" transform="translate(150.147 185.534)" fill="url(#linear-gradient-2)"/>
      <path id="Контур_22841" data-name="Контур 22841" d="M182.328,301.766c-6.575,3.8-17.236,3.8-23.812,0-3.151-1.819-4.775-4.181-4.906-6.565-.142,2.59,1.482,5.206,4.906,7.183,6.575,3.8,17.236,3.8,23.812,0,3.424-1.977,5.048-4.592,4.906-7.183C187.1,297.585,185.479,299.946,182.328,301.766Z" transform="translate(-3.437 -99.637)" fill="#fff"/>
      <g id="Сгруппировать_5628" data-name="Сгруппировать 5628" transform="translate(158.425 190.646)">
        <path id="Контур_22842" data-name="Контур 22842" d="M170.73,293.1a.758.758,0,0,1-.444-.62l.017-6.334c0-.483.681-.874,1.518-.873s1.513.393,1.513.877l-.014,5.251,15.242-1.866c.819-.1,1.623.2,1.8.674s-.35.937-1.168,1.037l-17.075,2.091a2.4,2.4,0,0,1-1.27-.177C170.806,293.137,170.767,293.117,170.73,293.1Z" transform="translate(-170.286 -285.268)" fill="#fff"/>
      </g>
    </g>
    <g id="android_1_" data-name="android(1)" transform="translate(103.539 -207.342) rotate(13)">
      <path id="Контур_16169" data-name="Контур 16169" d="M106.745,43.51l-6.873-2.29a37.8,37.8,0,0,0-3.691-8.935l3.234-6.471a2.378,2.378,0,0,0-.445-2.744L91.3,15.4a2.378,2.378,0,0,0-2.744-.445l-6.471,3.234A37.8,37.8,0,0,0,73.153,14.5l-2.29-6.873A2.378,2.378,0,0,0,68.606,6H57.766a2.378,2.378,0,0,0-2.257,1.627L53.219,14.5a37.8,37.8,0,0,0-8.935,3.691l-6.471-3.234a2.378,2.378,0,0,0-2.744.445L27.4,23.069a2.378,2.378,0,0,0-.445,2.744l3.234,6.471A37.8,37.8,0,0,0,26.5,41.219l-6.873,2.29A2.378,2.378,0,0,0,18,45.767v10.84a2.378,2.378,0,0,0,1.627,2.257l6.872,2.29a37.8,37.8,0,0,0,3.691,8.935L26.956,76.56A2.378,2.378,0,0,0,27.4,79.3l7.667,7.667a2.378,2.378,0,0,0,2.744.445l6.471-3.234a37.8,37.8,0,0,0,8.935,3.691l2.29,6.873a2.378,2.378,0,0,0,2.257,1.627h10.84a2.378,2.378,0,0,0,2.257-1.627l2.29-6.873a37.8,37.8,0,0,0,8.935-3.691l6.471,3.234a2.378,2.378,0,0,0,2.744-.445L98.971,79.3a2.378,2.378,0,0,0,.445-2.744l-3.234-6.471a37.8,37.8,0,0,0,3.691-8.935l6.873-2.29a2.378,2.378,0,0,0,1.627-2.257V45.767a2.378,2.378,0,0,0-1.627-2.257Z" transform="translate(12.596 18.844)" fill="url(#linear-gradient-2)"/>
      <ellipse id="Эллипс_89" data-name="Эллипс 89" cx="35.426" cy="35.426" rx="35.426" ry="35.426" transform="translate(40.357 34.342)" fill="url(#linear-gradient-2)"/>
      <g id="Сгруппировать_3650" data-name="Сгруппировать 3650" transform="translate(52.451 40.213)">
        <path id="Контур_16079" data-name="Контур 16079" d="M98.078,190.708h0a3.579,3.579,0,0,0-3.578,3.578v15.1a3.579,3.579,0,0,0,3.578,3.579h0a3.579,3.579,0,0,0,3.579-3.579v-15.1A3.578,3.578,0,0,0,98.078,190.708Z" transform="translate(-94.5 -172.008)" fill="#fff"/>
        <path id="Контур_16080" data-name="Контур 16080" d="M373.867,190.708h0a3.579,3.579,0,0,0-3.579,3.578v15.1a3.579,3.579,0,0,0,3.579,3.579h0a3.578,3.578,0,0,0,3.578-3.579v-15.1A3.578,3.578,0,0,0,373.867,190.708Z" transform="translate(-328.481 -172.008)" fill="#fff"/>
        <path id="Контур_16081" data-name="Контур 16081" d="M175.236,73.121l2.663-4.415-2.242-1.352-2.733,4.531a16.047,16.047,0,0,0-6.4-1.324h0a16.044,16.044,0,0,0-6.4,1.324l-2.733-4.531-2.242,1.352,2.663,4.415a16.092,16.092,0,0,0-7.377,12.932h32.181A16.092,16.092,0,0,0,175.236,73.121Zm-16,6.822a1.636,1.636,0,1,1,1.636-1.636A1.636,1.636,0,0,1,159.235,79.943Zm14.4,0a1.636,1.636,0,1,1,1.636-1.636A1.636,1.636,0,0,1,173.636,79.943Z" transform="translate(-141.953 -67.353)" fill="#fff"/>
        <path id="Контур_16082" data-name="Контур 16082" d="M265.083,73.121l2.663-4.415L265.5,67.354l-2.733,4.531a16.047,16.047,0,0,0-6.4-1.324h-.037V86.053H272.46A16.092,16.092,0,0,0,265.083,73.121Zm-1.6,6.822a1.636,1.636,0,1,1,1.636-1.636A1.637,1.637,0,0,1,263.483,79.944Z" transform="translate(-231.8 -67.353)" fill="#fff"/>
        <path id="Контур_16083" data-name="Контур 16083" d="M149.773,231.678h6.371v7.986a3.579,3.579,0,0,0,3.578,3.579h0a3.579,3.579,0,0,0,3.579-3.579v-7.986h4.975v7.986a3.579,3.579,0,0,0,3.579,3.579h0a3.578,3.578,0,0,0,3.578-3.579v-7.986h6.546V206.541H149.773Z" transform="translate(-141.394 -185.439)" fill="#fff"/>
      </g>
    </g>
  </g>
</svg>
