<svg xmlns="http://www.w3.org/2000/svg" xmlns:xlink="http://www.w3.org/1999/xlink" width="370.934" height="201.171" viewBox="0 0 370.934 201.171">
  <defs>
    <radialGradient id="radial-gradient" cx="0.835" cy="0.166" r="0.82" gradientTransform="translate(-4.232) scale(1.978 1)" gradientUnits="objectBoundingBox">
      <stop offset="0" stop-color="#3e068d"/>
      <stop offset="1" stop-color="#29013e"/>
    </radialGradient>
    <linearGradient id="linear-gradient" y1="0.5" x2="1" y2="0.5" gradientUnits="objectBoundingBox">
      <stop offset="0" stop-color="#417ee6"/>
      <stop offset="0.134" stop-color="#3c64c3"/>
      <stop offset="0.339" stop-color="#354194"/>
      <stop offset="0.534" stop-color="#30256f"/>
      <stop offset="0.714" stop-color="#2c1254"/>
      <stop offset="0.875" stop-color="#2a0644"/>
      <stop offset="1" stop-color="#2a023f"/>
    </linearGradient>
    <linearGradient id="linear-gradient-2" x1="0.294" y1="0.5" x2="1.294" y2="0.5" gradientUnits="objectBoundingBox">
      <stop offset="0" stop-color="#a0f5fe"/>
      <stop offset="0.14" stop-color="#86bfd4"/>
      <stop offset="0.31" stop-color="#6a86a7"/>
      <stop offset="0.474" stop-color="#535781"/>
      <stop offset="0.629" stop-color="#413264"/>
      <stop offset="0.773" stop-color="#341750"/>
      <stop offset="0.901" stop-color="#2c0743"/>
      <stop offset="1" stop-color="#2a023f"/>
    </linearGradient>
    <radialGradient id="radial-gradient-2" cx="0.842" cy="-0.422" r="1.368" gradientTransform="translate(0.116) scale(0.768 1)" gradientUnits="objectBoundingBox">
      <stop offset="0" stop-color="#86e1fe"/>
      <stop offset="0.181" stop-color="#7dd9fe"/>
      <stop offset="0.652" stop-color="#6ccbfe"/>
      <stop offset="1" stop-color="#66c6fe"/>
    </radialGradient>
    <radialGradient id="radial-gradient-3" cx="0.137" cy="0.177" r="0.905" gradientTransform="translate(-0.151) scale(1.302 1)" gradientUnits="objectBoundingBox">
      <stop offset="0" stop-color="#417ee6"/>
      <stop offset="1" stop-color="#2f3fa1"/>
    </radialGradient>
    <radialGradient id="radial-gradient-4" cx="0.035" cy="0.221" r="1.187" gradientTransform="translate(0.033) scale(0.935 1)" gradientUnits="objectBoundingBox">
      <stop offset="0" stop-color="#9cf5fe"/>
      <stop offset="0.251" stop-color="#98f2fd"/>
      <stop offset="0.439" stop-color="#8fe8fd"/>
      <stop offset="0.607" stop-color="#7fd8fc"/>
      <stop offset="0.763" stop-color="#68c2fb"/>
      <stop offset="0.91" stop-color="#4ba6fa"/>
      <stop offset="0.941" stop-color="#449ffa"/>
    </radialGradient>
    <linearGradient id="linear-gradient-3" x1="-0.126" y1="0.056" x2="0.497" y2="0.498" gradientUnits="objectBoundingBox">
      <stop offset="0" stop-color="#3874da"/>
      <stop offset="1" stop-color="#2a023f"/>
    </linearGradient>
    <radialGradient id="radial-gradient-5" cx="0.88" cy="0.388" r="0.873" xlink:href="#radial-gradient-4"/>
    <linearGradient id="linear-gradient-4" x1="1.852" y1="0.056" x2="2.475" y2="0.498" xlink:href="#linear-gradient-3"/>
  </defs>
  <g id="R_D_1.1" data-name="R&amp;D_1.1" transform="translate(-59.203 -139.082)">
    <g id="PODLOJKA" transform="translate(83.203 394.947)">
      <g id="Blue_Light" data-name="Blue Light" transform="translate(-78.369 -402.24)">
        <g id="Group_5603" data-name="Group 5603" transform="translate(87.487 167.374)">
          <g id="Group_5602" data-name="Group 5602">
            <path id="Path_22752" data-name="Path 22752" d="M356.151,219.679l-94.237,54.763c-20.076,11.666-52.724,11.666-72.931,0L94.131,219.679C83.962,213.809,78.882,206.1,78.9,198.408l-.03,10.9c-.022,7.694,5.056,15.4,15.224,21.268l94.852,54.763c20.209,11.666,52.858,11.666,72.933,0l94.237-54.763c9.973-5.8,14.966-13.381,14.987-20.974l.03-10.9C371.117,206.3,366.124,213.883,356.151,219.679Z" transform="translate(-78.874 -113.919)" fill="#44c4ff"/>
            <g id="Group_5601" data-name="Group 5601" transform="translate(0.03)">
              <g id="Group_5600" data-name="Group 5600">
                <path id="Path_22753" data-name="Path 22753" d="M355.9,230.889c20.206,11.666,20.313,30.577.237,42.245L261.9,327.9c-20.076,11.666-52.724,11.666-72.931,0L94.112,273.135c-20.209-11.666-20.315-30.579-.24-42.245l94.237-54.763c20.076-11.669,52.724-11.669,72.933,0Z" transform="translate(-78.885 -162.374)" fill="#f5fbff"/>
              </g>
            </g>
          </g>
        </g>
      </g>
    </g>
    <g id="R_D_1.1-2" data-name="R&amp;D_1.1">
      <g id="Group_4508" data-name="Group 4508" transform="translate(147.076 165.113)">
        <rect id="Rectangle_1246" data-name="Rectangle 1246" width="100.514" height="194.897" rx="16.25" transform="translate(0 100.514) rotate(-90)" fill="#9cf5fe"/>
        <rect id="Rectangle_1247" data-name="Rectangle 1247" width="96.47" height="190.853" rx="14.563" transform="translate(2.022 98.492) rotate(-90)" fill="url(#radial-gradient)"/>
        <path id="Path_19429" data-name="Path 19429" d="M182.268,228.613v14.292a.8.8,0,0,1-.8.8h0a.8.8,0,0,1-.8-.8V228.613a.8.8,0,0,1,.8-.8h0A.8.8,0,0,1,182.268,228.613Z" transform="translate(-174.988 -185.503)" fill="#320c54"/>
      </g>
      <path id="Path_19430" data-name="Path 19430" d="M364.671,262.011h57.282V204.34l-68.293.305v57.366Z" transform="translate(-67.661 -14.996)" opacity="0.5" fill="url(#linear-gradient)" style="mix-blend-mode: lighten;isolation: isolate"/>
      <path id="Path_19431" data-name="Path 19431" d="M211.2,261.615H153.923V203.944l68.293.305v57.366Z" transform="translate(-21.765 -14.904)" opacity="0.5" fill="url(#linear-gradient-2)" style="mix-blend-mode: lighten;isolation: isolate"/>
      <g id="Group_4594" data-name="Group 4594" transform="translate(59.203 139.082)">
        <g id="Group_4509" data-name="Group 4509" transform="translate(119.008 50.263)">
          <path id="Path_19432" data-name="Path 19432" d="M288.342,232.28a6.442,6.442,0,0,0-9.318-5A14.42,14.42,0,0,1,272.493,229a1.412,1.412,0,0,1-1.412-1.413V204.34H247.837a1.412,1.412,0,0,0-1.413,1.413h0a14.419,14.419,0,0,0,1.718,6.531,6.444,6.444,0,1,1-11.411-.15,13.348,13.348,0,0,0,1.638-6.376v0a1.412,1.412,0,0,0-1.412-1.413H213.715v54.021a3.345,3.345,0,0,0,3.345,3.345h54.021V238.462a1.412,1.412,0,0,1,1.412-1.412h0a13.348,13.348,0,0,1,6.376,1.638,6.443,6.443,0,0,0,9.469-6.408Z" transform="translate(-213.715 -204.34)" fill="url(#radial-gradient-2)"/>
        </g>
        <path id="Path_19433" data-name="Path 19433" d="M348.812,199.575a1.413,1.413,0,0,1-1.413-1.413v0a13.348,13.348,0,0,1,1.638-6.376,6.443,6.443,0,0,0-6.408-9.469,6.441,6.441,0,0,0-5,9.318,14.418,14.418,0,0,1,1.718,6.531,1.413,1.413,0,0,1-1.413,1.413H314.69v23.243a1.412,1.412,0,0,0,1.412,1.413,14.421,14.421,0,0,0,6.531-1.718,6.443,6.443,0,1,1-.151,11.41,13.348,13.348,0,0,0-6.376-1.638h0a1.412,1.412,0,0,0-1.412,1.412V256.94h54.02a3.345,3.345,0,0,0,3.346-3.345v-54.02Z" transform="translate(-117.909 -149.006)" fill="url(#radial-gradient-3)"/>
        <g id="Group_4551" data-name="Group 4551" transform="translate(229.745)">
          <g id="Group_4546" data-name="Group 4546">
            <g id="Group_4545" data-name="Group 4545">
              <g id="Group_4541" data-name="Group 4541">
                <path id="Path_19434" data-name="Path 19434" d="M365.424,155.234c1.85.679,8.1,3.612,11.888,4.323,0,0-6.627,4.181-8.864,5.727s-3.412,9.913-6.24,14.423-4.032,7.53-2.564,8.894,2.314,1.208,2.314,1.208-1.746,3.044-.288,5.626c.957,1.695,3.9,2.251,6.6,2.492s12.649,2.868,14.91,4.087,2.761,1.564,7.072,2.63c0,0,9.514,9.226,16.38,11.11,4.839,1.328,11.452.846,18.651,3.459.025-.729.066-1.473.141-2.243,1.22-12.479,8.85-25.853,17.78-31.956-8.061-6.7-18.355-16.12-24.993-25.414,0,0-2.824-1.909-4.627-2.988s-.446-3.012-6.2-5.263c-1.922-.751-3.477-.749-4.49-1.132-2.022-.765-2.493-1.6-3.652-2.738,0,0-2.386-.84-3-1.818a4.1,4.1,0,0,0-3.952-1.926,2.586,2.586,0,0,0-2.053,2.129,44.141,44.141,0,0,0-4.631-1.611c-1.466-.327-4.521-2.983-5.793-4.183s-4.579-1.535-5.227.307,1.155,5.807,4.129,7.946a23.049,23.049,0,0,1-5.433-.547c-3.374-.679-4.081-.278-6.512-.907a8.889,8.889,0,0,1-3.179-1.316c-1.111-.531-4.98-1.892-5.919,1.419s2.24,5.191,2.884,5.446S363.574,154.556,365.424,155.234Zm16.544,17.252s2.881.478,3.42-.011c0,0,.374,4.959,1.981,7.048s-2.645,6.156-4.876,6.641-4.419.846-9.509-.494a15.923,15.923,0,0,0-2.643-.3,17.85,17.85,0,0,1,1.606-2.747c.63-.719,3.471-4.087,4.028-7.278C375.975,175.347,381.174,174.183,381.968,172.486Z" transform="translate(-357.488 -139.082)" fill="url(#radial-gradient-4)"/>
                <g id="Group_4512" data-name="Group 4512" transform="translate(32.76 65.563)">
                  <g id="Group_4511" data-name="Group 4511">
                    <g id="Group_4510" data-name="Group 4510">
                      <path id="Path_19435" data-name="Path 19435" d="M416.645,232.935c-4.142-1.463-13.1-8.084-16.624-8.73,0,0,9.514,9.226,16.38,11.11,3.667,1.007,8.353.971,13.541,2.033l-2.12-3.32S420.787,234.4,416.645,232.935Z" transform="translate(-400.021 -224.205)" fill="#4b95fa"/>
                    </g>
                  </g>
                </g>
                <g id="Group_4515" data-name="Group 4515" transform="translate(20.748 29.469)">
                  <g id="Group_4514" data-name="Group 4514">
                    <g id="Group_4513" data-name="Group 4513">
                      <path id="Path_19436" data-name="Path 19436" d="M387.324,182.161a2.445,2.445,0,0,0,.833-.883s.171.029.434.064c-2.677-.8-4.159-4-4.159-4C384.258,179.763,387.318,182.156,387.324,182.161Z" transform="translate(-384.426 -177.343)" fill="#67e2e8"/>
                    </g>
                  </g>
                </g>
                <g id="Group_4518" data-name="Group 4518" transform="translate(27.105 28.811)">
                  <g id="Group_4517" data-name="Group 4517">
                    <g id="Group_4516" data-name="Group 4516">
                      <path id="Path_19437" data-name="Path 19437" d="M393.474,181.071s.052.687.2,1.655h0a14.444,14.444,0,0,0-.225-6.237,16.618,16.618,0,0,1-.769,4.791A1.43,1.43,0,0,0,393.474,181.071Z" transform="translate(-392.679 -176.489)" fill="#67e2e8"/>
                    </g>
                  </g>
                </g>
                <g id="Group_4521" data-name="Group 4521" transform="translate(12.157 33.366)">
                  <g id="Group_4520" data-name="Group 4520">
                    <g id="Group_4519" data-name="Group 4519">
                      <path id="Path_19438" data-name="Path 19438" d="M379.357,186.288a8.264,8.264,0,0,0,.245-.987s.451-.1,1.1-.286a13.318,13.318,0,0,1-7.43-2.613A11.92,11.92,0,0,0,379.357,186.288Z" transform="translate(-373.272 -182.402)" fill="#67e2e8"/>
                    </g>
                  </g>
                </g>
                <g id="Group_4528" data-name="Group 4528" transform="translate(4.47 44.315)">
                  <g id="Group_4524" data-name="Group 4524" transform="translate(9.154 1.999)" opacity="0.52">
                    <g id="Group_4523" data-name="Group 4523">
                      <g id="Group_4522" data-name="Group 4522">
                        <path id="Path_19439" data-name="Path 19439" d="M375.176,199.213a5.876,5.876,0,0,0,1.132.151C375.959,199.309,375.543,199.25,375.176,199.213Z" transform="translate(-375.176 -199.213)" fill="#e28c61"/>
                      </g>
                    </g>
                  </g>
                  <g id="Group_4527" data-name="Group 4527">
                    <g id="Group_4526" data-name="Group 4526">
                      <g id="Group_4525" data-name="Group 4525">
                        <path id="Path_19440" data-name="Path 19440" d="M372.739,196.618s-8.314,2.776-9.448,6.413h0a11.329,11.329,0,0,1,8.072-4.472l.342-.029c.117-.239.575-1.161,1.035-1.912Z" transform="translate(-363.291 -196.618)" fill="#67e2e8"/>
                      </g>
                    </g>
                  </g>
                </g>
                <g id="Group_4531" data-name="Group 4531" transform="translate(17.477 14.431)">
                  <g id="Group_4530" data-name="Group 4530">
                    <g id="Group_4529" data-name="Group 4529">
                      <path id="Path_19441" data-name="Path 19441" d="M380.179,163.257s12.991-4.985,14.486-5.438l-12.138,6.044Z" transform="translate(-380.179 -157.819)" fill="#67e2e8"/>
                    </g>
                  </g>
                </g>
                <g id="Group_4534" data-name="Group 4534" transform="translate(18.649 6.589)">
                  <g id="Group_4533" data-name="Group 4533">
                    <g id="Group_4532" data-name="Group 4532">
                      <path id="Path_19442" data-name="Path 19442" d="M381.7,147.637a11.024,11.024,0,0,0,2.566,2.65,17.744,17.744,0,0,1-2.523-.106v0l4.993.632A8.971,8.971,0,0,1,381.7,147.637Z" transform="translate(-381.701 -147.637)" fill="#67e2e8"/>
                    </g>
                  </g>
                </g>
                <g id="Group_4537" data-name="Group 4537" transform="translate(31.199 5.732)">
                  <g id="Group_4536" data-name="Group 4536">
                    <g id="Group_4535" data-name="Group 4535">
                      <path id="Path_19443" data-name="Path 19443" d="M400.234,148.045c-.749-.364-.372-1.312-.277-1.521a2.99,2.99,0,0,0-.424,1.049s-.672-.272-1.539-.6C398.673,147.227,400.234,148.045,400.234,148.045Z" transform="translate(-397.994 -146.524)" fill="#67e2e8"/>
                    </g>
                  </g>
                </g>
                <g id="Group_4540" data-name="Group 4540" transform="translate(4.47 45.881)">
                  <g id="Group_4539" data-name="Group 4539">
                    <g id="Group_4538" data-name="Group 4538">
                      <path id="Path_19444" data-name="Path 19444" d="M363.291,203.5a12.083,12.083,0,0,1,11.356-4.054,24.6,24.6,0,0,0-4.134-.793,13.044,13.044,0,0,0-3.823,1.716,18.041,18.041,0,0,0-2.151,1.532Z" transform="translate(-363.291 -198.651)" fill="#67e2e8"/>
                    </g>
                  </g>
                </g>
              </g>
              <g id="Group_4544" data-name="Group 4544" transform="translate(56.834 50.623)">
                <g id="Group_4543" data-name="Group 4543">
                  <g id="Group_4542" data-name="Group 4542">
                    <path id="Path_19445" data-name="Path 19445" d="M439.517,204.808s-11.345,12.682-7.41,25.159l4.956-.045Z" transform="translate(-431.278 -204.808)" fill="#4b95fa"/>
                  </g>
                </g>
              </g>
              <path id="Path_19446" data-name="Path 19446" d="M452.082,189.044c3.843-1.745,7.2-1.556,9.713.17l0-.006,5.536,3.966a16.042,16.042,0,0,0-3.343,1.109c-10.316,4.684-19.791,19.855-21.163,33.888a27.127,27.127,0,0,0,.568,9.451l-5.62-4.026,0,0c-3.307-2.429-5.066-7.615-4.379-14.632C434.61,206.573,442.974,193.179,452.082,189.044Z" transform="translate(-374.897 -150.282)" fill="#fff"/>
            </g>
          </g>
          <g id="Group_4550" data-name="Group 4550" transform="translate(67.766 42.62)" style="mix-blend-mode: lighten;isolation: isolate">
            <g id="Group_4549" data-name="Group 4549">
              <g id="Group_4548" data-name="Group 4548">
                <g id="Group_4547" data-name="Group 4547">
                  <path id="Path_19447" data-name="Path 19447" d="M513.882,222.463v0l-.022-.016-.068-.049-35.988-26.412,0,.007c-2.844-1.955-6.648-2.17-11-.193-10.316,4.683-19.791,19.855-21.163,33.887-.776,7.948,1.215,13.822,4.961,16.574l0,0,35.634,26.153c.029.022.059.042.089.063l.316.226,0-.007c2.836,1.907,6.612,2.1,10.926.142,10.316-4.684,19.792-19.855,21.163-33.888C519.5,231.086,517.554,225.25,513.882,222.463Z" transform="translate(-445.47 -194.417)" fill="url(#linear-gradient-3)"/>
                </g>
              </g>
            </g>
          </g>
        </g>
        <g id="Group_4593" data-name="Group 4593">
          <g id="Group_4588" data-name="Group 4588" transform="translate(48.751)">
            <g id="Group_4587" data-name="Group 4587">
              <g id="Group_4583" data-name="Group 4583" transform="translate(6.726)">
                <path id="Path_19448" data-name="Path 19448" d="M213.886,152.417c.644-.255,3.822-2.135,2.883-5.446s-4.807-1.95-5.918-1.419a8.889,8.889,0,0,1-3.179,1.316c-2.432.629-3.138.228-6.512.907a23.049,23.049,0,0,1-5.433.547c2.975-2.138,4.778-6.1,4.129-7.946s-3.955-1.507-5.227-.307-4.327,3.856-5.793,4.183a44.139,44.139,0,0,0-4.631,1.611,2.586,2.586,0,0,0-2.053-2.129,4.1,4.1,0,0,0-3.952,1.926c-.616.979-3,1.818-3,1.818-1.159,1.141-1.631,1.973-3.652,2.738-1.014.384-2.568.381-4.49,1.132-5.757,2.251-4.4,4.183-6.2,5.263s-4.627,2.988-4.627,2.988c-6.638,9.294-16.932,18.715-24.993,25.414,8.93,6.1,16.56,19.477,17.78,31.956.075.769.116,1.513.141,2.243,7.2-2.613,13.812-2.131,18.651-3.459,6.866-1.884,16.38-11.11,16.38-11.11,4.311-1.065,4.811-1.41,7.072-2.63s12.218-3.846,14.91-4.087,5.639-.8,6.6-2.492c1.459-2.583-.287-5.626-.287-5.626s.845.155,2.313-1.208.265-4.384-2.563-8.894-4-12.877-6.24-14.423-8.864-5.727-8.864-5.727c3.786-.711,10.038-3.644,11.888-4.323S213.241,152.672,213.886,152.417Zm-15.431,22.93c.558,3.191,3.4,6.558,4.028,7.278a17.849,17.849,0,0,1,1.606,2.747,15.923,15.923,0,0,0-2.643.3c-5.09,1.339-7.278.979-9.509.494s-6.484-4.55-4.876-6.641,1.981-7.048,1.981-7.048c.538.488,3.42.011,3.42.011C193.256,174.183,198.455,175.347,198.455,175.347Z" transform="translate(-131.23 -139.082)" fill="url(#radial-gradient-5)"/>
                <g id="Group_4554" data-name="Group 4554" transform="translate(23.031 65.563)">
                  <g id="Group_4553" data-name="Group 4553">
                    <g id="Group_4552" data-name="Group 4552">
                      <path id="Path_19449" data-name="Path 19449" d="M174.428,232.935c4.142-1.463,13.1-8.084,16.624-8.73,0,0-9.515,9.226-16.38,11.11-3.667,1.007-8.353.971-13.54,2.033l2.119-3.32S170.287,234.4,174.428,232.935Z" transform="translate(-161.132 -224.205)" fill="#4b95fa"/>
                    </g>
                  </g>
                </g>
                <g id="Group_4557" data-name="Group 4557" transform="translate(60.797 29.469)">
                  <g id="Group_4556" data-name="Group 4556">
                    <g id="Group_4555" data-name="Group 4555">
                      <path id="Path_19450" data-name="Path 19450" d="M211.433,182.161a2.444,2.444,0,0,1-.833-.883s-.171.029-.434.064c2.677-.8,4.159-4,4.159-4C214.5,179.763,211.439,182.156,211.433,182.161Z" transform="translate(-210.165 -177.343)" fill="#67e2e8"/>
                    </g>
                  </g>
                </g>
                <g id="Group_4560" data-name="Group 4560" transform="translate(57.339 28.811)">
                  <g id="Group_4559" data-name="Group 4559">
                    <g id="Group_4558" data-name="Group 4558">
                      <path id="Path_19451" data-name="Path 19451" d="M206.148,181.071s-.052.687-.2,1.655h0a14.444,14.444,0,0,1,.225-6.237,16.618,16.618,0,0,0,.769,4.791A1.43,1.43,0,0,1,206.148,181.071Z" transform="translate(-205.676 -176.489)" fill="#67e2e8"/>
                    </g>
                  </g>
                </g>
                <g id="Group_4563" data-name="Group 4563" transform="translate(66.124 33.366)">
                  <g id="Group_4562" data-name="Group 4562">
                    <g id="Group_4561" data-name="Group 4561">
                      <path id="Path_19452" data-name="Path 19452" d="M218.427,186.288a8.276,8.276,0,0,1-.245-.987s-.451-.1-1.1-.286a13.318,13.318,0,0,0,7.43-2.613A11.92,11.92,0,0,1,218.427,186.288Z" transform="translate(-217.081 -182.402)" fill="#67e2e8"/>
                    </g>
                  </g>
                </g>
                <g id="Group_4570" data-name="Group 4570" transform="translate(70.956 44.315)">
                  <g id="Group_4566" data-name="Group 4566" transform="translate(0 1.999)" opacity="0.52">
                    <g id="Group_4565" data-name="Group 4565">
                      <g id="Group_4564" data-name="Group 4564">
                        <path id="Path_19453" data-name="Path 19453" d="M224.486,199.213a5.876,5.876,0,0,1-1.132.151C223.7,199.309,224.12,199.25,224.486,199.213Z" transform="translate(-223.354 -199.213)" fill="#e28c61"/>
                      </g>
                    </g>
                  </g>
                  <g id="Group_4569" data-name="Group 4569" transform="translate(0.838)">
                    <g id="Group_4568" data-name="Group 4568">
                      <g id="Group_4567" data-name="Group 4567">
                        <path id="Path_19454" data-name="Path 19454" d="M224.442,196.618s8.313,2.776,9.448,6.413h0a11.329,11.329,0,0,0-8.072-4.472l-.342-.029c-.117-.239-.575-1.161-1.034-1.912Z" transform="translate(-224.442 -196.618)" fill="#67e2e8"/>
                      </g>
                    </g>
                  </g>
                </g>
                <g id="Group_4573" data-name="Group 4573" transform="translate(53.749 14.431)">
                  <g id="Group_4572" data-name="Group 4572">
                    <g id="Group_4571" data-name="Group 4571">
                      <path id="Path_19455" data-name="Path 19455" d="M215.5,163.257s-12.991-4.985-14.486-5.438l12.138,6.044Z" transform="translate(-201.014 -157.819)" fill="#67e2e8"/>
                    </g>
                  </g>
                </g>
                <g id="Group_4576" data-name="Group 4576" transform="translate(62.027 6.589)">
                  <g id="Group_4575" data-name="Group 4575">
                    <g id="Group_4574" data-name="Group 4574">
                      <path id="Path_19456" data-name="Path 19456" d="M216.8,147.637a11.023,11.023,0,0,1-2.566,2.65,17.744,17.744,0,0,0,2.523-.106v0l-4.993.632A8.971,8.971,0,0,0,216.8,147.637Z" transform="translate(-211.761 -147.637)" fill="#67e2e8"/>
                    </g>
                  </g>
                </g>
                <g id="Group_4579" data-name="Group 4579" transform="translate(52.273 5.732)">
                  <g id="Group_4578" data-name="Group 4578">
                    <g id="Group_4577" data-name="Group 4577">
                      <path id="Path_19457" data-name="Path 19457" d="M199.1,148.045c.749-.364.372-1.312.277-1.521a2.989,2.989,0,0,1,.424,1.049s.672-.272,1.539-.6C200.659,147.227,199.1,148.045,199.1,148.045Z" transform="translate(-199.098 -146.524)" fill="#67e2e8"/>
                    </g>
                  </g>
                </g>
                <g id="Group_4582" data-name="Group 4582" transform="translate(69.886 45.881)">
                  <g id="Group_4581" data-name="Group 4581">
                    <g id="Group_4580" data-name="Group 4580">
                      <path id="Path_19458" data-name="Path 19458" d="M233.321,203.5a12.083,12.083,0,0,0-11.356-4.054,24.6,24.6,0,0,1,4.134-.793,13.044,13.044,0,0,1,3.823,1.716,17.989,17.989,0,0,1,2.15,1.532Z" transform="translate(-221.965 -198.651)" fill="#67e2e8"/>
                    </g>
                  </g>
                </g>
              </g>
              <g id="Group_4586" data-name="Group 4586" transform="translate(27.364 50.623)">
                <g id="Group_4585" data-name="Group 4585">
                  <g id="Group_4584" data-name="Group 4584">
                    <path id="Path_19459" data-name="Path 19459" d="M158.025,204.808s11.345,12.682,7.41,25.159l-4.956-.045Z" transform="translate(-158.025 -204.808)" fill="#4b95fa"/>
                  </g>
                </g>
              </g>
              <path id="Path_19460" data-name="Path 19460" d="M137.75,189.044c-3.843-1.745-7.2-1.556-9.713.17l0-.006-5.536,3.966a16.041,16.041,0,0,1,3.343,1.109c10.316,4.684,19.791,19.855,21.163,33.888a27.127,27.127,0,0,1-.568,9.451l5.62-4.026,0,0c3.307-2.429,5.066-7.615,4.379-14.632C155.222,206.573,146.858,193.179,137.75,189.044Z" transform="translate(-122.498 -150.282)" fill="#fff"/>
            </g>
          </g>
          <g id="Group_4592" data-name="Group 4592" transform="translate(0 42.62)" style="mix-blend-mode: lighten;isolation: isolate">
            <g id="Group_4591" data-name="Group 4591">
              <g id="Group_4590" data-name="Group 4590">
                <g id="Group_4589" data-name="Group 4589">
                  <path id="Path_19461" data-name="Path 19461" d="M64.213,222.463v0l.022-.016.068-.049,35.988-26.412,0,.007c2.844-1.955,6.648-2.17,11-.193,10.316,4.683,19.791,19.855,21.163,33.887.776,7.948-1.215,13.822-4.961,16.574l0,0L91.866,272.415c-.029.022-.059.042-.089.063l-.316.226,0-.007c-2.836,1.907-6.612,2.1-10.926.142-10.316-4.684-19.792-19.855-21.163-33.888C58.6,231.086,60.542,225.25,64.213,222.463Z" transform="translate(-59.203 -194.417)" fill="url(#linear-gradient-4)"/>
                </g>
              </g>
            </g>
          </g>
        </g>
      </g>
      <g id="Group_4595" data-name="Group 4595" transform="translate(124.672 140.205)">
        <rect id="Rectangle_1248" data-name="Rectangle 1248" width="2.318" height="2.318" transform="translate(0 4.767) rotate(-45)" fill="#81dafe"/>
        <rect id="Rectangle_1249" data-name="Rectangle 1249" width="2.318" height="2.318" transform="translate(3.128 1.639) rotate(-45)" fill="#81dafe"/>
        <rect id="Rectangle_1250" data-name="Rectangle 1250" width="2.318" height="2.318" transform="translate(2.81 7.578) rotate(-45)" fill="#81dafe"/>
        <rect id="Rectangle_1251" data-name="Rectangle 1251" width="2.318" height="2.318" transform="matrix(0.707, -0.707, 0.707, 0.707, 5.938, 4.45)" fill="#81dafe"/>
      </g>
      <g id="Group_4596" data-name="Group 4596" transform="translate(297.971 274.52)">
        <rect id="Rectangle_1252" data-name="Rectangle 1252" width="6.849" height="1.669" transform="translate(0 0)" fill="#99f1fe"/>
        <rect id="Rectangle_1253" data-name="Rectangle 1253" width="6.849" height="1.669" transform="translate(10.616 0)" fill="#99f1fe" opacity="0.6"/>
        <rect id="Rectangle_1254" data-name="Rectangle 1254" width="6.849" height="1.669" transform="translate(21.232 0)" fill="#99f1fe" opacity="0.4"/>
        <rect id="Rectangle_1255" data-name="Rectangle 1255" width="6.849" height="1.669" transform="translate(31.848 0)" fill="#99f1fe" opacity="0.2"/>
      </g>
      <g id="Group_4597" data-name="Group 4597" transform="translate(194.37 158.203)">
        <rect id="Rectangle_1256" data-name="Rectangle 1256" width="2.709" height="2.709" transform="translate(0 0)" fill="#81dafe" opacity="0.9"/>
        <rect id="Rectangle_1257" data-name="Rectangle 1257" width="2.709" height="2.709" transform="translate(8.127 0)" fill="#81dafe"/>
        <rect id="Rectangle_1258" data-name="Rectangle 1258" width="2.709" height="2.709" transform="translate(13.545 0)" fill="#81dafe" opacity="0.8"/>
        <rect id="Rectangle_1259" data-name="Rectangle 1259" width="2.709" height="2.709" transform="translate(5.418 0)" fill="#81dafe" opacity="0.7"/>
        <rect id="Rectangle_1260" data-name="Rectangle 1260" width="2.709" height="2.709" transform="translate(18.963 0)" fill="#81dafe" opacity="0.6"/>
        <rect id="Rectangle_1261" data-name="Rectangle 1261" width="2.709" height="2.709" transform="translate(10.836 0)" fill="#81dafe" opacity="0.4"/>
        <rect id="Rectangle_1262" data-name="Rectangle 1262" width="2.709" height="2.709" transform="translate(24.382 0)" fill="#81dafe" opacity="0.3"/>
        <rect id="Rectangle_1263" data-name="Rectangle 1263" width="2.709" height="2.709" transform="translate(16.254 0)" fill="#81dafe" opacity="0.2"/>
        <rect id="Rectangle_1264" data-name="Rectangle 1264" width="2.709" height="2.709" transform="translate(29.8 0)" fill="#81dafe" opacity="0.1"/>
      </g>
      <g id="Group_4598" data-name="Group 4598" transform="translate(240.747 148.643)">
        <path id="Path_19462" data-name="Path 19462" d="M294.908,156.061v-4.567l3.851,2.284Z" transform="translate(-294.908 -151.494)" fill="#4b95fa"/>
        <path id="Path_19463" data-name="Path 19463" d="M305.945,151.494v4.567l-3.851-2.283Z" transform="translate(-296.559 -151.494)" fill="#81dafe"/>
      </g>
      <g id="Group_4600" data-name="Group 4600" transform="translate(239.36 273.143)">
        <g id="Group_4599" data-name="Group 4599">
          <path id="Path_19464" data-name="Path 19464" d="M303.475,314.9a1.76,1.76,0,1,1,1.76,1.759A1.76,1.76,0,0,1,303.475,314.9Z" transform="translate(-295.489 -313.138)" fill="#fe4ffe" opacity="0.3"/>
          <path id="Path_19465" data-name="Path 19465" d="M293.107,314.9a1.76,1.76,0,1,1,1.76,1.759A1.76,1.76,0,0,1,293.107,314.9Z" transform="translate(-293.107 -313.138)" fill="#81dafe"/>
        </g>
        <path id="Path_19466" data-name="Path 19466" d="M298.291,322.923a1.76,1.76,0,1,1,1.76,1.76A1.76,1.76,0,0,1,298.291,322.923Z" transform="translate(-294.298 -314.982)" fill="#81dafe" opacity="0.3"/>
      </g>
    </g>
  </g>
</svg>
