<svg xmlns="http://www.w3.org/2000/svg" xmlns:xlink="http://www.w3.org/1999/xlink" width="300.338" height="219.762" viewBox="0 0 300.338 219.762">
  <defs>
    <linearGradient id="linear-gradient" x1="-19.059" y1="0.022" x2="-18.234" y2="0.619" gradientUnits="objectBoundingBox">
      <stop offset="0.056" stop-color="#9f79b8"/>
      <stop offset="0.257" stop-color="#a17bba"/>
      <stop offset="0.357" stop-color="#a783bf"/>
      <stop offset="0.434" stop-color="#b290c9"/>
      <stop offset="0.495" stop-color="#c1a1d5"/>
      <stop offset="0.507" stop-color="#c4a5d7"/>
      <stop offset="0.52" stop-color="#cdb3dd"/>
      <stop offset="0.533" stop-color="#dbc8e7"/>
      <stop offset="0.547" stop-color="#efe7f4"/>
      <stop offset="0.556" stop-color="#fff"/>
      <stop offset="0.568" stop-color="#ece0f3"/>
      <stop offset="0.58" stop-color="#ddc8ea"/>
      <stop offset="0.591" stop-color="#d4b9e5"/>
      <stop offset="0.601" stop-color="#d1b4e3"/>
      <stop offset="0.658" stop-color="#b395d6"/>
      <stop offset="0.715" stop-color="#9c7dcb"/>
      <stop offset="0.769" stop-color="#8e6ec5"/>
      <stop offset="0.813" stop-color="#8969c3"/>
      <stop offset="1" stop-color="#b086cc"/>
    </linearGradient>
    <radialGradient id="radial-gradient" cx="0.972" cy="0.218" r="0.376" gradientTransform="translate(26.247) scale(2.427 1)" gradientUnits="objectBoundingBox">
      <stop offset="0" stop-color="#af8afc"/>
      <stop offset="1" stop-color="#10054d"/>
    </radialGradient>
    <linearGradient id="linear-gradient-2" x1="-0.785" y1="0.778" x2="1.097" y2="0.37" gradientUnits="objectBoundingBox">
      <stop offset="0" stop-color="#9f79c8"/>
      <stop offset="0.141" stop-color="#a27dca"/>
      <stop offset="0.273" stop-color="#ac88cf"/>
      <stop offset="0.4" stop-color="#bc9bd7"/>
      <stop offset="0.52" stop-color="#d1b4e3"/>
      <stop offset="0.649" stop-color="#dbc4e9"/>
      <stop offset="0.9" stop-color="#f4edf8"/>
      <stop offset="1" stop-color="#fff"/>
    </linearGradient>
    <linearGradient id="linear-gradient-3" x1="-21.123" y1="0.5" x2="-20.122" y2="0.5" gradientUnits="objectBoundingBox">
      <stop offset="0" stop-color="#25054d"/>
      <stop offset="1" stop-color="#45108a"/>
    </linearGradient>
    <linearGradient id="linear-gradient-4" x1="-21.642" y1="0.071" x2="-20.326" y2="1.135" gradientUnits="objectBoundingBox">
      <stop offset="0.01" stop-color="#9f19ab"/>
      <stop offset="0.429" stop-color="#5f27bd"/>
      <stop offset="0.904" stop-color="#3d065f"/>
    </linearGradient>
    <linearGradient id="linear-gradient-5" x1="10.711" y1="0.501" x2="11.765" y2="0.501" xlink:href="#linear-gradient"/>
    <linearGradient id="linear-gradient-6" x1="11.023" y1="0.681" x2="11.502" y2="0.233" xlink:href="#linear-gradient-2"/>
    <linearGradient id="linear-gradient-7" x1="14.929" y1="0.643" x2="15.056" y2="0.277" gradientUnits="objectBoundingBox">
      <stop offset="0" stop-color="#fff"/>
      <stop offset="1"/>
    </linearGradient>
    <linearGradient id="linear-gradient-8" x1="52.934" y1="-0.172" x2="51.262" y2="0.896" xlink:href="#linear-gradient-2"/>
    <linearGradient id="linear-gradient-10" x1="8.163" y1="1.021" x2="7.334" y2="0.063" xlink:href="#linear-gradient"/>
    <radialGradient id="radial-gradient-2" cx="0.975" cy="0.43" r="0.103" gradientTransform="translate(-3.258) scale(1.402 1)" xlink:href="#linear-gradient-7"/>
    <linearGradient id="linear-gradient-11" x1="0.022" y1="0.5" x2="1.061" y2="0.5" xlink:href="#linear-gradient"/>
    <linearGradient id="linear-gradient-12" y1="0.5" x2="1" y2="0.5" gradientUnits="objectBoundingBox">
      <stop offset="0" stop-color="#9f79c8"/>
      <stop offset="0.137" stop-color="#a580cb"/>
      <stop offset="0.329" stop-color="#b492d3"/>
      <stop offset="0.553" stop-color="#cdb0e1"/>
      <stop offset="0.581" stop-color="#d1b4e3"/>
      <stop offset="0.764" stop-color="#dbc4e9"/>
      <stop offset="1" stop-color="#ebdef3"/>
    </linearGradient>
    <linearGradient id="linear-gradient-13" x1="0.001" y1="0.5" x2="0.999" y2="0.5" gradientUnits="objectBoundingBox">
      <stop offset="0" stop-color="#3d065f"/>
      <stop offset="1" stop-color="#5f27bd"/>
    </linearGradient>
    <linearGradient id="linear-gradient-14" x1="-10.447" y1="2.737" x2="-11.121" y2="1.854" gradientUnits="objectBoundingBox">
      <stop offset="0" stop-color="#3d065f"/>
      <stop offset="1" stop-color="#12054e"/>
      <stop offset="1" stop-color="#10054d"/>
    </linearGradient>
    <linearGradient id="linear-gradient-15" x1="0.296" y1="-0.053" x2="0.706" y2="1.059" gradientUnits="objectBoundingBox">
      <stop offset="0.056" stop-color="#9f79b8"/>
      <stop offset="0.25" stop-color="#a17bba"/>
      <stop offset="0.346" stop-color="#a883c0"/>
      <stop offset="0.42" stop-color="#b490cc"/>
      <stop offset="0.484" stop-color="#c5a3dc"/>
      <stop offset="0.539" stop-color="#dbbbf0"/>
      <stop offset="0.561" stop-color="#e6c6fa"/>
      <stop offset="0.597" stop-color="#d6b6f1"/>
      <stop offset="0.687" stop-color="#b595dd"/>
      <stop offset="0.774" stop-color="#9d7dcf"/>
      <stop offset="0.853" stop-color="#8e6ec6"/>
      <stop offset="0.919" stop-color="#8969c3"/>
    </linearGradient>
    <linearGradient id="linear-gradient-16" x1="64.961" y1="-0.171" x2="63.267" y2="0.897" xlink:href="#linear-gradient-2"/>
    <linearGradient id="linear-gradient-18" x1="15.26" y1="1.023" x2="14.423" y2="0.062" xlink:href="#linear-gradient"/>
    <radialGradient id="radial-gradient-3" cx="0.976" cy="0.429" r="0.103" gradientTransform="translate(-6.27) scale(1.41 1)" xlink:href="#linear-gradient-7"/>
    <linearGradient id="linear-gradient-19" x1="-254.415" y1="0.528" x2="-251.108" y2="0.188" gradientUnits="objectBoundingBox">
      <stop offset="0.035" stop-color="#138bbd"/>
      <stop offset="0.226" stop-color="#169ac7"/>
      <stop offset="0.595" stop-color="#1fc3df"/>
      <stop offset="1" stop-color="#2af6ff"/>
    </linearGradient>
    <linearGradient id="linear-gradient-20" x1="-62.035" y1="0.801" x2="-58.927" y2="0.187" xlink:href="#linear-gradient-19"/>
    <linearGradient id="linear-gradient-21" x1="-48.471" y1="-0.315" x2="-48.776" y2="0.676" xlink:href="#linear-gradient-19"/>
    <linearGradient id="linear-gradient-22" x1="-370.327" y1="0.908" x2="-371.056" y2="-0.081" gradientUnits="objectBoundingBox">
      <stop offset="0.288" stop-color="#838091"/>
      <stop offset="0.466" stop-color="#a5a2b1"/>
      <stop offset="0.586" stop-color="#b7b4c2"/>
      <stop offset="0.808" stop-color="#9b98a7"/>
    </linearGradient>
    <linearGradient id="linear-gradient-23" x1="-390.217" y1="0.81" x2="-389.54" y2="-0.08" gradientUnits="objectBoundingBox">
      <stop offset="0.035" stop-color="#9d9eb3"/>
      <stop offset="0.581" stop-color="#d4d1d8"/>
      <stop offset="1" stop-color="#eeebf2"/>
    </linearGradient>
    <linearGradient id="linear-gradient-24" x1="-388.169" y1="0.908" x2="-388.823" y2="-0.017" gradientUnits="objectBoundingBox">
      <stop offset="0.167" stop-color="#838091"/>
      <stop offset="0.417" stop-color="#a5a2b1"/>
      <stop offset="0.586" stop-color="#b7b4c2"/>
      <stop offset="0.909" stop-color="#9b98a7"/>
    </linearGradient>
    <linearGradient id="linear-gradient-25" x1="-450.296" y1="0.821" x2="-449.627" y2="-0.051" xlink:href="#linear-gradient-23"/>
    <radialGradient id="radial-gradient-4" cx="0.698" cy="0.356" r="0.409" gradientTransform="translate(300.326) scale(1.568 1)" xlink:href="#linear-gradient-7"/>
    <linearGradient id="linear-gradient-26" x1="-370.325" y1="0.9" x2="-371.05" y2="-0.088" xlink:href="#linear-gradient-22"/>
    <linearGradient id="linear-gradient-27" x1="-390.21" y1="0.801" x2="-389.533" y2="-0.092" xlink:href="#linear-gradient-23"/>
    <linearGradient id="linear-gradient-28" x1="-388.162" y1="0.928" x2="-388.816" y2="0.002" xlink:href="#linear-gradient-24"/>
    <linearGradient id="linear-gradient-29" x1="-450.291" y1="0.812" x2="-449.622" y2="-0.06" xlink:href="#linear-gradient-23"/>
    <radialGradient id="radial-gradient-5" cx="0.661" cy="0.348" r="0.409" gradientTransform="translate(305.964) scale(1.575 1)" xlink:href="#linear-gradient-7"/>
    <linearGradient id="linear-gradient-30" x1="-370.302" y1="0.899" x2="-371.031" y2="-0.09" xlink:href="#linear-gradient-22"/>
    <linearGradient id="linear-gradient-31" x1="-390.223" y1="0.8" x2="-389.547" y2="-0.093" xlink:href="#linear-gradient-23"/>
    <linearGradient id="linear-gradient-32" x1="-388.142" y1="0.926" x2="-388.796" y2="0" xlink:href="#linear-gradient-24"/>
    <linearGradient id="linear-gradient-33" x1="-450.303" y1="0.81" x2="-449.634" y2="-0.062" xlink:href="#linear-gradient-23"/>
    <radialGradient id="radial-gradient-6" cx="0.692" cy="0.345" r="0.409" gradientTransform="translate(305.946) scale(1.575 1)" xlink:href="#linear-gradient-7"/>
    <linearGradient id="linear-gradient-34" x1="0.186" y1="0.014" x2="1.015" y2="1.078" gradientUnits="objectBoundingBox">
      <stop offset="0" stop-color="#1bb0d4"/>
      <stop offset="0.077" stop-color="#1ebfdd"/>
      <stop offset="0.225" stop-color="#27e8f6"/>
      <stop offset="0.273" stop-color="#2af6ff"/>
      <stop offset="0.752" stop-color="#138bbd"/>
      <stop offset="0.894" stop-color="#1ebfdd"/>
      <stop offset="1" stop-color="#1aaad1"/>
    </linearGradient>
    <linearGradient id="linear-gradient-35" x1="-34.724" y1="0.742" x2="-31.892" y2="0.248" xlink:href="#linear-gradient-19"/>
    <radialGradient id="radial-gradient-7" cx="0.5" cy="0.5" r="0.84" gradientTransform="translate(0.268) scale(0.464 1)" gradientUnits="objectBoundingBox">
      <stop offset="0" stop-color="#dc3daa"/>
      <stop offset="0.5" stop-color="#ae2eb9"/>
      <stop offset="1" stop-color="#7c1dc9"/>
    </radialGradient>
    <radialGradient id="radial-gradient-8" cx="0.5" cy="0.5" r="0.701" gradientTransform="translate(0.208) scale(0.584 1)" xlink:href="#radial-gradient-7"/>
    <radialGradient id="radial-gradient-9" cx="0.5" cy="0.5" r="0.514" gradientTransform="translate(0.025) scale(0.949 1)" xlink:href="#radial-gradient-7"/>
    <linearGradient id="linear-gradient-36" x1="0.114" y1="0.543" x2="1.097" y2="0.43" gradientUnits="objectBoundingBox">
      <stop offset="0.03" stop-color="#7c1dc9"/>
      <stop offset="0.214" stop-color="#6e41d2"/>
      <stop offset="0.618" stop-color="#4c9be8"/>
      <stop offset="1" stop-color="#2af6ff"/>
    </linearGradient>
    <linearGradient id="linear-gradient-37" x1="-0.001" y1="0.501" x2="0.999" y2="0.501" xlink:href="#linear-gradient-36"/>
    <linearGradient id="linear-gradient-38" x1="0.142" y1="0.533" x2="1.123" y2="0.435" xlink:href="#linear-gradient-36"/>
    <linearGradient id="linear-gradient-39" x1="-0.001" y1="0.499" x2="0.999" y2="0.499" xlink:href="#linear-gradient-36"/>
    <linearGradient id="linear-gradient-40" x1="0.093" y1="0.551" x2="1.076" y2="0.425" xlink:href="#linear-gradient-36"/>
    <linearGradient id="linear-gradient-41" x1="0.003" y1="0.5" x2="0.999" y2="0.5" xlink:href="#linear-gradient-36"/>
  </defs>
  <g id="Web_Development_1.1" data-name="Web Development 1.1" transform="translate(-53.373 261.479)">
    <g id="Group_5616" data-name="Group 5616" transform="translate(-414.203 -394.24)">
      <g id="Group_5615" data-name="Group 5615" transform="translate(467.576 167.374)">
        <g id="Group_5614" data-name="Group 5614">
          <path id="Path_22756" data-name="Path 22756" d="M707.135,220.267l-96.84,56.276c-20.63,11.988-54.181,11.988-74.945,0l-97.475-56.276c-10.449-6.032-15.667-13.952-15.645-21.859l-.031,11.2c-.022,7.906,5.2,15.824,15.645,21.856l97.472,56.276c20.765,11.988,54.318,11.988,74.948,0L707.1,231.466c10.251-5.956,15.382-13.751,15.4-21.554l.034-11.2C722.514,206.516,717.383,214.31,707.135,220.267Z" transform="translate(-422.198 -111.585)" fill="#852dee"/>
          <g id="Group_5613" data-name="Group 5613" transform="translate(0.031)">
            <g id="Group_5612" data-name="Group 5612">
              <path id="Path_22757" data-name="Path 22757" d="M706.871,232.644c20.765,11.988,20.874,31.421.244,43.412l-96.84,56.276c-20.631,11.988-54.181,11.988-74.945,0l-97.475-56.276c-20.765-11.988-20.874-31.424-.243-43.412l96.84-56.276c20.63-11.991,54.181-11.991,74.945,0Z" transform="translate(-422.209 -162.375)" fill="#f5f0fa"/>
            </g>
          </g>
        </g>
      </g>
    </g>
    <g id="Web_Development_1.1-2" data-name="Web Development 1.1" transform="translate(52.615 -353.211)">
      <g id="Group_13465" data-name="Group 13465" transform="translate(96.953 97.521)">
        <g id="Group_13464" data-name="Group 13464" transform="translate(0 57.881)" opacity="0.2">
          <path id="Path_42211" data-name="Path 42211" d="M156.681,210.211A8.85,8.85,0,0,1,152,209.06l-14.034-8.132-14.106-8.132a4.875,4.875,0,0,1-2.663-4.246,5.646,5.646,0,0,1,3.239-4.822l3.526-2.087a11.306,11.306,0,0,1,5.686-1.439,8.85,8.85,0,0,1,4.678,1.152l14.106,8.132,14.106,8.133a4.875,4.875,0,0,1,2.663,4.246,5.646,5.646,0,0,1-3.239,4.822l-3.526,2.087A11.78,11.78,0,0,1,156.681,210.211Z" transform="translate(-121.2 -180.2)" opacity="0"/>
          <path id="Path_42212" data-name="Path 42212" d="M124.618,184.008l.72-.432c.072-.072,2.663-1.583,2.735-1.583a11.149,11.149,0,0,1,5.614-1.3,2.952,2.952,0,0,1,.792.072,9.936,9.936,0,0,1,3.742,1.152l13.89,7.989,13.818,7.989a5.633,5.633,0,0,1,2.591,3.095,4.247,4.247,0,0,1,.144,1.008,5.382,5.382,0,0,1-3.023,4.75l-.72.432c-.072.072-2.663,1.583-2.735,1.583a11.149,11.149,0,0,1-5.614,1.3,2.952,2.952,0,0,1-.792-.072,9.936,9.936,0,0,1-3.742-1.151l-13.89-7.989L124.33,192.86a5.633,5.633,0,0,1-2.591-3.095,4.247,4.247,0,0,1-.144-1.008C121.451,186.959,122.531,185.231,124.618,184.008Z" transform="translate(-121.307 -180.338)" opacity="0.091"/>
          <path id="Path_42213" data-name="Path 42213" d="M124.868,184.42l.72-.36c.144-.072,2.519-1.439,2.735-1.511a11.683,11.683,0,0,1,5.47-1.152c.288,0,.5.072.72.072a9.616,9.616,0,0,1,3.67,1.223l13.6,7.845,13.6,7.845a6.318,6.318,0,0,1,2.591,2.951,3.57,3.57,0,0,1,.216.936c.216,1.727-.792,3.526-2.879,4.678l-.72.36c-.144.072-2.519,1.439-2.735,1.511a11.682,11.682,0,0,1-5.47,1.152c-.288,0-.5-.072-.72-.072a9.616,9.616,0,0,1-3.67-1.223l-13.6-7.845-13.6-7.845a6.318,6.318,0,0,1-2.591-2.951,3.57,3.57,0,0,1-.216-.936C121.773,187.37,122.78,185.643,124.868,184.42Z" transform="translate(-121.413 -180.533)" opacity="0.182"/>
          <path id="Path_42214" data-name="Path 42214" d="M125.043,184.811l.72-.36c.216-.144,2.447-1.367,2.663-1.439a9.8,9.8,0,0,1,5.4-.936c.216,0,.5.072.72.072a13.237,13.237,0,0,1,3.6,1.224l13.386,7.7,13.314,7.7a6.614,6.614,0,0,1,2.663,2.807c.072.288.216.576.288.864.288,1.727-.648,3.455-2.663,4.606l-.72.36c-.216.144-2.447,1.367-2.663,1.439a10.481,10.481,0,0,1-5.4.936c-.216,0-.5-.072-.72-.072a13.237,13.237,0,0,1-3.6-1.223l-13.386-7.7-13.314-7.7a6.614,6.614,0,0,1-2.663-2.807c-.072-.288-.216-.576-.288-.864C122.092,187.69,123.028,185.962,125.043,184.811Z" transform="translate(-121.517 -180.709)" opacity="0.273"/>
          <path id="Path_42215" data-name="Path 42215" d="M125.3,185.192l.72-.36c.288-.144,2.3-1.3,2.663-1.367a10.274,10.274,0,0,1,5.326-.792,2.557,2.557,0,0,1,.72.144,12.3,12.3,0,0,1,3.454,1.3l13.1,7.557,13.026,7.557a7.843,7.843,0,0,1,2.663,2.663c.072.288.216.576.288.864.432,1.655-.5,3.311-2.519,4.534l-.72.36c-.288.144-2.3,1.3-2.663,1.367a10.274,10.274,0,0,1-5.326.792,2.557,2.557,0,0,1-.72-.144,12.3,12.3,0,0,1-3.455-1.3l-13.1-7.557-12.954-7.557a7.843,7.843,0,0,1-2.663-2.663c-.072-.288-.216-.576-.288-.864C122.426,188.07,123.29,186.343,125.3,185.192Z" transform="translate(-121.634 -180.873)" opacity="0.364"/>
          <path id="Path_42216" data-name="Path 42216" d="M125.535,185.56l.72-.36a21.742,21.742,0,0,1,2.591-1.3,9.874,9.874,0,0,1,5.182-.648,3.168,3.168,0,0,1,.72.144,20.683,20.683,0,0,1,3.383,1.3l12.882,7.413,12.81,7.413a10.282,10.282,0,0,1,2.735,2.519,3.857,3.857,0,0,1,.36.792c.5,1.583-.288,3.239-2.3,4.39l-.72.36a21.743,21.743,0,0,1-2.591,1.3,10.66,10.66,0,0,1-5.182.648c-.216-.072-.432-.072-.72-.144a20.684,20.684,0,0,1-3.383-1.3l-12.882-7.413-12.81-7.413a10.282,10.282,0,0,1-2.735-2.519,3.857,3.857,0,0,1-.36-.792C122.656,188.438,123.52,186.711,125.535,185.56Z" transform="translate(-121.72 -181.026)" opacity="0.454"/>
          <path id="Path_42217" data-name="Path 42217" d="M125.687,185.966l.72-.288A14.313,14.313,0,0,1,129,184.454a10.3,10.3,0,0,1,5.11-.5,2.1,2.1,0,0,0,.648.144,22.777,22.777,0,0,1,3.311,1.367l12.595,7.269L163.183,200c.648.36,2.591,1.8,2.735,2.375.144.216.288.5.432.72.648,1.511-.144,3.167-2.159,4.318l-.72.288a14.311,14.311,0,0,1-2.591,1.223,10.3,10.3,0,0,1-5.11.5,2.1,2.1,0,0,0-.648-.144,22.778,22.778,0,0,1-3.311-1.367l-12.595-7.269L126.7,193.379c-.648-.36-2.591-1.8-2.735-2.375-.144-.216-.288-.5-.432-.72C122.953,188.844,123.744,187.117,125.687,185.966Z" transform="translate(-121.801 -181.216)" opacity="0.545"/>
          <path id="Path_42218" data-name="Path 42218" d="M125.933,186.323l.648-.288a11.343,11.343,0,0,1,2.519-1.152,9.286,9.286,0,0,1,5.038-.36l.648.216a21.189,21.189,0,0,1,3.167,1.439L150.33,193.3l12.235,7.053a12.775,12.775,0,0,1,2.807,2.231,1.7,1.7,0,0,1,.432.648c.72,1.439.072,3.095-1.943,4.246l-.648.288a11.342,11.342,0,0,1-2.519,1.152,10.031,10.031,0,0,1-5.038.36l-.648-.216a21.19,21.19,0,0,1-3.167-1.439L139.463,200.5l-12.235-7.053a12.774,12.774,0,0,1-2.807-2.231,1.7,1.7,0,0,1-.432-.648C123.27,189.13,123.917,187.474,125.933,186.323Z" transform="translate(-121.902 -181.357)" opacity="0.636"/>
          <path id="Path_42219" data-name="Path 42219" d="M126.176,186.7l.648-.288a13.277,13.277,0,0,1,2.519-1.08,9.738,9.738,0,0,1,4.966-.216l.648.216c.36.072,2.807,1.3,3.095,1.439l12.091,6.981,12.019,6.909c.36.216,2.735,1.727,2.807,2.087a3.957,3.957,0,0,1,.5.648c.864,1.367.216,3.023-1.727,4.174l-.648.288a13.274,13.274,0,0,1-2.519,1.08,9.738,9.738,0,0,1-4.966.216l-.648-.216c-.36-.072-2.807-1.3-3.095-1.439l-12.091-6.981L127.759,193.6c-.36-.216-2.735-1.727-2.807-2.087a3.955,3.955,0,0,1-.5-.648C123.585,189.5,124.161,187.847,126.176,186.7Z" transform="translate(-122.002 -181.514)" opacity="0.727"/>
          <path id="Path_42220" data-name="Path 42220" d="M126.394,187.087l.648-.216a10.323,10.323,0,0,1,2.447-1.008,8.455,8.455,0,0,1,4.822,0,4.954,4.954,0,0,1,.576.216,18.943,18.943,0,0,1,2.951,1.511l11.875,6.837,11.731,6.765a21.353,21.353,0,0,1,2.807,1.943,4.344,4.344,0,0,1,.576.576c.936,1.3.432,2.951-1.583,4.1l-.648.216a10.324,10.324,0,0,1-2.447,1.008,9.132,9.132,0,0,1-4.822,0,4.957,4.957,0,0,1-.576-.216,18.942,18.942,0,0,1-2.951-1.511l-11.875-6.837-11.731-6.765a21.353,21.353,0,0,1-2.807-1.943,4.345,4.345,0,0,1-.576-.576C123.8,189.893,124.379,188.238,126.394,187.087Z" transform="translate(-122.076 -181.689)" opacity="0.818"/>
          <path id="Path_42221" data-name="Path 42221" d="M126.55,187.453l.648-.216a9.085,9.085,0,0,1,2.447-.936,8.81,8.81,0,0,1,4.75.144,1.447,1.447,0,0,1,.576.288c.144,0,2.807,1.511,2.879,1.583l11.587,6.693,11.443,6.621c.144.072,2.879,1.727,2.879,1.8.216.144.432.36.648.5,1.08,1.223.576,2.879-1.367,4.03l-.648.216a9.085,9.085,0,0,1-2.447.936,8.81,8.81,0,0,1-4.75-.144,1.447,1.447,0,0,1-.576-.288c-.144,0-2.807-1.511-2.879-1.583l-11.587-6.693-11.443-6.621c-.144-.072-2.879-1.727-2.879-1.8-.216-.144-.432-.36-.648-.5C124.1,190.259,124.607,188.6,126.55,187.453Z" transform="translate(-122.16 -181.839)" opacity="0.909"/>
          <path id="Path_42222" data-name="Path 42222" d="M154.4,208.555l-14.106-8.132-14.106-8.132c-1.943-1.151-1.727-3.095.576-4.39l.648-.216c2.231-1.3,5.686-1.439,7.629-.288l14.106,8.132,14.106,8.132c1.943,1.152,1.727,3.095-.576,4.39l-.648.216A8.9,8.9,0,0,1,154.4,208.555Z" transform="translate(-122.228 -181.998)"/>
        </g>
        <path id="Path_42223" data-name="Path 42223" d="M157.775,183.349l-26.053-15.185c-2.375-1.367-4.318-5.11-4.318-8.276V103.535c0-1.655-1.3-1.943-.5-2.591,0,0,1.871-.864,1.943-.864a3.1,3.1,0,0,1,2.951.144l26.053,15.185c2.375,1.367,4.318,5.11,4.318,8.276V180.11a3.926,3.926,0,0,1-1.439,3.455c-.072,0-2.3,1.08-2.375,1.152C157.559,184.932,158.854,183.925,157.775,183.349Z" transform="translate(-122.726 -99.775)" fill="url(#linear-gradient)"/>
        <path id="Path_42224" data-name="Path 42224" d="M155.771,184.411l-26.053-15.185c-2.375-1.367-4.318-5.11-4.318-8.276V104.526c0-3.167,1.943-4.678,4.318-3.239l26.053,15.185c2.375,1.367,4.318,5.11,4.318,8.276v56.424C160.089,184.267,158.218,185.778,155.771,184.411Z" transform="translate(-122.377 -100.045)" opacity="0.6" fill="url(#radial-gradient)"/>
        <path id="Path_42225" data-name="Path 42225" d="M155.271,184.611l-26.053-15.185c-2.375-1.367-4.318-5.11-4.318-8.276V104.726c0-3.167,1.943-4.678,4.318-3.239l26.053,15.185c2.375,1.367,4.318,5.11,4.318,8.276v56.424C159.589,184.539,157.646,186.05,155.271,184.611Z" transform="translate(-122.237 -100.102)" fill="#fff"/>
        <path id="Path_42226" data-name="Path 42226" d="M125.7,161.895V105.4c0-2.807,1.727-4.1,3.814-2.879L155.5,117.634c2.087,1.223,3.814,4.462,3.814,7.269v56.5c0,2.807-1.727,4.1-3.814,2.879l-25.981-15.113C127.427,167.94,125.7,164.7,125.7,161.895Z" transform="translate(-122.461 -100.415)" fill="url(#linear-gradient-2)"/>
        <path id="Path_42227" data-name="Path 42227" d="M126.9,156.978v-50.45c0-2.3,1.439-3.383,3.167-2.375l25.477,14.826a7.675,7.675,0,0,1,3.167,6.045v50.45c0,2.3-1.439,3.383-3.167,2.375l-25.477-14.826C128.267,162.016,126.9,159.281,126.9,156.978Z" transform="translate(-122.798 -100.896)" fill="url(#linear-gradient-3)"/>
        <path id="Path_42228" data-name="Path 42228" d="M130.423,105.041c-1.655-.936-3.023-.216-3.023,1.727v51.026a6.781,6.781,0,0,0,3.023,5.182l25.045,14.538c1.655.936,3.023.216,3.023-1.727V124.761a6.781,6.781,0,0,0-3.023-5.182Z" transform="translate(-122.938 -101.137)" fill="url(#linear-gradient-4)"/>
        <path id="Path_42229" data-name="Path 42229" d="M155.468,119.579l-25.045-14.538c-1.655-.936-3.023-.216-3.023,1.727v51.026a6.781,6.781,0,0,0,3.023,5.182l25.045,14.538c1.655.936,3.023.216,3.023-1.727V124.761A6.748,6.748,0,0,0,155.468,119.579Zm2.735,56.208a1.948,1.948,0,0,1-.432,1.367,1.208,1.208,0,0,1-1.008.432h0a2.92,2.92,0,0,1-1.223-.36l-25.045-14.538a6.317,6.317,0,0,1-2.879-4.966V106.7c0-1.151.5-1.871,1.367-1.871a2.92,2.92,0,0,1,1.223.36l25.045,14.538a6.317,6.317,0,0,1,2.879,4.966v51.1Z" transform="translate(-122.938 -101.137)" fill="#bcbec0"/>
        <path id="Path_42230" data-name="Path 42230" d="M149.855,201.229c0,1.08-.792,1.583-1.727,1.008a4,4,0,0,1-1.727-3.023c0-1.08.792-1.583,1.727-1.008A4,4,0,0,1,149.855,201.229Z" transform="translate(-128.264 -127.299)" fill="#8969c3"/>
        <path id="Path_42231" data-name="Path 42231" d="M147.067,197.832a1.876,1.876,0,0,1,.792.216,4,4,0,0,1,1.727,3.023c0,.792-.36,1.223-.936,1.223a1.877,1.877,0,0,1-.792-.216,4,4,0,0,1-1.727-3.023c0-.792.36-1.223.936-1.223Zm0-.432c-.792,0-1.367.648-1.367,1.655a4.377,4.377,0,0,0,1.943,3.383,1.8,1.8,0,0,0,1.008.288c.792,0,1.367-.648,1.367-1.655a4.377,4.377,0,0,0-1.943-3.383,2.669,2.669,0,0,0-1.008-.288Z" transform="translate(-128.068 -127.14)" fill="#fff"/>
      </g>
      <g id="Group_13469" data-name="Group 13469" transform="translate(150.57 91.732)">
        <g id="Group_13467" data-name="Group 13467" transform="translate(5.901 67.052)">
          <g id="Group_13466" data-name="Group 13466" opacity="0.2">
            <path id="Path_42232" data-name="Path 42232" d="M232.616,214.839a7.116,7.116,0,0,1-3.383-.792l-23.39-13.6a3.564,3.564,0,0,1-1.943-3.095,4.257,4.257,0,0,1,2.3-3.526l20.511-7.917a8.445,8.445,0,0,1,4.1-1.008,7.116,7.116,0,0,1,3.383.792L249.96,194.9A3.564,3.564,0,0,1,251.9,198a4.257,4.257,0,0,1-2.3,3.526l-12.882,12.307A8.652,8.652,0,0,1,232.616,214.839Z" transform="translate(-203.9 -184.9)" opacity="0"/>
            <path id="Path_42233" data-name="Path 42233" d="M206.275,194.124l20.511-7.917a8.445,8.445,0,0,1,4.1-1.008,7.251,7.251,0,0,1,1.8.216,6.109,6.109,0,0,1,1.583.648l15.185,8.924.432.288a3.231,3.231,0,0,1,1.655,3.095,4.578,4.578,0,0,1-2.375,3.383L236.5,213.844a8.367,8.367,0,0,1-4.03,1.008,7.031,7.031,0,0,1-3.311-.792l-23.39-13.6a3.415,3.415,0,0,1-1.871-2.951A4.517,4.517,0,0,1,206.275,194.124Z" transform="translate(-203.9 -184.984)" opacity="0.091"/>
            <path id="Path_42234" data-name="Path 42234" d="M206.529,194.324l20.511-7.917a8.366,8.366,0,0,1,4.03-1.008,6.186,6.186,0,0,1,1.727.288,7.342,7.342,0,0,1,1.511.648l15.113,8.852s.432.216.432.288a3.008,3.008,0,0,1,1.439,3.023,5.277,5.277,0,0,1-2.375,3.311l-12.379,11.8a7.812,7.812,0,0,1-3.886,1.008,6.739,6.739,0,0,1-3.239-.792l-23.39-13.6a3.012,3.012,0,0,1-1.727-2.807A4.054,4.054,0,0,1,206.529,194.324Z" transform="translate(-204.01 -185.04)" opacity="0.182"/>
            <path id="Path_42235" data-name="Path 42235" d="M206.687,194.549l20.511-7.917a7.588,7.588,0,0,1,4.03-.936,6.187,6.187,0,0,1,1.727.288,9.553,9.553,0,0,1,1.511.648l15.042,8.78c.072,0,.432.216.432.288a2.856,2.856,0,0,1,1.223,3.023,5.727,5.727,0,0,1-2.375,3.239l-12.163,11.587a7.5,7.5,0,0,1-3.814.936,6.245,6.245,0,0,1-3.167-.72l-23.39-13.6A3.071,3.071,0,0,1,204.6,197.5,3.924,3.924,0,0,1,206.687,194.549Z" transform="translate(-204.096 -185.121)" opacity="0.273"/>
            <path id="Path_42236" data-name="Path 42236" d="M206.869,194.749l20.511-7.917a7.588,7.588,0,0,1,4.03-.936,6.186,6.186,0,0,1,1.727.288,9.553,9.553,0,0,1,1.511.648l14.97,8.78a1.506,1.506,0,0,1,.432.288,2.292,2.292,0,0,1,.936,3.023c0,.864-1.439,2.591-2.447,3.095l-11.875,11.443a7.937,7.937,0,0,1-3.67.936,5.7,5.7,0,0,1-3.023-.72l-23.39-13.6A2.924,2.924,0,0,1,205,197.555,3.267,3.267,0,0,1,206.869,194.749Z" transform="translate(-204.206 -185.177)" opacity="0.364"/>
            <path id="Path_42237" data-name="Path 42237" d="M206.971,194.968l20.511-7.917a6.94,6.94,0,0,1,4.03-.864,4.348,4.348,0,0,1,1.727.36,14.384,14.384,0,0,1,1.511.72l14.9,8.708c.072.072.36.216.432.288a2.169,2.169,0,0,1,.72,3.023c0,.72-1.655,2.519-2.447,3.023l-11.8,11.083a7.431,7.431,0,0,1-3.6.936,5.442,5.442,0,0,1-2.951-.72l-23.39-13.6a2.719,2.719,0,0,1-1.511-2.375A3.54,3.54,0,0,1,206.971,194.968Z" transform="translate(-204.236 -185.252)" opacity="0.454"/>
            <path id="Path_42238" data-name="Path 42238" d="M207.2,195.276l20.511-7.917a7.443,7.443,0,0,1,3.958-.864,12.2,12.2,0,0,1,1.727.36,8.959,8.959,0,0,1,1.439.72l14.754,8.636c.072.072.36.216.432.288a1.927,1.927,0,0,1,.432,2.951c0,.648-1.8,2.519-2.447,2.951L236.56,213.34a7.112,7.112,0,0,1-3.526.864,6.068,6.068,0,0,1-2.879-.648l-23.39-13.6a2.438,2.438,0,0,1-1.367-2.231A2.976,2.976,0,0,1,207.2,195.276Z" transform="translate(-204.318 -185.344)" opacity="0.545"/>
            <path id="Path_42239" data-name="Path 42239" d="M207.325,195.476l20.511-7.917a7.443,7.443,0,0,1,3.958-.864,9.471,9.471,0,0,1,1.655.36c.216.072,1.3.648,1.439.72l14.682,8.636c.072.072.36.216.432.288a1.82,1.82,0,0,1,.216,2.951c0,.5-1.943,2.519-2.447,2.807L236.544,213.18a6.957,6.957,0,0,1-3.383.864,5.584,5.584,0,0,1-2.807-.648l-23.462-13.53a2.292,2.292,0,0,1-1.3-2.087A2.982,2.982,0,0,1,207.325,195.476Z" transform="translate(-204.374 -185.4)" opacity="0.636"/>
            <path id="Path_42240" data-name="Path 42240" d="M207.455,195.694l20.511-7.917a6.788,6.788,0,0,1,3.958-.792,6.224,6.224,0,0,1,1.655.432l1.439.72,14.61,8.564a2.24,2.24,0,0,1,.432.288,1.783,1.783,0,0,1-.072,2.951,11.163,11.163,0,0,1-2.519,2.735l-11.011,10.507a6.493,6.493,0,0,1-3.311.864,5.491,5.491,0,0,1-2.735-.648l-23.39-13.6a2.145,2.145,0,0,1-1.223-1.943A2.957,2.957,0,0,1,207.455,195.694Z" transform="translate(-204.433 -185.475)" opacity="0.727"/>
            <path id="Path_42241" data-name="Path 42241" d="M207.583,195.894l20.511-7.917a6.788,6.788,0,0,1,3.958-.792,11.121,11.121,0,0,1,1.655.432c.072.072,1.3.72,1.367.792l14.538,8.492c.144.072.288.216.432.288,1.008.792.864,2.015-.288,2.951a21.422,21.422,0,0,1-2.519,2.663l-10.8,10.292a6.952,6.952,0,0,1-3.239.792,6.056,6.056,0,0,1-2.663-.576l-23.39-13.6a2,2,0,0,1-1.152-1.8A3.177,3.177,0,0,1,207.583,195.894Z" transform="translate(-204.489 -185.531)" opacity="0.818"/>
            <path id="Path_42242" data-name="Path 42242" d="M207.836,196.094l20.511-7.917a6.557,6.557,0,0,1,3.886-.792,6.319,6.319,0,0,1,1.655.5,13.366,13.366,0,0,1,1.367.792l14.466,8.492c.144.072.288.216.432.288,1.008.792.792,2.015-.576,2.879a27.731,27.731,0,0,1-2.519,2.519l-10.579,10.076a6.379,6.379,0,0,1-3.095.792,5.1,5.1,0,0,1-2.591-.576l-23.39-13.6a1.725,1.725,0,0,1-1.008-1.655A2.368,2.368,0,0,1,207.836,196.094Z" transform="translate(-204.597 -185.587)" opacity="0.909"/>
            <path id="Path_42243" data-name="Path 42243" d="M231.014,213.089l-23.39-13.6c-1.439-.792-1.223-2.231.36-3.167L228.5,188.4a6.135,6.135,0,0,1,5.47-.216l15.761,9.212c1.439.792,1.223,2.231-.36,3.167l-12.882,12.307A5.914,5.914,0,0,1,231.014,213.089Z" transform="translate(-204.674 -185.669)"/>
          </g>
          <path id="Path_42244" data-name="Path 42244" d="M231.026,213.061l-23.39-13.6a1.585,1.585,0,0,1-.936-1.367v-1.8c0-.648.432.432,1.367-.072l20.511-7.917a6.134,6.134,0,0,1,5.47-.216l15.761,9.212c.5.288.792-.864.936-.5a16.229,16.229,0,0,1,0,1.871,2.163,2.163,0,0,1-1.367,1.8L236.5,212.773A5.933,5.933,0,0,1,231.026,213.061Z" transform="translate(-204.685 -185.641)" fill="url(#linear-gradient-5)"/>
          <path id="Path_42245" data-name="Path 42245" d="M231.014,210.689l-23.39-13.6c-1.439-.792-1.223-2.231.36-3.167L228.5,186a6.134,6.134,0,0,1,5.47-.216L249.726,195c1.439.792,1.223,2.231-.36,3.167l-12.882,12.307A6.134,6.134,0,0,1,231.014,210.689Z" transform="translate(-204.674 -184.996)" fill="url(#linear-gradient-6)"/>
          <path id="Path_42246" data-name="Path 42246" d="M254.222,195l-15.689-9.212a6.124,6.124,0,0,0-5.47.216L222.7,189.962c.072.072.216.144.288.216l23.39,13.6a5.454,5.454,0,0,0,1.151.432l6.333-6.045C255.446,197.231,255.662,195.792,254.222,195Z" transform="translate(-209.17 -184.996)" opacity="0.818" fill="url(#linear-gradient-7)"/>
          <path id="Path_42247" data-name="Path 42247" d="M249.373,201.9,236.491,214.21a6.134,6.134,0,0,1-5.47.216l-23.39-13.6a1.841,1.841,0,0,1-.936-1.223,1.476,1.476,0,0,0,.936,1.511l23.39,13.6a6.124,6.124,0,0,0,5.47-.216l12.882-12.307c.936-.576,1.439-1.3,1.367-1.943A2.88,2.88,0,0,1,249.373,201.9Z" transform="translate(-204.681 -189.021)" fill="#fff"/>
        </g>
        <g id="Group_13468" data-name="Group 13468">
          <path id="Path_42248" data-name="Path 42248" d="M258.529,184.861l-57.5-33.25c-2.951-1.727-5.326-6.261-5.326-10.148V97.491c0-3.886,2.375-5.686,5.326-4.03l57.5,33.25c2.951,1.727,5.326,6.261,5.326,10.148v43.973C263.855,184.717,261.408,186.516,258.529,184.861Z" transform="translate(-195.7 -92.044)" fill="url(#linear-gradient-8)"/>
          <path id="Path_42249" data-name="Path 42249" d="M260.326,183.1l-56.712-32.746A9.047,9.047,0,0,1,199.8,142.8V98.541a.951.951,0,0,1,1.439-.792.223.223,0,0,0,.144.072l56.712,32.818c2.807,1.655,3.814,4.534,3.814,7.557v44.117a.989.989,0,0,1-1.511.864Z" transform="translate(-196.849 -93.383)" fill="url(#linear-gradient-4)"/>
          <path id="Path_42250" data-name="Path 42250" d="M258.167,130.639,201.383,97.822a.251.251,0,0,0-.144-.072.951.951,0,0,0-1.439.792V142.8a8.953,8.953,0,0,0,3.814,7.557L260.326,183.1a.251.251,0,0,0,.144.072,1.012,1.012,0,0,0,1.511-.864V138.2C261.981,135.1,260.974,132.223,258.167,130.639Zm3.239,51.674a.415.415,0,0,1-.432.432.264.264,0,0,1-.216-.072l-56.783-32.818a8.336,8.336,0,0,1-3.526-7.053V98.541a.386.386,0,0,1,.36-.36c.072,0,.144,0,.144.072l56.927,32.89c2.951,1.655,3.526,4.75,3.526,7.053Z" transform="translate(-196.849 -93.383)" fill="#bcbec0"/>
          <path id="Path_42251" data-name="Path 42251" d="M260.825,125.606l-57.5-33.25a3.545,3.545,0,0,0-3.095-.432c-.144.072-1.583.864-1.727.864h0a3.5,3.5,0,0,1,3.311.36l57.5,33.25c2.951,1.727,5.326,6.261,5.326,10.148v43.973c0,2.447-.936,4.03-2.375,4.534a1.023,1.023,0,0,0,.432-.144c.072-.072,1.655-.936,1.727-1.008,1.008-.72,1.655-2.159,1.655-4.174V135.754C266.079,131.8,263.7,127.262,260.825,125.606Z" transform="translate(-196.485 -91.732)" fill="url(#linear-gradient-10)"/>
          <path id="Path_42252" data-name="Path 42252" d="M259.642,126.5l-57.5-33.25a3.612,3.612,0,0,0-3.239-.432,4,4,0,0,1,2.591.576l57.5,33.25c2.951,1.727,5.326,6.261,5.326,10.148v43.973c0,2.3-.864,3.886-2.087,4.462,1.655-.288,2.735-1.943,2.735-4.606V136.647C264.967,132.76,262.592,128.154,259.642,126.5Z" transform="translate(-196.597 -91.977)" fill="url(#radial-gradient-2)"/>
        </g>
      </g>
      <g id="Group_13472" data-name="Group 13472" transform="translate(147.259 179.658)">
        <g id="Group_13470" data-name="Group 13470" transform="translate(0 42.531)" opacity="0.2">
          <path id="Path_42253" data-name="Path 42253" d="M244.285,325.825a8.632,8.632,0,0,1-4.39-1.08l-46.276-26.7a4.665,4.665,0,0,1-2.519-3.958,5.269,5.269,0,0,1,3.023-4.534l26.269-15.185A10.846,10.846,0,0,1,225.717,273a8.631,8.631,0,0,1,4.39,1.08l46.276,26.7a4.665,4.665,0,0,1,2.519,3.958,5.269,5.269,0,0,1-3.023,4.534l-26.269,15.185A11.267,11.267,0,0,1,244.285,325.825Z" transform="translate(-191.1 -273)" opacity="0"/>
          <path id="Path_42254" data-name="Path 42254" d="M220.646,274.693a10,10,0,0,1,5.254-1.3,6.82,6.82,0,0,1,2.159.288,7.144,7.144,0,0,1,2.159.864l46.06,26.629a4.147,4.147,0,0,1,2.015,5.254,6.28,6.28,0,0,1-2.807,3.023l-25.909,14.97a7.866,7.866,0,0,1-1.08.576,10.959,10.959,0,0,1-4.1.792,8.9,8.9,0,0,1-4.318-1.008l-46.276-26.7a4.3,4.3,0,0,1-2.3-3.958,7.948,7.948,0,0,1,.216-1.152,6.822,6.822,0,0,1,2.879-3.239Z" transform="translate(-191.21 -273.11)" opacity="0.091"/>
          <path id="Path_42255" data-name="Path 42255" d="M220.873,275a10.724,10.724,0,0,1,5.254-1.3,9.792,9.792,0,0,1,2.159.288,11.268,11.268,0,0,1,2.159.864l45.916,26.485a4.007,4.007,0,0,1,2.159,3.886,6.079,6.079,0,0,1-.36,1.223,7.5,7.5,0,0,1-2.879,2.951L249.8,324.15c-.288.144-.792.432-1.08.576a12.2,12.2,0,0,1-4.03.864,8.072,8.072,0,0,1-4.246-1.008l-46.276-26.7A3.831,3.831,0,0,1,192.085,294a6,6,0,0,1,.288-1.08,7.119,7.119,0,0,1,2.951-3.095Z" transform="translate(-191.366 -273.196)" opacity="0.182"/>
          <path id="Path_42256" data-name="Path 42256" d="M221.09,275.32a9.952,9.952,0,0,1,5.254-1.223,7.145,7.145,0,0,1,2.159.36,9.2,9.2,0,0,1,2.087.936l45.7,26.413a3.52,3.52,0,0,1,1.943,3.814,3.179,3.179,0,0,1-.432,1.151,8.289,8.289,0,0,1-2.879,2.807l-25.117,14.538c-.288.144-.792.432-1.08.576a12.172,12.172,0,0,1-3.958.864,8.513,8.513,0,0,1-4.174-.936l-46.276-26.844a3.613,3.613,0,0,1-1.943-3.886,5.64,5.64,0,0,1,.36-1.008,7.95,7.95,0,0,1,3.023-2.951Z" transform="translate(-191.439 -273.305)" opacity="0.273"/>
          <path id="Path_42257" data-name="Path 42257" d="M221.318,275.52a9.953,9.953,0,0,1,5.254-1.224,15.662,15.662,0,0,1,2.087.36,18.351,18.351,0,0,1,2.087.936L276.3,301.861a3.2,3.2,0,0,1,1.727,3.814,5.1,5.1,0,0,1-.5,1.152,9.719,9.719,0,0,1-2.951,2.663l-24.757,14.322c-.216.144-.792.432-1.08.576a9.906,9.906,0,0,1-3.886.864,8.047,8.047,0,0,1-4.1-.936l-46.276-26.7a3.233,3.233,0,0,1-1.727-3.814,3.72,3.72,0,0,1,.432-.936,10.574,10.574,0,0,1,3.023-2.879Z" transform="translate(-191.522 -273.361)" opacity="0.364"/>
          <path id="Path_42258" data-name="Path 42258" d="M221.522,275.841a9.282,9.282,0,0,1,5.254-1.151,8.92,8.92,0,0,1,2.087.432,18.363,18.363,0,0,1,2.087.936l45.34,26.2A2.962,2.962,0,0,1,277.874,306a7.87,7.87,0,0,1-.576,1.08,13.126,13.126,0,0,1-2.951,2.591l-24.4,14.106c-.216.144-.792.432-1.008.576a9.844,9.844,0,0,1-3.814.864,7.938,7.938,0,0,1-4.03-.864l-46.276-26.7a2.9,2.9,0,0,1-1.511-3.742c.144-.288.288-.576.5-.936a12.927,12.927,0,0,1,3.095-2.735Z" transform="translate(-191.655 -273.466)" opacity="0.454"/>
          <path id="Path_42259" data-name="Path 42259" d="M221.693,276.148A9.962,9.962,0,0,1,226.875,275a17.806,17.806,0,0,1,2.087.432,17.54,17.54,0,0,1,2.015,1.008l45.2,26.125a2.8,2.8,0,0,1,1.367,3.67,3.965,3.965,0,0,1-.648,1.008c-.216.576-2.375,2.087-3.023,2.447l-24.038,13.89a7.194,7.194,0,0,0-1.008.576,11.014,11.014,0,0,1-3.742.936,7.263,7.263,0,0,1-4.03-.864l-46.276-26.7a2.722,2.722,0,0,1-1.3-3.742,5.368,5.368,0,0,1,.5-.864c.144-.576,2.447-2.231,3.167-2.591Z" transform="translate(-191.682 -273.557)" opacity="0.545"/>
          <path id="Path_42260" data-name="Path 42260" d="M221.879,276.468a9.256,9.256,0,0,1,5.182-1.08,9.826,9.826,0,0,1,2.087.5,17.546,17.546,0,0,1,2.015,1.008l45.053,25.981a2.528,2.528,0,0,1,1.152,3.6,3.659,3.659,0,0,1-.648.936,14.513,14.513,0,0,1-3.023,2.3l-23.678,13.674a6.581,6.581,0,0,1-1.008.5,10.219,10.219,0,0,1-3.67.936,7.658,7.658,0,0,1-3.958-.792l-46.276-26.7a2.552,2.552,0,0,1-1.151-3.67,3.2,3.2,0,0,1,.576-.792c.144-.5,2.663-2.159,3.239-2.447Z" transform="translate(-191.796 -273.661)" opacity="0.636"/>
          <path id="Path_42261" data-name="Path 42261" d="M222.113,276.768a9.131,9.131,0,0,1,5.182-1.08,8.26,8.26,0,0,1,2.015.5c.216.072,1.8.936,2.015,1.008l44.837,25.909a2.43,2.43,0,0,1,1.008,3.6,7.629,7.629,0,0,1-.72.864,19,19,0,0,1-3.023,2.159l-23.318,13.458a4.4,4.4,0,0,1-1.008.5,10.231,10.231,0,0,1-3.6.936,7.387,7.387,0,0,1-3.886-.792l-46.276-26.7a2.384,2.384,0,0,1-.936-3.67,3.139,3.139,0,0,1,.648-.792c.072-.36,2.879-2.087,3.239-2.375Z" transform="translate(-191.886 -273.745)" opacity="0.727"/>
          <path id="Path_42262" data-name="Path 42262" d="M222.371,276.984a8.541,8.541,0,0,1,5.182-1.008,8.251,8.251,0,0,1,2.015.576c.144.072,1.871,1.008,1.943,1.079L276.2,303.4a2.226,2.226,0,0,1,.792,3.526,4.125,4.125,0,0,1-.792.792,25.766,25.766,0,0,1-3.095,2.087l-22.886,13.242a5.95,5.95,0,0,1-.936.5,9.851,9.851,0,0,1-3.526.936,6.515,6.515,0,0,1-3.814-.792l-46.276-26.7a2.2,2.2,0,0,1-.72-3.6,6.79,6.79,0,0,1,.72-.72,29.476,29.476,0,0,1,3.311-2.231Z" transform="translate(-192 -273.817)" opacity="0.818"/>
          <path id="Path_42263" data-name="Path 42263" d="M222.5,277.309a8.507,8.507,0,0,1,5.182-.936,9.284,9.284,0,0,1,2.015.576c.072,0,1.871,1.08,1.943,1.08l44.477,25.693a2.1,2.1,0,0,1,.648,3.454,4.7,4.7,0,0,1-.864.792c-.072.144-3.023,1.871-3.095,1.943l-22.526,13.026-.936.5a9.48,9.48,0,0,1-3.454.936,6.858,6.858,0,0,1-3.742-.72l-46.348-26.7c-1.583-.864-1.655-2.3-.5-3.526a7.648,7.648,0,0,1,.792-.648,38.5,38.5,0,0,1,3.383-2.087Z" transform="translate(-192.056 -273.926)" opacity="0.909"/>
          <path id="Path_42264" data-name="Path 42264" d="M242.2,323.593l-46.276-26.7c-1.8-1.08-1.583-2.879.5-4.1L222.7,277.6c2.087-1.224,5.326-1.367,7.125-.288l46.276,26.7c1.8,1.08,1.583,2.879-.5,4.1L249.327,323.3C247.168,324.456,244,324.6,242.2,323.593Z" transform="translate(-192.111 -274.006)"/>
        </g>
        <path id="Path_42265" data-name="Path 42265" d="M242.2,323.493l-46.276-26.7a2.159,2.159,0,0,1-1.223-1.727v-2.3c0-.792.576.576,1.727-.072L222.7,277.5c2.087-1.223,5.326-1.367,7.125-.288l46.276,26.7c.576.36,1.08-1.152,1.223-.648.072.144,0,2.231,0,2.447a3.07,3.07,0,0,1-1.727,2.375l-26.269,15.185C247.165,324.428,244,324.572,242.2,323.493Z" transform="translate(-192.109 -231.447)" fill="url(#linear-gradient-11)"/>
        <path id="Path_42266" data-name="Path 42266" d="M242.2,320.393l-46.276-26.7c-1.8-1.08-1.583-2.879.5-4.1L222.7,274.4c2.087-1.223,5.326-1.367,7.125-.288l46.276,26.7c1.8,1.08,1.583,2.879-.5,4.1L249.327,320.1A8.053,8.053,0,0,1,242.2,320.393Z" transform="translate(-192.111 -230.578)" fill="url(#linear-gradient-12)"/>
        <path id="Path_42267" data-name="Path 42267" d="M245.631,320.544a6.056,6.056,0,0,1-2.663-.576l-46.276-26.7c-.288-.144-.792-.5-.792-1.008s.5-1.08,1.3-1.511l26.269-15.185a7.391,7.391,0,0,1,3.6-.864,6.055,6.055,0,0,1,2.663.576L276,301.976c.288.144.792.5.792,1.008s-.5,1.08-1.3,1.511l-26.269,15.185A8.291,8.291,0,0,1,245.631,320.544Z" transform="translate(-192.445 -230.945)" fill="url(#linear-gradient-13)"/>
        <path id="Path_42268" data-name="Path 42268" d="M275.518,311.682l-26.269,15.185c-2.087,1.224-5.326,1.367-7.125.288l-46.2-26.772A2.126,2.126,0,0,1,194.7,298.8a2.128,2.128,0,0,0,1.223,2.015l46.276,26.7c1.8,1.08,5.038.936,7.125-.288l26.269-15.185a2.868,2.868,0,0,0,1.727-2.519A3.349,3.349,0,0,1,275.518,311.682Z" transform="translate(-192.106 -237.701)" fill="#fff"/>
        <path id="Path_42270" data-name="Path 42270" d="M257.277,312.556l-37.568-21.663c-.72-.432-.648-1.223.216-1.727l14.106-8.132a3.3,3.3,0,0,1,2.951-.144l37.568,21.663c.72.432.648,1.223-.216,1.727l-14.106,8.132A3.3,3.3,0,0,1,257.277,312.556Z" transform="translate(-198.982 -232.601)" fill="url(#linear-gradient-14)"/>
        <path id="Path_42271" data-name="Path 42271" d="M235.665,283.106l2.375,1.367a1.4,1.4,0,0,0,1.08,0c.288-.144.288-.432,0-.648l-2.375-1.367a1.4,1.4,0,0,0-1.08,0C235.377,282.674,235.377,282.962,235.665,283.106Zm4.174,2.375,1.151.648a1.4,1.4,0,0,0,1.08,0c.288-.144.288-.432,0-.648l-1.152-.648a1.4,1.4,0,0,0-1.08,0C239.48,285.049,239.48,285.337,239.839,285.481Zm2.807,1.655,1.152.648a1.4,1.4,0,0,0,1.08,0c.288-.144.288-.432,0-.648l-1.152-.648a1.4,1.4,0,0,0-1.08,0C242.358,286.7,242.358,286.992,242.646,287.136Zm2.879,1.655,1.152.648a1.4,1.4,0,0,0,1.08,0c.288-.144.288-.432,0-.648l-1.152-.648a1.4,1.4,0,0,0-1.08,0C245.237,288.359,245.237,288.647,245.525,288.791Zm2.879,1.655,1.152.648a1.4,1.4,0,0,0,1.08,0c.288-.144.288-.432,0-.648l-1.151-.648a1.4,1.4,0,0,0-1.08,0C248.044,289.943,248.044,290.231,248.4,290.447Zm2.807,1.655,1.152.648a1.4,1.4,0,0,0,1.08,0c.288-.144.288-.432,0-.648l-1.152-.648a1.4,1.4,0,0,0-1.08,0C250.923,291.6,250.923,291.886,251.21,292.1Zm2.879,1.655,1.152.648a1.4,1.4,0,0,0,1.08,0c.288-.144.288-.432,0-.648l-1.152-.648a1.4,1.4,0,0,0-1.08,0C253.8,293.253,253.8,293.541,254.089,293.757Zm2.807,1.655,1.152.648a1.4,1.4,0,0,0,1.08,0c.288-.144.288-.432,0-.648l-1.151-.648a1.4,1.4,0,0,0-1.08,0C256.608,294.909,256.608,295.2,256.9,295.412ZM259.775,297l1.152.648a1.4,1.4,0,0,0,1.08,0c.288-.144.288-.432,0-.648l-1.152-.648a1.4,1.4,0,0,0-1.08,0C259.487,296.564,259.487,296.852,259.775,297Zm2.879,1.655,1.152.648a1.4,1.4,0,0,0,1.08,0c.288-.144.288-.432,0-.648L263.733,298a1.4,1.4,0,0,0-1.08,0C262.294,298.219,262.294,298.507,262.654,298.651Zm2.807,1.655,1.152.648a1.4,1.4,0,0,0,1.08,0c.288-.144.288-.432,0-.648l-1.151-.648a1.4,1.4,0,0,0-1.08,0C265.172,299.874,265.172,300.162,265.46,300.306Zm2.879,1.655,1.152.648a1.4,1.4,0,0,0,1.08,0c.288-.144.288-.432,0-.648l-1.151-.648a1.4,1.4,0,0,0-1.08,0C268.051,301.53,268.051,301.818,268.339,301.962Zm2.951,1.727,1.152.648a1.4,1.4,0,0,0,1.08,0c.288-.144.288-.432,0-.648l-1.152-.648a1.4,1.4,0,0,0-1.08,0C270.93,303.185,270.93,303.473,271.29,303.689Zm-38.144-19,1.008.576a1.235,1.235,0,0,0,1.223,0l1.008-.576c.36-.216.36-.5,0-.72l-1.008-.576a1.235,1.235,0,0,0-1.223,0l-1.008.576C232.786,284.185,232.786,284.473,233.146,284.689Zm5.038,2.231,1.008-.576c.36-.216.36-.5,0-.72l-1.008-.576a1.235,1.235,0,0,0-1.223,0l-1.008.576c-.36.216-.36.5,0,.72l1.008.576A1.235,1.235,0,0,0,238.184,286.92Zm.648,1.08,1.008.576a1.235,1.235,0,0,0,1.223,0L242.07,288c.36-.216.36-.5,0-.72l-1.008-.576a1.234,1.234,0,0,0-1.223,0l-1.008.576C238.472,287.424,238.472,287.784,238.832,288Zm2.879,1.655,1.008.576a1.235,1.235,0,0,0,1.223,0l1.008-.576c.36-.216.36-.5,0-.72l-1.008-.576a1.235,1.235,0,0,0-1.223,0l-1.008.576C241.351,289.079,241.351,289.439,241.711,289.655Zm6.045.936-1.008-.576a1.235,1.235,0,0,0-1.223,0l-1.008.576c-.36.216-.36.5,0,.72l1.008.576a1.234,1.234,0,0,0,1.223,0l1.008-.576C248.116,291.094,248.116,290.734,247.756,290.59Zm2.879,1.583-1.008-.576a1.234,1.234,0,0,0-1.223,0l-1.008.576c-.36.216-.36.5,0,.72l1.008.576a1.235,1.235,0,0,0,1.223,0l1.008-.576C250.995,292.75,250.923,292.39,250.635,292.174Zm2.807,1.655-1.008-.576a1.235,1.235,0,0,0-1.223,0l-1.008.576c-.36.216-.36.5,0,.72l1.008.576a1.235,1.235,0,0,0,1.223,0l1.008-.576C253.8,294.4,253.8,294.045,253.442,293.829Zm2.879,1.655-1.008-.576a1.235,1.235,0,0,0-1.223,0l-1.008.576c-.36.216-.36.5,0,.72l1.008.576a1.235,1.235,0,0,0,1.223,0l1.008-.576C256.68,296.06,256.68,295.7,256.32,295.484Zm2.879,1.655-1.008-.576a1.235,1.235,0,0,0-1.223,0l-1.008.576c-.36.216-.36.5,0,.72l1.008.576a1.235,1.235,0,0,0,1.223,0l1.008-.576A.408.408,0,0,0,259.2,297.14Zm2.807,1.655L261,298.219a1.235,1.235,0,0,0-1.224,0l-1.008.576c-.36.216-.36.5,0,.72l1.008.576a1.235,1.235,0,0,0,1.224,0l1.008-.576C262.366,299.3,262.366,299.011,262.006,298.795Zm-.36,2.375,1.008.576a1.235,1.235,0,0,0,1.224,0l1.008-.576c.36-.216.36-.5,0-.72l-1.008-.576a1.235,1.235,0,0,0-1.224,0l-1.008.576C261.286,300.666,261.286,300.954,261.646,301.17Zm6.117.936-1.008-.576a1.235,1.235,0,0,0-1.223,0l-1.008.576c-.36.216-.36.5,0,.72l1.008.576a1.235,1.235,0,0,0,1.223,0l1.008-.576A.408.408,0,0,0,267.763,302.105Zm4.174,2.375-2.231-1.3a1.234,1.234,0,0,0-1.223,0l-1.008.576c-.36.216-.36.5,0,.72l2.231,1.3a1.235,1.235,0,0,0,1.224,0l1.008-.576A.407.407,0,0,0,271.938,304.48ZM230.483,286.2l2.231,1.3a1.234,1.234,0,0,0,1.223,0l1.008-.576c.36-.216.36-.5,0-.72l-2.231-1.3a1.235,1.235,0,0,0-1.223,0l-1.008.576C230.124,285.7,230.124,285.984,230.483,286.2Zm4.1,2.375,1.008.576a1.235,1.235,0,0,0,1.223,0l1.008-.576c.36-.216.36-.5,0-.72l-1.008-.576a1.235,1.235,0,0,0-1.223,0l-1.008.576C234.226,288.072,234.226,288.359,234.586,288.575Zm3.886,2.231a1.235,1.235,0,0,0,1.223,0l1.008-.576c.36-.216.36-.5,0-.72l-1.008-.576a1.235,1.235,0,0,0-1.223,0l-1.008.576c-.36.216-.36.5,0,.72Zm2.807,1.655a1.235,1.235,0,0,0,1.223,0l1.008-.576c.36-.216.36-.5,0-.72l-1.008-.576a1.234,1.234,0,0,0-1.223,0l-1.008.576c-.36.216-.36.5,0,.72Zm2.879-.216-1.008.576c-.36.216-.36.5,0,.72l1.008.576a1.235,1.235,0,0,0,1.223,0l1.008-.576c.36-.216.36-.5,0-.72l-1.008-.576A1.234,1.234,0,0,0,244.158,292.246Zm2.879,1.583-1.08.648c-.288.216-.288.5,0,.648l1.08.648a1.1,1.1,0,0,0,1.152,0l1.08-.648c.288-.216.288-.5,0-.648l-1.08-.648A1.587,1.587,0,0,0,247.036,293.829Zm2.879,1.655-1.08.648c-.288.216-.288.5,0,.648l1.08.648a1.1,1.1,0,0,0,1.152,0l1.08-.648c.288-.216.288-.5,0-.648l-1.08-.648A1.586,1.586,0,0,0,249.915,295.484Zm2.807,1.655-1.08.648c-.288.216-.288.5,0,.648l1.08.648a1.1,1.1,0,0,0,1.152,0l1.08-.648c.288-.216.288-.5,0-.648l-1.08-.648A1.586,1.586,0,0,0,252.722,297.14Zm2.879,1.655-1.08.648c-.288.216-.288.5,0,.648l1.08.648a1.1,1.1,0,0,0,1.152,0l1.08-.648c.288-.216.288-.5,0-.648l-1.08-.648A1.589,1.589,0,0,0,255.6,298.795Zm2.879,1.655-1.08.648c-.288.216-.288.5,0,.648l1.08.648a1.1,1.1,0,0,0,1.151,0l1.08-.648c.288-.216.288-.5,0-.648l-1.08-.648A1.1,1.1,0,0,0,258.479,300.45Zm3.958,3.6,1.08-.648c.288-.216.288-.5,0-.648l-1.08-.648a1.1,1.1,0,0,0-1.152,0l-1.079.648c-.288.216-.288.5,0,.648l1.079.648A1.586,1.586,0,0,0,262.438,304.049Zm2.879,1.655,1.08-.648c.288-.216.288-.5,0-.648l-1.08-.648a1.1,1.1,0,0,0-1.152,0l-1.079.648c-.288.216-.288.5,0,.648l1.079.648A1.586,1.586,0,0,0,265.316,305.7Zm4.03.36-1.079-.648a1.1,1.1,0,0,0-1.152,0l-1.079.648c-.288.216-.288.5,0,.648l1.079.648a1.1,1.1,0,0,0,1.152,0l1.079-.648C269.635,306.568,269.635,306.28,269.347,306.064Zm-41.6-18.352,3.6,2.087a1.1,1.1,0,0,0,1.152,0l1.08-.648c.288-.216.288-.5,0-.648l-3.6-2.087a1.1,1.1,0,0,0-1.151,0l-1.08.648C227.461,287.208,227.461,287.5,227.749,287.712Zm5.326,3.095,1.08.648a1.1,1.1,0,0,0,1.152,0l1.08-.648c.288-.216.288-.5,0-.648l-1.08-.648a1.1,1.1,0,0,0-1.152,0l-1.08.648C232.786,290.3,232.786,290.59,233.074,290.806Zm2.879,1.655,1.08.648a1.1,1.1,0,0,0,1.152,0l1.08-.648c.288-.216.288-.5,0-.648l-1.08-.648a1.1,1.1,0,0,0-1.152,0l-1.08.648C235.665,291.958,235.665,292.246,235.953,292.462Zm2.879,1.583,1.08.648a1.1,1.1,0,0,0,1.151,0l1.08-.648c.288-.216.288-.5,0-.648l-1.08-.648a1.1,1.1,0,0,0-1.151,0l-1.08.648C238.472,293.613,238.472,293.9,238.832,294.045Zm5.038,2.3,1.08-.648c.288-.216.288-.5,0-.648l-1.08-.648a1.1,1.1,0,0,0-1.152,0l-1.08.648c-.288.216-.288.5,0,.648l1.08.648A1.1,1.1,0,0,0,243.87,296.348ZM246.748,298l1.08-.648c.288-.216.288-.5,0-.648l-1.08-.648a1.1,1.1,0,0,0-1.152,0l-1.08.648c-.288.216-.288.5,0,.648l1.08.648A1.1,1.1,0,0,0,246.748,298Zm2.879,1.655,1.08-.648c.288-.216.288-.5,0-.648l-1.08-.648a1.1,1.1,0,0,0-1.151,0l-1.08.648c-.288.216-.288.5,0,.648l1.08.648A1.293,1.293,0,0,0,249.627,299.659Zm2.807,1.655,1.08-.648c.288-.216.288-.5,0-.648l-1.08-.648a1.1,1.1,0,0,0-1.152,0l-1.08.648c-.288.216-.288.5,0,.648l1.08.648A1.587,1.587,0,0,0,252.434,301.314Zm2.879,1.655,1.08-.648c.288-.216.288-.5,0-.648l-1.08-.648a1.1,1.1,0,0,0-1.152,0l-1.08.648c-.288.216-.288.5,0,.648l1.08.648A1.586,1.586,0,0,0,255.313,302.969Zm2.879,1.655,1.08-.648c.288-.216.288-.5,0-.648l-1.08-.648a1.1,1.1,0,0,0-1.152,0l-1.08.648c-.288.216-.288.5,0,.648l1.08.648A1.586,1.586,0,0,0,258.191,304.624Zm.576,1.008,1.08.648a1.1,1.1,0,0,0,1.152,0l1.08-.648c.288-.216.288-.5,0-.648l-1.08-.648a1.1,1.1,0,0,0-1.152,0l-1.08.648C258.479,305.128,258.479,305.416,258.767,305.632Zm7.917,1.943-2.807-1.655a1.1,1.1,0,0,0-1.152,0l-1.08.648c-.288.216-.288.5,0,.648l2.807,1.655a1.1,1.1,0,0,0,1.152,0l1.08-.648C266.972,308.079,266.972,307.791,266.684,307.575Zm-41.526-18.28,5.11,2.951a1.376,1.376,0,0,0,1.3,0l.936-.576c.36-.216.36-.5,0-.72L227.389,288a1.376,1.376,0,0,0-1.3,0l-.936.576C224.8,288.791,224.8,289.079,225.158,289.295Zm6.981,4.03.936.576a1.376,1.376,0,0,0,1.3,0l.936-.576c.36-.216.36-.5,0-.72l-.936-.576a1.377,1.377,0,0,0-1.3,0l-.936.576C231.779,292.821,231.779,293.109,232.139,293.325Zm2.807,1.655.936.576a1.376,1.376,0,0,0,1.3,0l.936-.576c.36-.216.36-.5,0-.72l-.936-.576a1.376,1.376,0,0,0-1.3,0l-.936.576C234.586,294.477,234.586,294.765,234.945,294.981Zm2.879,1.655.936.576a1.377,1.377,0,0,0,1.3,0l.936-.576c.36-.216.36-.5,0-.72l-.936-.576a1.377,1.377,0,0,0-1.3,0l-.936.576C237.464,296.06,237.464,296.42,237.824,296.636Zm2.879,1.655.936.576a1.377,1.377,0,0,0,1.3,0l.936-.576c.36-.216.36-.5,0-.72l-.936-.576a1.377,1.377,0,0,0-1.3,0l-.936.576C240.343,297.715,240.343,298.075,240.7,298.291Zm2.807,1.655.936.576a1.376,1.376,0,0,0,1.3,0l.936-.576c.36-.216.36-.5,0-.72l-.936-.576a1.377,1.377,0,0,0-1.3,0l-.936.576C243.15,299.371,243.15,299.73,243.51,299.946Zm2.879,1.655.936.576a1.377,1.377,0,0,0,1.3,0l.936-.576c.36-.216.36-.5,0-.72l-.936-.576a1.376,1.376,0,0,0-1.3,0l-.936.576C246.029,301.026,246.029,301.386,246.389,301.6Zm2.879,1.583.936.576a1.377,1.377,0,0,0,1.3,0l.936-.576c.36-.216.36-.5,0-.72l-.936-.576a1.376,1.376,0,0,0-1.3,0l-.936.576C248.907,302.681,248.907,303.041,249.267,303.185Zm2.807,1.655.936.576a1.376,1.376,0,0,0,1.3,0l.936-.576c.36-.216.36-.5,0-.72l-.936-.576a1.377,1.377,0,0,0-1.3,0l-.936.576C251.714,304.336,251.714,304.7,252.074,304.84Zm2.879,1.655.936.576a1.376,1.376,0,0,0,1.3,0l.936-.576c.36-.216.36-.5,0-.72l-.936-.576a1.376,1.376,0,0,0-1.3,0l-.936.576C254.593,305.992,254.593,306.28,254.953,306.5Zm2.807,1.655.936.576a1.377,1.377,0,0,0,1.3,0l.936-.576c.36-.216.36-.5,0-.72l-.936-.576a1.376,1.376,0,0,0-1.3,0l-.936.576A.408.408,0,0,0,257.76,308.151Zm6.117.936-.936-.576a1.377,1.377,0,0,0-1.3,0l-.936.576c-.36.216-.36.5,0,.72l.936.576a1.377,1.377,0,0,0,1.3,0l.936-.576C264.237,309.662,264.237,309.3,263.877,309.086Zm-36.92-18.28-2.231-1.3a1.377,1.377,0,0,0-1.3,0l-.936.576c-.36.216-.36.5,0,.72l2.231,1.3a1.376,1.376,0,0,0,1.3,0l.936-.576C227.317,291.382,227.317,291.022,226.957,290.806Zm2.879,1.655-.936-.576a1.377,1.377,0,0,0-1.3,0l-.936.576c-.36.216-.36.5,0,.72l.936.576a1.376,1.376,0,0,0,1.3,0l.936-.576C230.2,293.037,230.2,292.678,229.836,292.462Zm2.807,1.655-.936-.576a1.377,1.377,0,0,0-1.3,0l-.936.576c-.36.216-.36.5,0,.72l.936.576a1.377,1.377,0,0,0,1.3,0l.936-.576C233,294.693,233,294.333,232.643,294.117Zm20.007,11.515L234.586,295.2a1.377,1.377,0,0,0-1.3,0l-.936.576c-.36.216-.36.5,0,.72l18.064,10.436a1.377,1.377,0,0,0,1.3,0l.936-.576C253.01,306.208,253.01,305.848,252.65,305.632Zm2.879,1.655-.936-.576a1.376,1.376,0,0,0-1.3,0l-1.008.576c-.36.216-.36.5,0,.72l.936.576a1.377,1.377,0,0,0,1.3,0l.936-.576A.39.39,0,0,0,255.529,307.287Zm2.807,1.655-.936-.576a1.376,1.376,0,0,0-1.3,0l-.936.576c-.36.216-.36.5,0,.72l.936.576a1.377,1.377,0,0,0,1.3,0l.936-.576C258.7,309.518,258.7,309.158,258.335,308.943Zm2.951,1.727-.936-.576a1.376,1.376,0,0,0-1.3,0l-.936.576c-.36.216-.36.5,0,.72l.936.576a1.377,1.377,0,0,0,1.3,0l.936-.576C261.646,311.174,261.646,310.814,261.286,310.67Z" transform="translate(-199.825 -233.09)" opacity="0.3" fill="url(#linear-gradient-15)"/>
        <g id="Group_13471" data-name="Group 13471" transform="translate(35.553)">
          <path id="Path_42272" data-name="Path 42272" d="M288.143,283.943l-44.549-25.765A7.474,7.474,0,0,1,240.5,252.2V217.228c0-2.3,1.367-3.383,3.095-2.375l44.549,25.765a7.474,7.474,0,0,1,3.095,5.973v34.977C291.31,283.871,289.871,284.951,288.143,283.943Z" transform="translate(-240.5 -214.064)" fill="url(#linear-gradient-16)"/>
          <path id="Path_42273" data-name="Path 42273" d="M289.248,282.935l-44.117-25.477A5.357,5.357,0,0,1,242.9,253V217.875a.574.574,0,0,1,.864-.5.07.07,0,0,1,.072.072l44.117,25.477a4.794,4.794,0,0,1,2.231,4.462v35.049a.589.589,0,0,1-.864.5Z" transform="translate(-241.173 -214.855)" fill="url(#linear-gradient-4)"/>
          <path id="Path_42274" data-name="Path 42274" d="M287.953,243.02l-44.117-25.477a.07.07,0,0,1-.072-.072.589.589,0,0,0-.864.5V253.1a5.357,5.357,0,0,0,2.231,4.462l44.045,25.477a.07.07,0,0,1,.072.072.574.574,0,0,0,.864-.5V247.554C290.184,245.611,289.608,243.956,287.953,243.02Zm1.871,39.439a.23.23,0,0,1-.216.216h-.144L245.347,257.2a5.074,5.074,0,0,1-2.087-4.174V217.9a.191.191,0,0,1,.216-.216h.072l44.189,25.549a4.557,4.557,0,0,1,2.087,4.174Z" transform="translate(-241.173 -214.883)" fill="#bcbec0"/>
          <path id="Path_42275" data-name="Path 42275" d="M289.528,240.026l-44.621-25.765a2.4,2.4,0,0,0-1.8-.288c-.072,0-.936.5-1.008.5h0a1.952,1.952,0,0,1,1.943.216l44.549,25.765a7.473,7.473,0,0,1,3.095,5.973v34.977c0,1.439-.576,2.375-1.367,2.663a.544.544,0,0,0,.288-.072c.072,0,1.008-.576,1.008-.576a2.981,2.981,0,0,0,.936-2.447V246A7.414,7.414,0,0,0,289.528,240.026Z" transform="translate(-240.949 -213.903)" fill="url(#linear-gradient-18)"/>
          <path id="Path_42276" data-name="Path 42276" d="M288.82,240.626l-44.549-25.765a2.005,2.005,0,0,0-1.871-.216,2.571,2.571,0,0,1,1.511.36l44.549,25.765a7.474,7.474,0,0,1,3.095,5.973V281.72c0,1.367-.5,2.3-1.223,2.591.936-.144,1.583-1.152,1.583-2.735V246.527A7.147,7.147,0,0,0,288.82,240.626Z" transform="translate(-241.033 -214.071)" fill="url(#radial-gradient-3)"/>
        </g>
      </g>
      <g id="Group_13478" data-name="Group 13478" transform="translate(52.548 205.78)">
        <g id="Group_13473" data-name="Group 13473">
          <path id="Path_42277" data-name="Path 42277" d="M78.7,263.415v7.629l3.311-1.943v-7.7Z" transform="translate(-64.882 -253.339)" fill="url(#linear-gradient-19)"/>
          <path id="Path_42278" data-name="Path 42278" d="M73.318,261.061v7.629L59.5,260.629V253Z" transform="translate(-59.5 -250.985)" fill="url(#linear-gradient-20)"/>
          <path id="Path_42279" data-name="Path 42279" d="M61.7,261.054V255.8l10.651,6.189v5.254Z" transform="translate(-60.117 -251.77)" fill="#25054d"/>
          <path id="Path_42280" data-name="Path 42280" d="M59.5,252.215l13.818,8.061,3.311-2.015L62.739,250.2Z" transform="translate(-59.5 -250.2)" fill="url(#linear-gradient-21)"/>
        </g>
        <g id="Group_13476" data-name="Group 13476" transform="translate(1.511 6.286)">
          <g id="Group_13474" data-name="Group 13474">
            <path id="Path_42281" data-name="Path 42281" d="M65.015,260.853a.959.959,0,0,1-.288.72l-.36.216c-.216.144-.072-.144-.36-.288a2.541,2.541,0,0,1-1.08-1.871c0-.36-.288-.36-.144-.432l.36-.216a1.058,1.058,0,0,1,.792.072A2.289,2.289,0,0,1,65.015,260.853Z" transform="translate(-61.921 -258.934)" fill="url(#linear-gradient-22)"/>
            <path id="Path_42282" data-name="Path 42282" d="M64.459,261.111c0,.72-.5,1.008-1.08.648a2.541,2.541,0,0,1-1.08-1.871c0-.72.5-1.008,1.08-.648A2.338,2.338,0,0,1,64.459,261.111Z" transform="translate(-61.796 -258.976)" fill="url(#linear-gradient-23)"/>
            <path id="Path_42283" data-name="Path 42283" d="M64.156,261.209c0,.288-.072.5-.288.576l-.5.288c-.144.072-.072-.144-.288-.288a2.072,2.072,0,0,1-.936-1.655c0-.288-.288-.288-.072-.36l.576-.288a.717.717,0,0,1,.648.072A2.214,2.214,0,0,1,64.156,261.209Z" transform="translate(-61.709 -259.074)" fill="url(#linear-gradient-24)"/>
            <path id="Path_42284" data-name="Path 42284" d="M63.471,261.593c0,.576-.432.864-.936.5a2.072,2.072,0,0,1-.936-1.655c0-.576.432-.864.936-.5A2.313,2.313,0,0,1,63.471,261.593Z" transform="translate(-61.6 -259.171)" fill="url(#linear-gradient-25)"/>
            <path id="Path_42285" data-name="Path 42285" d="M63.052,261.7c0,.36-.216.5-.576.288a1.189,1.189,0,0,1-.576-.936c0-.36.216-.5.576-.288A1.037,1.037,0,0,1,63.052,261.7Z" transform="translate(-61.684 -259.418)" fill="#2af6ff"/>
            <path id="Path_42286" data-name="Path 42286" d="M63.62,259.241c-.288-.144-.576-.216-.72-.072a.734.734,0,0,1,.648.144,2.541,2.541,0,0,1,1.08,1.871.794.794,0,0,1-.36.72.665.665,0,0,0,.432-.72A2.442,2.442,0,0,0,63.62,259.241Z" transform="translate(-61.964 -258.978)" fill="#e6e7e8"/>
            <path id="Path_42287" data-name="Path 42287" d="M62.648,259.954a.717.717,0,0,0-.648-.072.635.635,0,0,1,.576.144,2.072,2.072,0,0,1,.936,1.655.912.912,0,0,1-.288.648c.216-.072.36-.288.36-.648A1.952,1.952,0,0,0,62.648,259.954Z" transform="translate(-61.712 -259.187)" fill="url(#radial-gradient-4)"/>
          </g>
          <g id="Group_13475" data-name="Group 13475" transform="translate(3.455 2.015)">
            <path id="Path_42288" data-name="Path 42288" d="M69.815,263.653a.959.959,0,0,1-.288.72l-.36.216c-.216.144-.072-.144-.36-.288a2.541,2.541,0,0,1-1.08-1.871c0-.36-.288-.36-.144-.432l.36-.216a1.058,1.058,0,0,1,.792.072A2.289,2.289,0,0,1,69.815,263.653Z" transform="translate(-66.721 -261.734)" fill="url(#linear-gradient-26)"/>
            <path id="Path_42289" data-name="Path 42289" d="M69.259,263.916c0,.72-.5,1.008-1.08.648a2.541,2.541,0,0,1-1.08-1.871c0-.648.5-1.008,1.08-.648A2.338,2.338,0,0,1,69.259,263.916Z" transform="translate(-66.596 -261.781)" fill="url(#linear-gradient-27)"/>
            <path id="Path_42290" data-name="Path 42290" d="M68.956,263.909c0,.288-.072.5-.288.576l-.5.288c-.144.072-.072-.144-.288-.288a2.072,2.072,0,0,1-.936-1.655c0-.288-.288-.288-.072-.36l.576-.288a.717.717,0,0,1,.648.072A2.5,2.5,0,0,1,68.956,263.909Z" transform="translate(-66.509 -261.846)" fill="url(#linear-gradient-28)"/>
            <path id="Path_42291" data-name="Path 42291" d="M68.271,264.393c0,.576-.432.864-.936.5a2.072,2.072,0,0,1-.936-1.655c0-.576.432-.864.936-.5A2.313,2.313,0,0,1,68.271,264.393Z" transform="translate(-66.4 -261.971)" fill="url(#linear-gradient-29)"/>
            <path id="Path_42292" data-name="Path 42292" d="M68.42,262.041c-.288-.144-.576-.216-.72-.072a.734.734,0,0,1,.648.144,2.541,2.541,0,0,1,1.08,1.871.794.794,0,0,1-.36.72.665.665,0,0,0,.432-.72A2.337,2.337,0,0,0,68.42,262.041Z" transform="translate(-66.764 -261.778)" fill="#e6e7e8"/>
            <path id="Path_42293" data-name="Path 42293" d="M67.548,262.754a.717.717,0,0,0-.648-.072.635.635,0,0,1,.576.144,2.072,2.072,0,0,1,.936,1.655.912.912,0,0,1-.288.648c.216-.072.36-.288.36-.648A2.1,2.1,0,0,0,67.548,262.754Z" transform="translate(-66.54 -261.987)" fill="url(#radial-gradient-5)"/>
            <path id="Path_42294" data-name="Path 42294" d="M67.951,264.5c0,.36-.216.5-.576.288a1.189,1.189,0,0,1-.576-.936c0-.36.216-.5.576-.288A1.037,1.037,0,0,1,67.951,264.5Z" transform="translate(-66.512 -262.218)" fill="#2af6ff"/>
          </g>
        </g>
        <g id="Group_13477" data-name="Group 13477" transform="translate(8.42 10.316)">
          <path id="Path_42295" data-name="Path 42295" d="M74.515,266.453a.959.959,0,0,1-.288.72l-.36.216c-.216.144-.072-.144-.36-.288a2.541,2.541,0,0,1-1.08-1.871c0-.36-.288-.36-.144-.432l.36-.216a1.058,1.058,0,0,1,.792.072A2.033,2.033,0,0,1,74.515,266.453Z" transform="translate(-71.493 -264.534)" fill="url(#linear-gradient-30)"/>
          <path id="Path_42296" data-name="Path 42296" d="M74.059,266.716c0,.72-.5,1.008-1.08.648a2.541,2.541,0,0,1-1.08-1.871c0-.648.5-1.008,1.08-.648A2.42,2.42,0,0,1,74.059,266.716Z" transform="translate(-71.396 -264.581)" fill="url(#linear-gradient-31)"/>
          <path id="Path_42297" data-name="Path 42297" d="M73.656,266.709c0,.288-.072.5-.288.576l-.5.288c-.144.072-.072-.144-.288-.288a2.072,2.072,0,0,1-.936-1.655c0-.288-.288-.288-.072-.36l.576-.288a.717.717,0,0,1,.648.072A2.228,2.228,0,0,1,73.656,266.709Z" transform="translate(-71.281 -264.646)" fill="url(#linear-gradient-32)"/>
          <path id="Path_42298" data-name="Path 42298" d="M73.071,267.193c0,.576-.432.864-.936.5a2.072,2.072,0,0,1-.936-1.655c0-.576.432-.864.936-.5A2.313,2.313,0,0,1,73.071,267.193Z" transform="translate(-71.2 -264.771)" fill="url(#linear-gradient-33)"/>
          <path id="Path_42299" data-name="Path 42299" d="M73.22,264.741c-.288-.144-.576-.216-.72-.072a.734.734,0,0,1,.648.144,2.541,2.541,0,0,1,1.08,1.871.794.794,0,0,1-.36.72.665.665,0,0,0,.432-.72A2.556,2.556,0,0,0,73.22,264.741Z" transform="translate(-71.564 -264.55)" fill="#e6e7e8"/>
          <path id="Path_42300" data-name="Path 42300" d="M72.248,265.554a.717.717,0,0,0-.648-.072.635.635,0,0,1,.576.144,2.072,2.072,0,0,1,.936,1.655.912.912,0,0,1-.288.648c.216-.072.36-.288.36-.648A1.938,1.938,0,0,0,72.248,265.554Z" transform="translate(-71.312 -264.787)" fill="url(#radial-gradient-6)"/>
          <path id="Path_42301" data-name="Path 42301" d="M72.751,267.3c0,.36-.216.5-.576.288a1.189,1.189,0,0,1-.576-.936c0-.36.216-.5.576-.288A1.189,1.189,0,0,1,72.751,267.3Z" transform="translate(-71.312 -265.018)" fill="#2af6ff"/>
        </g>
      </g>
      <g id="Group_13481" data-name="Group 13481" transform="translate(34.7 151.639)">
        <g id="Group_13480" data-name="Group 13480">
          <g id="Group_13479" data-name="Group 13479">
            <path id="Path_42302" data-name="Path 42302" d="M90.577,218.029c0,7.125-2.447,12.235-6.477,14.682-.144.072-6.837,4.246-6.981,4.318-4.174,2.3-1.511-2.951-7.845-6.621-12.738-7.341-23.1-25.189-23.1-39.871,0-7.269-6.693-7.269-2.591-9.716.144-.072,7.629-4.39,7.773-4.462,4.174-2.231,9.86-1.871,16.121,1.8C80.214,185.5,90.577,203.348,90.577,218.029Z" transform="translate(-36.817 -174.971)" fill="url(#linear-gradient-34)"/>
            <path id="Path_42303" data-name="Path 42303" d="M80.9,224.236c0,14.61-10.364,20.511-23.1,13.17s-23.1-25.189-23.1-39.871,10.364-20.511,23.1-13.17C70.541,191.778,80.9,209.627,80.9,224.236Z" transform="translate(-34.7 -176.716)" fill="url(#linear-gradient-35)"/>
            <path id="Path_42304" data-name="Path 42304" d="M62.133,183.663c-6.117-3.526-11.659-4.03-15.833-1.943,3.886-1.08,8.636-.288,13.818,2.735,12.738,7.341,23.1,25.189,23.1,39.871,0,7.629-2.807,12.882-7.269,15.113,5.614-1.583,9.284-7.2,9.284-15.905C85.235,208.852,74.872,191,62.133,183.663Z" transform="translate(-37.952 -176.517)" fill="none"/>
          </g>
        </g>
        <path id="Path_42305" data-name="Path 42305" d="M46.157,211.9l10.22,22.238a.885.885,0,0,0,1.439.216l17.776-18.784a1.955,1.955,0,0,0-.072-2.807l-6.045-5.47a1.95,1.95,0,0,0-3.023.432l-9.572,16.193-4.678-11.3a1.8,1.8,0,0,0-1.439-1.152l-3.6-.72C46.373,210.6,45.8,211.251,46.157,211.9Z" transform="translate(-37.881 -183.882)" fill="#fff"/>
      </g>
      <path id="Path_42306" data-name="Path 42306" d="M165.3,319.237l-.216-.144L99.38,281.382,71.6,297.359V266.7l.936.5v28.5L99.38,280.3l.288.144L165.3,318.158l19-10.939.5.864Z" transform="translate(-10.343 -49.045)" fill="url(#radial-gradient-7)"/>
      <path id="Path_42307" data-name="Path 42307" d="M66.6,280.759V250.1l.936.5v28.5l113.135-65.2.5.792Z" transform="translate(-8.942 -34.245)" fill="url(#radial-gradient-8)"/>
      <path id="Path_42308" data-name="Path 42308" d="M61.6,275.937V245.278l.936.5v28.5l72.545-41.814-30.587-17.56L123.205,204.4l.432.792-17.2,9.788,30.515,17.488Z" transform="translate(-7.54 -31.582)" fill="url(#radial-gradient-9)"/>
      <path id="Path_42309" data-name="Path 42309" d="M238.713,173.809a.492.492,0,0,1-.5-.5v-9.212c-8.061-4.822-14.61-16.121-14.61-25.405,0-4.606,1.583-8.061,4.462-9.788,2.879-1.655,6.765-1.3,10.8,1.008a28.576,28.576,0,0,1,8.276,7.7.461.461,0,1,1-.72.576,26.556,26.556,0,0,0-7.989-7.413c-3.742-2.159-7.269-2.519-9.86-1.008s-4.03,4.678-4.03,8.924c0,9.068,6.405,20.151,14.322,24.757l.216.144v9.716C239.217,173.594,239,173.809,238.713,173.809Z" transform="translate(-52.951 -10.132)" fill="url(#linear-gradient-36)"/>
      <path id="Path_42310" data-name="Path 42310" d="M242.267,161.386h-.216a1.861,1.861,0,0,1-1.367-.936L234.71,149.44a1.8,1.8,0,1,1,3.167-1.727l4.75,8.708,10-11.875a1.788,1.788,0,0,1,2.735,2.3l-11.731,13.89A1.772,1.772,0,0,1,242.267,161.386Z" transform="translate(-56 -14.621)" fill="url(#linear-gradient-37)"/>
      <path id="Path_42311" data-name="Path 42311" d="M145.095,176.343a.34.34,0,0,1-.36-.36V162.165c-6.765-4.03-12.235-13.53-12.235-21.3,0-3.886,1.367-6.765,3.742-8.2,2.447-1.439,5.686-1.08,9.068.864A23.513,23.513,0,0,1,152.291,140a.41.41,0,1,1-.648.5,24.737,24.737,0,0,0-6.693-6.261c-3.167-1.8-6.117-2.159-8.276-.864-2.159,1.223-3.383,3.886-3.383,7.485,0,7.629,5.4,16.913,12.019,20.8l.216.144v14.25A.516.516,0,0,1,145.095,176.343Z" transform="translate(-27.414 -11.226)" fill="url(#linear-gradient-38)"/>
      <path id="Path_42312" data-name="Path 42312" d="M148.054,159.8h-.144a1.5,1.5,0,0,1-1.152-.792l-5.038-9.284a1.482,1.482,0,1,1,2.591-1.439l3.958,7.341,8.42-9.932a1.53,1.53,0,0,1,2.3,2.015l-9.86,11.659A1.649,1.649,0,0,1,148.054,159.8Z" transform="translate(-29.942 -14.976)" fill="url(#linear-gradient-39)"/>
      <path id="Path_42313" data-name="Path 42313" d="M270.454,274.011a.464.464,0,0,1-.432-.432v-4.1c-6.909-4.1-12.523-13.89-12.523-21.879,0-3.958,1.367-6.981,3.814-8.348,2.519-1.439,5.829-1.152,9.284.864a23.661,23.661,0,0,1,7.125,6.621.41.41,0,1,1-.648.5,23.1,23.1,0,0,0-6.909-6.405c-3.239-1.871-6.261-2.159-8.492-.864s-3.455,4.03-3.455,7.7c0,7.773,5.542,17.345,12.307,21.231l.216.144v4.534C270.886,273.867,270.67,274.011,270.454,274.011Z" transform="translate(-62.453 -41.099)" fill="url(#linear-gradient-40)"/>
      <path id="Path_42314" data-name="Path 42314" d="M273.471,267.181h-.144a1.766,1.766,0,0,1-1.223-.792l-5.182-9.5a1.545,1.545,0,1,1,2.735-1.439l4.1,7.485,8.636-10.148a1.534,1.534,0,1,1,2.375,1.943l-10.076,11.875A1.52,1.52,0,0,1,273.471,267.181Z" transform="translate(-65.038 -44.992)" fill="url(#linear-gradient-41)"/>
    </g>
  </g>
</svg>
