<svg id="All_Case_studees_icon" xmlns="http://www.w3.org/2000/svg" width="22" height="22.324" viewBox="0 0 22 22.324">
  <path id="Контур_32" data-name="Контур 32" d="M8.436,0H3.259a.647.647,0,0,0-.647.647V5.824a.647.647,0,0,0,.647.647H8.436a.647.647,0,0,0,.647-.647V.647A.647.647,0,0,0,8.436,0Z" transform="translate(-2.612 0)" fill="#42d260"/>
  <path id="Контур_33" data-name="Контур 33" d="M133.824,0h-5.176A.647.647,0,0,0,128,.647V5.824a.647.647,0,0,0,.647.647h5.176a.647.647,0,0,0,.647-.647V.647A.647.647,0,0,0,133.824,0Z" transform="translate(-120.235 0)" fill="#42d260"/>
  <path id="Контур_34" data-name="Контур 34" d="M8.436,125.388H3.259a.647.647,0,0,0-.647.647v5.176a.647.647,0,0,0,.647.647H8.436a.647.647,0,0,0,.647-.647v-5.176A.647.647,0,0,0,8.436,125.388Z" transform="translate(-2.612 -117.623)" fill="#42d260"/>
  <path id="Контур_35" data-name="Контур 35" d="M133.824,125.388h-5.176a.647.647,0,0,0-.647.647v5.176a.647.647,0,0,0,.647.647h5.176a.647.647,0,0,0,.647-.647v-5.176A.647.647,0,0,0,133.824,125.388Z" transform="translate(-120.235 -117.623)" fill="#42d260"/>
  <path id="Контур_36" data-name="Контур 36" d="M259.212,0h-5.176a.647.647,0,0,0-.647.647V5.824a.647.647,0,0,0,.647.647h5.176a.647.647,0,0,0,.647-.647V.647A.647.647,0,0,0,259.212,0Z" transform="translate(-237.859 0)" fill="#42d260"/>
  <path id="Контур_37" data-name="Контур 37" d="M259.212,125.388h-5.176a.647.647,0,0,0-.647.647v5.176a.647.647,0,0,0,.647.647h5.176a.647.647,0,0,0,.647-.647v-5.176A.647.647,0,0,0,259.212,125.388Z" transform="translate(-237.859 -117.623)" fill="#42d260"/>
  <path id="Контур_38" data-name="Контур 38" d="M8.436,256H3.259a.647.647,0,0,0-.647.647v5.177a.647.647,0,0,0,.647.647H8.436a.647.647,0,0,0,.647-.647v-5.177A.647.647,0,0,0,8.436,256Z" transform="translate(-2.612 -240.147)" fill="#42d260"/>
  <path id="Контур_39" data-name="Контур 39" d="M133.824,256h-5.176a.647.647,0,0,0-.647.647v5.177a.647.647,0,0,0,.647.647h5.176a.647.647,0,0,0,.647-.647v-5.177A.647.647,0,0,0,133.824,256Z" transform="translate(-120.235 -240.147)" fill="#42d260"/>
  <path id="Контур_40" data-name="Контур 40" d="M259.212,256h-5.176a.647.647,0,0,0-.647.647v5.177a.647.647,0,0,0,.647.647h5.176a.647.647,0,0,0,.647-.647v-5.177A.647.647,0,0,0,259.212,256Z" transform="translate(-237.859 -240.147)" fill="#42d260"/>
</svg>
