<svg width="139" height="38" viewBox="0 0 139 38" fill="none" xmlns="http://www.w3.org/2000/svg">
<path d="M1.46882 5.19997C-0.129541 6.79862 -0.129541 9.38924 1.46882 10.9879L7.2867 16.9441C7.58777 17.2541 7.58777 17.7456 7.2867 18.0556L1.46882 24.0118C-0.129541 25.6105 -0.129541 28.2011 1.46882 29.7998C3.06719 31.3984 5.65734 31.3984 7.2557 29.7998C7.2557 29.7998 11.2228 25.8851 14.7029 24.0827C15.19 23.8303 15.553 23.7196 16.0047 23.538C17.541 22.918 20.6005 21.6648 20.6049 21.6648C22.7036 20.7658 24.5986 19.7916 24.5986 17.5375C24.5986 15.279 23.0977 14.3712 20.5075 13.4457L16.1286 11.5813C15.5398 11.32 15.2254 11.1739 14.7959 10.9303C11.3955 9.01725 7.2557 5.19997 7.2557 5.19997C5.65734 3.60131 3.06719 3.60131 1.46882 5.19997Z" fill="white"/>
<path d="M7.04318 16.7715C7.31327 17.0815 7.30884 17.5509 7.01662 17.8476L1.19874 23.8038C-0.399622 25.4025 -0.399622 27.9931 1.19874 29.5917C2.37206 30.7653 4.07226 31.0708 5.52894 30.5261C5.91414 30.3756 6.27278 30.1763 6.57828 29.9416C6.60042 29.9239 6.62699 29.9106 6.64912 29.8884C6.70668 29.8397 6.75539 29.7954 6.80409 29.7556C6.8218 29.7379 6.83951 29.7201 6.86165 29.7069C6.95906 29.6183 7.03875 29.5386 7.1096 29.4677C7.14944 29.4279 7.19815 29.3747 7.25571 29.3172C11.9844 24.4769 9.27469 19.6101 8.0571 17.9184C7.85343 17.6395 7.34426 17.0903 7.04318 16.7715Z" fill="#F6583E"/>
<path d="M36.6868 19.2161C35.9828 18.9761 35.3428 18.7361 34.7668 18.4961C34.1908 18.2401 33.6948 17.9361 33.2788 17.5841C32.8628 17.2321 32.5348 16.8161 32.2948 16.3361C32.0708 15.8401 31.9588 15.2401 31.9588 14.5361C31.9588 13.1761 32.4788 12.0881 33.5188 11.2721C34.5748 10.4561 36.0468 10.0481 37.9348 10.0481C38.6228 10.0481 39.2628 10.0961 39.8548 10.1921C40.4468 10.2881 40.9508 10.4401 41.3668 10.6481C41.7988 10.8401 42.1348 11.0961 42.3748 11.4161C42.6148 11.7201 42.7348 12.0801 42.7348 12.4961C42.7348 12.9121 42.6388 13.2721 42.4468 13.5761C42.2548 13.8641 42.0228 14.1121 41.7508 14.3201C41.3988 14.0961 40.9268 13.9041 40.3348 13.7441C39.7428 13.5681 39.0948 13.4801 38.3908 13.4801C37.6708 13.4801 37.1428 13.5841 36.8068 13.7921C36.4708 13.9841 36.3028 14.2321 36.3028 14.5361C36.3028 14.7761 36.4068 14.9761 36.6148 15.1361C36.8228 15.2801 37.1348 15.4161 37.5508 15.5441L38.8228 15.9521C40.3268 16.4321 41.4788 17.0481 42.2788 17.8001C43.0948 18.5361 43.5028 19.5441 43.5028 20.8241C43.5028 22.1841 42.9668 23.2881 41.8948 24.1361C40.8228 24.9681 39.2468 25.3841 37.1668 25.3841C36.4308 25.3841 35.7428 25.3201 35.1028 25.1921C34.4788 25.0801 33.9268 24.9121 33.4468 24.6881C32.9828 24.4481 32.6148 24.1601 32.3428 23.8241C32.0868 23.4721 31.9588 23.0721 31.9588 22.6241C31.9588 22.1601 32.0948 21.7681 32.3668 21.4481C32.6388 21.1121 32.9348 20.8561 33.2548 20.6801C33.7028 21.0321 34.2468 21.3361 34.8868 21.5921C35.5428 21.8481 36.2548 21.9761 37.0228 21.9761C37.8068 21.9761 38.3588 21.8561 38.6788 21.6161C38.9988 21.3761 39.1588 21.0961 39.1588 20.7761C39.1588 20.4561 39.0308 20.2161 38.7748 20.0561C38.5188 19.8801 38.1588 19.7121 37.6948 19.5521L36.6868 19.2161ZM49.5456 20.9921C49.5456 21.4081 49.6736 21.7041 49.9296 21.8801C50.2016 22.0561 50.5776 22.1441 51.0576 22.1441C51.2976 22.1441 51.5456 22.1281 51.8016 22.0961C52.0576 22.0481 52.2816 21.9921 52.4736 21.9281C52.6176 22.1041 52.7376 22.3041 52.8336 22.5281C52.9456 22.7361 53.0016 22.9921 53.0016 23.2961C53.0016 23.9041 52.7696 24.4001 52.3056 24.7841C51.8576 25.1681 51.0576 25.3601 49.9056 25.3601C48.4976 25.3601 47.4096 25.0401 46.6416 24.4001C45.8896 23.7601 45.5136 22.7201 45.5136 21.2801V11.0081C45.6896 10.9601 45.9376 10.9121 46.2576 10.8641C46.5936 10.8001 46.9456 10.7681 47.3136 10.7681C48.0176 10.7681 48.5616 10.8961 48.9456 11.1521C49.3456 11.3921 49.5456 11.9121 49.5456 12.7121V14.2481H52.6896C52.7856 14.4241 52.8736 14.6481 52.9536 14.9201C53.0496 15.1761 53.0976 15.4641 53.0976 15.7841C53.0976 16.3441 52.9696 16.7521 52.7136 17.0081C52.4736 17.2481 52.1456 17.3681 51.7296 17.3681H49.5456V20.9921ZM59.155 24.9761C58.995 25.0241 58.739 25.0721 58.387 25.1201C58.051 25.1681 57.699 25.1921 57.331 25.1921C56.979 25.1921 56.659 25.1681 56.371 25.1201C56.099 25.0721 55.867 24.9761 55.675 24.8321C55.483 24.6881 55.331 24.4961 55.219 24.2561C55.123 24.0001 55.075 23.6721 55.075 23.2721V16.0721C55.075 15.7041 55.139 15.3921 55.267 15.1361C55.411 14.8641 55.611 14.6241 55.867 14.4161C56.123 14.2081 56.435 14.0241 56.803 13.8641C57.187 13.6881 57.595 13.5361 58.027 13.4081C58.459 13.2801 58.907 13.1841 59.371 13.1201C59.835 13.0401 60.299 13.0001 60.763 13.0001C61.531 13.0001 62.139 13.1521 62.587 13.4561C63.035 13.7441 63.259 14.2241 63.259 14.8961C63.259 15.1201 63.227 15.3441 63.163 15.5681C63.099 15.7761 63.019 15.9681 62.923 16.1441C62.587 16.1441 62.243 16.1601 61.891 16.1921C61.539 16.2241 61.195 16.2721 60.859 16.3361C60.523 16.4001 60.203 16.4721 59.899 16.5521C59.611 16.6161 59.363 16.6961 59.155 16.7921V24.9761ZM70.6648 25.3841C69.7208 25.3841 68.8408 25.2561 68.0248 25.0001C67.2248 24.7281 66.5208 24.3281 65.9128 23.8001C65.3208 23.2721 64.8488 22.6081 64.4968 21.8081C64.1608 21.0081 63.9928 20.0721 63.9928 19.0001C63.9928 17.9441 64.1608 17.0401 64.4968 16.2881C64.8488 15.5201 65.3048 14.8961 65.8648 14.4161C66.4248 13.9201 67.0648 13.5601 67.7848 13.3361C68.5048 13.0961 69.2408 12.9761 69.9928 12.9761C70.8408 12.9761 71.6088 13.1041 72.2968 13.3601C73.0008 13.6161 73.6008 13.9681 74.0968 14.4161C74.6088 14.8641 75.0008 15.4001 75.2728 16.0241C75.5608 16.6481 75.7048 17.3281 75.7048 18.0641C75.7048 18.6081 75.5528 19.0241 75.2488 19.3121C74.9448 19.6001 74.5208 19.7841 73.9768 19.8641L68.0488 20.7521C68.2248 21.2801 68.5848 21.6801 69.1288 21.9521C69.6728 22.2081 70.2968 22.3361 71.0008 22.3361C71.6568 22.3361 72.2728 22.2561 72.8488 22.0961C73.4408 21.9201 73.9208 21.7201 74.2888 21.4961C74.5448 21.6561 74.7608 21.8801 74.9368 22.1681C75.1128 22.4561 75.2008 22.7601 75.2008 23.0801C75.2008 23.8001 74.8648 24.3361 74.1928 24.6881C73.6808 24.9601 73.1048 25.1441 72.4648 25.2401C71.8248 25.3361 71.2248 25.3841 70.6648 25.3841ZM69.9928 15.9521C69.6088 15.9521 69.2728 16.0161 68.9848 16.1441C68.7128 16.2721 68.4888 16.4401 68.3128 16.6481C68.1368 16.8401 68.0008 17.0641 67.9048 17.3201C67.8248 17.5601 67.7768 17.8081 67.7608 18.0641L71.8648 17.3921C71.8168 17.0721 71.6408 16.7521 71.3368 16.4321C71.0328 16.1121 70.5848 15.9521 69.9928 15.9521ZM82.6607 22.4081C82.9327 22.4081 83.2287 22.3841 83.5487 22.3361C83.8847 22.2721 84.1327 22.1921 84.2927 22.0961V20.1761L82.5647 20.3201C82.1167 20.3521 81.7487 20.4481 81.4607 20.6081C81.1727 20.7681 81.0287 21.0081 81.0287 21.3281C81.0287 21.6481 81.1487 21.9121 81.3887 22.1201C81.6447 22.3121 82.0687 22.4081 82.6607 22.4081ZM82.4687 12.9761C83.3327 12.9761 84.1167 13.0641 84.8207 13.2401C85.5407 13.4161 86.1487 13.6881 86.6447 14.0561C87.1567 14.4081 87.5487 14.8641 87.8207 15.4241C88.0927 15.9681 88.2287 16.6161 88.2287 17.3681V22.7441C88.2287 23.1601 88.1087 23.5041 87.8687 23.7761C87.6447 24.0321 87.3727 24.2561 87.0527 24.4481C86.0127 25.0721 84.5487 25.3841 82.6607 25.3841C81.8127 25.3841 81.0447 25.3041 80.3567 25.1441C79.6847 24.9841 79.1007 24.7441 78.6047 24.4241C78.1247 24.1041 77.7487 23.6961 77.4767 23.2001C77.2207 22.7041 77.0927 22.1281 77.0927 21.4721C77.0927 20.3681 77.4207 19.5201 78.0767 18.9281C78.7327 18.3361 79.7487 17.9681 81.1247 17.8241L84.2687 17.4881V17.3201C84.2687 16.8561 84.0607 16.5281 83.6447 16.3361C83.2447 16.1281 82.6607 16.0241 81.8927 16.0241C81.2847 16.0241 80.6927 16.0881 80.1167 16.2161C79.5407 16.3441 79.0207 16.5041 78.5567 16.6961C78.3487 16.5521 78.1727 16.3361 78.0287 16.0481C77.8847 15.7441 77.8127 15.4321 77.8127 15.1121C77.8127 14.6961 77.9087 14.3681 78.1007 14.1281C78.3087 13.8721 78.6207 13.6561 79.0367 13.4801C79.5007 13.3041 80.0447 13.1761 80.6687 13.0961C81.3087 13.0161 81.9087 12.9761 82.4687 12.9761ZM96.3154 12.9761C96.9714 12.9761 97.6114 13.0721 98.2354 13.2641C98.8754 13.4401 99.4274 13.7121 99.8914 14.0801C100.371 13.7601 100.907 13.4961 101.499 13.2881C102.107 13.0801 102.835 12.9761 103.683 12.9761C104.291 12.9761 104.883 13.0561 105.459 13.2161C106.051 13.3761 106.571 13.6321 107.019 13.9841C107.483 14.3201 107.851 14.7761 108.123 15.3521C108.395 15.9121 108.531 16.6001 108.531 17.4161V24.9761C108.371 25.0241 108.115 25.0721 107.763 25.1201C107.427 25.1681 107.075 25.1921 106.707 25.1921C106.355 25.1921 106.035 25.1681 105.747 25.1201C105.475 25.0721 105.243 24.9761 105.051 24.8321C104.859 24.6881 104.707 24.4961 104.595 24.2561C104.499 24.0001 104.451 23.6721 104.451 23.2721V17.5361C104.451 17.0561 104.315 16.7121 104.043 16.5041C103.771 16.2801 103.403 16.1681 102.939 16.1681C102.715 16.1681 102.475 16.2241 102.219 16.3361C101.963 16.4321 101.771 16.5361 101.643 16.6481C101.659 16.7121 101.667 16.7761 101.667 16.8401C101.667 16.8881 101.667 16.9361 101.667 16.9841V24.9761C101.491 25.0241 101.227 25.0721 100.875 25.1201C100.539 25.1681 100.195 25.1921 99.8434 25.1921C99.4914 25.1921 99.1714 25.1681 98.8834 25.1201C98.6114 25.0721 98.3794 24.9761 98.1874 24.8321C97.9954 24.6881 97.8434 24.4961 97.7314 24.2561C97.6354 24.0001 97.5874 23.6721 97.5874 23.2721V17.5361C97.5874 17.0561 97.4354 16.7121 97.1314 16.5041C96.8434 16.2801 96.4914 16.1681 96.0754 16.1681C95.7874 16.1681 95.5394 16.2161 95.3314 16.3121C95.1234 16.3921 94.9474 16.4721 94.8034 16.5521V24.9761C94.6434 25.0241 94.3874 25.0721 94.0354 25.1201C93.6994 25.1681 93.3474 25.1921 92.9794 25.1921C92.6274 25.1921 92.3074 25.1681 92.0194 25.1201C91.7474 25.0721 91.5154 24.9761 91.3234 24.8321C91.1314 24.6881 90.9794 24.4961 90.8674 24.2561C90.7714 24.0001 90.7234 23.6721 90.7234 23.2721V16.0241C90.7234 15.5921 90.8114 15.2481 90.9874 14.9921C91.1794 14.7361 91.4354 14.4961 91.7554 14.2721C92.2994 13.8881 92.9714 13.5761 93.7714 13.3361C94.5874 13.0961 95.4354 12.9761 96.3154 12.9761ZM119.905 20.9921C119.905 21.4081 120.033 21.7041 120.289 21.8801C120.561 22.0561 120.937 22.1441 121.417 22.1441C121.657 22.1441 121.905 22.1281 122.161 22.0961C122.417 22.0481 122.641 21.9921 122.833 21.9281C122.977 22.1041 123.097 22.3041 123.193 22.5281C123.305 22.7361 123.361 22.9921 123.361 23.2961C123.361 23.9041 123.129 24.4001 122.665 24.7841C122.217 25.1681 121.417 25.3601 120.265 25.3601C118.857 25.3601 117.769 25.0401 117.001 24.4001C116.249 23.7601 115.873 22.7201 115.873 21.2801V11.0081C116.049 10.9601 116.297 10.9121 116.617 10.8641C116.953 10.8001 117.305 10.7681 117.673 10.7681C118.377 10.7681 118.921 10.8961 119.305 11.1521C119.705 11.3921 119.905 11.9121 119.905 12.7121V14.2481H123.049C123.145 14.4241 123.233 14.6481 123.313 14.9201C123.409 15.1761 123.457 15.4641 123.457 15.7841C123.457 16.3441 123.329 16.7521 123.073 17.0081C122.833 17.2481 122.505 17.3681 122.089 17.3681H119.905V20.9921ZM137.366 19.1681C137.366 20.1601 137.214 21.0481 136.91 21.8321C136.606 22.6001 136.174 23.2481 135.614 23.7761C135.07 24.3041 134.414 24.7041 133.646 24.9761C132.878 25.2481 132.022 25.3841 131.078 25.3841C130.134 25.3841 129.278 25.2401 128.51 24.9521C127.742 24.6641 127.078 24.2561 126.518 23.7281C125.974 23.1841 125.55 22.5281 125.246 21.7601C124.942 20.9921 124.79 20.1281 124.79 19.1681C124.79 18.2241 124.942 17.3681 125.246 16.6001C125.55 15.8321 125.974 15.1841 126.518 14.6561C127.078 14.1121 127.742 13.6961 128.51 13.4081C129.278 13.1201 130.134 12.9761 131.078 12.9761C132.022 12.9761 132.878 13.1281 133.646 13.4321C134.414 13.7201 135.07 14.1361 135.614 14.6801C136.174 15.2081 136.606 15.8561 136.91 16.6241C137.214 17.3921 137.366 18.2401 137.366 19.1681ZM128.966 19.1681C128.966 20.1441 129.15 20.8961 129.518 21.4241C129.902 21.9361 130.43 22.1921 131.102 22.1921C131.774 22.1921 132.286 21.9281 132.638 21.4001C133.006 20.8721 133.19 20.1281 133.19 19.1681C133.19 18.2081 133.006 17.4721 132.638 16.9601C132.27 16.4321 131.75 16.1681 131.078 16.1681C130.406 16.1681 129.886 16.4321 129.518 16.9601C129.15 17.4721 128.966 18.2081 128.966 19.1681Z" fill="white"/>
</svg>
