<svg width="416" height="135" viewBox="0 0 416 135" fill="none" xmlns="http://www.w3.org/2000/svg">
<g clip-path="url(#clip0)">
<path d="M29.4464 32.6607C29.4464 32.6607 22.7081 38.0159 21.5954 49.2964C20.4827 60.577 20.5651 64.9141 20.5651 64.9141L23.0997 91.4254C23.0997 91.4254 24.4185 101.321 29.467 102.523C34.5156 103.724 48.1775 99.2851 48.1775 99.2851C48.1775 99.2851 56.1316 95.396 59.1195 93.4616C62.1074 91.5272 83.4349 75.9096 83.4349 75.9096C83.4349 75.9096 90.2556 72.7738 89.2253 68.5182C88.195 64.2625 77.5415 52.6358 77.5415 52.6358C77.5415 52.6358 67.0735 44.6946 62.9522 43.0249C58.8104 41.3553 40.9653 28.8734 29.4464 32.6607Z" fill="#FFE6A5"/>
<path d="M44.2417 125.411C53.123 120.769 63.7353 113.764 63.7353 106.658C63.7353 104.642 61.7777 99.5922 60.7062 96.8433C69.8966 91.9565 85.6192 81.8162 91.1417 73.0198C93.0993 69.9044 92.9138 65.8931 91.492 63.0221C89.2459 58.5017 83.9501 53.3298 77.3354 48.4022L73.276 53.6759C79.1282 58.0334 83.7028 62.4316 85.4543 65.9542C85.8252 66.6872 86.1549 68.3569 85.4337 69.4972C82.8167 73.6714 76.6348 78.9248 69.2372 83.8524C64.7862 77.8456 60.6443 71.0651 60.6443 67.5832C60.6443 65.3026 63.8795 59.9881 67.362 54.4089C69.9378 50.2755 75.0894 43.9632 75.6457 43.2913C76.3051 42.4768 76.8821 41.8456 77.5415 41.3365C78.1185 40.8682 79.1488 40.3795 81.4155 40.8071C92.4193 42.823 113.603 57.6872 117.971 66.4632C118.033 66.5854 118.239 67.1556 118.239 67.7868C118.239 68.2144 118.157 68.5402 117.971 68.8456C112.51 77.5605 91.018 92.9746 80.3646 94.2574C77.5621 94.6035 77.253 93.5243 76.2227 92.4044L70.5354 96.0289C71.7511 97.4135 72.6578 98.3908 73.0906 98.7981C74.9657 100.59 77.6858 101.303 81.1888 100.875C93.8205 99.3479 117.312 82.5696 123.72 72.3479C124.565 70.9836 124.998 69.4565 124.998 67.7868C124.998 65.6284 124.256 63.9791 124.029 63.5108C118.754 53.0651 95.5514 36.6533 82.6107 34.2913C78.5512 33.5583 75.4603 34.1488 73.379 36.0424C72.3281 36.9994 70.3293 39.2596 68.0214 42.1714C66.5377 41.2551 65.0129 40.3795 63.488 39.5447C56.317 35.5537 46.0963 30.7687 37.9774 29.3026C32.3313 28.2641 28.3749 28.8954 25.8815 31.1963C21.8633 34.8818 19.473 42.9859 18.2366 51.9655L24.9336 52.7393C26.1494 43.9836 28.3131 38.0583 30.4767 36.0831C30.9301 35.6555 32.7846 35.1465 36.7616 35.8592C41.2332 36.6736 46.6321 38.608 52.1958 41.2144C49.1872 47.9135 45.3751 54.6736 42.3872 56.3841C39.0489 58.2777 22.6257 57.056 18.8548 56.6895C16.0729 56.4044 12.6523 55.8954 10.3032 54.8569C9.23162 54.3886 6.73826 49.7664 6.73826 37.875C6.73826 25.8003 9.31405 12.9112 12.7141 7.86143C12.8789 7.61709 13.765 6.63971 14.7953 6.66007C20.6475 6.84333 31.4658 10.4678 41.089 15.4768C52.6697 21.5243 56.9764 26.5741 56.9764 28.3456C56.9764 29.7098 56.2346 30.8908 56.1522 31.1556L62.2104 34.0877C62.8904 32.1533 63.3438 30.7076 63.5086 30.0967C65.6311 21.8298 51.8867 13.5832 44.2417 9.5922C33.4852 3.97229 22.0075 0.225685 15.022 0.00170293C11.3335 -0.100107 8.46919 2.18044 7.12978 4.15555C2.22548 11.3841 0 26.6963 0 37.8546C0 47.3637 1.44244 59.1126 8.30434 61.2098C9.78799 61.6578 13.1468 62.3094 17.2887 62.8592C16.856 73.5492 17.6184 96.0696 25.5106 103.665C27.6949 105.782 31.1773 106.556 35.8137 106.006C40.0174 105.497 45.169 103.909 50.6297 101.628L48.1157 95.3976C43.1702 97.4949 38.575 98.9813 34.9895 99.4089C32.187 99.7551 30.6622 99.3479 30.2088 98.9203C27.3858 96.1918 25.2015 88.1691 24.336 78.0492C31.981 77.3976 40.0586 77.3365 42.3666 78.6601C44.0975 79.6578 46.0963 82.3252 48.0745 85.7257C49.5169 88.1895 54.8746 98.2687 56.5849 105.253C56.894 106.536 56.6467 107.92 55.9049 108.857C54.0091 111.321 49.4345 115.169 41.0684 119.547C31.4452 124.556 20.6475 128.18 14.7747 128.364C13.7444 128.404 12.8583 127.407 12.6935 127.162C9.29344 122.133 6.71765 109.223 6.71765 97.1488C6.71765 85.237 9.1698 80.4927 10.2825 80.1669C11.0862 79.9225 12.1371 79.6782 13.4147 79.4338L13.0026 72.7958C10.8801 73.1623 9.23162 73.5085 8.30434 73.7936C1.44244 75.8705 0 87.6397 0 97.1284C0 108.307 2.22548 123.619 7.12978 130.827C8.46919 132.803 11.3541 135.083 15.022 134.981C22.0075 134.778 33.4852 131.011 44.2417 125.411ZM45.746 72.8569C41.8102 70.6171 32.4549 70.6375 23.9651 71.3908C23.9445 70.332 23.9239 69.2528 23.9239 68.1533C23.9239 66.5854 23.9445 65.0786 24.0063 63.6126C32.4755 64.3456 41.8102 64.3863 45.746 62.1465C50.403 59.4994 54.8746 51.5583 58.1716 44.2076C60.1292 45.2664 62.0868 46.366 63.9826 47.5266C58.9134 54.5718 53.8443 62.9813 53.8443 67.6442C53.8443 73.0198 58.6867 80.9406 63.5292 87.4768C61.7159 88.556 59.8819 89.5945 58.048 90.5922C54.7715 83.2822 50.3412 75.4836 45.746 72.8569Z" fill="#FE724C"/>
<path d="M183.211 84.5838C183.211 82.9549 183.025 81.5702 182.634 80.4096C182.263 79.249 181.789 78.2716 181.232 77.4571C180.676 76.6426 180.037 75.9911 179.316 75.5227C178.595 75.0544 177.915 74.6472 177.297 74.301C175.648 73.4865 173.835 72.7535 171.877 72.1019C169.92 71.4503 167.941 70.758 165.943 70.0046C163.944 69.2512 162.027 68.4164 160.173 67.5001C158.318 66.5838 156.649 65.4028 155.166 63.9368C153.682 62.4707 152.507 60.7196 151.662 58.6426C150.797 56.5657 150.364 54.0408 150.364 51.0476C150.364 44.8576 152.219 40.0114 155.928 36.4684C159.637 32.9254 164.727 31.1743 171.197 31.1743C172.495 31.1743 174.165 31.2761 176.143 31.4797C178.142 31.6834 180.079 32.0499 181.974 32.5589C183.87 33.068 185.477 33.7603 186.817 34.6562C188.156 35.5318 188.836 36.6924 188.836 38.1178C188.836 39.1359 188.465 40.0318 187.744 40.8259C187.023 41.62 186.013 42.0069 184.694 42.0069C183.87 42.0069 183.087 41.844 182.325 41.5386C181.562 41.2331 180.697 40.9073 179.687 40.5612C178.698 40.215 177.544 39.8892 176.287 39.5838C175.009 39.2784 173.526 39.1155 171.795 39.1155C170.146 39.1155 168.539 39.2987 166.994 39.6856C165.448 40.0521 164.067 40.663 162.872 41.5182C161.677 42.3734 160.709 43.5137 159.987 44.9797C159.266 46.4458 158.895 48.2987 158.895 50.5386C158.895 52.2286 159.101 53.6743 159.513 54.8146C159.926 55.9752 160.42 56.9322 161.018 57.7263C161.595 58.5001 162.233 59.1313 162.934 59.62C163.614 60.0883 164.274 60.4752 164.892 60.7399C166.54 61.5544 168.354 62.3078 170.311 62.9797C172.269 63.6517 174.247 64.3644 176.246 65.077C178.245 65.7897 180.182 66.6042 182.077 67.5205C183.973 68.4368 185.642 69.6381 187.085 71.0838C188.527 72.5499 189.681 74.301 190.547 76.3372C191.412 78.3734 191.845 80.8983 191.845 83.8915C191.845 87.292 191.268 90.3055 190.134 92.9119C189.001 95.5386 187.414 97.7377 185.395 99.5295C183.355 101.342 180.965 102.706 178.224 103.663C175.463 104.62 172.475 105.088 169.24 105.088C167.591 105.088 165.654 104.946 163.47 104.681C161.265 104.416 159.184 103.968 157.226 103.358C155.269 102.747 153.62 101.973 152.281 101.016C150.941 100.059 150.261 98.9186 150.261 97.5544C150.261 96.5363 150.632 95.62 151.353 94.8055C152.075 93.9911 152.961 93.5838 153.991 93.5838C154.671 93.5838 155.495 93.7671 156.464 94.1539C157.432 94.5205 158.524 94.9277 159.761 95.3757C160.997 95.8236 162.398 96.2309 163.985 96.5974C165.572 96.9639 167.364 97.1675 169.343 97.1675C173.958 97.1675 177.4 96.0883 179.708 93.9096C182.057 91.6901 183.211 88.5951 183.211 84.5838Z" fill="#FE724C"/>
<path d="M202.395 40.7444C202.395 39.6653 202.745 38.749 203.425 37.9956C204.105 37.2422 205.115 36.8757 206.413 36.8757C207.712 36.8757 208.721 37.2422 209.401 37.9956C210.081 38.749 210.432 39.6653 210.432 40.7444V54.8146H221.167C222.198 54.8146 223.084 55.1811 223.805 55.8938C224.526 56.6064 224.897 57.5024 224.897 58.6019C224.897 59.6811 224.547 60.5974 223.805 61.3101C223.063 62.0227 222.198 62.3892 221.167 62.3892H210.432V82.6902C210.432 85.3372 210.514 87.577 210.699 89.3689C210.864 91.1811 211.276 92.6472 211.895 93.8078C212.513 94.9684 213.378 95.8033 214.47 96.3123C215.563 96.8214 217.046 97.0861 218.901 97.0861C219.251 97.0861 219.581 97.0657 219.89 97.0454C220.199 97.0046 220.529 97.0046 220.879 97.0046C221.497 97.0046 222.115 97.0454 222.734 97.1064C223.352 97.1675 223.929 97.3508 224.444 97.6155C224.959 97.8802 225.392 98.2671 225.742 98.7354C226.092 99.2037 226.257 99.8553 226.257 100.67C226.257 101.545 226.092 102.258 225.742 102.767C225.392 103.276 224.959 103.663 224.403 103.948C223.846 104.213 223.207 104.396 222.486 104.457C221.765 104.518 221.064 104.559 220.364 104.559C216.717 104.559 213.749 104.111 211.441 103.235C209.133 102.36 207.32 101.036 205.981 99.2648C204.641 97.4933 203.714 95.3146 203.199 92.6879C202.684 90.0816 202.416 86.9865 202.416 83.4639V40.7444H202.395Z" fill="#FE724C"/>
<path d="M263.493 55.8327C263.493 54.7535 263.823 53.8372 264.482 53.0838C265.141 52.3304 266.151 51.9639 267.532 51.9639C268.912 51.9639 269.922 52.3304 270.581 53.0838C271.241 53.8372 271.57 54.7535 271.57 55.8327V91.5273C271.57 92.9526 271.632 94.0522 271.735 94.7852C271.838 95.5386 272.003 96.1494 272.209 96.6178C272.415 97.0861 272.621 97.4526 272.827 97.697C273.034 97.9413 273.24 98.2671 273.446 98.6743C273.59 98.878 273.734 99.1427 273.92 99.4888C274.084 99.835 274.188 100.242 274.188 100.711C274.188 101.668 273.837 102.502 273.095 103.215C272.354 103.928 271.467 104.294 270.355 104.294C269.386 104.294 268.541 104.03 267.82 103.48C267.099 102.93 266.46 102.197 265.904 101.24C263.637 102.523 261.226 103.459 258.671 104.05C256.116 104.62 253.643 104.925 251.232 104.925C245.73 104.925 241.609 103.154 238.91 99.6313C236.189 96.0884 234.829 91.4458 234.829 85.663V55.8327C234.829 54.7535 235.18 53.8372 235.86 53.0838C236.54 52.3304 237.55 51.9639 238.848 51.9639C240.146 51.9639 241.156 52.3304 241.836 53.0838C242.516 53.8372 242.866 54.7535 242.866 55.8327V85.6019C242.866 89.4707 243.67 92.4639 245.297 94.5816C246.905 96.6992 249.274 97.7377 252.365 97.7377C254.364 97.7377 256.322 97.4526 258.238 96.8621C260.155 96.292 261.989 95.4571 263.699 94.3576C263.637 93.8078 263.575 93.2988 263.534 92.8304C263.493 92.3621 263.472 91.9142 263.472 91.5069V55.8327H263.493Z" fill="#FE724C"/>
<path d="M285.15 66.3395C285.15 61.921 286.551 58.378 289.374 55.6902C292.197 53.0024 296.36 51.6585 301.862 51.6585C303.16 51.6585 304.623 51.7603 306.251 51.9639C307.879 52.1676 309.362 52.4933 310.743 52.9413C312.124 53.3893 313.278 53.9594 314.205 54.6721C315.132 55.3848 315.606 56.2807 315.606 57.3802C315.606 58.3372 315.256 59.1924 314.576 59.9255C313.896 60.6789 312.989 61.0454 311.897 61.0454C311.341 61.0454 310.723 60.8825 310.043 60.5363C308.95 59.9866 307.817 59.559 306.684 59.2128C305.55 58.8667 304.046 58.7038 302.191 58.7038C296.071 58.7038 293.001 61.0861 293.001 65.8508C293.001 67.4187 293.351 68.6811 294.093 69.6178C294.814 70.5748 296.071 71.4911 297.864 72.3667C299.657 73.2422 301.656 74.0363 303.84 74.7083C306.045 75.3802 308.126 76.3169 310.084 77.5182C312.041 78.6992 313.69 80.2467 315.029 82.1608C316.369 84.0748 317.049 86.6811 317.049 90.0205C317.049 94.6427 315.606 98.2875 312.721 100.935C309.836 103.582 305.509 104.905 299.719 104.905C298.421 104.905 296.875 104.824 295.124 104.64C293.372 104.478 291.724 104.172 290.178 103.724C288.633 103.276 287.314 102.665 286.201 101.892C285.088 101.118 284.552 100.14 284.552 98.9798C284.552 98.1042 284.882 97.2694 285.542 96.4753C286.201 95.7015 287.149 95.2943 288.385 95.2943C288.736 95.2943 288.962 95.3146 289.065 95.335C289.168 95.3757 289.292 95.4164 289.416 95.4979C290.858 96.0476 292.424 96.5771 294.114 97.0861C295.804 97.5952 297.679 97.8599 299.739 97.8599C302.624 97.8599 304.932 97.2694 306.663 96.068C308.373 94.887 309.239 92.9526 309.239 90.3056C309.239 88.473 308.868 87.0884 308.106 86.1721C307.343 85.2558 306.457 84.5228 305.427 83.973C303.778 83.0974 301.8 82.3033 299.492 81.6314C297.184 80.9594 294.979 80.0431 292.877 78.8825C290.776 77.7219 288.962 76.1947 287.458 74.301C285.913 72.387 285.15 69.74 285.15 66.3395Z" fill="#FE724C"/>
<path d="M354.82 69.5974C354.82 62.3282 351.131 58.6834 343.775 58.6834C341.982 58.6834 340.519 58.887 339.386 59.2942C338.252 59.7015 337.099 60.2105 335.924 60.8214C335.78 60.8825 335.45 61.0454 334.894 61.2897C334.337 61.534 333.802 61.6562 333.245 61.6562C332.277 61.6562 331.576 61.2897 331.123 60.5363C330.669 59.7829 330.422 59.0499 330.34 58.2965C330.195 57.1359 330.546 56.1381 331.37 55.2829C332.194 54.4277 333.307 53.7354 334.729 53.1856C336.13 52.6359 337.717 52.249 339.468 52.0046C341.22 51.7603 342.992 51.6381 344.785 51.6381C351.255 51.6381 355.871 53.3689 358.673 56.8304C361.455 60.292 362.856 65.4232 362.856 72.2241V94.6834C362.856 96.7196 363.475 97.7377 364.711 97.7377C364.855 97.7377 364.979 97.7173 365.061 97.6969C365.164 97.6562 365.329 97.6562 365.535 97.6562C366.504 97.6562 367.246 98.0227 367.761 98.7354C368.276 99.4481 368.544 100.242 368.544 101.138C368.544 102.421 368.07 103.337 367.101 103.846C366.133 104.355 365.061 104.62 363.907 104.62C362.197 104.62 360.652 104.152 359.312 103.235C357.973 102.319 356.922 101.077 356.159 99.5092C352.162 103.113 347.463 104.905 342.023 104.905C336.666 104.905 332.689 103.5 330.113 100.67C327.537 97.8598 326.239 94.1336 326.239 89.5114V89.1042C326.239 79.0454 332.297 74.0159 344.393 74.0159C348.04 74.0159 351.523 74.4843 354.82 75.4413V69.5974ZM344.29 80.715C342.147 80.715 340.437 80.939 339.139 81.387C337.84 81.835 336.81 82.4458 336.089 83.2196C335.368 83.9933 334.873 84.9096 334.585 85.9277C334.317 86.9458 334.172 88.0454 334.172 89.1856V89.5929C334.172 91.9752 334.832 93.93 336.13 95.4571C337.428 96.9843 339.819 97.758 343.26 97.758C345.465 97.758 347.484 97.3915 349.339 96.6788C351.193 95.9662 353.027 94.8259 354.799 93.258V82.2422C353.089 81.6924 351.296 81.3055 349.442 81.0612C347.587 80.8372 345.877 80.715 344.29 80.715Z" fill="#FE724C"/>
<path d="M387.316 100.894C387.316 101.973 386.986 102.889 386.327 103.643C385.668 104.396 384.658 104.763 383.277 104.763C381.897 104.763 380.887 104.396 380.228 103.643C379.568 102.889 379.238 101.973 379.238 100.894V66.2377C379.238 64.8123 379.197 63.7331 379.094 62.9797C378.991 62.2264 378.847 61.6155 378.682 61.1472C378.517 60.6788 378.311 60.3123 378.064 60.068C377.817 59.8236 377.59 59.4978 377.384 59.0906C377.24 58.887 377.095 58.6223 376.93 58.3168C376.766 58.0114 376.663 57.5838 376.663 57.034C376.663 56.0159 377.013 55.1607 377.755 54.4888C378.476 53.8169 379.383 53.4707 380.495 53.4707C381.464 53.4707 382.288 53.7354 382.968 54.2852C383.648 54.8349 384.266 55.5476 384.823 56.4232C387.089 54.8553 389.5 53.715 392.035 52.9616C394.569 52.2083 397.083 51.8417 399.577 51.8417C405.079 51.8417 409.2 53.6132 411.899 57.1359C414.619 60.6788 415.979 65.3214 415.979 71.1042V100.873C415.979 101.953 415.629 102.869 414.949 103.622C414.269 104.376 413.259 104.742 411.961 104.742C410.663 104.742 409.653 104.376 408.973 103.622C408.293 102.869 407.943 101.953 407.943 100.873V71.1245C407.943 67.2558 407.139 64.2626 405.511 62.1449C403.883 60.0476 401.534 58.9888 398.443 58.9888C396.445 58.9888 394.487 59.3553 392.571 60.1087C390.654 60.8621 388.779 61.9209 387.007 63.2648C387.213 64.4254 387.316 65.4028 387.316 66.2173V100.894Z" fill="#FE724C"/>
</g>
<defs>
<clipPath id="clip0">
<rect width="416" height="135" fill="white"/>
</clipPath>
</defs>
</svg>
