<svg xmlns="http://www.w3.org/2000/svg" xmlns:xlink="http://www.w3.org/1999/xlink" width="292.265" height="234.178" viewBox="0 0 292.265 234.178">
  <defs>
    <linearGradient id="linear-gradient" x1="-7.93" y1="13.745" x2="-6.725" y2="12.766" gradientUnits="objectBoundingBox">
      <stop offset="0" stop-color="#5761d7"/>
      <stop offset="0.178" stop-color="#5b65d8"/>
      <stop offset="0.388" stop-color="#6a72de"/>
      <stop offset="0.613" stop-color="#8188e8"/>
      <stop offset="0.849" stop-color="#a2a6f5"/>
      <stop offset="1" stop-color="#bcbeff"/>
    </linearGradient>
    <linearGradient id="linear-gradient-2" x1="549.284" y1="65.891" x2="549.284" y2="65.313" gradientUnits="objectBoundingBox">
      <stop offset="0" stop-color="#c0bff6"/>
      <stop offset="0.294" stop-color="#c4c3f6"/>
      <stop offset="0.64" stop-color="#d2d2f9"/>
      <stop offset="1" stop-color="#e9e9fd"/>
    </linearGradient>
    <linearGradient id="linear-gradient-3" x1="9.741" y1="19.978" x2="9.741" y2="18.798" xlink:href="#linear-gradient-2"/>
    <radialGradient id="radial-gradient" cx="0.491" cy="0.516" r="0.831" gradientTransform="translate(0.207 16.48) scale(0.578 0.555)" gradientUnits="objectBoundingBox">
      <stop offset="0" stop-color="#42e8e0"/>
      <stop offset="0.121" stop-color="#39bdc0"/>
      <stop offset="0.284" stop-color="#2e899a"/>
      <stop offset="0.445" stop-color="#255e7a"/>
      <stop offset="0.6" stop-color="#1e3d61"/>
      <stop offset="0.748" stop-color="#192550"/>
      <stop offset="0.885" stop-color="#171645"/>
      <stop offset="1" stop-color="#161242"/>
    </radialGradient>
    <radialGradient id="radial-gradient-2" cx="3.229" cy="-0.407" r="2.886" gradientTransform="translate(-6.794 3.912) rotate(26.559)" gradientUnits="objectBoundingBox">
      <stop offset="0" stop-color="#c0bff6"/>
      <stop offset="1" stop-color="#393091"/>
    </radialGradient>
    <radialGradient id="radial-gradient-3" cx="0.795" cy="0.331" r="0.735" gradientTransform="translate(-1.439 -0.544) scale(1.169 1.361)" xlink:href="#radial-gradient-2"/>
    <linearGradient id="linear-gradient-4" x1="8.126" y1="2.139" x2="8.126" y2="1.195" gradientUnits="objectBoundingBox">
      <stop offset="0" stop-color="#42e8e0"/>
      <stop offset="0.005" stop-color="#41e6df"/>
      <stop offset="0.136" stop-color="#3fb6ca"/>
      <stop offset="0.271" stop-color="#3d8cb8"/>
      <stop offset="0.407" stop-color="#3b6baa"/>
      <stop offset="0.547" stop-color="#3a519f"/>
      <stop offset="0.689" stop-color="#393e97"/>
      <stop offset="0.837" stop-color="#393392"/>
      <stop offset="1" stop-color="#393091"/>
    </linearGradient>
    <radialGradient id="radial-gradient-4" cx="0.076" cy="-0.908" r="1.455" gradientTransform="translate(-0.112) scale(1.224 1)" xlink:href="#radial-gradient-2"/>
    <radialGradient id="radial-gradient-5" cx="0.645" cy="0.786" r="0.845" gradientTransform="matrix(0.234, 0.972, -0.972, 0.234, 1.036, -0.463)" xlink:href="#radial-gradient-2"/>
    <linearGradient id="linear-gradient-5" x1="0.43" y1="0.995" x2="0.57" y2="0.005" xlink:href="#linear-gradient-4"/>
    <radialGradient id="radial-gradient-6" cx="0.475" cy="-0.033" r="0.984" gradientTransform="translate(-0.112) scale(1.224 1)" xlink:href="#radial-gradient-2"/>
    <linearGradient id="linear-gradient-6" x1="0.232" y1="0.951" x2="0.656" y2="0" xlink:href="#linear-gradient-4"/>
    <radialGradient id="radial-gradient-7" cx="0.796" cy="0.174" r="1.043" gradientTransform="translate(-2.455 2.391) rotate(11.198)" xlink:href="#radial-gradient-2"/>
    <linearGradient id="linear-gradient-7" x1="-13.988" y1="-10.584" x2="-13.309" y2="-11.318" xlink:href="#linear-gradient-4"/>
    <radialGradient id="radial-gradient-8" cx="1.181" cy="0.067" r="0.779" gradientTransform="matrix(1.624, 0.118, -0.319, 1.636, -14.853, 37.215)" xlink:href="#radial-gradient-2"/>
    <linearGradient id="linear-gradient-8" x1="-6.843" y1="2.658" x2="-5.759" y2="2.658" xlink:href="#linear-gradient-4"/>
    <radialGradient id="radial-gradient-9" cx="1.351" cy="0.098" r="1.105" gradientTransform="matrix(0.366, 0.877, -1.1, 0.792, -165.583, 62.193)" xlink:href="#radial-gradient-2"/>
    <linearGradient id="linear-gradient-9" x1="-93.717" y1="-16.39" x2="-94.147" y2="-15.637" xlink:href="#linear-gradient-4"/>
  </defs>
  <g id="Mobile_services_1.1" transform="translate(-53.118 234.874)">
    <g id="Сгруппировать_5603" data-name="Сгруппировать 5603" transform="translate(53.118 -180.867)">
      <g id="Сгруппировать_5602" data-name="Сгруппировать 5602">
        <path id="Контур_22752" data-name="Контур 22752" d="M356.151,219.679l-94.237,54.763c-20.076,11.666-52.724,11.666-72.931,0L94.131,219.679C83.962,213.809,78.882,206.1,78.9,198.408l-.03,10.9c-.022,7.694,5.056,15.4,15.224,21.268l94.852,54.763c20.209,11.666,52.858,11.666,72.933,0l94.237-54.763c9.973-5.8,14.966-13.381,14.987-20.974l.03-10.9C371.117,206.3,366.124,213.883,356.151,219.679Z" transform="translate(-78.874 -113.919)" fill="#44c4ff"/>
        <g id="Сгруппировать_5601" data-name="Сгруппировать 5601" transform="translate(0.03)">
          <g id="Сгруппировать_5600" data-name="Сгруппировать 5600">
            <path id="Контур_22753" data-name="Контур 22753" d="M355.9,230.889c20.206,11.666,20.313,30.577.237,42.245L261.9,327.9c-20.076,11.666-52.724,11.666-72.931,0L94.112,273.135c-20.209-11.666-20.315-30.579-.24-42.245l94.237-54.763c20.076-11.669,52.724-11.669,72.933,0Z" transform="translate(-78.885 -162.374)" fill="#f5fbff"/>
          </g>
        </g>
      </g>
    </g>
    <g id="Сгруппировать_5735" data-name="Сгруппировать 5735" transform="translate(-40.275 -288.08)">
      <g id="Сгруппировать_5709" data-name="Сгруппировать 5709" transform="translate(136.275 127.04)">
        <g id="Сгруппировать_5708" data-name="Сгруппировать 5708" transform="translate(0 0)">
          <g id="Сгруппировать_5707" data-name="Сгруппировать 5707">
            <g id="Сгруппировать_5706" data-name="Сгруппировать 5706">
              <path id="Контур_23385" data-name="Контур 23385" d="M274.89,204.781l63.125,36.345c.949.547.831,1.5-.263,2.137l-134.01,77.584a4.113,4.113,0,0,1-3.7.158l-63.125-36.345c-.95-.547-.832-1.5.263-2.137l134.009-77.584A4.114,4.114,0,0,1,274.89,204.781Z" transform="translate(-136.275 -188.266)" fill="#56e5f9"/>
              <path id="Контур_23386" data-name="Контур 23386" d="M136.276,262.3l.02,4.426.011-.006a1.1,1.1,0,0,0,.629.891l63.125,36.345a4.111,4.111,0,0,0,3.7-.158l134.01-77.583a1.5,1.5,0,0,0,.893-1.219l.011.006-.02-4.421-6.985,3.858-56.761-32.681a4.114,4.114,0,0,0-3.7.158L142.889,266.206c.328-.361.566-.627.567-.647C143.461,265.494,136.276,262.3,136.276,262.3Z" transform="translate(-136.276 -182.993)" fill="url(#linear-gradient)"/>
              <path id="Контур_23387" data-name="Контур 23387" d="M246.9,367.3l-.026-17.984-2.881-1.659.029,19.729A4.278,4.278,0,0,0,246.9,367.3Z" transform="translate(-179.89 -246.266)" fill="url(#linear-gradient-2)"/>
              <path id="Контур_23388" data-name="Контур 23388" d="M274.89,177.647l63.125,36.345c.949.547.831,1.5-.263,2.138l-134.01,77.583a4.111,4.111,0,0,1-3.7.158l-63.125-36.345c-.95-.546-.832-1.5.263-2.137L271.189,177.8A4.114,4.114,0,0,1,274.89,177.647Z" transform="translate(-136.275 -177.279)" fill="url(#linear-gradient-3)"/>
              <path id="Контур_23389" data-name="Контур 23389" d="M200.048,319.333l-63.125-36.345a1,1,0,0,1-.572-1.256,1.2,1.2,0,0,0,.606.708l63.125,36.345a4.111,4.111,0,0,0,3.7-.158l134.01-77.583a1.812,1.812,0,0,0,.835-.881c.129.48-.165,1.021-.869,1.428l-134.01,77.584A4.111,4.111,0,0,1,200.048,319.333Z" transform="translate(-136.28 -202.741)" fill="#fff"/>
              <path id="Контур_23390" data-name="Контур 23390" d="M269.633,184.775,336.2,223.1,215.781,292.813l-66.563-38.324Z" transform="translate(-141.516 -180.314)" fill="#24126a"/>
              <path id="Контур_23391" data-name="Контур 23391" d="M269.633,184.775,336.2,223.1,215.781,292.813l-66.563-38.324Z" transform="translate(-141.516 -180.314)" fill="#24126a"/>
              <path id="Контур_23392" data-name="Контур 23392" d="M269.633,184.775,336.2,223.1,215.781,292.813l-66.563-38.324Z" transform="translate(-141.516 -180.314)" opacity="0.5" fill="url(#radial-gradient)" style="mix-blend-mode: lighten;isolation: isolate"/>
              <path id="Контур_23393" data-name="Контур 23393" d="M189.671,332.086l12.062,6.921c.351.2.553.431.333.708a1.12,1.12,0,0,1-.317.262h0a2.037,2.037,0,0,1-1.832.078l-12.168-7.005c-.037-.021-.091-.03-.1-.067-.1-.385-.067-.477.433-.766l.167-.035A1.277,1.277,0,0,1,189.671,332.086Z" transform="translate(-157.058 -239.891)" fill="#5761d7"/>
              <path id="Контур_23394" data-name="Контур 23394" d="M187.537,332.856a1.112,1.112,0,0,1,.315-.261,2.037,2.037,0,0,1,1.832-.078l12.168,7.006a.849.849,0,0,1,.1.071.5.5,0,0,0-.186-.8L189.6,331.791a2.035,2.035,0,0,0-1.832.078C187.267,332.158,187.183,332.579,187.537,332.856Z" transform="translate(-156.944 -239.769)" fill="#bcbeff"/>
            </g>
          </g>
        </g>
      </g>
      <g id="Сгруппировать_5712" data-name="Сгруппировать 5712" transform="translate(179.809 192.41)">
        <g id="Сгруппировать_5711" data-name="Сгруппировать 5711" transform="translate(0)">
          <g id="Сгруппировать_5710" data-name="Сгруппировать 5710">
            <path id="Контур_23395" data-name="Контур 23395" d="M214.315,291.395l-4.365-2.52a.764.764,0,0,1,0-1.447h0a2.772,2.772,0,0,1,2.507,0l4.365,2.52a.764.764,0,0,1,0,1.447h0A2.768,2.768,0,0,1,214.315,291.395Z" transform="translate(-209.431 -287.128)" fill="#42e8e0" opacity="0.2"/>
            <path id="Контур_23396" data-name="Контур 23396" d="M229.493,300.158l-4.365-2.52a.764.764,0,0,1,0-1.447h0a2.768,2.768,0,0,1,2.507,0l4.365,2.52a.764.764,0,0,1,0,1.447h0A2.769,2.769,0,0,1,229.493,300.158Z" transform="translate(-215.576 -290.676)" fill="#42e8e0" opacity="0.6"/>
            <path id="Контур_23397" data-name="Контур 23397" d="M244.671,308.921l-4.365-2.52a.764.764,0,0,1,0-1.447h0a2.768,2.768,0,0,1,2.507,0l4.365,2.52a.764.764,0,0,1,0,1.447h0A2.769,2.769,0,0,1,244.671,308.921Z" transform="translate(-221.722 -294.224)" fill="#42e8e0"/>
            <path id="Контур_23398" data-name="Контур 23398" d="M259.849,317.684l-4.365-2.52a.764.764,0,0,1,0-1.447h0a2.768,2.768,0,0,1,2.507,0l4.365,2.52a.764.764,0,0,1,0,1.447h0A2.769,2.769,0,0,1,259.849,317.684Z" transform="translate(-227.868 -297.773)" fill="#42e8e0" opacity="0.6"/>
            <path id="Контур_23399" data-name="Контур 23399" d="M275.027,326.447l-4.365-2.52a.764.764,0,0,1,0-1.447h0a2.768,2.768,0,0,1,2.507,0l4.365,2.52a.764.764,0,0,1,0,1.447h0A2.772,2.772,0,0,1,275.027,326.447Z" transform="translate(-234.014 -301.321)" fill="#42e8e0" opacity="0.2"/>
          </g>
        </g>
      </g>
      <g id="Сгруппировать_5734" data-name="Сгруппировать 5734" transform="translate(164.257 89.581)">
        <g id="Сгруппировать_5713" data-name="Сгруппировать 5713" transform="translate(34.521 74.599)">
          <ellipse id="Эллипс_192" data-name="Эллипс 192" cx="36.798" cy="21.245" rx="36.798" ry="21.245" fill="#42e8e0" opacity="0.2"/>
          <ellipse id="Эллипс_193" data-name="Эллипс 193" cx="20.876" cy="12.053" rx="20.876" ry="12.053" transform="translate(15.922 9.193)" fill="#42e8e0"/>
        </g>
        <g id="Сгруппировать_5714" data-name="Сгруппировать 5714" transform="translate(0)" opacity="0.3">
          <path id="Контур_23400" data-name="Контур 23400" d="M382.519,141.55c.457,2.587,2.376,9.088,10.291,13.584,11.267,5.2,19.072,12.043,21.687,19.68a17.694,17.694,0,0,0,.68,1.645c.28-.462.28-.462.282-1.582V162.054c-.005-7.529-.427-9.188-.962-11.289-2.615-7.637-10.419-14.477-21.687-19.68-8.989-2.9-11.164,5.526-10.291,10.465Z" transform="translate(-263.892 -120.875)" fill="#42e8e0"/>
          <path id="Контур_23401" data-name="Контур 23401" d="M236.392,119.622a145.176,145.176,0,0,1,41.1-5.285q2.98.024,5.9.155c13.226,1.208,17.929,15.175,9.956,21.286-3.66,2.8-8.072,2.776-9.956,2.763q-2.92-.13-5.9-.155a145.2,145.2,0,0,0-41.1,5.286c-12.045,2.934-12.756-9.307-8.544-16.794a15.222,15.222,0,0,1,8.544-7.255Z" transform="translate(-200.389 -114.332)" fill="#42e8e0"/>
          <path id="Контур_23402" data-name="Контур 23402" d="M183.3,189c.328-3.812.588-6.823,4.469-12.077,8.181-12.073,6.529-26.1,2.01-25.456a4.493,4.493,0,0,0-2.01,1.406,19.961,19.961,0,0,0-4.457,11.444c-.008.212-.012.423-.012.633V189Z" transform="translate(-183.297 -129.359)" fill="#42e8e0"/>
        </g>
        <g id="Сгруппировать_5731" data-name="Сгруппировать 5731" transform="translate(11.928 3.316)">
          <rect id="Прямоугольник_1630" data-name="Прямоугольник 1630" width="2.81" height="23.987" transform="matrix(0.927, -0.375, 0.375, 0.927, 83.738, 60.338)" fill="#42e8e0"/>
          <g id="Сгруппировать_5730" data-name="Сгруппировать 5730" transform="translate(26.117)">
            <g id="Сгруппировать_5716" data-name="Сгруппировать 5716" transform="translate(0 38.195)">
              <g id="Сгруппировать_5715" data-name="Сгруппировать 5715" transform="translate(0 0)">
                <circle id="Эллипс_194" data-name="Эллипс 194" cx="8.731" cy="8.731" r="8.731" transform="translate(0 4.626) rotate(-15.362)" fill="url(#radial-gradient-2)"/>
              </g>
            </g>
            <g id="Сгруппировать_5718" data-name="Сгруппировать 5718" transform="translate(10.732 39.814)">
              <g id="Сгруппировать_5717" data-name="Сгруппировать 5717">
                <path id="Контур_23403" data-name="Контур 23403" d="M310.347,208.836c0,16.948-10.092,30.687-22.542,30.687s-22.542-13.739-22.542-30.687,10.092-22.027,22.542-22.027S310.347,191.888,310.347,208.836Z" transform="translate(-265.263 -186.809)" fill="url(#radial-gradient-3)"/>
              </g>
            </g>
            <g id="Сгруппировать_5720" data-name="Сгруппировать 5720" transform="translate(10.732 39.814)" style="mix-blend-mode: lighten;isolation: isolate">
              <g id="Сгруппировать_5719" data-name="Сгруппировать 5719">
                <path id="Контур_23404" data-name="Контур 23404" d="M310.347,208.836c0,16.948-10.092,30.687-22.542,30.687s-22.542-13.739-22.542-30.687,10.092-22.027,22.542-22.027S310.347,191.888,310.347,208.836Z" transform="translate(-265.263 -186.809)" fill="url(#linear-gradient-4)"/>
              </g>
            </g>
            <ellipse id="Эллипс_195" data-name="Эллипс 195" cx="15.385" cy="8.882" rx="15.385" ry="8.882" transform="translate(17.889 40.044)" fill="#393091"/>
            <path id="Контур_23405" data-name="Контур 23405" d="M281.8,192.163c6.008-3.469,15.749-3.469,21.757,0,2.482,1.433,3.935,3.234,4.367,5.1.613-2.649-.84-5.428-4.367-7.464-6.008-3.469-15.749-3.469-21.757,0-3.526,2.036-4.98,4.814-4.367,7.464C277.863,195.4,279.316,193.6,281.8,192.163Z" transform="translate(-259.403 -147.151)" fill="#453c9e"/>
            <path id="Контур_23406" data-name="Контур 23406" d="M269.147,153.895l2.783-4.8a15.521,15.521,0,0,0,3.61-6.22l2.818-4.857-4.054-2.327a3.125,3.125,0,0,0-.406-.233h0a4.713,4.713,0,0,0-4.366.571,14.343,14.343,0,0,0-6.489,11.239c0,2.068.725,3.521,1.9,4.2h0Z" transform="translate(-253.631 -126.076)" fill="url(#radial-gradient-4)"/>
            <ellipse id="Эллипс_196" data-name="Эллипс 196" cx="9.177" cy="5.298" rx="9.177" ry="5.298" transform="translate(10.897 25.153) rotate(-59.999)" fill="#bcbeff"/>
            <g id="Сгруппировать_5722" data-name="Сгруппировать 5722" transform="translate(6.443)">
              <g id="Сгруппировать_5721" data-name="Сгруппировать 5721" transform="translate(0)">
                <circle id="Эллипс_197" data-name="Эллипс 197" cx="22.991" cy="22.991" r="22.991" transform="translate(0 44.709) rotate(-76.49)" fill="url(#radial-gradient-5)"/>
              </g>
            </g>
            <g id="Сгруппировать_5724" data-name="Сгруппировать 5724" transform="translate(6.443)" style="mix-blend-mode: lighten;isolation: isolate">
              <g id="Сгруппировать_5723" data-name="Сгруппировать 5723" transform="translate(0)">
                <circle id="Эллипс_198" data-name="Эллипс 198" cx="22.991" cy="22.991" r="22.991" transform="translate(0 44.709) rotate(-76.49)" fill="url(#linear-gradient-5)"/>
              </g>
            </g>
            <path id="Контур_23407" data-name="Контур 23407" d="M322.111,179.866l2.783-4.8a15.52,15.52,0,0,0,3.61-6.22l2.819-4.857-4.054-2.327a3.061,3.061,0,0,0-.407-.233l0,0h0a4.712,4.712,0,0,0-4.366.571,14.342,14.342,0,0,0-6.489,11.239c0,2.068.726,3.521,1.9,4.2h0Z" transform="translate(-275.077 -136.591)" fill="url(#radial-gradient-6)"/>
            <path id="Контур_23408" data-name="Контур 23408" d="M322.111,179.866l2.783-4.8a15.52,15.52,0,0,0,3.61-6.22l2.819-4.857-4.054-2.327a3.061,3.061,0,0,0-.407-.233l0,0h0a4.712,4.712,0,0,0-4.366.571,14.342,14.342,0,0,0-6.489,11.239c0,2.068.726,3.521,1.9,4.2h0Z" transform="translate(-275.077 -136.591)" fill="url(#linear-gradient-6)" style="mix-blend-mode: lighten;isolation: isolate"/>
            <ellipse id="Эллипс_199" data-name="Эллипс 199" cx="9.177" cy="5.298" rx="9.177" ry="5.298" transform="translate(42.415 40.608) rotate(-59.999)" fill="#bcbeff"/>
            <path id="Контур_23409" data-name="Контур 23409" d="M323.319,177.339a14.343,14.343,0,0,1,6.489-11.239,5.461,5.461,0,0,1,3.388-.854,5.217,5.217,0,0,0-3.686.8,14.342,14.342,0,0,0-6.489,11.239c0,2.7,1.241,4.357,3.1,4.6C324.429,181.512,323.319,179.9,323.319,177.339Z" transform="translate(-277.918 -138.23)" fill="#fff"/>
            <path id="Контур_23410" data-name="Контур 23410" d="M335.407,172.486a10.251,10.251,0,0,1-4.638,8.034c-2.562,1.479-4.638.28-4.638-2.678a10.251,10.251,0,0,1,4.638-8.033C333.331,168.329,335.407,169.529,335.407,172.486Z" transform="translate(-279.177 -139.855)" fill="#393091"/>
            <path id="Контур_23411" data-name="Контур 23411" d="M333.951,169.29a3.8,3.8,0,0,1,.76,2.5,10.251,10.251,0,0,1-4.638,8.034,3.706,3.706,0,0,1-2.665.565c.829.978,2.256,1.116,3.878.18a10.251,10.251,0,0,0,4.638-8.034C335.924,170.721,335.144,169.57,333.951,169.29Z" transform="translate(-279.694 -139.901)" fill="#453c9e"/>
            <g id="Сгруппировать_5725" data-name="Сгруппировать 5725" transform="translate(13.793 23.999)">
              <path id="Контур_23412" data-name="Контур 23412" d="M283.609,174.849c-.587,4.521-4,5.941-7.621,3.172a15.8,15.8,0,0,1-5.494-13.2c.587-4.521,4-5.941,7.621-3.172A15.8,15.8,0,0,1,283.609,174.849Z" transform="translate(-270.406 -160.234)" fill="#393091"/>
              <path id="Контур_23413" data-name="Контур 23413" d="M284.3,174.6c-.214,1.643-1.454,2.159-2.77,1.153a5.742,5.742,0,0,1-2-4.8c.213-1.643,1.453-2.159,2.77-1.153A5.743,5.743,0,0,1,284.3,174.6Z" transform="translate(-274.09 -163.901)" fill="#42e8e0"/>
              <path id="Контур_23414" data-name="Контур 23414" d="M277.726,177.375a15.8,15.8,0,0,1-5.495-13.2,5.574,5.574,0,0,1,1.95-3.909c-1.893.178-3.327,1.784-3.688,4.569a15.8,15.8,0,0,0,5.494,13.2c2.145,1.641,4.217,1.811,5.672.737A5.732,5.732,0,0,1,277.726,177.375Z" transform="translate(-270.406 -160.246)" fill="#453c9e"/>
              <path id="Контур_23415" data-name="Контур 23415" d="M276.3,178.054a15.8,15.8,0,0,1-5.5-13.2c.272-2.093,1.15-3.519,2.374-4.175-1.385.57-2.391,2.055-2.685,4.323a15.8,15.8,0,0,0,5.494,13.2c1.944,1.487,3.826,1.762,5.246,1C279.856,179.77,278.1,179.434,276.3,178.054Z" transform="translate(-270.406 -160.414)" fill="#42e8e0"/>
            </g>
            <g id="Сгруппировать_5727" data-name="Сгруппировать 5727" transform="translate(50.19 51.079)">
              <g id="Сгруппировать_5726" data-name="Сгруппировать 5726">
                <path id="Контур_23416" data-name="Контур 23416" d="M348.867,216.166A8.731,8.731,0,1,1,342,205.906,8.731,8.731,0,0,1,348.867,216.166Z" transform="translate(-331.57 -205.738)" fill="url(#radial-gradient-7)"/>
              </g>
            </g>
            <g id="Сгруппировать_5729" data-name="Сгруппировать 5729" transform="translate(50.19 51.079)" style="mix-blend-mode: lighten;isolation: isolate">
              <g id="Сгруппировать_5728" data-name="Сгруппировать 5728">
                <path id="Контур_23417" data-name="Контур 23417" d="M348.867,216.166A8.731,8.731,0,1,1,342,205.906,8.731,8.731,0,0,1,348.867,216.166Z" transform="translate(-331.57 -205.738)" fill="url(#linear-gradient-7)"/>
              </g>
            </g>
          </g>
          <path id="Контур_23418" data-name="Контур 23418" d="M361.415,263.4c-.495,4.149-4.159,12.007-7.475,11.611s-5.029-8.895-4.533-13.044,3.584-7.191,6.9-6.8S361.91,259.251,361.415,263.4Z" transform="translate(-262.45 -174.661)" fill="url(#radial-gradient-8)"/>
          <path id="Контур_23419" data-name="Контур 23419" d="M361.415,263.4c-.495,4.149-4.159,12.007-7.475,11.611s-5.029-8.895-4.533-13.044,3.584-7.191,6.9-6.8S361.91,259.251,361.415,263.4Z" transform="translate(-262.45 -174.661)" fill="url(#linear-gradient-8)" style="mix-blend-mode: lighten;isolation: isolate"/>
          <path id="Контур_23420" data-name="Контур 23420" d="M225.483,215.836a1.405,1.405,0,0,1-.653-2.65l18.027-9.434a1.405,1.405,0,0,1,1.3,2.49l-18.026,9.434A1.4,1.4,0,0,1,225.483,215.836Z" transform="translate(-211.737 -153.79)" fill="#42e8e0"/>
          <path id="Контур_23421" data-name="Контур 23421" d="M217.4,224.985c-3.663,2.008-12.187,3.593-13.793.665s4.316-9.261,7.98-11.27,7.935-1.263,9.54,1.666S221.068,222.976,217.4,224.985Z" transform="translate(-203.341 -157.702)" fill="url(#radial-gradient-9)"/>
          <path id="Контур_23422" data-name="Контур 23422" d="M217.4,224.985c-3.663,2.008-12.187,3.593-13.793.665s4.316-9.261,7.98-11.27,7.935-1.263,9.54,1.666S221.068,222.976,217.4,224.985Z" transform="translate(-203.341 -157.702)" fill="url(#linear-gradient-9)" style="mix-blend-mode: lighten;isolation: isolate"/>
        </g>
        <g id="Сгруппировать_5733" data-name="Сгруппировать 5733" transform="translate(0 35.59)" opacity="0.5">
          <g id="Сгруппировать_5732" data-name="Сгруппировать 5732">
            <path id="Контур_23423" data-name="Контур 23423" d="M192.107,205.237c-.549,4.415-2.838,7.042-5.245,3.753a19.386,19.386,0,0,1-3.565-10.8V174.138a19.1,19.1,0,0,0,3.565,10.8c5.087,8.414,5.69,16.717,5.245,20.3Z" transform="translate(-183.297 -174.138)" fill="#42e8e0"/>
            <path id="Контур_23424" data-name="Контур 23424" d="M279.205,229.42q-2.847.077-5.747.054a141.657,141.657,0,0,1-40.821-6c-11.679-3.12-12.384,9.1-8.309,16.648a14.854,14.854,0,0,0,8.309,7.4,141.636,141.636,0,0,0,40.821,6q2.9.024,5.747-.054c13.722-1.012,17.316-14.191,10.9-20.343-1.79-1.717-5.134-3.753-10.9-3.707Z" transform="translate(-198.997 -193.913)" fill="#42e8e0"/>
            <path id="Контур_23425" data-name="Контур 23425" d="M413.889,194.083c-.067,10.4-.677,12.293-1.45,14.689-3.215,7.584-11.551,14.283-23.219,19.287-10.216,3.014-13.037-7.6-8.882-15.472a20.421,20.421,0,0,1,8.882-8.577c11.669-5,20-11.7,23.219-19.287a12.577,12.577,0,0,1,.883-1.629l.261-.034c.2.556.28.786.306,3.625v7.4Z" transform="translate(-262.334 -177.751)" fill="#42e8e0"/>
          </g>
        </g>
      </g>
      <path id="Контур_23430" data-name="Контур 23430" d="M239.753,87.252a1.835,1.835,0,1,1-1.835-1.835A1.835,1.835,0,0,1,239.753,87.252Z" transform="translate(-40.413 -13.043)" fill="#42e8e0"/>
      <path id="Контур_23431" data-name="Контур 23431" d="M358.916,53.948a2.534,2.534,0,1,1-3.583,0A2.533,2.533,0,0,1,358.916,53.948Z" transform="translate(-88.398)" fill="#42e8e0"/>
      <path id="Контур_23432" data-name="Контур 23432" d="M357.262,155.558a1.166,1.166,0,1,1-1.166-1.166A1.167,1.167,0,0,1,357.262,155.558Z" transform="translate(-88.535 -40.971)" fill="#42e8e0" opacity="0.5"/>
      <path id="Контур_23433" data-name="Контур 23433" d="M213.975,254.343a1.166,1.166,0,1,1-1.166-1.166A1.167,1.167,0,0,1,213.975,254.343Z" transform="translate(-30.517 -80.97)" fill="#42e8e0" opacity="0.5"/>
      <circle id="Эллипс_200" data-name="Эллипс 200" cx="0.609" cy="0.609" r="0.609" transform="translate(205.128 126.432)" fill="#42e8e0" opacity="0.8"/>
    </g>
  </g>
</svg>
