<svg xmlns="http://www.w3.org/2000/svg" xmlns:xlink="http://www.w3.org/1999/xlink" width="300.338" height="181.192" viewBox="0 0 300.338 181.192">
  <defs>
    <linearGradient id="linear-gradient" y1="0.5" x2="1" y2="0.5" gradientUnits="objectBoundingBox">
      <stop offset="0" stop-color="#2f054a"/>
      <stop offset="1" stop-color="#5824b0"/>
    </linearGradient>
    <linearGradient id="linear-gradient-2" x1="0.131" y1="0.5" x2="1.131" y2="0.5" gradientUnits="objectBoundingBox">
      <stop offset="0.056" stop-color="#9f79b8"/>
      <stop offset="0.257" stop-color="#a07bb9"/>
      <stop offset="0.357" stop-color="#a782bf"/>
      <stop offset="0.434" stop-color="#b28fc8"/>
      <stop offset="0.495" stop-color="#c1a1d5"/>
      <stop offset="0.507" stop-color="#c3a5d6"/>
      <stop offset="0.52" stop-color="#ccb2dc"/>
      <stop offset="0.533" stop-color="#dac8e6"/>
      <stop offset="0.547" stop-color="#eee6f4"/>
      <stop offset="0.556" stop-color="#fff"/>
      <stop offset="0.568" stop-color="#ebdff3"/>
      <stop offset="0.58" stop-color="#ddc7ea"/>
      <stop offset="0.591" stop-color="#d4b9e4"/>
      <stop offset="0.601" stop-color="#d1b4e3"/>
      <stop offset="0.658" stop-color="#b294d5"/>
      <stop offset="0.715" stop-color="#9b7ccb"/>
      <stop offset="0.769" stop-color="#8d6ec5"/>
      <stop offset="0.813" stop-color="#8969c3"/>
      <stop offset="1" stop-color="#b086cc"/>
    </linearGradient>
    <linearGradient id="linear-gradient-3" y1="0.5" x2="1" y2="0.5" gradientUnits="objectBoundingBox">
      <stop offset="0" stop-color="#58098a"/>
      <stop offset="1" stop-color="#773bdb"/>
    </linearGradient>
    <linearGradient id="linear-gradient-5" y1="0.5" x2="1" y2="0.5" gradientUnits="objectBoundingBox">
      <stop offset="0" stop-color="#4ec1de"/>
      <stop offset="0.404" stop-color="#43e2de"/>
      <stop offset="0.501" stop-color="#41d7d9"/>
      <stop offset="0.67" stop-color="#3ebacd"/>
      <stop offset="0.889" stop-color="#398cba"/>
      <stop offset="1" stop-color="#3772b0"/>
    </linearGradient>
    <linearGradient id="linear-gradient-6" x1="0.416" y1="-0.061" x2="0.587" y2="1.08" xlink:href="#linear-gradient-5"/>
    <linearGradient id="linear-gradient-7" x1="-58.667" y1="231.067" x2="-57.443" y2="231.067" gradientUnits="objectBoundingBox">
      <stop offset="0" stop-color="#3d065f"/>
      <stop offset="1" stop-color="#5f27bd"/>
    </linearGradient>
    <linearGradient id="linear-gradient-8" x1="-58.667" y1="231.067" x2="-57.443" y2="231.067" xlink:href="#linear-gradient"/>
    <linearGradient id="linear-gradient-9" x1="-69.894" y1="275.765" x2="-70.819" y2="277.677" xlink:href="#linear-gradient-2"/>
    <linearGradient id="linear-gradient-10" x1="-36.422" y1="154.359" x2="-35.211" y2="154.359" xlink:href="#linear-gradient-7"/>
    <linearGradient id="linear-gradient-11" x1="-36.422" y1="154.359" x2="-35.211" y2="154.359" xlink:href="#linear-gradient"/>
    <linearGradient id="linear-gradient-12" x1="-41.127" y1="175.242" x2="-41.672" y2="176.457" xlink:href="#linear-gradient-2"/>
    <linearGradient id="linear-gradient-13" x1="-36.234" y1="153.514" x2="-35.023" y2="153.514" xlink:href="#linear-gradient-7"/>
    <linearGradient id="linear-gradient-14" x1="-36.234" y1="153.514" x2="-35.023" y2="153.514" xlink:href="#linear-gradient"/>
    <linearGradient id="linear-gradient-15" x1="-41.265" y1="175.088" x2="-41.81" y2="176.303" xlink:href="#linear-gradient-2"/>
    <linearGradient id="linear-gradient-16" x1="0.35" y1="0.493" x2="2.19" y2="0.662" xlink:href="#linear-gradient-3"/>
    <linearGradient id="linear-gradient-17" x1="0.207" y1="0.111" x2="0.846" y2="0.875" gradientUnits="objectBoundingBox">
      <stop offset="0" stop-color="#46c0d1"/>
      <stop offset="1" stop-color="#6c38ef"/>
    </linearGradient>
    <linearGradient id="linear-gradient-18" x1="0.5" x2="0.5" y2="1" gradientUnits="objectBoundingBox">
      <stop offset="0" stop-color="#852dee"/>
      <stop offset="1" stop-color="#6c38ef"/>
    </linearGradient>
  </defs>
  <g id="Mobile_services_1.2" transform="translate(-33.081 -46.954)">
    <g id="PODLOJKA" transform="translate(24.568 282.863)">
      <g id="Purple" transform="translate(-459.063 -407.24)">
        <g id="Сгруппировать_5615" data-name="Сгруппировать 5615" transform="translate(467.576 167.374)">
          <g id="Сгруппировать_5614" data-name="Сгруппировать 5614">
            <path id="Контур_22756" data-name="Контур 22756" d="M707.135,220.267l-96.84,56.276c-20.63,11.988-54.181,11.988-74.945,0l-97.475-56.276c-10.449-6.032-15.667-13.952-15.645-21.859l-.031,11.2c-.022,7.906,5.2,15.824,15.645,21.856l97.472,56.276c20.765,11.988,54.318,11.988,74.948,0L707.1,231.466c10.251-5.956,15.382-13.751,15.4-21.554l.034-11.2C722.514,206.516,717.383,214.31,707.135,220.267Z" transform="translate(-422.198 -111.585)" fill="#852dee"/>
            <g id="Сгруппировать_5613" data-name="Сгруппировать 5613" transform="translate(0.031)">
              <g id="Сгруппировать_5612" data-name="Сгруппировать 5612">
                <path id="Контур_22757" data-name="Контур 22757" d="M706.871,232.644c20.765,11.988,20.874,31.421.244,43.412l-96.84,56.276c-20.631,11.988-54.181,11.988-74.945,0l-97.475-56.276c-20.765-11.988-20.874-31.424-.243-43.412l96.84-56.276c20.63-11.991,54.181-11.991,74.945,0Z" transform="translate(-422.209 -162.375)" fill="#f5f0fa"/>
              </g>
            </g>
          </g>
        </g>
      </g>
    </g>
    <g id="Сгруппировать_5630" data-name="Сгруппировать 5630" transform="translate(-305.192 66.102)">
      <g id="Сгруппировать_5631" data-name="Сгруппировать 5631" transform="translate(363.004 26.371)" opacity="0.2">
        <path id="Контур_23247" data-name="Контур 23247" d="M488.982,169.136a16.269,16.269,0,0,1-8.123-1.958L367.665,102.024A8.6,8.6,0,0,1,363,94.6c0-3.3,2.045-6.37,5.613-8.429l48.824-28.19a20.013,20.013,0,0,1,9.866-2.508,16.278,16.278,0,0,1,8.124,1.959l113.193,65.153a8.6,8.6,0,0,1,4.661,7.425c0,3.3-2.046,6.369-5.612,8.429l-48.825,28.19A20.009,20.009,0,0,1,488.982,169.136Z" transform="translate(-363.004 -55.473)" opacity="0"/>
        <path id="Контур_23248" data-name="Контур 23248" d="M369.765,86.9l46.628-26.921c.075-.043,2.355-1.346,2.442-1.373a21.9,21.9,0,0,1,9.928-2.225,16.763,16.763,0,0,1,8.01,2.14l112.568,64.794a8.158,8.158,0,0,1,4.444,7.084c-.014,3.124-1.973,6.048-5.4,8.025l-48.533,28.021a20.293,20.293,0,0,1-3.6,1.6,21,21,0,0,1-6.174,1.009,15.93,15.93,0,0,1-8.082-1.89L368.813,102.012a8.157,8.157,0,0,1-4.444-7.083C364.383,91.8,366.342,88.88,369.765,86.9Z" transform="translate(-363.812 -56.012)" opacity="0.091"/>
        <path id="Контур_23249" data-name="Контур 23249" d="M370.913,87.636,417.76,60.588c.15-.086,2.293-1.3,2.467-1.352,2.949-1.525,6.582-1.8,9.992-1.941,2.531-.1,6.079,1.273,7.9,2.322l111.944,64.435a7.721,7.721,0,0,1,4.227,6.742c-.028,2.951-1.9,5.727-5.178,7.621l-48.242,27.853a23.294,23.294,0,0,1-3.556,1.624,20.875,20.875,0,0,1-6.115,1.084,15.587,15.587,0,0,1-8.041-1.823L369.961,102a7.72,7.72,0,0,1-4.228-6.742C365.762,92.3,367.634,89.529,370.913,87.636Z" transform="translate(-364.621 -56.549)" opacity="0.182"/>
        <path id="Контур_23250" data-name="Контур 23250" d="M372.062,88.369l47.067-27.175c.225-.13,2.231-1.25,2.492-1.331,3.021-1.479,6.713-1.446,10.055-1.658,2.247-.142,6.167,1.571,7.781,2.5l111.32,64.075a7.283,7.283,0,0,1,4.011,6.4c-.042,2.779-1.827,5.406-4.961,7.216l-47.95,27.685a27.123,27.123,0,0,1-3.518,1.649,20.769,20.769,0,0,1-6.056,1.159,15.257,15.257,0,0,1-8-1.755L371.11,101.986a7.281,7.281,0,0,1-4.01-6.4C367.141,92.806,368.926,90.179,372.062,88.369Z" transform="translate(-365.43 -57.087)" opacity="0.273"/>
        <path id="Контур_23251" data-name="Контур 23251" d="M373.209,89.1,420.5,61.8c.3-.173,2.169-1.2,2.517-1.309,3.095-1.433,6.84-1.092,10.118-1.375,1.962-.169,6.254,1.868,7.666,2.684l110.7,63.716a6.847,6.847,0,0,1,3.794,6.059c-.056,2.606-1.754,5.086-4.744,6.812l-47.658,27.516a32.041,32.041,0,0,1-3.479,1.675,20.649,20.649,0,0,1-6,1.235,14.935,14.935,0,0,1-7.958-1.687L372.257,101.976a6.845,6.845,0,0,1-3.793-6.059C368.52,93.309,370.218,90.83,373.209,89.1Z" transform="translate(-366.237 -57.627)" opacity="0.364"/>
        <path id="Контур_23252" data-name="Контур 23252" d="M374.355,89.84l47.507-27.429a26.9,26.9,0,0,1,2.543-1.287c3.168-1.388,6.961-.737,10.181-1.092,1.678-.185,6.341,2.166,7.552,2.865L552.21,126.255a6.411,6.411,0,0,1,3.576,5.718c-.07,2.434-1.681,4.765-4.527,6.409l-47.367,27.347c-.607.351-2.745,1.447-3.44,1.7a20.546,20.546,0,0,1-5.938,1.31,14.622,14.622,0,0,1-7.917-1.62L373.4,101.966a6.41,6.41,0,0,1-3.576-5.718C369.9,93.815,371.508,91.484,374.355,89.84Z" transform="translate(-367.044 -58.168)" opacity="0.455"/>
        <path id="Контур_23253" data-name="Контур 23253" d="M375.5,90.578l47.726-27.555a22.615,22.615,0,0,1,2.568-1.266c3.242-1.342,7.077-.382,10.244-.808,1.394-.188,6.429,2.464,7.438,3.046l109.447,63a5.971,5.971,0,0,1,3.359,5.376c-.084,2.261-1.608,4.444-4.31,6L504.9,165.553c-.507.292-2.825,1.509-3.4,1.726a20.423,20.423,0,0,1-5.879,1.385,14.316,14.316,0,0,1-7.876-1.552L374.55,101.959a5.973,5.973,0,0,1-3.36-5.376C371.274,94.321,372.8,92.139,375.5,90.578Z" transform="translate(-367.851 -58.711)" opacity="0.545"/>
        <path id="Контур_23254" data-name="Контур 23254" d="M376.648,91.214l47.946-27.682a19.679,19.679,0,0,1,2.593-1.244c3.315-1.3,7.187-.026,10.308-.525,1.111-.178,6.516,2.761,7.323,3.227l108.823,62.638a5.537,5.537,0,0,1,3.142,5.035c-.1,2.089-1.535,4.123-4.093,5.6l-46.783,27.01c-.405.234-2.9,1.573-3.363,1.751a20.311,20.311,0,0,1-5.821,1.461A14.022,14.022,0,0,1,488.889,167L375.7,101.849a5.539,5.539,0,0,1-3.143-5.035C372.652,94.725,374.089,92.691,376.648,91.214Z" transform="translate(-368.657 -59.152)" opacity="0.636"/>
        <path id="Контур_23255" data-name="Контур 23255" d="M377.792,90.939,425.959,63.13a17.452,17.452,0,0,1,2.618-1.223,15.587,15.587,0,0,1,10.371-.242c.844,0,6.6,3.059,7.209,3.409l108.2,62.279a5.106,5.106,0,0,1,2.925,4.693c-.112,1.916-1.462,3.8-3.876,5.2l-46.491,26.842c-.3.175-2.982,1.64-3.325,1.777a20.227,20.227,0,0,1-5.762,1.536,13.732,13.732,0,0,1-7.793-1.417L376.841,100.829a5.106,5.106,0,0,1-2.926-4.693C374.028,94.219,375.378,92.333,377.792,90.939Z" transform="translate(-369.462 -58.682)" opacity="0.727"/>
        <path id="Контур_23256" data-name="Контур 23256" d="M378.938,91.426l48.385-27.935a15.688,15.688,0,0,1,2.644-1.2,15.1,15.1,0,0,1,10.434.042c.563,0,6.691,3.357,7.094,3.589l107.575,61.92c1.914,1.105,2.832,2.684,2.709,4.352-.126,1.744-1.389,3.481-3.659,4.792l-46.2,26.673c-.2.117-3.059,1.708-3.286,1.8a20.092,20.092,0,0,1-5.7,1.611,13.452,13.452,0,0,1-7.751-1.349L377.985,100.57c-1.914-1.105-2.832-2.684-2.708-4.352C375.4,94.474,376.667,92.737,378.938,91.426Z" transform="translate(-370.267 -58.974)" opacity="0.818"/>
        <path id="Контур_23257" data-name="Контур 23257" d="M380.081,91.9l48.6-28.062a14.288,14.288,0,0,1,2.669-1.179c3.535-1.159,7.734-1.084,10.5.325.281,0,6.778,3.654,6.98,3.771l106.951,61.56c1.8,1.038,2.629,2.492,2.492,4.011-.14,1.572-1.316,3.161-3.442,4.388l-45.909,26.5c-.1.058-3.134,1.779-3.248,1.828a19.991,19.991,0,0,1-5.644,1.687,13.175,13.175,0,0,1-7.71-1.281L379.129,100.3c-1.8-1.038-2.629-2.492-2.492-4.01C376.777,94.714,377.954,93.124,380.081,91.9Z" transform="translate(-371.071 -59.25)" opacity="0.909"/>
        <path id="Контур_23258" data-name="Контур 23258" d="M493.463,165.159,380.271,100.007c-3.4-1.962-2.972-5.387.951-7.653l48.825-28.189c3.923-2.265,9.857-2.511,13.255-.55l113.192,65.153c3.4,1.962,2.972,5.388-.951,7.653L506.718,164.61C502.795,166.876,496.861,167.121,493.463,165.159Z" transform="translate(-371.873 -59.512)"/>
      </g>
      <path id="Контур_23259" data-name="Контур 23259" d="M508.308,167.335l45.647-26.355c5.149-2.971,4.5-8.164-1.443-11.6L445.177,67.412c-5.946-3.433-14.94-3.805-20.089-.832L379.441,92.933c-5.149,2.973-4.5,8.165,1.442,11.6L488.219,166.5C494.165,169.935,503.159,170.308,508.308,167.335Z" transform="translate(-7.677 -34.492)" fill="url(#linear-gradient)"/>
      <path id="Контур_23260" data-name="Контур 23260" d="M508.308,165.417l45.647-26.355c2.3-1.328,3.444-3.1,3.475-4.958,0-.164,0-3.744-.018-3.909-.19-2.152-1.845-.967-4.9-2.73L445.177,65.494c-5.946-3.433-14.939-3.806-20.089-.833L379.441,91.015c-2.3,1.326-3.443-1.01-3.475.849,0,.162,0,4.43.017,4.593.185,2.156,1.841,4.389,4.9,6.156l107.336,61.969C494.165,168.016,503.16,168.389,508.308,165.417Z" transform="translate(-7.677 -33.356)" fill="url(#linear-gradient-2)"/>
      <path id="Контур_23261" data-name="Контур 23261" d="M508.308,155.822l45.647-26.354c5.149-2.973,4.5-8.166-1.443-11.6L445.177,55.9c-5.946-3.432-14.94-3.805-20.089-.833L379.441,81.42c-5.149,2.973-4.5,8.165,1.442,11.6l107.336,61.971C494.165,158.422,503.159,158.795,508.308,155.822Z" transform="translate(-7.677 -27.672)" fill="url(#linear-gradient-3)"/>
      <path id="Контур_23262" data-name="Контур 23262" d="M553.958,177.11l-45.647,26.354c-5.149,2.973-14.143,2.6-20.089-.833L380.887,140.661c-3.129-1.806-4.789-4.1-4.909-6.3-.13,2.355,1.535,4.87,4.909,6.817l107.336,61.971c5.946,3.432,14.94,3.806,20.089.832l45.647-26.354c2.439-1.408,3.576-3.315,3.467-5.3C557.327,174.123,556.185,175.825,553.958,177.11Z" transform="translate(-7.681 -75.829)" fill="#fff"/>
      <path id="Контур_23263" data-name="Контур 23263" d="M553.941,120.161,446.475,58.116c-5.211-3.009-13.1-3.336-17.609-.73L383.461,83.6c-4.514,2.607-3.949,7.159,1.264,10.168l107.466,62.045c5.212,3.009,13.1,3.336,17.61.73l45.405-26.214C559.719,127.723,559.153,123.17,553.941,120.161Z" transform="translate(-10.312 -29.193)" fill="url(#linear-gradient)"/>
      <path id="Контур_23264" data-name="Контур 23264" d="M555.906,123.393,448.974,61.656c-4.363-2.52-10.962-2.792-14.74-.611L389.8,86.7c-3.779,2.181-3.3,5.991,1.058,8.511l106.931,61.737c4.363,2.519,10.962,2.792,14.741.611L556.964,131.9C560.742,129.722,560.269,125.912,555.906,123.393Z" transform="translate(-14.36 -31.531)" fill="#1f0d3d"/>
      <path id="Контур_23265" data-name="Контур 23265" d="M398.357,84.957a8.806,8.806,0,0,0,7.966-.014l24.866-14.357c2.207-1.274,2.219-3.333.025-4.6l5.275-3.046a14.209,14.209,0,0,1,12.855-.024l108.111,62.418c3.539,2.043,3.521,5.366-.04,7.423l-43.407,25.06a14.206,14.206,0,0,1-12.855.023L393.042,95.423c-3.539-2.043-3.521-5.366.04-7.421Z" transform="translate(-16.228 -32.608)" opacity="0.6" fill="url(#linear-gradient-5)"/>
      <path id="Контур_23266" data-name="Контур 23266" d="M508.822,159.766a12.119,12.119,0,0,1-5.951-1.407L394.76,95.941c-1.419-.821-2.2-1.861-2.2-2.929s.8-2.134,2.242-2.97l4.856-2.8a9.268,9.268,0,0,0,3.94.822,9.032,9.032,0,0,0,4.446-1.078l24.865-14.356a3.648,3.648,0,0,0,2.1-3.075,3.114,3.114,0,0,0-.944-2.179l4.141-2.391a12.256,12.256,0,0,1,6.025-1.431,12.106,12.106,0,0,1,5.95,1.408l108.111,62.418c1.42.82,2.2,1.86,2.2,2.927s-.8,2.135-2.243,2.97l-43.407,25.062A12.266,12.266,0,0,1,508.822,159.766Z" transform="translate(-17.506 -33.887)" opacity="0.8" fill="url(#linear-gradient-6)"/>
      <path id="Контур_23267" data-name="Контур 23267" d="M411.613,169.476l-2.768-1.6a2.075,2.075,0,0,1-.866-1.656h0c0-.637.388-.931.866-.654l2.768,1.6a2.077,2.077,0,0,1,.866,1.654h0C412.48,169.458,412.091,169.751,411.613,169.476Z" transform="translate(-26.641 -94.254)" fill="url(#linear-gradient-7)"/>
      <path id="Контур_23268" data-name="Контур 23268" d="M411.613,169.476l-2.768-1.6a2.075,2.075,0,0,1-.866-1.656h0c0-.637.388-.931.866-.654l2.768,1.6a2.077,2.077,0,0,1,.866,1.654h0C412.48,169.458,412.091,169.751,411.613,169.476Z" transform="translate(-26.641 -94.254)" fill="url(#linear-gradient-8)"/>
      <path id="Контур_23269" data-name="Контур 23269" d="M412.382,169.712a.418.418,0,0,1-.2-.064l-2.768-1.6a1.784,1.784,0,0,1-.72-1.4c0-.231.07-.465.228-.465a.407.407,0,0,1,.2.064l2.768,1.6a1.781,1.781,0,0,1,.72,1.4C412.612,169.479,412.54,169.712,412.382,169.712Z" transform="translate(-27.066 -94.68)" fill="url(#linear-gradient-9)"/>
      <path id="Контур_23270" data-name="Контур 23270" d="M428.895,179.469,423.92,176.6a2.689,2.689,0,0,1-1.125-2.148h0c0-.828.5-1.209,1.125-.85l4.975,2.873a2.69,2.69,0,0,1,1.125,2.148h0C430.02,179.448,429.516,179.827,428.895,179.469Z" transform="translate(-35.417 -98.993)" fill="url(#linear-gradient-10)"/>
      <path id="Контур_23271" data-name="Контур 23271" d="M428.895,179.469,423.92,176.6a2.689,2.689,0,0,1-1.125-2.148h0c0-.828.5-1.209,1.125-.85l4.975,2.873a2.69,2.69,0,0,1,1.125,2.148h0C430.02,179.448,429.516,179.827,428.895,179.469Z" transform="translate(-35.417 -98.993)" fill="url(#linear-gradient-11)"/>
      <path id="Контур_23272" data-name="Контур 23272" d="M429.768,179.737a.631.631,0,0,1-.3-.1l-4.976-2.873a2.412,2.412,0,0,1-.977-1.895c0-.319.1-.692.384-.692a.62.62,0,0,1,.3.1l4.976,2.872a2.411,2.411,0,0,1,.977,1.894C430.153,179.364,430.053,179.737,429.768,179.737Z" transform="translate(-35.844 -99.419)" fill="url(#linear-gradient-12)"/>
      <path id="Контур_23273" data-name="Контур 23273" d="M450.685,192.049l-4.976-2.872a2.691,2.691,0,0,1-1.124-2.148h0c0-.828.5-1.209,1.124-.85l4.976,2.872a2.7,2.7,0,0,1,1.124,2.149h0C451.81,192.027,451.306,192.408,450.685,192.049Z" transform="translate(-48.324 -106.444)" fill="url(#linear-gradient-13)"/>
      <path id="Контур_23274" data-name="Контур 23274" d="M450.685,192.049l-4.976-2.872a2.691,2.691,0,0,1-1.124-2.148h0c0-.828.5-1.209,1.124-.85l4.976,2.872a2.7,2.7,0,0,1,1.124,2.149h0C451.81,192.027,451.306,192.408,450.685,192.049Z" transform="translate(-48.324 -106.444)" fill="url(#linear-gradient-14)"/>
      <path id="Контур_23275" data-name="Контур 23275" d="M451.558,192.317a.632.632,0,0,1-.3-.1l-4.976-2.872a2.41,2.41,0,0,1-.977-1.895c0-.318.1-.692.384-.692a.626.626,0,0,1,.3.1l4.976,2.872a2.413,2.413,0,0,1,.977,1.895C451.942,191.945,451.842,192.317,451.558,192.317Z" transform="translate(-48.75 -106.87)" fill="url(#linear-gradient-15)"/>
      <path id="Контур_23276" data-name="Контур 23276" d="M453.4,181.183,380.889,139.13c-3.059-1.766-4.716-4-4.9-6.155-.007-.073-.011-.941-.014-1.9,0,.017,0,4.478.014,4.641.185,2.158,1.841,4.39,4.9,6.156Z" transform="translate(-7.683 -73.882)" fill="#4916a1" style="mix-blend-mode: color-dodge;isolation: isolate"/>
      <path id="Контур_23277" data-name="Контур 23277" d="M652.362,274.312c-5.149,2.973-14.143,3.187-20.089-.246,0,0-15.781-7.7-12.721-5.934l12.721,7.4c5.946,3.433,14.94,3.806,20.089.834l45.647-26.355C700.309,248.683,652.362,274.312,652.362,274.312Z" transform="translate(-151.731 -144.306)" fill="#4916a1" style="mix-blend-mode: color-dodge;isolation: isolate"/>
      <path id="Контур_23278" data-name="Контур 23278" d="M754.959,273.14l-8.17,4.717h0a4.854,4.854,0,0,1,2.028-3.873l4.115-2.375c1.12-.648,2.028.039,2.028,1.531Z" transform="translate(-227.332 -156.984)" fill="url(#linear-gradient-16)"/>
      <path id="Контур_23279" data-name="Контур 23279" d="M753.7,271.371a1.854,1.854,0,0,1,.634,1.589l-7.505,4.334a4.018,4.018,0,0,0-.042.567l8.17-4.717C754.959,272.015,754.44,271.35,753.7,271.371Z" transform="translate(-227.332 -156.987)" fill="#4916a1" style="mix-blend-mode: color-dodge;isolation: isolate"/>
    </g>
    <g id="apple_2_" data-name="apple(2)" transform="matrix(0.951, -0.309, 0.309, 0.951, 219.785, 68.727)">
      <path id="Вычитание_9" data-name="Вычитание 9" d="M39.454,70.457H31a1.853,1.853,0,0,1-1.76-1.266L27.458,63.83a29.2,29.2,0,0,1-6.964-2.879l-5.049,2.521a1.83,1.83,0,0,1-2.139-.346L7.329,57.15a1.838,1.838,0,0,1-.345-2.137L9.5,49.969A29.534,29.534,0,0,1,6.628,43L1.266,41.215A1.856,1.856,0,0,1,0,39.455V31a1.856,1.856,0,0,1,1.267-1.76l5.362-1.787A29.372,29.372,0,0,1,9.5,20.494L6.984,15.443a1.839,1.839,0,0,1,.345-2.137l5.977-5.98a1.847,1.847,0,0,1,1.313-.543,1.868,1.868,0,0,1,.826.2L20.493,9.5a29.559,29.559,0,0,1,6.964-2.871l1.787-5.361A1.855,1.855,0,0,1,31,0h8.449a1.855,1.855,0,0,1,1.76,1.268L43,6.629A29.535,29.535,0,0,1,49.963,9.5l5.05-2.521a1.868,1.868,0,0,1,.826-.2,1.849,1.849,0,0,1,1.313.543l5.976,5.98a1.84,1.84,0,0,1,.346,2.137l-2.517,5.051a29.409,29.409,0,0,1,2.873,6.963l5.362,1.787A1.857,1.857,0,0,1,70.458,31v8.451a1.857,1.857,0,0,1-1.267,1.76L63.829,43a29.533,29.533,0,0,1-2.873,6.967l2.517,5.045a1.839,1.839,0,0,1-.346,2.137l-5.975,5.977a1.83,1.83,0,0,1-2.139.346l-5.05-2.521A29.192,29.192,0,0,1,43,63.83l-1.787,5.361A1.853,1.853,0,0,1,39.454,70.457ZM34.765,16.771A18.814,18.814,0,1,0,53.576,35.582,18.834,18.834,0,0,0,34.765,16.771Z" fill="url(#linear-gradient-17)"/>
    </g>
    <g id="apple_2_2" data-name="apple(2)" transform="matrix(0.951, 0.309, -0.309, 0.951, 157.424, 47.861)">
      <path id="Контур_16129" data-name="Контур 16129" d="M90.27,38.153l-6.991-2.33a38.447,38.447,0,0,0-3.754-9.088l3.29-6.582a2.419,2.419,0,0,0-.452-2.792l-7.8-7.8a2.419,2.419,0,0,0-2.792-.452L65.189,12.4A38.446,38.446,0,0,0,56.1,8.646l-2.33-6.991A2.419,2.419,0,0,0,51.475,0H40.449a2.419,2.419,0,0,0-2.3,1.655l-2.33,6.991A38.447,38.447,0,0,0,26.736,12.4L20.153,9.11a2.419,2.419,0,0,0-2.792.452l-7.8,7.8a2.419,2.419,0,0,0-.452,2.792l3.29,6.582a38.446,38.446,0,0,0-3.754,9.088l-6.991,2.33A2.419,2.419,0,0,0,0,40.449V51.475a2.419,2.419,0,0,0,1.655,2.3L8.646,56.1A38.446,38.446,0,0,0,12.4,65.189L9.11,71.771a2.419,2.419,0,0,0,.452,2.792l7.8,7.8a2.419,2.419,0,0,0,2.792.452l6.582-3.29a38.447,38.447,0,0,0,9.088,3.754l2.33,6.991a2.419,2.419,0,0,0,2.3,1.655H51.475a2.419,2.419,0,0,0,2.3-1.655L56.1,83.279a38.446,38.446,0,0,0,9.088-3.754l6.582,3.29a2.419,2.419,0,0,0,2.792-.452l7.8-7.8a2.419,2.419,0,0,0,.452-2.792l-3.29-6.582A38.446,38.446,0,0,0,83.279,56.1l6.991-2.33a2.419,2.419,0,0,0,1.655-2.3V40.449a2.419,2.419,0,0,0-1.655-2.3Z" transform="translate(0)" fill="url(#linear-gradient-18)"/>
      <g id="Сгруппировать_3639" data-name="Сгруппировать 3639" transform="translate(24.433 18.26)">
        <path id="Контур_16111" data-name="Контур 16111" d="M35.148,14.274a11.272,11.272,0,0,1,5.425-9.553,10.5,10.5,0,0,0-7.655-4.7,9.117,9.117,0,0,0-4.6.919,14.122,14.122,0,0,1-12.191,0,9.114,9.114,0,0,0-4.6-.917C4.471.508-.662,9.491.069,20.085s8.348,18.7,14.112,18.3a6.875,6.875,0,0,0,2.312-.6,14.126,14.126,0,0,1,11.465,0,6.869,6.869,0,0,0,2.313.6c4.814.332,10.919-5.269,13.226-13.3A11.321,11.321,0,0,1,35.148,14.274Z" transform="translate(0 12.013)" fill="#fff"/>
        <path id="Контур_16112" data-name="Контур 16112" d="M3.46,3.46A11.8,11.8,0,0,0,0,11.47,11.8,11.8,0,0,0,8.01,8.01,11.8,11.8,0,0,0,11.47,0,11.8,11.8,0,0,0,3.46,3.46Z" transform="translate(20.149 0)" fill="#fff"/>
      </g>
    </g>
  </g>
</svg>
