<svg xmlns="http://www.w3.org/2000/svg" xmlns:xlink="http://www.w3.org/1999/xlink" width="298.198" height="225.664" viewBox="0 0 298.198 225.664">
  <defs>
    <linearGradient id="linear-gradient" y1="0.5" x2="1" y2="0.5" gradientUnits="objectBoundingBox">
      <stop offset="0" stop-color="#86b8e0"/>
      <stop offset="0.116" stop-color="#98c4e7"/>
      <stop offset="0.325" stop-color="#b2d5f1"/>
      <stop offset="0.54" stop-color="#c5e2f9"/>
      <stop offset="0.761" stop-color="#d0e9fd"/>
      <stop offset="1" stop-color="#d4ecff"/>
    </linearGradient>
    <linearGradient id="linear-gradient-2" y1="0.5" x2="1" y2="0.5" gradientUnits="objectBoundingBox">
      <stop offset="0" stop-color="#ff2c9c"/>
      <stop offset="0.312" stop-color="#fb289a"/>
      <stop offset="0.602" stop-color="#f01d96"/>
      <stop offset="0.881" stop-color="#dd0a90"/>
      <stop offset="1" stop-color="#d3008d"/>
    </linearGradient>
    <radialGradient id="radial-gradient" cx="0.793" cy="0.736" r="1.168" gradientTransform="translate(-0.033) scale(1.067 1)" xlink:href="#linear-gradient"/>
    <radialGradient id="radial-gradient-2" cx="0.817" cy="0.116" r="0.891" gradientTransform="translate(0.093) scale(0.815 1)" gradientUnits="objectBoundingBox">
      <stop offset="0" stop-color="#173d7a"/>
      <stop offset="0.423" stop-color="#143a76"/>
      <stop offset="0.815" stop-color="#0d336b"/>
      <stop offset="1" stop-color="#092e63"/>
    </radialGradient>
  </defs>
  <g id="R_D_1.2" data-name="R&amp;D_1.2" transform="translate(11.993 34.835)">
    <g id="PODLOJKA" transform="translate(-16.432 245.865)">
      <g id="Blue" transform="translate(-294.633 -490.959)">
        <g id="Group_5609" data-name="Group 5609" transform="translate(299.071 252.093)">
          <g id="Group_5608" data-name="Group 5608">
            <path id="Path_22754" data-name="Path 22754" d="M537.257,304.827,441.107,360.7c-20.483,11.906-53.795,11.906-74.414,0L269.915,304.83c-10.375-5.992-15.556-13.853-15.533-21.7l-.031,11.119c-.022,7.85,5.158,15.711,15.533,21.7l96.778,55.875c20.617,11.9,53.931,11.9,74.414,0l96.147-55.878c10.178-5.914,15.27-13.65,15.292-21.4l.033-11.12C552.527,291.174,547.432,298.913,537.257,304.827Z" transform="translate(-254.351 -196.922)" fill="#5044ff"/>
            <g id="Group_5607" data-name="Group 5607" transform="translate(0.03)">
              <g id="Group_5606" data-name="Group 5606">
                <path id="Path_22755" data-name="Path 22755" d="M536.993,316.9c20.619,11.9,20.728,31.2.244,43.1l-96.15,55.875c-20.483,11.906-53.795,11.906-74.414,0L269.9,360c-20.617-11.906-20.725-31.2-.242-43.1L365.8,261.02c20.483-11.9,53.795-11.9,74.411,0Z" transform="translate(-254.362 -247.093)" fill="#f6f5ff"/>
              </g>
            </g>
          </g>
        </g>
      </g>
    </g>
    <g id="R_D_1.2-2" data-name="R&amp;D_1.2" transform="translate(-120.225 -75.443)">
      <g id="Group_4714" data-name="Group 4714" transform="translate(175.006 78.196)" opacity="0.4">
        <path id="Path_20201" data-name="Path 20201" d="M526.7,135.063l-17.8-10.276,17.8-10.276,17.8,10.276Zm-16.539-10.276,16.539,9.549,16.538-9.548L526.7,115.239Z" transform="translate(-337.216 -114.509)" fill="#fff"/>
        <path id="Path_20202" data-name="Path 20202" d="M464.5,135.062l-17.8-10.276,17.8-10.276,17.8,10.276Zm-16.539-10.276,16.539,9.548,16.538-9.548L464.5,115.238Z" transform="translate(-309.352 -114.509)" fill="#fff"/>
        <path id="Path_20203" data-name="Path 20203" d="M495.6,153.018l-17.8-10.276,17.8-10.276,17.8,10.276Zm-16.539-10.276L495.6,152.29l16.538-9.548L495.6,133.194Z" transform="translate(-323.284 -122.552)" fill="#fff"/>
        <path id="Path_20204" data-name="Path 20204" d="M526.7,170.974,508.9,160.7l17.8-10.276L544.5,160.7ZM510.162,160.7l16.539,9.549,16.538-9.548L526.7,151.15Z" transform="translate(-337.216 -130.596)" fill="#fff"/>
        <path id="Path_20205" data-name="Path 20205" d="M402.3,135.062l-17.8-10.276,17.8-10.276,17.8,10.276ZM385.76,124.786l16.539,9.549,16.538-9.548L402.3,115.238Z" transform="translate(-281.489 -114.509)" fill="#fff"/>
        <path id="Path_20206" data-name="Path 20206" d="M433.4,153.018l-17.8-10.276,17.8-10.276,17.8,10.276Zm-16.539-10.276L433.4,152.29l16.538-9.549L433.4,133.194Z" transform="translate(-295.421 -122.552)" fill="#fff"/>
        <path id="Path_20207" data-name="Path 20207" d="M464.5,170.973,446.7,160.7l17.8-10.276L482.3,160.7ZM447.962,160.7l16.539,9.549,16.538-9.549L464.5,151.149Z" transform="translate(-309.353 -130.596)" fill="#fff"/>
        <path id="Path_20208" data-name="Path 20208" d="M495.6,188.929l-17.8-10.276,17.8-10.276,17.8,10.276Zm-16.539-10.276L495.6,188.2l16.538-9.548L495.6,169.1Z" transform="translate(-323.285 -138.639)" fill="#fff"/>
        <path id="Path_20209" data-name="Path 20209" d="M526.7,206.885l-17.8-10.277,17.8-10.276,17.8,10.276Zm-16.539-10.277,16.539,9.549,16.538-9.548L526.7,187.061Z" transform="translate(-337.217 -146.683)" fill="#fff"/>
        <path id="Path_20210" data-name="Path 20210" d="M340.1,135.061l-17.8-10.276,17.8-10.276,17.8,10.276ZM323.56,124.785l16.539,9.549,16.538-9.548L340.1,115.237Z" transform="translate(-253.626 -114.508)" fill="#fff"/>
        <path id="Path_20211" data-name="Path 20211" d="M371.2,153.017l-17.8-10.276,17.8-10.276L389,142.741Zm-16.539-10.276,16.539,9.549,16.538-9.548L371.2,133.193Z" transform="translate(-267.558 -122.552)" fill="#fff"/>
        <path id="Path_20212" data-name="Path 20212" d="M402.3,170.973,384.5,160.7l17.8-10.276L420.1,160.7ZM385.761,160.7l16.539,9.549,16.538-9.548L402.3,151.149Z" transform="translate(-281.49 -130.596)" fill="#fff"/>
        <path id="Path_20213" data-name="Path 20213" d="M433.4,188.929l-17.8-10.276,17.8-10.276,17.8,10.276Zm-16.539-10.276L433.4,188.2l16.538-9.548L433.4,169.1Z" transform="translate(-295.422 -138.639)" fill="#fff"/>
        <path id="Path_20214" data-name="Path 20214" d="M464.5,206.885l-17.8-10.277,17.8-10.276,17.8,10.276Zm-16.539-10.277,16.539,9.549,16.539-9.549L464.5,187.061Z" transform="translate(-309.353 -146.683)" fill="#fff"/>
        <path id="Path_20215" data-name="Path 20215" d="M495.6,224.841l-17.8-10.277,17.8-10.276,17.8,10.276Zm-16.539-10.277,16.539,9.549,16.538-9.549L495.6,205.016Z" transform="translate(-323.285 -154.726)" fill="#fff"/>
        <path id="Path_20216" data-name="Path 20216" d="M526.7,242.8l-17.8-10.276,17.8-10.277,17.8,10.277Zm-16.539-10.276,16.539,9.548,16.538-9.548L526.7,222.972Z" transform="translate(-337.217 -162.769)" fill="#fff"/>
        <path id="Path_20217" data-name="Path 20217" d="M277.9,135.061l-17.8-10.276,17.8-10.276,17.8,10.276ZM261.36,124.785l16.539,9.549,16.538-9.549L277.9,115.237Z" transform="translate(-225.763 -114.508)" fill="#fff"/>
        <path id="Path_20218" data-name="Path 20218" d="M309,153.016,291.2,142.74,309,132.464l17.8,10.276ZM292.461,142.74,309,152.289l16.538-9.549L309,133.192Z" transform="translate(-239.695 -122.552)" fill="#fff"/>
        <path id="Path_20219" data-name="Path 20219" d="M340.1,170.972,322.3,160.7l17.8-10.276L357.9,160.7ZM323.561,160.7l16.539,9.548,16.538-9.548L340.1,151.148Z" transform="translate(-253.627 -130.595)" fill="#fff"/>
        <path id="Path_20220" data-name="Path 20220" d="M371.2,188.928l-17.8-10.277,17.8-10.276L389,178.652Zm-16.539-10.277L371.2,188.2l16.538-9.548L371.2,169.1Z" transform="translate(-267.559 -138.639)" fill="#fff"/>
        <path id="Path_20221" data-name="Path 20221" d="M402.3,206.884l-17.8-10.277,17.8-10.276,17.8,10.276Zm-16.539-10.277,16.539,9.549,16.538-9.548L402.3,187.06Z" transform="translate(-281.49 -146.682)" fill="#fff"/>
        <path id="Path_20222" data-name="Path 20222" d="M433.4,224.84l-17.8-10.277,17.8-10.276,17.8,10.276Zm-16.539-10.277,16.539,9.549,16.538-9.548L433.4,205.016Z" transform="translate(-295.422 -154.726)" fill="#fff"/>
        <path id="Path_20223" data-name="Path 20223" d="M464.5,242.8,446.7,232.52l17.8-10.276,17.8,10.277ZM447.963,232.52l16.539,9.548,16.539-9.548L464.5,222.972Z" transform="translate(-309.354 -162.769)" fill="#fff"/>
        <path id="Path_20224" data-name="Path 20224" d="M495.6,260.752l-17.8-10.276L495.6,240.2l17.8,10.276Zm-16.539-10.276,16.539,9.548,16.538-9.548L495.6,240.928Z" transform="translate(-323.286 -170.813)" fill="#fff"/>
        <path id="Path_20225" data-name="Path 20225" d="M526.7,278.708l-17.8-10.276,17.8-10.277,17.8,10.277Zm-16.539-10.276L526.7,277.98l16.538-9.549L526.7,258.883Z" transform="translate(-337.218 -178.856)" fill="#fff"/>
        <path id="Path_20227" data-name="Path 20227" d="M246.8,153.016,229,142.74l17.8-10.276,17.8,10.276ZM230.26,142.74l16.539,9.549,16.538-9.548L246.8,133.192Z" transform="translate(-211.832 -122.552)" fill="#fff"/>
        <path id="Path_20228" data-name="Path 20228" d="M277.9,170.972,260.1,160.7l17.8-10.276L295.7,160.7ZM261.361,160.7l16.539,9.549,16.538-9.548L277.9,151.148Z" transform="translate(-225.764 -130.595)" fill="#fff"/>
        <path id="Path_20229" data-name="Path 20229" d="M309,188.928l-17.8-10.277L309,168.376l17.8,10.276Zm-16.539-10.277L309,188.2l16.538-9.549L309,169.1Z" transform="translate(-239.695 -138.639)" fill="#fff"/>
        <path id="Path_20230" data-name="Path 20230" d="M340.1,206.884l-17.8-10.277,17.8-10.276,17.8,10.276Zm-16.539-10.277,16.539,9.549,16.538-9.549L340.1,187.059Z" transform="translate(-253.627 -146.682)" fill="#fff"/>
        <path id="Path_20231" data-name="Path 20231" d="M371.2,224.839l-17.8-10.276,17.8-10.276L389,214.563Zm-16.539-10.276,16.539,9.548,16.538-9.548L371.2,205.015Z" transform="translate(-267.559 -154.725)" fill="#fff"/>
        <path id="Path_20232" data-name="Path 20232" d="M402.3,242.8l-17.8-10.276,17.8-10.276,17.8,10.277Zm-16.539-10.276,16.539,9.548,16.538-9.548L402.3,222.971Z" transform="translate(-281.491 -162.769)" fill="#fff"/>
        <path id="Path_20233" data-name="Path 20233" d="M433.4,260.751l-17.8-10.276L433.4,240.2l17.8,10.277Zm-16.539-10.276,16.539,9.548,16.538-9.548L433.4,240.927Z" transform="translate(-295.423 -170.813)" fill="#fff"/>
        <path id="Path_20234" data-name="Path 20234" d="M464.5,278.707l-17.8-10.276,17.8-10.276,17.8,10.277Zm-16.539-10.276L464.5,277.98l16.538-9.548L464.5,258.883Z" transform="translate(-309.354 -178.856)" fill="#fff"/>
        <path id="Path_20235" data-name="Path 20235" d="M495.6,296.663l-17.8-10.276,17.8-10.276,17.8,10.277Zm-16.539-10.276,16.539,9.549,16.538-9.548L495.6,276.839Z" transform="translate(-323.286 -186.9)" fill="#fff"/>
        <path id="Path_20236" data-name="Path 20236" d="M526.7,314.62l-17.8-10.276,17.8-10.276,17.8,10.276Zm-16.538-10.276,16.538,9.549,16.539-9.549L526.7,294.8Z" transform="translate(-337.218 -194.944)" fill="#fff"/>
        <path id="Path_20237" data-name="Path 20237" d="M215.7,170.971,197.9,160.7l17.8-10.276L233.5,160.7ZM199.161,160.7l16.539,9.548,16.538-9.548L215.7,151.147Z" transform="translate(-197.9 -130.595)" fill="#fff"/>
        <path id="Path_20238" data-name="Path 20238" d="M246.8,188.927,229,178.651l17.8-10.276,17.8,10.276Zm-16.539-10.277L246.8,188.2l16.538-9.548L246.8,169.1Z" transform="translate(-211.832 -138.638)" fill="#fff"/>
        <path id="Path_20239" data-name="Path 20239" d="M277.9,206.883l-17.8-10.277,17.8-10.276,17.8,10.276Zm-16.539-10.277,16.539,9.549,16.538-9.548L277.9,187.059Z" transform="translate(-225.764 -146.682)" fill="#fff"/>
        <path id="Path_20240" data-name="Path 20240" d="M309,224.839l-17.8-10.277L309,204.287l17.8,10.276Zm-16.539-10.277L309,224.111l16.539-9.548L309,205.015Z" transform="translate(-239.696 -154.725)" fill="#fff"/>
        <path id="Path_20241" data-name="Path 20241" d="M340.1,242.8l-17.8-10.276,17.8-10.276,17.8,10.276Zm-16.539-10.276,16.539,9.548,16.538-9.548L340.1,222.971Z" transform="translate(-253.628 -162.769)" fill="#fff"/>
        <path id="Path_20242" data-name="Path 20242" d="M371.2,260.751l-17.8-10.276L371.2,240.2,389,250.475Zm-16.539-10.276,16.539,9.548,16.538-9.548L371.2,240.926Z" transform="translate(-267.56 -170.812)" fill="#fff"/>
        <path id="Path_20243" data-name="Path 20243" d="M402.3,278.706l-17.8-10.276,17.8-10.277,17.8,10.277Zm-16.539-10.276,16.539,9.548,16.538-9.548L402.3,258.882Z" transform="translate(-281.491 -178.856)" fill="#fff"/>
        <path id="Path_20244" data-name="Path 20244" d="M433.4,296.662l-17.8-10.276,17.8-10.276,17.8,10.277Zm-16.539-10.276,16.539,9.549,16.538-9.548L433.4,276.838Z" transform="translate(-295.423 -186.899)" fill="#fff"/>
        <path id="Path_20245" data-name="Path 20245" d="M464.5,314.619l-17.8-10.276,17.8-10.276,17.8,10.276Zm-16.539-10.276,16.539,9.549,16.538-9.548L464.5,294.795Z" transform="translate(-309.355 -194.943)" fill="#fff"/>
        <path id="Path_20246" data-name="Path 20246" d="M495.6,332.575l-17.8-10.276,17.8-10.276L513.4,322.3ZM479.066,322.3l16.538,9.549,16.538-9.548L495.6,312.751Z" transform="translate(-323.287 -202.987)" fill="#fff"/>
        <path id="Path_20247" data-name="Path 20247" d="M526.7,350.531l-17.8-10.276,17.8-10.276,17.8,10.276Zm-16.539-10.276L526.7,349.8l16.538-9.548L526.7,330.707Z" transform="translate(-337.218 -211.03)" fill="#fff"/>
        <path id="Path_20248" data-name="Path 20248" d="M215.7,206.883l-17.8-10.277,17.8-10.276,17.8,10.276Zm-16.539-10.277,16.539,9.549,16.538-9.549L215.7,187.058Z" transform="translate(-197.901 -146.681)" fill="#fff"/>
        <path id="Path_20249" data-name="Path 20249" d="M246.8,224.838,229,214.562l17.8-10.276,17.8,10.276Zm-16.539-10.276L246.8,224.11l16.538-9.548L246.8,205.014Z" transform="translate(-211.832 -154.725)" fill="#fff"/>
        <path id="Path_20250" data-name="Path 20250" d="M277.9,242.794l-17.8-10.277,17.8-10.276,17.8,10.277Zm-16.539-10.277,16.539,9.549,16.538-9.548L277.9,222.97Z" transform="translate(-225.764 -162.769)" fill="#fff"/>
        <path id="Path_20251" data-name="Path 20251" d="M309,260.75l-17.8-10.276L309,240.2l17.8,10.277Zm-16.538-10.276L309,260.023l16.539-9.548L309,240.926Z" transform="translate(-239.696 -170.812)" fill="#fff"/>
        <path id="Path_20252" data-name="Path 20252" d="M340.1,278.706,322.3,268.43l17.8-10.276,17.8,10.277ZM323.564,268.43l16.539,9.549,16.538-9.548L340.1,258.882Z" transform="translate(-253.628 -178.856)" fill="#fff"/>
        <path id="Path_20253" data-name="Path 20253" d="M371.2,296.662l-17.8-10.276,17.8-10.276L389,286.386Zm-16.539-10.276,16.539,9.549,16.538-9.549L371.2,276.838Z" transform="translate(-267.56 -186.899)" fill="#fff"/>
        <path id="Path_20254" data-name="Path 20254" d="M402.3,314.618l-17.8-10.276,17.8-10.276,17.8,10.276Zm-16.539-10.276,16.539,9.549,16.538-9.549L402.3,294.794Z" transform="translate(-281.492 -194.943)" fill="#fff"/>
        <path id="Path_20255" data-name="Path 20255" d="M433.4,332.574l-17.8-10.276,17.8-10.276L451.2,322.3ZM416.866,322.3l16.538,9.548,16.539-9.548L433.4,312.75Z" transform="translate(-295.424 -202.986)" fill="#fff"/>
        <path id="Path_20256" data-name="Path 20256" d="M464.5,350.53l-17.8-10.276,17.8-10.276,17.8,10.276Zm-16.539-10.276L464.5,349.8l16.538-9.548L464.5,330.706Z" transform="translate(-309.355 -211.03)" fill="#fff"/>
        <path id="Path_20257" data-name="Path 20257" d="M215.7,242.794l-17.8-10.277,17.8-10.276,17.8,10.276Zm-16.539-10.277,16.539,9.549,16.538-9.549L215.7,222.97Z" transform="translate(-197.901 -162.769)" fill="#fff"/>
        <path id="Path_20258" data-name="Path 20258" d="M246.8,260.75,229,250.474,246.8,240.2l17.8,10.277Zm-16.539-10.276,16.539,9.549,16.538-9.549L246.8,240.925Z" transform="translate(-211.833 -170.812)" fill="#fff"/>
        <path id="Path_20259" data-name="Path 20259" d="M277.9,278.705,260.1,268.43l17.8-10.277,17.8,10.277ZM261.364,268.43l16.539,9.548,16.538-9.548L277.9,258.881Z" transform="translate(-225.765 -178.855)" fill="#fff"/>
        <path id="Path_20260" data-name="Path 20260" d="M309,296.662l-17.8-10.276L309,276.11l17.8,10.276Zm-16.539-10.276L309,295.934l16.538-9.548L309,276.838Z" transform="translate(-239.696 -186.899)" fill="#fff"/>
        <path id="Path_20261" data-name="Path 20261" d="M340.1,314.618l-17.8-10.276,17.8-10.276,17.8,10.276Zm-16.539-10.276L340.1,313.89l16.538-9.548L340.1,294.794Z" transform="translate(-253.629 -194.943)" fill="#fff"/>
        <path id="Path_20262" data-name="Path 20262" d="M371.2,332.574l-17.8-10.276,17.8-10.276L389,322.3ZM354.666,322.3l16.539,9.549,16.538-9.548L371.2,312.75Z" transform="translate(-267.56 -202.986)" fill="#fff"/>
        <path id="Path_20263" data-name="Path 20263" d="M402.3,350.53l-17.8-10.276,17.8-10.276,17.8,10.276Zm-16.538-10.276L402.3,349.8l16.538-9.549L402.3,330.706Z" transform="translate(-281.492 -211.03)" fill="#fff"/>
        <path id="Path_20264" data-name="Path 20264" d="M215.7,278.705l-17.8-10.276,17.8-10.276,17.8,10.277Zm-16.539-10.276,16.539,9.549,16.538-9.548L215.7,258.881Z" transform="translate(-197.901 -178.855)" fill="#fff"/>
        <path id="Path_20265" data-name="Path 20265" d="M246.8,296.662,229,286.386l17.8-10.276,17.8,10.276Zm-16.539-10.276,16.539,9.549,16.538-9.549L246.8,276.838Z" transform="translate(-211.833 -186.899)" fill="#fff"/>
        <path id="Path_20266" data-name="Path 20266" d="M277.9,314.617l-17.8-10.276,17.8-10.276,17.8,10.276Zm-16.539-10.276L277.9,313.89l16.538-9.549L277.9,294.793Z" transform="translate(-225.765 -194.942)" fill="#fff"/>
        <path id="Path_20267" data-name="Path 20267" d="M309,332.573,291.2,322.3,309,312.021,326.8,322.3ZM292.465,322.3,309,331.845l16.538-9.548L309,312.749Z" transform="translate(-239.697 -202.986)" fill="#fff"/>
        <path id="Path_20268" data-name="Path 20268" d="M340.1,350.529l-17.8-10.276,17.8-10.276,17.8,10.276Zm-16.538-10.276L340.1,349.8l16.539-9.548L340.1,330.7Z" transform="translate(-253.629 -211.03)" fill="#fff"/>
        <path id="Path_20269" data-name="Path 20269" d="M215.7,314.617l-17.8-10.276,17.8-10.276,17.8,10.276Zm-16.539-10.276,16.539,9.549,16.538-9.548L215.7,294.793Z" transform="translate(-197.902 -194.942)" fill="#fff"/>
        <path id="Path_20270" data-name="Path 20270" d="M246.8,332.573l-17.8-10.276,17.8-10.276L264.6,322.3ZM230.265,322.3l16.539,9.549,16.538-9.548L246.8,312.749Z" transform="translate(-211.834 -202.986)" fill="#fff"/>
        <path id="Path_20271" data-name="Path 20271" d="M277.9,350.529l-17.8-10.276,17.8-10.276,17.8,10.276Zm-16.539-10.276L277.9,349.8l16.538-9.549L277.9,330.7Z" transform="translate(-225.766 -211.03)" fill="#fff"/>
        <path id="Path_20272" data-name="Path 20272" d="M215.7,350.528l-17.8-10.276,17.8-10.276,17.8,10.276Zm-16.539-10.276L215.7,349.8l16.538-9.548L215.7,330.7Z" transform="translate(-197.902 -211.029)" fill="#fff"/>
      </g>
      <g id="Group_4716" data-name="Group 4716" transform="translate(294.448 203.974)">
        <path id="Path_20274" data-name="Path 20274" d="M417.488,359.889a3.561,3.561,0,0,1-1.612,2.791c-.89.514-1.611.1-1.611-.93a3.562,3.562,0,0,1,1.611-2.791C416.767,358.444,417.488,358.861,417.488,359.889Z" transform="translate(-414.265 -349.691)" fill="#fff"/>
        <path id="Path_20275" data-name="Path 20275" d="M426.95,354.426a3.561,3.561,0,0,1-1.611,2.791c-.89.514-1.611.1-1.611-.93a3.563,3.563,0,0,1,1.611-2.791C426.228,352.982,426.95,353.4,426.95,354.426Z" transform="translate(-418.504 -347.244)" fill="#fff"/>
        <path id="Path_20276" data-name="Path 20276" d="M436.412,348.964a3.563,3.563,0,0,1-1.611,2.791c-.89.513-1.611.1-1.611-.931a3.561,3.561,0,0,1,1.611-2.791C435.69,347.519,436.412,347.936,436.412,348.964Z" transform="translate(-422.742 -344.797)" fill="#fff"/>
        <path id="Path_20277" data-name="Path 20277" d="M445.874,343.5a3.562,3.562,0,0,1-1.611,2.791c-.89.514-1.611.1-1.611-.93a3.562,3.562,0,0,1,1.611-2.791C445.152,342.056,445.874,342.473,445.874,343.5Z" transform="translate(-426.981 -342.35)" fill="#fff"/>
      </g>
      <g id="Group_4717" data-name="Group 4717" transform="translate(368.866 118.576)">
        <path id="Path_20278" data-name="Path 20278" d="M552.293,202.752a3.562,3.562,0,0,1-1.611,2.791c-.89.514-1.611.1-1.611-.93a3.563,3.563,0,0,1,1.611-2.791C551.571,201.307,552.293,201.724,552.293,202.752Z" transform="translate(-549.07 -193.902)" fill="#fff"/>
        <path id="Path_20279" data-name="Path 20279" d="M560.345,198.1a3.562,3.562,0,0,1-1.611,2.791c-.89.514-1.611.1-1.611-.93a3.562,3.562,0,0,1,1.611-2.791C559.623,196.658,560.345,197.075,560.345,198.1Z" transform="translate(-552.677 -191.819)" fill="#fff"/>
        <path id="Path_20280" data-name="Path 20280" d="M552.293,193.454a3.561,3.561,0,0,1-1.611,2.791c-.89.514-1.611.1-1.611-.93a3.563,3.563,0,0,1,1.611-2.791C551.571,192.009,552.293,192.426,552.293,193.454Z" transform="translate(-549.07 -189.737)" fill="#fff"/>
        <path id="Path_20281" data-name="Path 20281" d="M560.345,188.8a3.562,3.562,0,0,1-1.611,2.791c-.89.514-1.611.1-1.611-.93a3.562,3.562,0,0,1,1.611-2.791C559.623,187.36,560.345,187.777,560.345,188.8Z" transform="translate(-552.677 -187.654)" fill="#fff"/>
      </g>
      <path id="Path_20282" data-name="Path 20282" d="M237.632,333.709a6.168,6.168,0,0,0-1.574,1.352c-.074-3.1-2.3-4.344-5.043-2.76a9.177,9.177,0,0,0-2.425,2.115c-1.221-2.134-3.751-2.629-6.682-.937a16.5,16.5,0,0,0-7.464,12.928,8.866,8.866,0,0,0,.075,1.112,2.814,2.814,0,0,0-2.09.422,7.892,7.892,0,0,0-3.571,6.186c0,2.277,1.6,3.2,3.571,2.061l25.2-14.551a7.591,7.591,0,0,0,3.434-5.947C241.065,333.5,239.528,332.613,237.632,333.709Z" transform="translate(-27.802 -133.566)" fill="#fff" opacity="0.5"/>
      <path id="Path_20284" data-name="Path 20284" d="M372.753,185.1l-53.828-31.171c-2.924-1.694-8.035-1.489-11.417.458L194.538,219.4c-3.382,1.946-3.753,4.9-.829,6.59l53.828,31.171c2.924,1.693,8.036,1.488,11.417-.458l112.969-65.014C375.305,189.741,375.676,186.79,372.753,185.1Z" transform="translate(-20.133 -53.455)" fill="#7dc3ea"/>
      <g id="Group_4731" data-name="Group 4731" transform="translate(167.156 68.998)">
        <g id="Group_4722" data-name="Group 4722" transform="translate(0 0)">
          <g id="Group_4718" data-name="Group 4718">
            <path id="Path_20285" data-name="Path 20285" d="M251.755,248.16a11.075,11.075,0,0,1-5.463-1.282l-53.828-31.171a4.312,4.312,0,0,1-2.444-3.688c0-1.691,1.2-3.348,3.275-4.545l112.97-65.014c3.7-2.129,9.131-2.33,12.365-.457l53.828,31.171a4.311,4.311,0,0,1,2.445,3.687c0,1.691-1.2,3.348-3.276,4.545L258.658,246.421A14.157,14.157,0,0,1,251.755,248.16ZM313.2,142.632a12.387,12.387,0,0,0-5.984,1.471l-112.97,65.014c-1.455.837-2.324,1.923-2.325,2.9a2.564,2.564,0,0,0,1.5,2.044l53.827,31.171c2.613,1.514,7.407,1.3,10.47-.459l112.969-65.014c1.455-.837,2.324-1.923,2.325-2.9a2.562,2.562,0,0,0-1.5-2.043L317.68,143.644A9.162,9.162,0,0,0,313.2,142.632Z" transform="translate(-186.52 -117.052)" fill="#fff"/>
            <path id="Path_20286" data-name="Path 20286" d="M242.372,222.068l-56.019-32.44c-1.841-1.066-2.7-2.5-2.637-4l-.013,0,.023-8.129,3.116,3.65c.2-.134.405-.267.627-.394l114.6-65.951c4.549-2.618,11.427-2.894,15.361-.615l55.232,31.984c1.118-1.224,3.462-3.809,3.462-3.809l-.026,7.951h0c.083,1.792-1.193,3.7-3.762,5.18l-114.6,65.951C253.183,224.07,246.305,224.346,242.372,222.068Z" transform="translate(-183.69 -104.478)" fill="#396caa"/>
            <path id="Path_20287" data-name="Path 20287" d="M234.477,273.05l3.227,1.863c.428.247.776-.015.776-.587h0a1.858,1.858,0,0,0-.776-1.482l-3.227-1.863c-.428-.247-.776.015-.776.586h0A1.859,1.859,0,0,0,234.477,273.05Z" transform="translate(-206.087 -175.362)" fill="#173d7a"/>
            <path id="Path_20288" data-name="Path 20288" d="M355.426,114.81c4.549-2.618,11.427-2.894,15.361-.616l55.232,31.985c1.118-1.224,3.462-3.809,3.462-3.809l-.026,7.951h0c.083,1.792-1.193,3.7-3.762,5.18l-114.6,65.951a17.718,17.718,0,0,1-8.271,2.149l.109-78.58Z" transform="translate(-237.05 -104.478)" fill="url(#linear-gradient)"/>
            <path id="Path_20289" data-name="Path 20289" d="M373.485,131.83,317.466,99.39c-3.934-2.278-10.811-2-15.361.616l-114.6,65.951c-4.549,2.618-5.049,6.587-1.115,8.866l56.019,32.44c3.934,2.278,10.811,2,15.36-.616L372.37,140.7C376.919,138.078,377.419,134.109,373.485,131.83Z" transform="translate(-183.707 -97.847)" fill="#d4ecff"/>
            <path id="Path_20290" data-name="Path 20290" d="M242.342,239.324l-56.019-32.44c-2.029-1.175-2.869-2.8-2.592-4.457a4.669,4.669,0,0,0,2.635,3.59l56.019,32.44c3.934,2.278,10.811,2,15.36-.616l114.6-65.951c2.2-1.268,3.447-2.852,3.707-4.409.134,1.821-1.134,3.772-3.75,5.277L257.7,238.709C253.153,241.327,246.275,241.6,242.342,239.324Z" transform="translate(-183.679 -129.04)" fill="#fff"/>
            <path id="Path_20291" data-name="Path 20291" d="M372.753,135.5l-53.828-31.171c-2.924-1.694-8.035-1.489-11.417.457L194.538,169.8c-3.382,1.946-3.753,4.9-.829,6.59l53.828,31.171c2.924,1.694,8.036,1.489,11.417-.457l112.969-65.014C375.305,140.141,375.676,137.191,372.753,135.5Z" transform="translate(-187.289 -100.235)" fill="#5044ff"/>
          </g>
          <g id="Group_4720" data-name="Group 4720" transform="translate(28.146 67.805)">
            <path id="Path_20292" data-name="Path 20292" d="M286.556,244l-37.984-21.93,2.424-1.4L288.98,242.6Z" transform="translate(-240.894 -220.673)" fill="#d4ecff"/>
            <path id="Path_20293" data-name="Path 20293" d="M253.9,241.206l-19.233-11.1,2.424-1.4,19.233,11.1Z" transform="translate(-234.665 -224.269)" fill="#d4ecff"/>
            <path id="Path_20294" data-name="Path 20294" d="M281.349,257.055l-6.238-3.6,2.424-1.4,6.238,3.6Z" transform="translate(-252.783 -234.73)" fill="#ff2c9c"/>
            <path id="Path_20295" data-name="Path 20295" d="M298.409,266.9l-6.238-3.6,2.424-1.4,6.238,3.6Z" transform="translate(-260.425 -239.142)" fill="#fff"/>
            <path id="Path_20296" data-name="Path 20296" d="M257.227,235.1l-15.609-9.012,2.424-1.4,15.609,9.012Z" transform="translate(-237.779 -222.471)" fill="#fff"/>
            <path id="Path_20297" data-name="Path 20297" d="M291.742,255.026l-15.609-9.012,2.424-1.4,15.609,9.012Z" transform="translate(-253.241 -231.398)" fill="#d4ecff"/>
            <g id="Group_4719" data-name="Group 4719" transform="translate(23.531 2.393)">
              <path id="Path_20298" data-name="Path 20298" d="M280.7,226.979a3.125,3.125,0,0,1-2.828,0,.862.862,0,0,1,0-1.633,3.126,3.126,0,0,1,2.829,0A.862.862,0,0,1,280.7,226.979Z" transform="translate(-277.291 -225.008)" fill="#ff2c9c"/>
              <path id="Path_20299" data-name="Path 20299" d="M288.361,231.4a3.125,3.125,0,0,1-2.828,0,.862.862,0,0,1,0-1.633,3.126,3.126,0,0,1,2.829,0A.862.862,0,0,1,288.361,231.4Z" transform="translate(-280.72 -226.988)" fill="#fff"/>
              <path id="Path_20300" data-name="Path 20300" d="M296.017,235.819a3.125,3.125,0,0,1-2.828,0,.862.862,0,0,1,0-1.633,3.126,3.126,0,0,1,2.829,0A.862.862,0,0,1,296.017,235.819Z" transform="translate(-284.15 -228.968)" fill="#d4ecff"/>
              <path id="Path_20301" data-name="Path 20301" d="M303.673,240.239a3.125,3.125,0,0,1-2.828,0,.862.862,0,0,1,0-1.633,3.126,3.126,0,0,1,2.829,0A.862.862,0,0,1,303.673,240.239Z" transform="translate(-287.579 -230.948)" fill="#ff2c9c"/>
              <path id="Path_20302" data-name="Path 20302" d="M311.329,244.66a3.125,3.125,0,0,1-2.828,0,.862.862,0,0,1,0-1.633,3.128,3.128,0,0,1,2.828,0A.862.862,0,0,1,311.329,244.66Z" transform="translate(-291.009 -232.929)" fill="#fff"/>
            </g>
          </g>
          <g id="Group_4721" data-name="Group 4721" transform="translate(121.988 13.728)">
            <path id="Path_20303" data-name="Path 20303" d="M462.8,158l-6.4-3.692,2.486-1.435,6.4,3.692Z" transform="translate(-427.836 -136.223)" fill="#ff2c9c"/>
            <path id="Path_20304" data-name="Path 20304" d="M478.929,167.311l-6.4-3.692,2.486-1.435,6.4,3.692Z" transform="translate(-435.062 -140.395)" fill="#fff"/>
            <path id="Path_20305" data-name="Path 20305" d="M411.051,127.842l-6.4-3.692,2.486-1.435,6.4,3.692Z" transform="translate(-404.656 -122.714)" fill="#fff"/>
            <path id="Path_20306" data-name="Path 20306" d="M458.178,163.563l-8.905-5.141,2.486-1.435,8.905,5.141Z" transform="translate(-424.642 -138.066)" fill="#fff"/>
            <path id="Path_20307" data-name="Path 20307" d="M473.818,172.593l-3.908-2.256L472.4,168.9l3.908,2.256Z" transform="translate(-433.887 -143.404)" fill="#d4ecff"/>
          </g>
        </g>
        <g id="Group_4730" data-name="Group 4730" transform="translate(60.163 29.537)">
          <g id="Group_4729" data-name="Group 4729">
            <path id="Path_20308" data-name="Path 20308" d="M372.292,157.568l-4.716-2.723,1.451-.838,4.716,2.723Z" transform="translate(-326.221 -152.541)" fill="#5793ce"/>
            <g id="Group_4723" data-name="Group 4723" transform="translate(43.895)">
              <path id="Path_20309" data-name="Path 20309" d="M389.589,162.243l-17.413-10.054,1.451-.838L391.041,161.4Z" transform="translate(-372.176 -151.351)" fill="#5793ce"/>
              <path id="Path_20310" data-name="Path 20310" d="M414.193,176.447l-6.53-3.77,1.451-.838,6.53,3.77Z" transform="translate(-388.073 -160.529)" fill="#5793ce"/>
              <path id="Path_20311" data-name="Path 20311" d="M388.837,167.12l-9.432-5.446,1.451-.838,9.432,5.446Z" transform="translate(-375.414 -155.6)" fill="#5793ce"/>
            </g>
            <path id="Path_20312" data-name="Path 20312" d="M426.908,188.835l-6.249-3.608,6.249-3.607,6.248,3.607ZM423,185.227l3.91,2.257,3.91-2.257-3.91-2.257Z" transform="translate(-350 -164.911)" fill="#fff"/>
            <path id="Path_20313" data-name="Path 20313" d="M357.178,166.294l-4.716-2.723,1.451-.838,4.716,2.723Z" transform="translate(-319.45 -156.45)" fill="#5793ce"/>
            <g id="Group_4724" data-name="Group 4724" transform="translate(35.914 4.608)">
              <path id="Path_20314" data-name="Path 20314" d="M364.975,164.725l-7.256-4.189,1.451-.838,7.255,4.189Z" transform="translate(-357.719 -159.698)" fill="#5793ce"/>
              <path id="Path_20315" data-name="Path 20315" d="M384.6,176.056l-9.8-5.655,1.451-.838,9.795,5.655Z" transform="translate(-365.373 -164.117)" fill="#5793ce"/>
              <path id="Path_20316" data-name="Path 20316" d="M380.253,179.616,364.291,170.4l1.451-.838,15.962,9.216Z" transform="translate(-360.663 -164.117)" fill="#5793ce"/>
            </g>
            <path id="Path_20317" data-name="Path 20317" d="M411.793,197.56l-6.248-3.607,6.248-3.607,6.249,3.607Zm-3.91-3.607,3.91,2.257,3.91-2.257-3.91-2.257Z" transform="translate(-343.229 -168.819)" fill="#fff"/>
            <path id="Path_20318" data-name="Path 20318" d="M349.251,178.411l-11.246-6.493,1.451-.838,11.246,6.493Z" transform="translate(-312.974 -160.189)" fill="#5793ce"/>
            <g id="Group_4725" data-name="Group 4725" transform="translate(27.57 9.425)">
              <path id="Path_20319" data-name="Path 20319" d="M348.047,172.4l-5.442-3.142,1.451-.838,5.442,3.142Z" transform="translate(-342.605 -168.424)" fill="#5793ce"/>
              <path id="Path_20320" data-name="Path 20320" d="M365.112,182.257l-8.707-5.027,1.451-.838,8.707,5.027Z" transform="translate(-348.787 -171.994)" fill="#5793ce"/>
              <path id="Path_20321" data-name="Path 20321" d="M381.267,191.584l-5.8-3.351,1.451-.838,5.8,3.351Z" transform="translate(-357.324 -176.922)" fill="#5793ce"/>
              <path id="Path_20322" data-name="Path 20322" d="M371.095,191.022l-9.432-5.446,1.451-.838,9.432,5.446Z" transform="translate(-351.142 -175.733)" fill="#5793ce"/>
            </g>
            <path id="Path_20323" data-name="Path 20323" d="M396.679,206.287l-6.248-3.608,6.248-3.607,6.249,3.607Zm-3.91-3.608,3.91,2.257,3.91-2.257-3.91-2.257Z" transform="translate(-336.459 -172.728)" fill="#fff"/>
            <path id="Path_20324" data-name="Path 20324" d="M327.607,183.367l-4.716-2.723,1.451-.838,4.716,2.723Z" transform="translate(-306.204 -164.098)" fill="#5793ce"/>
            <g id="Group_4726" data-name="Group 4726" transform="translate(19.227 14.242)">
              <path id="Path_20325" data-name="Path 20325" d="M340.188,185.319l-12.7-7.331,1.451-.838,12.7,7.331Z" transform="translate(-327.491 -177.15)" fill="#5793ce"/>
              <path id="Path_20326" data-name="Path 20326" d="M361.758,197.773l-7.981-4.608,1.451-.838,7.981,4.608Z" transform="translate(-339.266 -183.949)" fill="#5793ce"/>
            </g>
            <path id="Path_20327" data-name="Path 20327" d="M381.565,215.013l-6.248-3.608,6.248-3.607,6.248,3.608Zm-3.91-3.608,3.91,2.258,3.91-2.257-3.91-2.258Z" transform="translate(-329.689 -176.637)" fill="#fff"/>
            <path id="Path_20328" data-name="Path 20328" d="M312.493,192.093l-4.716-2.723,1.451-.838,4.716,2.723Z" transform="translate(-299.433 -168.007)" fill="#5793ce"/>
            <g id="Group_4727" data-name="Group 4727" transform="translate(10.883 19.059)">
              <path id="Path_20329" data-name="Path 20329" d="M322.9,192.788l-10.521-6.074,1.451-.838,10.521,6.074Z" transform="translate(-312.377 -185.877)" fill="#5793ce"/>
              <path id="Path_20330" data-name="Path 20330" d="M344.378,205.191l-8.344-4.817,1.451-.838,8.344,4.817Z" transform="translate(-322.974 -191.995)" fill="#5793ce"/>
              <path id="Path_20331" data-name="Path 20331" d="M323.3,198.334l-4.353-2.513,1.451-.838,4.353,2.513Z" transform="translate(-315.321 -189.956)" fill="#5793ce"/>
            </g>
            <path id="Path_20332" data-name="Path 20332" d="M366.451,223.739l-6.249-3.607,6.249-3.608,6.248,3.608Zm-3.91-3.607,3.91,2.257,3.91-2.257-3.91-2.257Z" transform="translate(-322.918 -180.546)" fill="#fff"/>
            <path id="Path_20333" data-name="Path 20333" d="M297.379,200.819l-4.716-2.723,1.451-.838,4.716,2.723Z" transform="translate(-292.663 -171.916)" fill="#5793ce"/>
            <g id="Group_4728" data-name="Group 4728" transform="translate(2.539 23.877)">
              <path id="Path_20334" data-name="Path 20334" d="M308.509,201.933l-11.246-6.493,1.451-.838L309.96,201.1Z" transform="translate(-297.263 -194.603)" fill="#5793ce"/>
              <path id="Path_20335" data-name="Path 20335" d="M324.842,211.364l-3.265-1.885,1.451-.838,3.265,1.885Z" transform="translate(-308.155 -200.891)" fill="#5793ce"/>
              <path id="Path_20336" data-name="Path 20336" d="M334.043,216.676l-3.265-1.885,1.451-.838,3.265,1.885Z" transform="translate(-312.276 -203.271)" fill="#5793ce"/>
              <path id="Path_20337" data-name="Path 20337" d="M308.482,207.23l-3.991-2.3,1.451-.838,3.991,2.3Z" transform="translate(-300.501 -198.852)" fill="#5793ce"/>
            </g>
            <path id="Path_20338" data-name="Path 20338" d="M351.994,232.086l-6.249-3.608,6.249-3.607,6.248,3.607Zm-3.91-3.608,3.91,2.257,3.91-2.257-3.91-2.257Z" transform="translate(-316.441 -184.285)" fill="#fff"/>
          </g>
          <path id="Path_20339" data-name="Path 20339" d="M352.985,228.918h4.421c.64,0,1.158-.3,1.158-.669s-.518-.669-1.158-.669h-4.421v-2.553c0-.369-.518-.669-1.158-.669s-1.158.3-1.158.669v2.553h-4.421c-.64,0-1.158.3-1.158.668s.518.669,1.158.669h4.421v2.552c0,.369.519.668,1.158.668s1.158-.3,1.158-.668Z" transform="translate(-316.148 -184.056)" fill="#ff2c9c"/>
          <path id="Path_20340" data-name="Path 20340" d="M383.357,211.465h4.421c.639,0,1.158-.3,1.158-.669s-.518-.669-1.158-.669h-4.421v-2.553c0-.369-.518-.669-1.158-.669s-1.158.3-1.158.669v2.553h-4.421c-.639,0-1.158.3-1.158.669s.518.669,1.158.669h4.421v2.553c0,.369.518.668,1.158.668s1.158-.3,1.158-.668Z" transform="translate(-329.754 -176.238)" fill="#ff2c9c"/>
          <path id="Path_20341" data-name="Path 20341" d="M398.627,202.576h4.421c.639,0,1.158-.3,1.158-.669s-.519-.668-1.158-.668h-4.421v-2.553c0-.369-.518-.669-1.158-.669s-1.158.3-1.158.669v2.553h-4.421c-.639,0-1.158.3-1.158.669s.518.669,1.158.669h4.421v2.553c0,.369.518.669,1.158.669s1.158-.3,1.158-.669Z" transform="translate(-336.594 -172.256)" fill="#ff2c9c"/>
        </g>
      </g>
      <path id="Path_20342" data-name="Path 20342" d="M389.492,118.294c-7.082,0-14.163-1.556-19.554-4.669-5.439-3.141-8.435-7.385-8.435-11.951s3-8.811,8.435-11.951c10.782-6.225,28.327-6.225,39.108,0,5.44,3.14,8.436,7.385,8.436,11.951s-3,8.811-8.435,11.951h0C403.655,116.737,396.573,118.294,389.492,118.294Zm0-30.98c-6.666,0-13.332,1.465-18.407,4.395-4.7,2.714-7.289,6.253-7.289,9.965s2.589,7.252,7.289,9.966c10.15,5.86,26.665,5.859,36.815,0h0c4.7-2.714,7.288-6.253,7.289-9.966s-2.589-7.252-7.289-9.966C402.823,88.778,396.157,87.314,389.49,87.314Zm18.982,25.319h0Z" transform="translate(-96.181 -23.118)" fill="#fff"/>
      <g id="Group_4736" data-name="Group 4736" transform="translate(264.57 40.608)">
        <g id="Group_4732" data-name="Group 4732" transform="translate(7 0)">
          <path id="Path_20343" data-name="Path 20343" d="M414.512,82.061,405.9,82.2a9.159,9.159,0,0,0-2.721-2.288c-4.738-2.735-12.188-2.947-17.35-.638l-5.12-4.815-7.883.123c.39-.255.789-.506,1.212-.75,10.955-6.325,28.717-6.325,39.672,0a20.82,20.82,0,0,1,4.929,3.84Z" transform="translate(-372.822 -56.572)" fill="#b70083"/>
          <path id="Path_20344" data-name="Path 20344" d="M372.822,56.272V68.783l7.883-.123V56.149Z" transform="translate(-372.822 -50.778)" fill="#d3008d"/>
          <path id="Path_20345" data-name="Path 20345" d="M392.222,60.964V73.475L387.1,68.66V56.149Z" transform="translate(-379.219 -50.778)" fill="#b70083"/>
          <path id="Path_20346" data-name="Path 20346" d="M416.448,64.63V77.142l-11.334-9.236-8.737,6.31V61.7l8.044-3.9s11.075,3.391,11.651,3.534S416.448,64.63,416.448,64.63Z" transform="translate(-383.374 -51.518)" fill="#b70083"/>
          <path id="Path_20347" data-name="Path 20347" d="M441.349,69.928V82.439l-8.616.134V70.062Z" transform="translate(-399.66 -56.95)" fill="#b70083"/>
          <path id="Path_20348" data-name="Path 20348" d="M452.465,61.969V74.48l-4.124,4.394V66.363Z" transform="translate(-406.651 -53.385)" fill="#d3008d"/>
          <path id="Path_20349" data-name="Path 20349" d="M414.512,59.4l-8.616.134a9.175,9.175,0,0,0-2.721-2.288c-4.738-2.735-12.188-2.946-17.35-.638l-5.12-4.815-7.883.123c.39-.255.789-.507,1.212-.75,10.955-6.325,28.717-6.325,39.672,0A20.835,20.835,0,0,1,418.635,55Z" transform="translate(-372.822 -46.419)" fill="url(#linear-gradient-2)"/>
        </g>
        <g id="Group_4734" data-name="Group 4734" transform="translate(0 7.485)">
          <path id="Path_20350" data-name="Path 20350" d="M385.624,67.659v11.5l-7.458-1.786s.438-6.73.6-6.91S385.624,67.659,385.624,67.659Z" transform="translate(-368.216 -63.419)" fill="#5793ce"/>
          <g id="Group_4733" data-name="Group 4733">
            <path id="Path_20351" data-name="Path 20351" d="M396.979,88.493V101l-.805.858-5.258-3.031s.815-9.551.911-9.742A49.89,49.89,0,0,1,396.979,88.493Z" transform="translate(-373.927 -72.752)" fill="#173d7a"/>
            <path id="Path_20352" data-name="Path 20352" d="M373.041,82.642l4.509,4.24c-3.756,2.972-3.312,7.161,1.334,9.843a16.017,16.017,0,0,0,4.309,1.658l-4.66,4.965,4.129,3.884a37.521,37.521,0,0,1-14.309-4.426c-9.418-5.437-10.731-13.777-3.956-20.029Z" transform="translate(-360.142 -70.131)" fill="#396caa"/>
            <path id="Path_20353" data-name="Path 20353" d="M382.662,91.17v12.512l-10.224-3.948L360.142,88l.046-13.285L373.2,85.028Z" transform="translate(-360.142 -66.58)" fill="#396caa"/>
            <path id="Path_20354" data-name="Path 20354" d="M373.041,59.978l4.509,4.24c-3.756,2.972-3.312,7.161,1.334,9.843a16.036,16.036,0,0,0,4.309,1.658l-4.66,4.965,4.129,3.883a37.511,37.511,0,0,1-14.309-4.426c-9.418-5.437-10.731-13.777-3.956-20.029Z" transform="translate(-360.142 -59.978)" fill="url(#radial-gradient)"/>
          </g>
        </g>
        <g id="Group_4735" data-name="Group 4735" transform="translate(22.554 11.02)">
          <path id="Path_20355" data-name="Path 20355" d="M401,106.152l4.107-4.377A19.645,19.645,0,0,0,415.8,99.594c3.019-1.743,4.262-4.122,3.734-6.389l9.782-.153,3.761-4.007c3.29,5.646,1.046,12.131-6.745,16.629-5.725,3.305-13.308,4.879-20.807,4.73Z" transform="translate(-400.998 -76.534)" fill="#396caa"/>
          <path id="Path_20356" data-name="Path 20356" d="M409.189,92.019v12.512l29.017-16.08V75.933l-4.237,1.713Z" transform="translate(-404.667 -70.66)" fill="#396caa"/>
          <path id="Path_20357" data-name="Path 20357" d="M401,97.369v12.512l4.522,4.253V101.622Z" transform="translate(-400.998 -80.263)" fill="#173d7a"/>
          <path id="Path_20358" data-name="Path 20358" d="M401,83.488l4.107-4.376A19.645,19.645,0,0,0,415.8,76.93c3.019-1.743,4.262-4.122,3.734-6.389l9.782-.153,3.761-4.007c3.29,5.646,1.046,12.131-6.745,16.629-5.725,3.305-13.308,4.879-20.807,4.73Z" transform="translate(-400.998 -66.381)" fill="#5793ce"/>
        </g>
      </g>
      <path id="Path_20365" data-name="Path 20365" d="M481.1,355.322l-9.264-5.348,9.263-5.348,9.264,5.348Z" transform="translate(-145.608 -139.395)" fill="#7dc3ea"/>
      <g id="Group_4740" data-name="Group 4740" transform="translate(325.284 182.043)">
        <g id="Group_4739" data-name="Group 4739">
          <path id="Path_20366" data-name="Path 20366" d="M480.335,345.174a.944.944,0,0,1-.474-.128L470.6,339.7a.948.948,0,0,1,0-1.642l9.263-5.348a.947.947,0,0,1,.948,0l9.263,5.348a.948.948,0,0,1,0,1.642l-9.263,5.348A.945.945,0,0,1,480.335,345.174Zm-7.367-6.3,7.367,4.254,7.367-4.253-7.367-4.253Z" transform="translate(-470.123 -316.044)" fill="#fff"/>
          <path id="Path_20367" data-name="Path 20367" d="M497.885,323.007l-9.263,5.348v-10.7l9.263-5.348Z" transform="translate(-478.41 -306.963)" fill="#173d7a"/>
          <path id="Path_20368" data-name="Path 20368" d="M481.1,313.32l-9.263-5.348,9.263-5.348,9.263,5.348Z" transform="translate(-470.893 -302.623)" fill="#d4ecff"/>
          <path id="Path_20369" data-name="Path 20369" d="M481.1,328.355l-9.263-5.348v-10.7l9.263,5.348Z" transform="translate(-470.893 -306.963)" fill="#5793ce"/>
        </g>
        <path id="Path_20370" data-name="Path 20370" d="M480.476,327.266l-2.591-1.5v-2.992l2.591,1.5Z" transform="translate(-473.6 -311.652)" fill="#fff"/>
      </g>
      <ellipse id="Ellipse_159" data-name="Ellipse 159" cx="15.101" cy="8.719" rx="15.101" ry="8.719" transform="translate(154.203 191.681)" fill="#7dc3ea"/>
      <g id="Group_4743" data-name="Group 4743" transform="translate(150.533 166.763)">
        <g id="Group_4741" data-name="Group 4741" transform="translate(0)">
          <path id="Path_20371" data-name="Path 20371" d="M174.549,327.368a22.807,22.807,0,0,1-11.153-2.662c-3.158-1.823-4.9-4.3-4.9-6.986s1.74-5.163,4.9-6.986c6.15-3.55,16.156-3.55,22.3,0,3.158,1.823,4.9,4.3,4.9,6.986s-1.739,5.163-4.9,6.986h0A22.811,22.811,0,0,1,174.549,327.368Zm0-17.429a20.87,20.87,0,0,0-10.2,2.436c-2.546,1.47-3.949,3.369-3.949,5.344s1.4,3.874,3.949,5.344c5.627,3.248,14.782,3.248,20.409,0,2.546-1.47,3.948-3.369,3.948-5.344s-1.4-3.874-3.949-5.344A20.873,20.873,0,0,0,174.548,309.939Z" transform="translate(-155.776 -289.783)" fill="#fff"/>
          <path id="Path_20372" data-name="Path 20372" d="M191.113,293.853v-5.27h-1a11.989,11.989,0,0,0-4.5-4.212c-7.331-4.233-19.217-4.233-26.548,0a11.982,11.982,0,0,0-4.5,4.212h-.994v5.242h0c-.013,2.783,1.818,5.568,5.5,7.692,7.331,4.233,19.217,4.233,26.548,0C189.28,299.4,191.113,296.627,191.113,293.853Z" transform="translate(-153.568 -277.744)" fill="url(#linear-gradient-2)"/>
          <path id="Path_20373" data-name="Path 20373" d="M200.846,284.37a27.134,27.134,0,0,0-13.273-3.174v23.5a27.136,27.136,0,0,0,13.274-3.174c3.666-2.117,5.5-4.891,5.5-7.664v-5.27h-1A11.994,11.994,0,0,0,200.846,284.37Z" transform="translate(-168.8 -277.744)" fill="#b70083"/>
          <ellipse id="Ellipse_160" data-name="Ellipse 160" cx="18.772" cy="10.838" rx="18.772" ry="10.838" fill="url(#linear-gradient-2)"/>
          <path id="Path_20374" data-name="Path 20374" d="M185.629,302.52c-7.331,4.233-19.217,4.233-26.548,0-3.513-2.028-5.324-4.661-5.47-7.319-.158,2.888,1.652,5.8,5.47,8.008,7.331,4.233,19.217,4.233,26.548,0,3.817-2.2,5.628-5.12,5.47-8.008C190.953,297.859,189.142,300.492,185.629,302.52Z" transform="translate(-153.582 -284.018)" fill="#fff"/>
        </g>
        <g id="Group_4742" data-name="Group 4742" transform="translate(9.23 5.7)">
          <path id="Path_20375" data-name="Path 20375" d="M170.781,294a.846.846,0,0,1-.495-.692l.019-7.062c0-.538.759-.974,1.692-.974s1.687.438,1.687.978l-.015,5.855,16.994-2.081c.914-.112,1.81.225,2,.752s-.39,1.044-1.3,1.156l-19.037,2.331a2.679,2.679,0,0,1-1.416-.2C170.866,294.041,170.822,294.019,170.781,294Z" transform="translate(-170.286 -285.268)" fill="#fff"/>
        </g>
      </g>
      <path id="Path_20376" data-name="Path 20376" d="M456.442,265.554a7.062,7.062,0,0,0-6.389,0l-82.412,47.6c-1.764,1.018-1.764,2.67,0,3.689a7.062,7.062,0,0,0,6.389,0l82.412-47.6C458.206,268.224,458.206,266.573,456.442,265.554Z" transform="translate(-98.338 -103.632)" fill="#7dc3ea"/>
      <path id="Path_20377" data-name="Path 20377" d="M370.066,307.459a7.463,7.463,0,0,1-3.668-.892,2.875,2.875,0,0,1,0-5.331l82.412-47.6a8,8,0,0,1,7.338,0h0a2.876,2.876,0,0,1,0,5.332l-82.412,47.6A7.469,7.469,0,0,1,370.066,307.459Zm82.412-52.818a5.586,5.586,0,0,0-2.72.638l-82.412,47.6c-.532.307-.85.69-.85,1.023s.318.716.85,1.023a6.113,6.113,0,0,0,5.441,0l82.412-47.6c.532-.307.85-.69.85-1.023s-.317-.716-.849-1.023A5.6,5.6,0,0,0,452.478,254.641Z" transform="translate(-97.569 -98.237)" fill="#fff"/>
      <g id="Group_4751" data-name="Group 4751" transform="translate(258.743 137.349)">
        <g id="Group_4750" data-name="Group 4750" transform="translate(0)">
          <path id="Path_20378" data-name="Path 20378" d="M540.591,221.822h0a.325.325,0,0,0-.349-.153l-4.488.973,1.768,3.007,3.033-3.447A.325.325,0,0,0,540.591,221.822Z" transform="translate(-432.982 -221.662)" fill="#fff"/>
          <g id="Group_4744" data-name="Group 4744" transform="translate(51.726 0.496)">
            <path id="Path_20379" data-name="Path 20379" d="M527.691,224.442a2.243,2.243,0,0,0-1.029-1.75.735.735,0,0,0-.673-.083,28.666,28.666,0,0,0-14.757,3.951l-.324.19,5.574,9.483,1.646-1.091a28.658,28.658,0,0,0,8.6-8.919l.7-1.151A.733.733,0,0,0,527.691,224.442Z" transform="translate(-473.577 -222.56)" fill="url(#radial-gradient-2)"/>
            <ellipse id="Ellipse_161" data-name="Ellipse 161" cx="3.175" cy="5.5" rx="3.175" ry="5.5" transform="matrix(0.862, -0.507, 0.507, 0.862, 34.592, 5.8)" fill="#d4ecff"/>
            <path id="Path_20380" data-name="Path 20380" d="M455.731,260.244l33.083-20.611-5.574-9.483-34.1,18.888Z" transform="translate(-445.91 -225.96)" fill="#d4ecff"/>
            <ellipse id="Ellipse_162" data-name="Ellipse 162" cx="3.752" cy="6.499" rx="3.752" ry="6.499" transform="translate(0 24.98) rotate(-30.448)" fill="#d4ecff"/>
          </g>
          <g id="Group_4745" data-name="Group 4745" transform="translate(7.982 22.782)">
            <ellipse id="Ellipse_163" data-name="Ellipse 163" cx="3.752" cy="6.499" rx="3.752" ry="6.499" transform="translate(41.856 3.803) rotate(-30.448)" fill="#d4ecff"/>
            <path id="Path_20381" data-name="Path 20381" d="M455.644,271.975a10.16,10.16,0,0,0-4.658-7.923,3.229,3.229,0,0,0-3.252-.3l-2.48,1.457,1.181,2.01a10.375,10.375,0,0,0,4.224,7.185l1.181,2.011,2.48-1.457h0A3.231,3.231,0,0,0,455.644,271.975Z" transform="translate(-400.424 -263.159)" fill="#ff2c9c"/>
            <path id="Path_20382" data-name="Path 20382" d="M416.786,274.618a10.16,10.16,0,0,0-4.658-7.923,3.412,3.412,0,0,0-2.979-.428l-.013-.022-43.767,25.727a3.228,3.228,0,0,0-1.323,2.985,10.158,10.158,0,0,0,4.658,7.923,3.23,3.23,0,0,0,3.252.3h0l43.768-25.727-.012-.022A3.414,3.414,0,0,0,416.786,274.618Z" transform="translate(-364.046 -264.344)" fill="url(#linear-gradient)"/>
            <path id="Path_20383" data-name="Path 20383" d="M372.962,321.923a6.712,6.712,0,0,0-3.147-4.812c-1.637-.929-2.882-.279-2.781,1.451a6.71,6.71,0,0,0,3.146,4.812C371.818,324.3,373.063,323.652,372.962,321.923Z" transform="translate(-365.382 -287.011)" fill="#396caa"/>
          </g>
          <g id="Group_4746" data-name="Group 4746" transform="translate(55.814 22.464)">
            <path id="Path_20384" data-name="Path 20384" d="M458.08,271.489a10.16,10.16,0,0,0-4.658-7.923,3.593,3.593,0,0,0-2.731-.511c.828-.865,2.185-.967,3.73-.091a10.159,10.159,0,0,1,4.658,7.923c.013,1.75-.715,2.878-1.844,3.2A3.632,3.632,0,0,0,458.08,271.489Z" transform="translate(-450.691 -262.355)" fill="#fff"/>
          </g>
          <g id="Group_4747" data-name="Group 4747" transform="translate(0 54.024)">
            <path id="Path_20385" data-name="Path 20385" d="M371.846,323.206a4.38,4.38,0,0,0-2.009-3.418c-1.1-.624-1.984-.1-1.974,1.16a4.384,4.384,0,0,0,2.009,3.419C370.973,324.99,371.856,324.471,371.846,323.206Z" transform="translate(-357.773 -319.524)" fill="#ff2c9c"/>
            <path id="Path_20386" data-name="Path 20386" d="M363.659,323.206a4.38,4.38,0,0,0-2.009-3.418,1.394,1.394,0,0,0-1.4-.128l-9.277,5.453a2.8,2.8,0,1,0,2.842,4.834l9.277-5.452h0A1.394,1.394,0,0,0,363.659,323.206Z" transform="translate(-349.586 -319.524)" fill="#ff2c9c"/>
          </g>
          <g id="Group_4749" data-name="Group 4749" transform="translate(11.862 26.715)">
            <path id="Path_20387" data-name="Path 20387" d="M383.595,283.98l-1.391-.789a2.962,2.962,0,0,0-2.976.319l-4.767,2.8a3.629,3.629,0,0,0-1.617,2.852l.019,2.386a1.959,1.959,0,0,1-.48,1.2l.178,1.105-1.189-.681,0,0a.61.61,0,0,1-.284-.58l-.019-2.386a7.568,7.568,0,0,1,3.372-5.948l4.767-2.8c1.593-.936,3.1-1.1,4.233-.453l1.391.789a2.961,2.961,0,0,0,2.976-.319l19.216-11.295a.617.617,0,0,1,.635-.062v0l1.186.68-1.015.39a1.963,1.963,0,0,1-.789,1.047l-19.216,11.3C386.235,284.464,384.731,284.625,383.595,283.98Z" transform="translate(-371.073 -270.054)" fill="#5793ce"/>
            <path id="Path_20388" data-name="Path 20388" d="M384.385,284.439a2.961,2.961,0,0,0-2.976.318l-4.767,2.8a3.63,3.63,0,0,0-1.617,2.852l.019,2.386a1.968,1.968,0,0,1-.877,1.547c-.489.287-.889.06-.894-.507l-.019-2.386a7.567,7.567,0,0,1,3.372-5.947l4.767-2.8c1.593-.936,3.1-1.1,4.233-.453l1.391.789a2.961,2.961,0,0,0,2.976-.319l19.216-11.3c.489-.288.889-.061.893.507a1.964,1.964,0,0,1-.877,1.547l-19.216,11.3c-1.593.936-3.1,1.1-4.233.453Z" transform="translate(-372.05 -270.613)" fill="#5793ce"/>
            <g id="Group_4748" data-name="Group 4748" transform="translate(2.915 19.591)">
              <path id="Path_20389" data-name="Path 20389" d="M376.354,306.144l.019,2.386c0,.015-.007.033-.008.049a1.541,1.541,0,0,0,.067-.443l-.019-2.386c0-.068.01-.139.016-.208A2.681,2.681,0,0,0,376.354,306.144Z" transform="translate(-376.354 -305.542)" fill="#fff"/>
            </g>
          </g>
        </g>
      </g>
    </g>
  </g>
</svg>
