<svg xmlns="http://www.w3.org/2000/svg" xmlns:xlink="http://www.w3.org/1999/xlink" width="591" height="590" viewBox="0 0 591 590">
  <defs>
    <clipPath id="clip-path">
      <rect id="Rectangle_1834" data-name="Rectangle 1834" width="591" height="590" transform="translate(-0.141 0.273)" fill="none"/>
    </clipPath>
    <clipPath id="clip-path-3">
      <rect id="Rectangle_1796" data-name="Rectangle 1796" width="162.825" height="162.825" fill="none"/>
    </clipPath>
    <clipPath id="clip-path-12">
      <path id="Path_59819" data-name="Path 59819" d="M23.845,23.845A81.146,81.146,0,0,0,0,81.272v.281A81.413,81.413,0,1,0,23.845,23.845" fill="none"/>
    </clipPath>
    <linearGradient id="linear-gradient" x1="0.146" y1="2.59" x2="0.149" y2="2.59" gradientUnits="objectBoundingBox">
      <stop offset="0" stop-color="#b50e1f"/>
      <stop offset="1" stop-color="#ff615c"/>
    </linearGradient>
    <clipPath id="clip-path-14">
      <circle id="Ellipse_1271" data-name="Ellipse 1271" cx="81.413" cy="81.413" r="81.413" fill="none"/>
    </clipPath>
    <linearGradient id="linear-gradient-2" x1="-0.773" y1="2.71" x2="-0.77" y2="2.71" gradientUnits="objectBoundingBox">
      <stop offset="0" stop-color="#6d9c30"/>
      <stop offset="1" stop-color="#cff547"/>
    </linearGradient>
    <clipPath id="clip-path-16">
      <circle id="Ellipse_1272" data-name="Ellipse 1272" cx="81.413" cy="81.413" r="81.413" transform="translate(0 115.135) rotate(-45)" fill="none"/>
    </clipPath>
    <linearGradient id="linear-gradient-3" x1="-1.692" y1="2.71" x2="-1.689" y2="2.71" gradientUnits="objectBoundingBox">
      <stop offset="0" stop-color="#191919"/>
      <stop offset="1" stop-color="#525252"/>
    </linearGradient>
    <clipPath id="clip-path-17">
      <path id="Path_59822" data-name="Path 59822" d="M806.193,101.388a4.847,4.847,0,0,0-4.847,4.848V140.5a4.847,4.847,0,0,0,4.847,4.847h41.531a4.847,4.847,0,0,0,4.846-4.847v-8.163l16.912,9.117a1.307,1.307,0,0,0,1.928-1.151V106.432a1.307,1.307,0,0,0-1.928-1.151L852.57,114.4v-8.163a4.847,4.847,0,0,0-4.846-4.848Z" transform="translate(-801.346 -101.388)" fill="none"/>
    </clipPath>
    <linearGradient id="linear-gradient-4" x1="-5.76" y1="6.811" x2="-5.753" y2="6.811" gradientUnits="objectBoundingBox">
      <stop offset="0" stop-color="#c4c4c4"/>
      <stop offset="0.002" stop-color="#c4c4c4"/>
      <stop offset="0.235" stop-color="#dedede"/>
      <stop offset="0.474" stop-color="#f0f0f0"/>
      <stop offset="0.724" stop-color="#fbfbfb"/>
      <stop offset="1" stop-color="#fff"/>
    </linearGradient>
    <clipPath id="clip-path-18">
      <path id="Path_59823" data-name="Path 59823" d="M0,442.524a81.413,81.413,0,1,0,81.413-81.413A81.413,81.413,0,0,0,0,442.524" transform="translate(0 -361.111)" fill="none"/>
    </clipPath>
    <linearGradient id="linear-gradient-5" x1="0.146" y1="1.791" x2="0.149" y2="1.791" xlink:href="#linear-gradient-4"/>
    <clipPath id="clip-path-19">
      <path id="Path_59824" data-name="Path 59824" d="M79.042,467.918v34.269a4.847,4.847,0,0,0,4.847,4.847h39.7l-42.82-42.819a4.832,4.832,0,0,0-1.724,3.7" transform="translate(-79.042 -464.215)" fill="none"/>
    </clipPath>
    <linearGradient id="linear-gradient-6" x1="-0.611" y1="5.304" x2="-0.601" y2="5.304" xlink:href="#linear-gradient-3"/>
    <clipPath id="clip-path-20">
      <path id="Path_59825" data-name="Path 59825" d="M77.568,442.67l9.77,9.77H87.3l41.64,41.639c0-.008.008-.016.012-.023l13.77,13.77,4.144-4.145-17.212-17.212v-3.076l16.912,9.118a1.309,1.309,0,0,0,1.929-1.152V457.483a1.308,1.308,0,0,0-1.929-1.151l-16.912,9.118v-8.163a4.847,4.847,0,0,0-4.847-4.847H95.628L81.713,438.525Z" transform="translate(-77.568 -438.525)" fill="none"/>
    </clipPath>
    <linearGradient id="linear-gradient-7" x1="-0.316" y1="3.511" x2="-0.31" y2="3.511" xlink:href="#linear-gradient-3"/>
    <clipPath id="clip-path-21">
      <path id="Path_59826" data-name="Path 59826" d="M361.111,442.524a81.413,81.413,0,1,0,81.413-81.413,81.412,81.412,0,0,0-81.413,81.413" transform="translate(-361.111 -361.111)" fill="none"/>
    </clipPath>
    <linearGradient id="linear-gradient-8" x1="-0.773" y1="1.791" x2="-0.77" y2="1.791" xlink:href="#linear-gradient-3"/>
    <clipPath id="clip-path-22">
      <path id="Path_59827" data-name="Path 59827" d="M472.565,451.082V472.5c0,8.882,7.2,15.542,16.082,15.542s16.082-6.66,16.082-15.542V451.082a16.082,16.082,0,0,0-32.163,0" transform="translate(-472.565 -435)" fill="none"/>
    </clipPath>
    <linearGradient id="linear-gradient-9" x1="-4.365" y1="5.625" x2="-4.355" y2="5.625" xlink:href="#linear-gradient-4"/>
    <clipPath id="clip-path-23">
      <path id="Path_59828" data-name="Path 59828" d="M502.325,504.174c0,11.591-8.646,19.08-22.027,19.08-10.608,0-21.943-4.947-21.943-18.829h-5.862c0,14.112,9.663,23.523,24.874,24.587v10.816h5.862V529.007c15.049-1.109,24.958-10.806,24.958-24.833Z" transform="translate(-452.494 -504.174)" fill="none"/>
    </clipPath>
    <linearGradient id="linear-gradient-10" x1="-4.037" y1="4.788" x2="-4.028" y2="4.788" xlink:href="#linear-gradient-4"/>
    <clipPath id="clip-path-24">
      <path id="Path_59829" data-name="Path 59829" d="M722.222,442.524a81.413,81.413,0,1,0,81.413-81.413,81.413,81.413,0,0,0-81.413,81.413" transform="translate(-722.222 -361.111)" fill="none"/>
    </clipPath>
    <linearGradient id="linear-gradient-11" x1="-1.692" y1="1.791" x2="-1.689" y2="1.791" xlink:href="#linear-gradient-4"/>
    <clipPath id="clip-path-25">
      <path id="Path_59830" data-name="Path 59830" d="M822.749,449.44l-12.161-12.161-4.145,4.145,16.223,16.223v.178l26.559,26.559c.032-.027.063-.056.1-.083l5.258,5.258c-.032.028-.062.057-.095.084l4.177,4.177c.032-.028.061-.057.093-.086L871.6,506.579l4.144-4.145-13.116-13.116a24.439,24.439,0,0,0,3.967-13.77h-5.862a18.882,18.882,0,0,1-2.385,9.492l-5.3-5.3a15.3,15.3,0,0,0,1.785-7.238V451.082a16.083,16.083,0,0,0-32.081-1.642" transform="translate(-806.443 -435)" fill="none"/>
    </clipPath>
    <linearGradient id="linear-gradient-12" x1="-4.593" y1="3.506" x2="-4.587" y2="3.506" xlink:href="#linear-gradient-3"/>
    <clipPath id="clip-path-26">
      <path id="Path_59831" data-name="Path 59831" d="M814.05,504.6c0,14.112,9.663,23.523,24.874,24.587v10.816h5.862V529.185a31.429,31.429,0,0,0,12.066-3.229l-4.426-4.425a28.031,28.031,0,0,1-10.572,1.9c-10.608,0-21.943-4.947-21.943-18.829Z" transform="translate(-814.05 -504.603)" fill="none"/>
    </clipPath>
    <linearGradient id="linear-gradient-13" x1="-8.516" y1="5.506" x2="-8.505" y2="5.506" xlink:href="#linear-gradient-3"/>
    <clipPath id="clip-path-27">
      <path id="Path_59832" data-name="Path 59832" d="M834.12,494.465c0,8.882,7.2,15.542,16.082,15.542a17.07,17.07,0,0,0,5.076-.766L834.12,488.082Z" transform="translate(-834.12 -488.082)" fill="none"/>
    </clipPath>
    <linearGradient id="linear-gradient-14" x1="-15.897" y1="10.125" x2="-15.877" y2="10.125" xlink:href="#linear-gradient-3"/>
    <clipPath id="clip-path-28">
      <path id="Path_59833" data-name="Path 59833" d="M361.111,803.635a81.413,81.413,0,1,0,81.413-81.413,81.412,81.412,0,0,0-81.413,81.413" transform="translate(-361.111 -722.222)" fill="none"/>
    </clipPath>
    <linearGradient id="linear-gradient-15" x1="-0.773" y1="0.871" x2="-0.77" y2="0.871" xlink:href="#linear-gradient-4"/>
    <clipPath id="clip-path-29">
      <path id="Path_59834" data-name="Path 59834" d="M460.778,810.269a19.837,19.837,0,0,0,14.031,33.87h.006a19.847,19.847,0,1,0-14.037-33.87" transform="translate(-454.961 -804.444)" fill="none"/>
    </clipPath>
    <linearGradient id="linear-gradient-16" x1="-4.604" y1="2.261" x2="-4.593" y2="2.261" gradientUnits="objectBoundingBox">
      <stop offset="0" stop-color="#7fb538"/>
      <stop offset="1" stop-color="#c3e647"/>
    </linearGradient>
    <clipPath id="clip-path-30">
      <path id="Path_59835" data-name="Path 59835" d="M486.5,874.9c-8.851,7.756-23.472,7.746-32.248.081a1.364,1.364,0,0,0-1.974.176,45.4,45.4,0,0,0-9.081,23.2,1.378,1.378,0,0,0,1.364,1.532l50.83-.009a1.371,1.371,0,0,0,1.366-1.5c-.546-5.883-2.356-15.837-8.278-23.306a1.371,1.371,0,0,0-1.98-.175" transform="translate(-443.19 -874.561)" fill="none"/>
    </clipPath>
    <linearGradient id="linear-gradient-17" x1="-4.62" y1="1.661" x2="-4.61" y2="1.661" xlink:href="#linear-gradient-16"/>
    <clipPath id="clip-path-31">
      <path id="Path_59836" data-name="Path 59836" d="M543.414,836.883a.991.991,0,0,0-.991.991v8.5h-8.5a.991.991,0,0,0-.991.991v4.188a.991.991,0,0,0,.991.991h8.5v8.5a.991.991,0,0,0,.991.991H547.6a.991.991,0,0,0,.991-.991v-8.5h8.5a.991.991,0,0,0,.991-.991v-4.188a.991.991,0,0,0-.991-.991h-8.5v-8.5a.991.991,0,0,0-.991-.991Z" transform="translate(-532.934 -836.883)" fill="none"/>
    </clipPath>
    <linearGradient id="linear-gradient-18" x1="-8.638" y1="2.95" x2="-8.621" y2="2.95" xlink:href="#linear-gradient-16"/>
    <clipPath id="clip-path-32">
      <path id="Path_59837" data-name="Path 59837" d="M0,803.635a81.413,81.413,0,1,0,81.413-81.413A81.413,81.413,0,0,0,0,803.635" transform="translate(0 -722.222)" fill="none"/>
    </clipPath>
    <linearGradient id="linear-gradient-19" x1="0.146" y1="0.871" x2="0.149" y2="0.871" xlink:href="#linear-gradient-3"/>
    <clipPath id="clip-path-33">
      <path id="Path_59838" data-name="Path 59838" d="M99.667,810.269a19.836,19.836,0,0,0,14.03,33.87h.007a19.847,19.847,0,1,0-14.037-33.87" transform="translate(-93.849 -804.444)" fill="none"/>
    </clipPath>
    <linearGradient id="linear-gradient-20" x1="-0.833" y1="2.261" x2="-0.823" y2="2.261" xlink:href="#linear-gradient-4"/>
    <clipPath id="clip-path-34">
      <path id="Path_59839" data-name="Path 59839" d="M125.39,874.9c-8.851,7.756-23.472,7.746-32.248.081a1.364,1.364,0,0,0-1.974.176,45.394,45.394,0,0,0-9.081,23.2,1.378,1.378,0,0,0,1.365,1.532l50.83-.009a1.371,1.371,0,0,0,1.366-1.5c-.546-5.883-2.356-15.837-8.279-23.306a1.37,1.37,0,0,0-1.979-.175" transform="translate(-82.079 -874.561)" fill="none"/>
    </clipPath>
    <linearGradient id="linear-gradient-21" x1="-0.838" y1="1.661" x2="-0.828" y2="1.661" xlink:href="#linear-gradient-4"/>
    <clipPath id="clip-path-35">
      <path id="Path_59840" data-name="Path 59840" d="M182.3,836.883a.991.991,0,0,0-.991.991v8.5h-8.5a.99.99,0,0,0-.991.991v4.188a.99.99,0,0,0,.991.991h8.5v8.5a.991.991,0,0,0,.991.991h4.187a.991.991,0,0,0,.991-.991v-8.5h8.5a.991.991,0,0,0,.991-.991v-4.188a.991.991,0,0,0-.991-.991h-8.5v-8.5a.991.991,0,0,0-.991-.991Z" transform="translate(-171.824 -836.883)" fill="none"/>
    </clipPath>
    <linearGradient id="linear-gradient-22" x1="-2.686" y1="2.95" x2="-2.669" y2="2.95" xlink:href="#linear-gradient-4"/>
    <clipPath id="clip-path-36">
      <path id="Path_59841" data-name="Path 59841" d="M722.222,803.635a81.413,81.413,0,1,0,81.413-81.413,81.413,81.413,0,0,0-81.413,81.413" transform="translate(-722.222 -722.222)" fill="none"/>
    </clipPath>
    <linearGradient id="linear-gradient-23" x1="-1.692" y1="0.871" x2="-1.689" y2="0.871" xlink:href="#linear-gradient-3"/>
    <clipPath id="clip-path-37">
      <path id="Path_59842" data-name="Path 59842" d="M797.07,854.673a9.118,9.118,0,1,0,9.118-9.118,9.119,9.119,0,0,0-9.118,9.118" transform="translate(-797.07 -845.555)" fill="none"/>
    </clipPath>
    <linearGradient id="linear-gradient-24" x1="-17.969" y1="3.816" x2="-17.947" y2="3.816" xlink:href="#linear-gradient-4"/>
    <clipPath id="clip-path-38">
      <path id="Path_59843" data-name="Path 59843" d="M845.555,854.673a9.118,9.118,0,1,0,9.118-9.118,9.119,9.119,0,0,0-9.118,9.118" transform="translate(-845.555 -845.555)" fill="none"/>
    </clipPath>
    <linearGradient id="linear-gradient-25" x1="-19.071" y1="3.816" x2="-19.048" y2="3.816" xlink:href="#linear-gradient-4"/>
    <clipPath id="clip-path-39">
      <path id="Path_59844" data-name="Path 59844" d="M894.041,854.673a9.118,9.118,0,1,0,9.118-9.118,9.118,9.118,0,0,0-9.118,9.118" transform="translate(-894.041 -845.555)" fill="none"/>
    </clipPath>
    <linearGradient id="linear-gradient-26" x1="-20.173" y1="3.816" x2="-20.151" y2="3.816" xlink:href="#linear-gradient-4"/>
  </defs>
  <g id="Group_13650" data-name="Group 13650" transform="translate(0.141 -0.273)">
    <g id="Group_13649" data-name="Group 13649" clip-path="url(#clip-path)">
      <g id="Group_13592" data-name="Group 13592">
        <g id="Group_13591" data-name="Group 13591" clip-path="url(#clip-path)">
          <g id="Group_13566" data-name="Group 13566" transform="translate(4.689 4.103)" opacity="0.18" style="mix-blend-mode: multiply;isolation: isolate">
            <g id="Group_13565" data-name="Group 13565">
              <g id="Group_13564" data-name="Group 13564" clip-path="url(#clip-path-3)">
                <path id="Path_59810" data-name="Path 59810" d="M31.845,145.98a81.413,81.413,0,1,1,115.135,0,81.412,81.412,0,0,1-115.135,0" transform="translate(-8 -7)" fill="#333"/>
              </g>
            </g>
          </g>
          <g id="Group_13569" data-name="Group 13569" transform="translate(216.362 4.103)" opacity="0.18" style="mix-blend-mode: multiply;isolation: isolate">
            <g id="Group_13568" data-name="Group 13568">
              <g id="Group_13567" data-name="Group 13567" clip-path="url(#clip-path-3)">
                <path id="Path_59811" data-name="Path 59811" d="M531.936,88.413A81.413,81.413,0,1,1,450.524,7a81.413,81.413,0,0,1,81.413,81.413" transform="translate(-369.111 -7)" fill="#333"/>
              </g>
            </g>
          </g>
          <g id="Group_13572" data-name="Group 13572" transform="translate(428.034 4.103)" opacity="0.18" style="mix-blend-mode: multiply;isolation: isolate">
            <g id="Group_13571" data-name="Group 13571">
              <g id="Group_13570" data-name="Group 13570" clip-path="url(#clip-path-3)">
                <path id="Path_59812" data-name="Path 59812" d="M893.047,88.413A81.413,81.413,0,1,1,811.635,7a81.413,81.413,0,0,1,81.413,81.413" transform="translate(-730.222 -7)" fill="#333"/>
              </g>
            </g>
          </g>
          <g id="Group_13575" data-name="Group 13575" transform="translate(4.689 215.776)" opacity="0.18" style="mix-blend-mode: multiply;isolation: isolate">
            <g id="Group_13574" data-name="Group 13574">
              <g id="Group_13573" data-name="Group 13573" clip-path="url(#clip-path-3)">
                <path id="Path_59813" data-name="Path 59813" d="M170.825,449.524a81.413,81.413,0,1,1-81.413-81.413,81.413,81.413,0,0,1,81.413,81.413" transform="translate(-8 -368.111)" fill="#333"/>
              </g>
            </g>
          </g>
          <g id="Group_13578" data-name="Group 13578" transform="translate(216.362 215.776)" opacity="0.18" style="mix-blend-mode: multiply;isolation: isolate">
            <g id="Group_13577" data-name="Group 13577">
              <g id="Group_13576" data-name="Group 13576" clip-path="url(#clip-path-3)">
                <path id="Path_59814" data-name="Path 59814" d="M531.936,449.524a81.413,81.413,0,1,1-81.413-81.413,81.413,81.413,0,0,1,81.413,81.413" transform="translate(-369.111 -368.111)" fill="#333"/>
              </g>
            </g>
          </g>
          <g id="Group_13581" data-name="Group 13581" transform="translate(428.034 215.776)" opacity="0.18" style="mix-blend-mode: multiply;isolation: isolate">
            <g id="Group_13580" data-name="Group 13580">
              <g id="Group_13579" data-name="Group 13579" clip-path="url(#clip-path-3)">
                <path id="Path_59815" data-name="Path 59815" d="M893.047,449.524a81.413,81.413,0,1,1-81.413-81.413,81.413,81.413,0,0,1,81.413,81.413" transform="translate(-730.222 -368.111)" fill="#333"/>
              </g>
            </g>
          </g>
          <g id="Group_13584" data-name="Group 13584" transform="translate(216.362 427.448)" opacity="0.18" style="mix-blend-mode: multiply;isolation: isolate">
            <g id="Group_13583" data-name="Group 13583">
              <g id="Group_13582" data-name="Group 13582" clip-path="url(#clip-path-3)">
                <path id="Path_59816" data-name="Path 59816" d="M531.936,810.635a81.413,81.413,0,1,1-81.413-81.413,81.413,81.413,0,0,1,81.413,81.413" transform="translate(-369.111 -729.222)" fill="#333"/>
              </g>
            </g>
          </g>
          <g id="Group_13587" data-name="Group 13587" transform="translate(4.689 427.448)" opacity="0.18" style="mix-blend-mode: multiply;isolation: isolate">
            <g id="Group_13586" data-name="Group 13586">
              <g id="Group_13585" data-name="Group 13585" clip-path="url(#clip-path-3)">
                <path id="Path_59817" data-name="Path 59817" d="M170.825,810.635a81.413,81.413,0,1,1-81.413-81.413,81.413,81.413,0,0,1,81.413,81.413" transform="translate(-8 -729.222)" fill="#333"/>
              </g>
            </g>
          </g>
          <g id="Group_13590" data-name="Group 13590" transform="translate(428.034 427.448)" opacity="0.18" style="mix-blend-mode: multiply;isolation: isolate">
            <g id="Group_13589" data-name="Group 13589">
              <g id="Group_13588" data-name="Group 13588" clip-path="url(#clip-path-3)">
                <path id="Path_59818" data-name="Path 59818" d="M893.047,810.635a81.413,81.413,0,1,1-81.413-81.413,81.413,81.413,0,0,1,81.413,81.413" transform="translate(-730.222 -729.222)" fill="#333"/>
              </g>
            </g>
          </g>
        </g>
      </g>
      <g id="Group_13594" data-name="Group 13594">
        <g id="Group_13593" data-name="Group 13593" clip-path="url(#clip-path-12)">
          <rect id="Rectangle_1806" data-name="Rectangle 1806" width="241.51" height="241.51" transform="translate(-85.387 85.387) rotate(-45)" fill="url(#linear-gradient)"/>
        </g>
      </g>
      <g id="Group_13596" data-name="Group 13596">
        <g id="Group_13595" data-name="Group 13595" clip-path="url(#clip-path)">
          <path id="Path_59820" data-name="Path 59820" d="M149.924,125.12a8.944,8.944,0,0,1-8.719,9.158l-5.187.131a8.947,8.947,0,0,1-9.161-8.719l-.083-3.4h0a8.929,8.929,0,0,1,1.166-4.646l.359-.628a1.547,1.547,0,0,0-.814-2.22l-.681-.248a45.716,45.716,0,0,0-32.8.576l-.6.243a1.545,1.545,0,0,0-.819,2.088l.27.579a8.892,8.892,0,0,1,.831,3.55l.084,3.4a8.936,8.936,0,0,1-8.716,9.16l-5.189.129a8.953,8.953,0,0,1-9.16-8.716l-.084-3.4A9.084,9.084,0,0,1,71,119.331a13.222,13.222,0,0,1,4.706-6.763,57.282,57.282,0,0,1,68.632-1.7c4.322,3.081,5.584,7.163,5.378,9.154a1.561,1.561,0,0,0-.007.2l0,.157a1.652,1.652,0,0,0,.018.2,8.673,8.673,0,0,1,.1,1.147Z" transform="translate(-29.225 -41.498)" fill="#fff"/>
        </g>
      </g>
      <g id="Group_13598" data-name="Group 13598" transform="translate(211.672 0)">
        <g id="Group_13597" data-name="Group 13597" clip-path="url(#clip-path-14)">
          <rect id="Rectangle_1808" data-name="Rectangle 1808" width="230.269" height="230.27" transform="translate(-81.413 81.413) rotate(-45)" fill="url(#linear-gradient-2)"/>
        </g>
      </g>
      <g id="Group_13600" data-name="Group 13600">
        <g id="Group_13599" data-name="Group 13599" clip-path="url(#clip-path)">
          <path id="Path_59821" data-name="Path 59821" d="M450.792,86.872a8.943,8.943,0,0,1,12.641-.31l3.76,3.575a8.946,8.946,0,0,1,.314,12.643l-2.344,2.461h0a8.927,8.927,0,0,1-4.11,2.461l-.7.19a1.547,1.547,0,0,0-.995,2.145l.306.658a45.71,45.71,0,0,0,23.6,22.784l.594.251a1.544,1.544,0,0,0,2.055-.9l.219-.6a8.9,8.9,0,0,1,1.923-3.1l2.344-2.464a8.936,8.936,0,0,1,12.64-.313l3.761,3.578a8.952,8.952,0,0,1,.314,12.64l-2.346,2.466a9.088,9.088,0,0,1-2.266,1.727,13.219,13.219,0,0,1-8.11,1.455A57.283,57.283,0,0,1,444.658,100.9c-.877-5.235,1.117-9.014,2.671-10.276a1.475,1.475,0,0,0,.144-.134l.109-.114a1.726,1.726,0,0,0,.13-.155,8.736,8.736,0,0,1,.737-.883Z" transform="translate(-183.924 -34.802)" fill="#fff"/>
        </g>
      </g>
      <g id="Group_13602" data-name="Group 13602" transform="translate(389.623 -33.722)">
        <g id="Group_13601" data-name="Group 13601" clip-path="url(#clip-path-16)">
          <rect id="Rectangle_1810" data-name="Rectangle 1810" width="230.269" height="230.27" transform="translate(-47.69 115.135) rotate(-45)" fill="url(#linear-gradient-3)"/>
        </g>
      </g>
      <g id="Group_13604" data-name="Group 13604" transform="translate(469.725 59.431)">
        <g id="Group_13603" data-name="Group 13603" clip-path="url(#clip-path-17)">
          <rect id="Rectangle_1811" data-name="Rectangle 1811" width="80.63" height="80.63" transform="matrix(0.707, -0.707, 0.707, 0.707, -21.982, 21.982)" fill="url(#linear-gradient-4)"/>
        </g>
      </g>
      <g id="Group_13606" data-name="Group 13606" transform="translate(0 211.672)">
        <g id="Group_13605" data-name="Group 13605" clip-path="url(#clip-path-18)">
          <rect id="Rectangle_1812" data-name="Rectangle 1812" width="230.27" height="230.27" transform="translate(-81.413 81.413) rotate(-45)" fill="url(#linear-gradient-5)"/>
        </g>
      </g>
      <g id="Group_13608" data-name="Group 13608" transform="translate(46.332 272.109)">
        <g id="Group_13607" data-name="Group 13607" clip-path="url(#clip-path-19)">
          <rect id="Rectangle_1813" data-name="Rectangle 1813" width="61.775" height="61.775" transform="translate(-21.41 21.41) rotate(-45)" fill="url(#linear-gradient-6)"/>
        </g>
      </g>
      <g id="Group_13610" data-name="Group 13610" transform="translate(45.468 257.05)">
        <g id="Group_13609" data-name="Group 13609" clip-path="url(#clip-path-20)">
          <rect id="Rectangle_1814" data-name="Rectangle 1814" width="99.157" height="99.157" transform="translate(-34.65 34.65) rotate(-45)" fill="url(#linear-gradient-7)"/>
        </g>
      </g>
      <g id="Group_13612" data-name="Group 13612" transform="translate(211.672 211.672)">
        <g id="Group_13611" data-name="Group 13611" clip-path="url(#clip-path-21)">
          <rect id="Rectangle_1815" data-name="Rectangle 1815" width="230.269" height="230.27" transform="translate(-81.413 81.413) rotate(-45)" fill="url(#linear-gradient-8)"/>
        </g>
      </g>
      <g id="Group_13614" data-name="Group 13614" transform="translate(277.003 254.984)">
        <g id="Group_13613" data-name="Group 13613" clip-path="url(#clip-path-22)">
          <rect id="Rectangle_1816" data-name="Rectangle 1816" width="60.248" height="60.248" transform="translate(-26.52 26.52) rotate(-45)" fill="url(#linear-gradient-9)"/>
        </g>
      </g>
      <g id="Group_13616" data-name="Group 13616" transform="translate(265.238 295.532)">
        <g id="Group_13615" data-name="Group 13615" clip-path="url(#clip-path-23)">
          <rect id="Rectangle_1817" data-name="Rectangle 1817" width="64.592" height="64.592" transform="translate(-17.827 17.827) rotate(-45)" fill="url(#linear-gradient-10)"/>
        </g>
      </g>
      <g id="Group_13618" data-name="Group 13618" transform="translate(423.345 211.672)">
        <g id="Group_13617" data-name="Group 13617" clip-path="url(#clip-path-24)">
          <rect id="Rectangle_1818" data-name="Rectangle 1818" width="230.269" height="230.269" transform="translate(-81.413 81.413) rotate(-45)" fill="url(#linear-gradient-11)"/>
        </g>
      </g>
      <g id="Group_13620" data-name="Group 13620" transform="translate(472.713 254.984)">
        <g id="Group_13619" data-name="Group 13619" clip-path="url(#clip-path-25)">
          <rect id="Rectangle_1819" data-name="Rectangle 1819" width="99.617" height="99.616" transform="translate(-35.79 35.79) rotate(-45)" fill="url(#linear-gradient-12)"/>
        </g>
      </g>
      <g id="Group_13622" data-name="Group 13622" transform="translate(477.172 295.783)">
        <g id="Group_13621" data-name="Group 13621" clip-path="url(#clip-path-26)">
          <rect id="Rectangle_1820" data-name="Rectangle 1820" width="55.299" height="55.299" transform="translate(-17.701 17.701) rotate(-45)" fill="url(#linear-gradient-13)"/>
        </g>
      </g>
      <g id="Group_13624" data-name="Group 13624" transform="translate(488.936 286.099)">
        <g id="Group_13623" data-name="Group 13623" clip-path="url(#clip-path-27)">
          <rect id="Rectangle_1821" data-name="Rectangle 1821" width="30.465" height="30.465" transform="translate(-10.963 10.963) rotate(-45)" fill="url(#linear-gradient-14)"/>
        </g>
      </g>
      <g id="Group_13626" data-name="Group 13626" transform="translate(211.672 423.345)">
        <g id="Group_13625" data-name="Group 13625" clip-path="url(#clip-path-28)">
          <rect id="Rectangle_1822" data-name="Rectangle 1822" width="230.27" height="230.27" transform="translate(-81.413 81.413) rotate(-45)" fill="url(#linear-gradient-15)"/>
        </g>
      </g>
      <g id="Group_13628" data-name="Group 13628" transform="translate(266.685 471.541)">
        <g id="Group_13627" data-name="Group 13627" clip-path="url(#clip-path-29)">
          <rect id="Rectangle_1823" data-name="Rectangle 1823" width="56.141" height="56.141" transform="translate(-19.85 19.847) rotate(-45)" fill="url(#linear-gradient-16)"/>
        </g>
      </g>
      <g id="Group_13630" data-name="Group 13630" transform="translate(259.785 512.641)">
        <g id="Group_13629" data-name="Group 13629" clip-path="url(#clip-path-30)">
          <rect id="Rectangle_1824" data-name="Rectangle 1824" width="55.967" height="55.967" transform="translate(-12.793 12.62) rotate(-45)" fill="url(#linear-gradient-17)"/>
        </g>
      </g>
      <g id="Group_13632" data-name="Group 13632" transform="translate(312.39 490.556)">
        <g id="Group_13631" data-name="Group 13631" clip-path="url(#clip-path-31)">
          <rect id="Rectangle_1825" data-name="Rectangle 1825" width="35.564" height="35.564" transform="translate(-12.574 12.574) rotate(-45)" fill="url(#linear-gradient-18)"/>
        </g>
      </g>
      <g id="Group_13634" data-name="Group 13634" transform="translate(0 423.345)">
        <g id="Group_13633" data-name="Group 13633" clip-path="url(#clip-path-32)">
          <rect id="Rectangle_1826" data-name="Rectangle 1826" width="230.27" height="230.27" transform="translate(-81.413 81.413) rotate(-45)" fill="url(#linear-gradient-19)"/>
        </g>
      </g>
      <g id="Group_13636" data-name="Group 13636" transform="translate(55.011 471.541)">
        <g id="Group_13635" data-name="Group 13635" clip-path="url(#clip-path-33)">
          <rect id="Rectangle_1827" data-name="Rectangle 1827" width="56.141" height="56.141" transform="translate(-19.849 19.847) rotate(-45)" fill="url(#linear-gradient-20)"/>
        </g>
      </g>
      <g id="Group_13638" data-name="Group 13638" transform="translate(48.112 512.641)">
        <g id="Group_13637" data-name="Group 13637" clip-path="url(#clip-path-34)">
          <rect id="Rectangle_1828" data-name="Rectangle 1828" width="55.967" height="55.967" transform="translate(-12.793 12.62) rotate(-45)" fill="url(#linear-gradient-21)"/>
        </g>
      </g>
      <g id="Group_13640" data-name="Group 13640" transform="translate(100.718 490.556)">
        <g id="Group_13639" data-name="Group 13639" clip-path="url(#clip-path-35)">
          <rect id="Rectangle_1829" data-name="Rectangle 1829" width="35.564" height="35.564" transform="translate(-12.574 12.574) rotate(-45)" fill="url(#linear-gradient-22)"/>
        </g>
      </g>
      <g id="Group_13642" data-name="Group 13642" transform="translate(423.345 423.345)">
        <g id="Group_13641" data-name="Group 13641" clip-path="url(#clip-path-36)">
          <rect id="Rectangle_1830" data-name="Rectangle 1830" width="230.269" height="230.269" transform="translate(-81.413 81.413) rotate(-45)" fill="url(#linear-gradient-23)"/>
        </g>
      </g>
      <g id="Group_13644" data-name="Group 13644" transform="translate(467.219 495.639)">
        <g id="Group_13643" data-name="Group 13643" clip-path="url(#clip-path-37)">
          <rect id="Rectangle_1831" data-name="Rectangle 1831" width="25.791" height="25.791" transform="translate(-9.118 9.118) rotate(-45)" fill="url(#linear-gradient-24)"/>
        </g>
      </g>
      <g id="Group_13646" data-name="Group 13646" transform="translate(495.639 495.639)">
        <g id="Group_13645" data-name="Group 13645" clip-path="url(#clip-path-38)">
          <rect id="Rectangle_1832" data-name="Rectangle 1832" width="25.791" height="25.791" transform="translate(-9.118 9.118) rotate(-45)" fill="url(#linear-gradient-25)"/>
        </g>
      </g>
      <g id="Group_13648" data-name="Group 13648" transform="translate(524.06 495.639)">
        <g id="Group_13647" data-name="Group 13647" clip-path="url(#clip-path-39)">
          <rect id="Rectangle_1833" data-name="Rectangle 1833" width="25.791" height="25.791" transform="translate(-9.118 9.118) rotate(-45)" fill="url(#linear-gradient-26)"/>
        </g>
      </g>
    </g>
  </g>
</svg>
