<svg xmlns="http://www.w3.org/2000/svg" xmlns:xlink="http://www.w3.org/1999/xlink" width="556.045" height="766.425" viewBox="0 0 556.045 766.425">
  <defs>
    <linearGradient id="linear-gradient" x1="0.552" y1="1.481" x2="0.468" y2="-0.113" gradientUnits="objectBoundingBox">
      <stop offset="0" stop-color="#0f003b" stop-opacity="0"/>
      <stop offset="1"/>
    </linearGradient>
    <linearGradient id="linear-gradient-2" x1="0.138" y1="0.703" x2="1.264" y2="-0.976" gradientUnits="objectBoundingBox">
      <stop offset="0" stop-color="#7100e4"/>
      <stop offset="1" stop-color="#00faf4"/>
    </linearGradient>
    <linearGradient id="linear-gradient-3" x1="-2.98" y1="2.635" x2="0.937" y2="0.232" xlink:href="#linear-gradient-2"/>
    <linearGradient id="linear-gradient-4" y1="0.5" x2="1" y2="0.5" gradientUnits="objectBoundingBox">
      <stop offset="0" stop-color="#00faf4"/>
      <stop offset="1" stop-color="#7100e4"/>
    </linearGradient>
    <linearGradient id="linear-gradient-6" x1="0.529" y1="1.737" x2="0.479" y2="-0.363" gradientUnits="objectBoundingBox">
      <stop offset="0" stop-color="#ff3cc3"/>
      <stop offset="1" stop-color="#61fffb"/>
    </linearGradient>
    <linearGradient id="linear-gradient-7" x1="0.662" y1="2.778" x2="0.387" y2="-1.093" xlink:href="#linear-gradient-6"/>
    <linearGradient id="linear-gradient-8" x1="0.518" y1="1.249" x2="0.488" y2="-0.022" xlink:href="#linear-gradient-6"/>
  </defs>
  <g id="CENTER_OF_THE_BANNER" data-name="CENTER OF THE BANNER" transform="translate(-30.458 -65.697)">
    <g id="Сгруппировать_13323" data-name="Сгруппировать 13323" transform="translate(31.6 512.961)" opacity="0.58">
      <path id="Контур_42094" data-name="Контур 42094" d="M578.142,356.7a19.073,19.073,0,0,1-1.69,1.508c-2.314,1.846-5.483,3.43-8.342,5.173l-17.46,10.133L480.8,414.073q-69.967,40.537-139.439,81.285l-69.641,40.692L236.873,556.4c-.833.5-1.664.988-2.548,1.455-12.265,5.615-29.96,5.458-41.992-.518L52.815,476.44l-8.757-5.094c-.831-.493-1.662-.962-2.493-1.455-.47-.26-.937-.52-1.4-.806a40.283,40.283,0,0,1-4.47-2.884c-6.211-5.951-6.365-13.409-.493-19.413a79.229,79.229,0,0,1,8.782-5.481L61.5,431.172l1.844-1.066,67.926-39.55L270.68,309.274l69.848-40.591,34.951-20.269c1.351-.806,2.728-1.558,4.157-2.286,11.045-4.392,25.727-4.471,36.926-.182.755.338,1.455.7,2.157,1.091L559.171,328.4l8.757,5.094c.833.493,1.664.988,2.521,1.48.5.26.988.546,1.483.831a38.716,38.716,0,0,1,4.417,2.859,17.735,17.735,0,0,1,1.637,1.43C582.377,345.316,582.428,351.474,578.142,356.7Z" transform="translate(-30.91 -242.782)" fill="url(#linear-gradient)"/>
    </g>
    <g id="Сгруппировать_13324" data-name="Сгруппировать 13324" transform="translate(31.463 513.181)">
      <path id="Контур_42095" data-name="Контур 42095" d="M243.662,393.338,437.831,280.487l-.053,20.979L243.584,414.317c-14.619,8.5-38.482,8.5-53.207-.025L41.951,328.624c-7.413-4.273-11.1-9.911-11.1-15.548l.053-20.978c0,5.637,3.705,11.249,11.121,15.548l148.4,85.667C205.152,401.832,229.015,401.832,243.662,393.338Z" transform="translate(-30.856 -185.475)" fill="url(#linear-gradient-2)"/>
      <path id="Контур_42096" data-name="Контур 42096" d="M321.332,242.869l-.05,20.981c-.025,5.559-3.655,11.093-10.941,15.316l-106.08,61.65.05-20.978,106.082-61.652C317.677,253.964,321.306,248.4,321.332,242.869Z" transform="translate(233.707 -242.869)" fill="url(#linear-gradient-3)"/>
    </g>
    <g id="Сгруппировать_13327" data-name="Сгруппировать 13327" transform="translate(438.385 590.15)">
      <g id="Сгруппировать_13325" data-name="Сгруппировать 13325" transform="translate(0 3.064)">
        <path id="Контур_42097" data-name="Контур 42097" d="M226.386,274.556l-.078,21a2.483,2.483,0,0,1-1.44,2.008l-24.12,14a7.658,7.658,0,0,1-6.9.028l-1.879-1.084.053-20.978,1.879,1.081a7.661,7.661,0,0,0,6.9-.025l24.146-14.03a3.934,3.934,0,0,0,.619-.462A2.03,2.03,0,0,0,226.386,274.556Z" transform="translate(-191.968 -274.556)" fill="#009af9"/>
      </g>
      <g id="Сгруппировать_13326" data-name="Сгруппировать 13326" transform="translate(0.053)">
        <path id="Контур_42098" data-name="Контур 42098" d="M226.354,276.407a2.03,2.03,0,0,1-.823,1.543,3.944,3.944,0,0,1-.619.462l-24.146,14.03a7.661,7.661,0,0,1-6.9.025l-1.879-1.081,31.043-18.044,1.879,1.081A2.417,2.417,0,0,1,226.354,276.407Z" transform="translate(-191.989 -273.343)" fill="#009af9"/>
      </g>
    </g>
    <g id="Сгруппировать_13328" data-name="Сгруппировать 13328" transform="translate(31.529 405.596)">
      <path id="Контур_42099" data-name="Контур 42099" d="M574.76,292.338,426.337,206.643c-14.7-8.494-38.588-8.494-53.234,0l-39.179,22.782L253.147,276.35,41.783,399.19c-14.621,8.494-14.518,22.342.207,30.839l148.4,85.667c14.725,8.519,38.588,8.519,53.234.025L437.791,402.87l31.043-18.044,106.082-61.652C589.564,314.655,589.485,300.832,574.76,292.338Zm3.092,23.6a19.139,19.139,0,0,1-1.674,1.5c-2.291,1.826-5.43,3.4-8.262,5.122l-17.3,10.04-69.194,40.181q-69.308,40.155-138.128,80.52l-68.987,40.31-34.521,20.158c-.823.487-1.647.977-2.521,1.44-12.151,5.562-29.682,5.408-41.6-.515L57.46,434.558l-8.676-5.044c-.823-.49-1.647-.952-2.47-1.442-.465-.258-.927-.515-1.392-.8a40.34,40.34,0,0,1-4.428-2.857c-6.15-5.895-6.307-13.283-.487-19.231a78.538,78.538,0,0,1,8.7-5.43l17.349-10.04,1.829-1.056,67.287-39.179,138.1-80.52,69.194-40.207,34.622-20.079c1.336-.8,2.7-1.543,4.117-2.266,10.941-4.349,25.484-4.428,36.58-.179.745.333,1.442.694,2.137,1.081l139.134,80.6,8.673,5.044c.823.49,1.647.977,2.5,1.467.487.258.977.54,1.468.823a37.968,37.968,0,0,1,4.375,2.831,17.419,17.419,0,0,1,1.621,1.417C582.047,304.666,582.1,310.768,577.852,315.941Z" transform="translate(-30.882 -200.273)" fill="url(#linear-gradient-4)"/>
    </g>
    <g id="Сгруппировать_13329" data-name="Сгруппировать 13329" transform="translate(30.458 407.035)" opacity="0.58">
      <path id="Контур_42100" data-name="Контур 42100" d="M577.69,314.758a19.073,19.073,0,0,1-1.69,1.505c-2.314,1.846-5.483,3.432-8.342,5.173L550.2,331.569l-69.848,40.565q-69.967,40.538-139.439,81.282l-69.641,40.694-34.847,20.345c-.831.5-1.662.988-2.546,1.457-12.265,5.612-29.962,5.455-41.992-.52L52.364,434.5,43.607,429.4c-.831-.493-1.664-.96-2.5-1.455-.467-.26-.935-.52-1.4-.806a40.288,40.288,0,0,1-4.47-2.884c-6.211-5.95-6.367-13.409-.493-19.41a79.044,79.044,0,0,1,8.782-5.483l17.516-10.136,1.844-1.063,67.926-39.55,139.414-81.285,69.848-40.588,34.951-20.269c1.351-.806,2.728-1.561,4.157-2.288,11.045-4.39,25.727-4.468,36.926-.182.753.338,1.455.7,2.157,1.091L558.72,286.46l8.757,5.092c.831.5,1.664.988,2.521,1.483.495.258.988.546,1.483.831a38.041,38.041,0,0,1,4.417,2.859,18.4,18.4,0,0,1,1.637,1.427C581.923,303.375,581.976,309.535,577.69,314.758Z" transform="translate(-30.458 -200.843)" fill="url(#linear-gradient)"/>
    </g>
    <g id="Сгруппировать_13395" data-name="Сгруппировать 13395" transform="translate(142.857 467.913)" style="mix-blend-mode: soft-light;isolation: isolate">
      <g id="Сгруппировать_13330" data-name="Сгруппировать 13330" transform="translate(80.233 71.684)">
        <path id="Контур_42101" data-name="Контур 42101" d="M113.35,253.9a45.631,45.631,0,0,0-5.317,7.153.883.883,0,0,1-.851.237l-.24-.1c-.187-.109-.275-.258-.172-.4a45.426,45.426,0,0,1,5.382-7.251.949.949,0,0,1,.9-.169.875.875,0,0,1,.169.071C113.433,253.564,113.486,253.753,113.35,253.9Z" transform="translate(-106.727 -253.328)" fill="#fff"/>
      </g>
      <g id="Сгруппировать_13333" data-name="Сгруппировать 13333" transform="translate(96.604 43.629)" style="isolation: isolate">
        <g id="Сгруппировать_13331" data-name="Сгруппировать 13331" transform="translate(65.47)">
          <path id="Контур_42102" data-name="Контур 42102" d="M154.006,242.971c-.051.207-.356.366-.732.346-4.453-.288-8.974-.376-13.442-.278l-.5-.109-.207-.255c0-.217.27-.4.647-.417,4.536-.1,9.125-.01,13.629.288a.888.888,0,0,1,.407.109A.323.323,0,0,1,154.006,242.971Z" transform="translate(-139.13 -242.22)" fill="#fff"/>
        </g>
        <g id="Сгруппировать_13332" data-name="Сгруппировать 13332" transform="translate(0 12.336)">
          <path id="Контур_42103" data-name="Контур 42103" d="M232.355,258.945c27.348,15.788,27.492,41.477.323,57.268s-71.518,15.788-98.866,0-27.49-41.477-.321-57.268S205.009,243.157,232.355,258.945Zm-94.767,55.073c25.242,14.573,66.214,14.573,91.292,0s24.944-38.3-.3-52.881c-25.26-14.581-66.214-14.571-91.292,0s-24.962,38.295.3,52.878" transform="translate(-113.208 -247.104)" fill="url(#linear-gradient-6)"/>
        </g>
      </g>
      <g id="Сгруппировать_13334" data-name="Сгруппировать 13334" transform="translate(144.663 83.761)">
        <ellipse id="Эллипс_1259" data-name="Эллипс 1259" cx="12.715" cy="21.952" rx="12.715" ry="21.952" transform="matrix(0.003, -1, 1, 0.003, 0, 25.43)" fill="url(#linear-gradient-7)"/>
      </g>
      <g id="Сгруппировать_13335" data-name="Сгруппировать 13335" transform="translate(220.065 133.129)">
        <path id="Контур_42104" data-name="Контур 42104" d="M173.718,277.771c.273.157.275.394,0,.553l-.255.146a94.742,94.742,0,0,1-10.307,5.157,1.057,1.057,0,0,1-.869-.028l-.053-.05c-.24-.177-.172-.414.116-.543a91.993,91.993,0,0,0,10.156-5.089l.255-.146A1.043,1.043,0,0,1,173.718,277.771Z" transform="translate(-162.09 -277.655)" fill="#fff"/>
      </g>
      <g id="Сгруппировать_13336" data-name="Сгруппировать 13336" transform="translate(239.321 120.515)">
        <path id="Контур_42105" data-name="Контур 42105" d="M169.9,279.975a.282.282,0,0,1-.056-.505,56.169,56.169,0,0,0,7.077-6.61,1.014,1.014,0,0,1,.919-.157.736.736,0,0,1,.149.066c.21.119.265.3.111.457a59.261,59.261,0,0,1-7.178,6.708,1.006,1.006,0,0,1-.922.081Z" transform="translate(-169.714 -272.661)" fill="#fff"/>
      </g>
      <g id="Сгруппировать_13337" data-name="Сгруппировать 13337" transform="translate(196.233 142.581)">
        <path id="Контур_42106" data-name="Контур 42106" d="M166.318,281.615c.172.177.035.414-.27.513-4,1.235-8.209,2.293-12.5,3.162a1.039,1.039,0,0,1-.7-.088l-.154-.149c-.121-.207.066-.414.407-.5,4.226-.849,8.365-1.907,12.315-3.112a1.011,1.011,0,0,1,.773.063A.5.5,0,0,1,166.318,281.615Z" transform="translate(-152.654 -281.398)" fill="#fff"/>
      </g>
      <g id="Сгруппировать_13338" data-name="Сгруппировать 13338" transform="translate(251.791 105.727)">
        <path id="Контур_42107" data-name="Контур 42107" d="M174.845,275.055c-.187-.109-.24-.255-.154-.4a36.784,36.784,0,0,0,3.369-7.529c.048-.207.407-.356.765-.306a.936.936,0,0,1,.366.109.3.3,0,0,1,.182.346,37,37,0,0,1-3.42,7.638.865.865,0,0,1-.851.237Z" transform="translate(-174.651 -266.806)" fill="#fff"/>
      </g>
      <g id="Сгруппировать_13339" data-name="Сгруппировать 13339" transform="translate(169.692 147.75)">
        <path id="Контур_42108" data-name="Контур 42108" d="M156.947,283.759c.053.207-.167.414-.543.455-4.45.483-9.019.781-13.555.879l-.5-.109-.207-.258c0-.217.27-.394.664-.4,4.468-.1,8.951-.386,13.333-.871a1.042,1.042,0,0,1,.614.111A.416.416,0,0,1,156.947,283.759Z" transform="translate(-142.146 -283.444)" fill="#fff"/>
      </g>
      <g id="Сгруппировать_13340" data-name="Сгруппировать 13340" transform="translate(256.009 90.084)">
        <path id="Контур_42109" data-name="Контур 42109" d="M177.568,269.231l-.462-.109-.189-.288a30.717,30.717,0,0,0-.589-7.787c-.053-.207.22-.4.578-.434a1.039,1.039,0,0,1,.553.116.318.318,0,0,1,.182.23,30.863,30.863,0,0,1,.606,7.9C178.25,269.072,177.927,269.239,177.568,269.231Z" transform="translate(-176.321 -260.612)" fill="#fff"/>
      </g>
      <g id="Сгруппировать_13341" data-name="Сгруппировать 13341" transform="translate(142.867 146.888)">
        <path id="Контур_42110" data-name="Контур 42110" d="M145.967,284.666c.139.081.215.2.187.313-.033.217-.356.366-.732.346-4.521-.285-9.027-.78-13.414-1.462l-.308-.1-.174-.374a.833.833,0,0,1,.818-.278c4.337.672,8.757,1.157,13.212,1.442A.976.976,0,0,1,145.967,284.666Z" transform="translate(-131.525 -283.103)" fill="#fff"/>
      </g>
      <g id="Сгруппировать_13342" data-name="Сгруппировать 13342" transform="translate(118.061 140.649)">
        <path id="Контур_42111" data-name="Контур 42111" d="M134.826,284.4c.192.111.265.283.159.437a.885.885,0,0,1-.887.2,123.807,123.807,0,0,1-12.08-3.688l-.119-.048c-.225-.129-.258-.326-.088-.485a.956.956,0,0,1,.919-.119,121.749,121.749,0,0,0,11.909,3.627A.847.847,0,0,1,134.826,284.4Z" transform="translate(-121.704 -280.633)" fill="#fff"/>
      </g>
      <g id="Сгруппировать_13343" data-name="Сгруппировать 13343" transform="translate(97.517 130.452)">
        <path id="Контур_42112" data-name="Контур 42112" d="M124.332,282.249c.227.134.268.366.038.518a.984.984,0,0,1-.937.048c-1.745-.869-3.455-1.778-5.1-2.725-1.591-.919-3.15-1.879-4.6-2.857-.24-.157-.207-.414.083-.543a1.083,1.083,0,0,1,.912.013l.025.018c1.457.977,3,1.935,4.6,2.859s3.261,1.813,4.953,2.654Z" transform="translate(-113.57 -276.596)" fill="#fff"/>
      </g>
      <g id="Сгруппировать_13344" data-name="Сгруппировать 13344" transform="translate(83.025 117.214)">
        <path id="Контур_42113" data-name="Контур 42113" d="M115.452,278.471c.207.179.106.417-.2.536a1.06,1.06,0,0,1-.836-.05l-.086-.068a52.737,52.737,0,0,1-6.435-6.986c-.154-.207,0-.435.338-.513a1.032,1.032,0,0,1,.748.083.578.578,0,0,1,.141.114A51.524,51.524,0,0,0,115.452,278.471Z" transform="translate(-107.832 -271.354)" fill="#fff"/>
      </g>
      <g id="Сгруппировать_13345" data-name="Сгруппировать 13345" transform="translate(75.932 102.098)">
        <path id="Контур_42114" data-name="Контур 42114" d="M108.912,273.375c.1.2-.119.407-.475.475l-.649-.1-.172-.179a34.112,34.112,0,0,1-2.586-7.774c-.051-.207.22-.407.6-.424a.947.947,0,0,1,.54.106.36.36,0,0,1,.194.237A33.357,33.357,0,0,0,108.912,273.375Z" transform="translate(-105.024 -265.369)" fill="#fff"/>
      </g>
      <g id="Сгруппировать_13346" data-name="Сгруппировать 13346" transform="translate(75.365 86.464)">
        <path id="Контур_42115" data-name="Контур 42115" d="M107.572,259.631a31.222,31.222,0,0,0-1.425,7.746c-.015.207-.321.384-.715.376l-.445-.119-.189-.288a32.186,32.186,0,0,1,1.457-7.845c.068-.217.409-.356.783-.316a.86.86,0,0,1,.349.106C107.542,259.378,107.613,259.507,107.572,259.631Z" transform="translate(-104.799 -259.179)" fill="#fff"/>
      </g>
      <g id="Сгруппировать_13347" data-name="Сгруппировать 13347" transform="translate(92.755 59.089)">
        <path id="Контур_42116" data-name="Контур 42116" d="M121.612,249a76.752,76.752,0,0,0-8.716,5.918,1.093,1.093,0,0,1-.955.081l-.068-.04c-.222-.129-.258-.346-.056-.5a75.584,75.584,0,0,1,8.853-6,1.007,1.007,0,0,1,.922,0C121.867,248.612,121.867,248.846,121.612,249Z" transform="translate(-111.684 -248.341)" fill="#fff"/>
      </g>
      <g id="Сгруппировать_13348" data-name="Сгруппировать 13348" transform="translate(213.742 51.587)">
        <path id="Контур_42117" data-name="Контур 42117" d="M159.8,246.038c-.222-.129-.29-.326-.121-.485a1.048,1.048,0,0,1,.937-.129,109.92,109.92,0,0,1,11.012,4.683l.033.02c.245.139.283.374.038.533a1,1,0,0,1-.922.04,105.949,105.949,0,0,0-10.873-4.6Z" transform="translate(-159.587 -245.371)" fill="#fff"/>
      </g>
      <g id="Сгруппировать_13349" data-name="Сгруппировать 13349" transform="translate(273.587 163.965)">
        <path id="Контур_42118" data-name="Контур 42118" d="M194.285,289.98c.258.146.24.394-.015.543-3.177,1.846-6.494,3.634-9.881,5.3a1.034,1.034,0,0,1-.9-.008l-.053-.03c-.24-.159-.189-.407.083-.543,3.367-1.659,6.668-3.44,9.812-5.266A1.044,1.044,0,0,1,194.285,289.98Z" transform="translate(-183.281 -289.864)" fill="#fff"/>
      </g>
      <g id="Сгруппировать_13350" data-name="Сгруппировать 13350" transform="translate(251.831 174.053)">
        <path id="Контур_42119" data-name="Контур 42119" d="M187.083,294.022c.207.179.139.417-.149.543-3.642,1.523-7.421,2.965-11.252,4.319a1.164,1.164,0,0,1-.818-.058l-.1-.081c-.187-.187-.086-.424.237-.533,3.8-1.334,7.539-2.776,11.148-4.279a1.053,1.053,0,0,1,.861.035A.407.407,0,0,1,187.083,294.022Z" transform="translate(-174.667 -293.858)" fill="#fff"/>
      </g>
      <g id="Сгруппировать_13351" data-name="Сгруппировать 13351" transform="translate(304.073 142.716)">
        <path id="Контур_42120" data-name="Контур 42120" d="M195.543,288.765c-.222-.129-.258-.346-.071-.5,2.463-2.144,4.786-4.367,6.941-6.63a1,1,0,0,1,.919-.136.586.586,0,0,1,.162.066c.2.114.248.306.1.457-2.172,2.273-4.531,4.516-7.009,6.668a1.017,1.017,0,0,1-.937.109Z" transform="translate(-195.351 -281.451)" fill="#fff"/>
      </g>
      <g id="Сгруппировать_13352" data-name="Сгруппировать 13352" transform="translate(227.779 182.098)">
        <path id="Контур_42121" data-name="Контур 42121" d="M178.681,297.254c.172.2.038.434-.285.525-4.018,1.164-8.176,2.233-12.333,3.2a1.12,1.12,0,0,1-.732-.088l-.139-.139c-.136-.2.033-.414.374-.5,4.14-.957,8.226-2.023,12.212-3.17a1.061,1.061,0,0,1,.783.068A.4.4,0,0,1,178.681,297.254Z" transform="translate(-165.144 -297.044)" fill="#fff"/>
      </g>
      <g id="Сгруппировать_13353" data-name="Сгруппировать 13353" transform="translate(317.065 128.539)">
        <path id="Контур_42122" data-name="Контур 42122" d="M200.684,283.713a.293.293,0,0,1-.139-.434,71.866,71.866,0,0,0,4.991-7.183.905.905,0,0,1,.854-.237.872.872,0,0,1,.26.093c.179.1.248.26.152.4a75.12,75.12,0,0,1-5.026,7.241.866.866,0,0,1-.887.2Z" transform="translate(-200.495 -275.838)" fill="#fff"/>
      </g>
      <g id="Сгруппировать_13354" data-name="Сгруппировать 13354" transform="translate(202.093 187.87)">
        <path id="Контур_42123" data-name="Контур 42123" d="M169.294,299.6c.1.217-.083.424-.442.495-4.294.75-8.691,1.422-13.071,1.985l-.616-.1-.172-.2c-.086-.207.134-.414.493-.465,4.364-.553,8.709-1.215,12.969-1.967a1,1,0,0,1,.669.088A.469.469,0,0,1,169.294,299.6Z" transform="translate(-154.975 -299.329)" fill="#fff"/>
      </g>
      <g id="Сгруппировать_13355" data-name="Сгруппировать 13355" transform="translate(326.074 113.505)">
        <path id="Контур_42124" data-name="Контур 42124" d="M204.236,278.153l-.174-.376a62.442,62.442,0,0,0,2.91-7.577.779.779,0,0,1,.8-.308.882.882,0,0,1,.328.1.308.308,0,0,1,.187.351,63.509,63.509,0,0,1-2.925,7.628c-.083.207-.46.326-.818.278Z" transform="translate(-204.062 -269.886)" fill="#fff"/>
      </g>
      <g id="Сгруппировать_13356" data-name="Сгруппировать 13356" transform="translate(175.445 191.208)">
        <path id="Контур_42125" data-name="Контур 42125" d="M159.159,300.99c.051.207-.2.414-.578.434-4.433.356-8.951.6-13.437.75l-.513-.119-.207-.255c-.018-.207.27-.4.629-.407,4.453-.146,8.954-.384,13.353-.74a1,1,0,0,1,.556.111A.406.406,0,0,1,159.159,300.99Z" transform="translate(-144.424 -300.651)" fill="#fff"/>
      </g>
      <g id="Сгруппировать_13357" data-name="Сгруппировать 13357" transform="translate(330.832 98.018)">
        <path id="Контур_42126" data-name="Контур 42126" d="M206.153,272.193l-.207-.316a53.736,53.736,0,0,0,.775-7.746c0-.217.323-.384.679-.376a.97.97,0,0,1,.475.111.344.344,0,0,1,.194.275,57.225,57.225,0,0,1-.793,7.815c-.033.217-.356.366-.732.346Z" transform="translate(-205.946 -263.754)" fill="#fff"/>
      </g>
      <g id="Сгруппировать_13358" data-name="Сгруппировать 13358" transform="translate(148.577 191.546)">
        <path id="Контур_42127" data-name="Контур 42127" d="M148.352,301.418a.316.316,0,0,1,.192.278c0,.217-.321.384-.7.384-4.45-.068-8.989-.245-13.459-.523l-.427-.109-.174-.316c.033-.217.356-.366.732-.346,4.438.278,8.941.455,13.376.513A1,1,0,0,1,148.352,301.418Z" transform="translate(-133.786 -300.784)" fill="#fff"/>
      </g>
      <g id="Сгруппировать_13359" data-name="Сгруппировать 13359" transform="translate(122.173 188.638)">
        <path id="Контур_42128" data-name="Контур 42128" d="M137.574,301.515a.3.3,0,0,1,.182.346.776.776,0,0,1-.8.306c-4.385-.482-8.825-1.076-13.161-1.768l-.29-.109-.172-.374a.818.818,0,0,1,.833-.268c4.286.682,8.673,1.283,13.043,1.758A.963.963,0,0,1,137.574,301.515Z" transform="translate(-123.332 -299.633)" fill="#fff"/>
      </g>
      <g id="Сгруппировать_13360" data-name="Сгруппировать 13360" transform="translate(96.873 183.302)">
        <path id="Контур_42129" data-name="Контур 42129" d="M126.9,300.6c.184.106.263.265.177.4a.859.859,0,0,1-.851.235c-4.236-.889-8.438-1.9-12.5-2.983l-.2-.078c-.187-.109-.258-.288-.139-.434a.953.953,0,0,1,.9-.189c4.049,1.078,8.2,2.076,12.384,2.955A.86.86,0,0,1,126.9,300.6Z" transform="translate(-113.315 -297.52)" fill="#fff"/>
      </g>
      <g id="Сгруппировать_13361" data-name="Сгруппировать 13361" transform="translate(313.693 52.823)">
        <path id="Контур_42130" data-name="Контур 42130" d="M204.956,253.629l-.154-.129a83.069,83.069,0,0,0-5.567-7.074c-.172-.2-.038-.434.285-.523a1.073,1.073,0,0,1,.783.068.452.452,0,0,1,.124.1,88.878,88.878,0,0,1,5.635,7.133c.136.2-.033.434-.374.513A1.121,1.121,0,0,1,204.956,253.629Z" transform="translate(-199.16 -245.86)" fill="#fff"/>
      </g>
      <g id="Сгруппировать_13362" data-name="Сгруппировать 13362" transform="translate(73.422 175.655)">
        <path id="Контур_42131" data-name="Контур 42131" d="M116.623,298.7c.21.124.26.313.119.462a.946.946,0,0,1-.922.159c-3.895-1.265-7.774-2.66-11.5-4.119l-.086-.051c-.222-.129-.275-.336-.088-.485a1.031,1.031,0,0,1,.94-.109c3.693,1.442,7.522,2.826,11.4,4.082A.815.815,0,0,1,116.623,298.7Z" transform="translate(-104.03 -294.492)" fill="#fff"/>
      </g>
      <g id="Сгруппировать_13363" data-name="Сгруппировать 13363" transform="translate(299.604 39.541)">
        <path id="Контур_42132" data-name="Контур 42132" d="M201.3,247.731l-.1-.058c-2.316-2.2-4.852-4.377-7.491-6.453-.2-.177-.139-.414.152-.543a1.052,1.052,0,0,1,.861.035.57.57,0,0,1,.076.053c2.675,2.1,5.193,4.279,7.542,6.5.207.179.106.417-.217.525A1.017,1.017,0,0,1,201.3,247.731Z" transform="translate(-193.582 -240.601)" fill="#fff"/>
      </g>
      <g id="Сгруппировать_13364" data-name="Сгруппировать 13364" transform="translate(52.395 165.906)">
        <path id="Контур_42133" data-name="Контур 42133" d="M107.048,295.874a.28.28,0,0,1,.018.51.968.968,0,0,1-.919.061c-3.508-1.632-6.946-3.359-10.232-5.137-.273-.159-.275-.4-.035-.553a1.076,1.076,0,0,1,.955-.02c3.251,1.778,6.673,3.5,10.126,5.1A.714.714,0,0,1,107.048,295.874Z" transform="translate(-95.705 -290.633)" fill="#fff"/>
      </g>
      <g id="Сгруппировать_13365" data-name="Сгруппировать 13365" transform="translate(34.328 154.352)">
        <path id="Контур_42134" data-name="Контур 42134" d="M98.352,292.17c.24.159.222.407-.048.543a1.046,1.046,0,0,1-.922-.018c-3.031-1.927-5.958-3.953-8.7-6.029-.222-.167-.157-.4.134-.533a1.094,1.094,0,0,1,.9.048l.033.023C92.48,288.248,95.372,290.253,98.352,292.17Z" transform="translate(-88.551 -286.058)" fill="#fff"/>
      </g>
      <g id="Сгруппировать_13366" data-name="Сгруппировать 13366" transform="translate(19.706 141.252)">
        <path id="Контур_42135" data-name="Контур 42135" d="M90.842,287.773c.207.177.106.414-.2.533a1.023,1.023,0,0,1-.821-.058l-.1-.061c-2.435-2.192-4.751-4.455-6.88-6.746-.172-.2-.053-.427.288-.525a1.027,1.027,0,0,1,.773.071.591.591,0,0,1,.116.088C86.144,283.348,88.424,285.591,90.842,287.773Z" transform="translate(-82.762 -280.871)" fill="#fff"/>
      </g>
      <g id="Сгруппировать_13367" data-name="Сгруппировать 13367" transform="translate(238.22 9.755)">
        <path id="Контур_42136" data-name="Контур 42136" d="M182.378,233.1a.969.969,0,0,1-.919.139c-3.829-1.323-7.794-2.569-11.79-3.7l-.189-.068c-.2-.119-.258-.308-.139-.455a.936.936,0,0,1,.9-.169c4.049,1.137,8.029,2.392,11.891,3.715a.786.786,0,0,1,.139.061C182.487,232.751,182.535,232.942,182.378,233.1Z" transform="translate(-169.278 -228.808)" fill="#fff"/>
      </g>
      <g id="Сгруппировать_13368" data-name="Сгруппировать 13368" transform="translate(8.938 126.944)">
        <path id="Контур_42137" data-name="Контур 42137" d="M84.665,282.712c.154.207,0,.434-.338.515a1.068,1.068,0,0,1-.75-.081l-.139-.119a84.361,84.361,0,0,1-4.9-7.3c-.119-.21.066-.437.424-.505a1.071,1.071,0,0,1,.684.1.394.394,0,0,1,.154.147A79.415,79.415,0,0,0,84.665,282.712Z" transform="translate(-78.499 -275.206)" fill="#fff"/>
      </g>
      <g id="Сгруппировать_13369" data-name="Сгруппировать 13369" transform="translate(2.327 111.83)">
        <path id="Контур_42138" data-name="Контур 42138" d="M79.977,277.159c.088.207-.134.414-.49.465l-.631-.108-.172-.177a62.728,62.728,0,0,1-2.791-7.658c-.068-.217.169-.414.543-.455a1.045,1.045,0,0,1,.583.116.361.361,0,0,1,.187.21A63.4,63.4,0,0,0,79.977,277.159Z" transform="translate(-75.881 -269.223)" fill="#fff"/>
      </g>
      <g id="Сгруппировать_13370" data-name="Сгруппировать 13370" transform="translate(4.645 65.661)">
        <path id="Контур_42139" data-name="Контур 42139" d="M81.757,251.458a65.416,65.416,0,0,0-3.66,7.458.825.825,0,0,1-.818.278l-.306-.1-.174-.376a67.945,67.945,0,0,1,3.677-7.509.873.873,0,0,1,.869-.248.768.768,0,0,1,.25.088C81.767,251.15,81.84,251.309,81.757,251.458Z" transform="translate(-76.799 -250.943)" fill="#fff"/>
      </g>
      <g id="Сгруппировать_13371" data-name="Сгруппировать 13371" transform="translate(83.102 9.031)">
        <path id="Контур_42140" data-name="Контур 42140" d="M121.071,228.735c.154.21,0,.434-.321.525-4.021,1.086-8.006,2.291-11.871,3.566a1.016,1.016,0,0,1-.818-.061l-.1-.078c-.189-.187-.088-.424.235-.533,3.9-1.3,7.918-2.5,11.99-3.6a1.073,1.073,0,0,1,.765.078A.443.443,0,0,1,121.071,228.735Z" transform="translate(-107.862 -228.522)" fill="#fff"/>
      </g>
      <g id="Сгруппировать_13372" data-name="Сгруппировать 13372" transform="translate(287.434 155.661)">
        <path id="Контур_42141" data-name="Контур 42141" d="M188.944,292.6c3.043-1.887,5.966-3.864,8.716-5.88a1.042,1.042,0,0,1,.94-.068l.035.02c.243.139.3.364.068.533-2.768,2.026-5.726,4.021-8.784,5.918a1.035,1.035,0,0,1-.937.03C188.707,293,188.689,292.753,188.944,292.6Z" transform="translate(-188.764 -286.576)" fill="#fff"/>
      </g>
      <g id="Сгруппировать_13377" data-name="Сгруппировать 13377" transform="translate(51.09 27.737)" style="isolation: isolate">
        <g id="Сгруппировать_13373" data-name="Сгруппировать 13373" transform="translate(230.901)">
          <path id="Контур_42142" data-name="Контур 42142" d="M196.016,242.283l-.033-.018c-2.687-1.808-5.547-3.576-8.491-5.276l-.684-.4a.292.292,0,0,1,0-.553,1.075,1.075,0,0,1,.955,0l.684.4c2.963,1.707,5.837,3.506,8.542,5.324.258.169.225.4-.048.543A1.037,1.037,0,0,1,196.016,242.283Z" transform="translate(-186.608 -235.928)" fill="#fff"/>
        </g>
        <g id="Сгруппировать_13374" data-name="Сгруппировать 13374" transform="translate(84.46 16.823)">
          <path id="Контур_42143" data-name="Контур 42143" d="M128.663,245.156c-.121-.21.081-.427.407-.495,4.294-.869,8.706-1.571,13.174-2.066a1.034,1.034,0,0,1,.6.106.4.4,0,0,1,.189.212c.086.207-.169.414-.525.445-4.4.492-8.762,1.164-12.987,2.033a.945.945,0,0,1-.684-.1Z" transform="translate(-128.628 -242.589)" fill="#fff"/>
        </g>
        <g id="Сгруппировать_13375" data-name="Сгруппировать 13375" transform="translate(183.233 34.031)">
          <path id="Контур_42144" data-name="Контур 42144" d="M167.9,250.044c-.24-.157-.207-.414.066-.553a1.118,1.118,0,0,1,.927.023l.028.018a70.106,70.106,0,0,1,8.173,6.332c.187.189.121.424-.184.543a1.1,1.1,0,0,1-.854-.058l-.086-.068A68.26,68.26,0,0,0,167.9,250.044Z" transform="translate(-167.735 -249.401)" fill="#fff"/>
        </g>
        <g id="Сгруппировать_13376" data-name="Сгруппировать 13376" transform="translate(0 1.859)">
          <path id="Контур_42145" data-name="Контур 42145" d="M291.948,256.218c45.162,26.075,45.384,68.492.515,94.565s-118.077,26.075-163.239,0-45.417-68.492-.551-94.565S246.789,230.145,291.948,256.218ZM133,348.591c43.058,24.858,112.891,24.858,155.667,0s42.551-65.31-.508-90.168-112.889-24.861-155.667,0-42.548,65.31.508,90.168" transform="translate(-95.188 -236.664)" fill="url(#linear-gradient-8)"/>
        </g>
      </g>
      <g id="Сгруппировать_13378" data-name="Сгруппировать 13378" transform="translate(111.743 49.759)">
        <path id="Контур_42146" data-name="Контур 42146" d="M119.341,249.464c-.222-.167-.172-.414.116-.543a115.8,115.8,0,0,1,11.507-4.228,1.081,1.081,0,0,1,.808.071.563.563,0,0,1,.114.086c.172.2.056.427-.268.535a108.592,108.592,0,0,0-11.356,4.157,1.054,1.054,0,0,1-.854-.038Z" transform="translate(-119.202 -244.647)" fill="#fff"/>
      </g>
      <g id="Сгруппировать_13379" data-name="Сгруппировать 13379" transform="translate(188.966 45.376)">
        <path id="Контур_42147" data-name="Контур 42147" d="M149.949,243.575l-.172-.374c.083-.21.46-.328.818-.278,4.387.682,8.724,1.551,12.876,2.589a.869.869,0,0,1,.225.086c.189.111.25.275.134.417a.871.871,0,0,1-.866.21c-4.1-1.028-8.388-1.889-12.707-2.551Z" transform="translate(-149.777 -242.911)" fill="#fff"/>
      </g>
      <g id="Сгруппировать_13380" data-name="Сгруппировать 13380" transform="translate(248.861 74.98)">
        <path id="Контур_42148" data-name="Контур 42148" d="M173.551,255.185c-.154-.207,0-.434.338-.513a1,1,0,0,1,.745.073.4.4,0,0,1,.141.124,40.848,40.848,0,0,1,4.579,7.451c.1.217-.116.424-.457.482l-.664-.109-.157-.167A41.754,41.754,0,0,0,173.551,255.185Z" transform="translate(-173.491 -254.632)" fill="#fff"/>
      </g>
      <g id="Сгруппировать_13381" data-name="Сгруппировать 13381" transform="translate(329.893 82.464)">
        <path id="Контур_42149" data-name="Контур 42149" d="M207.177,266.017l-.2-.258a57.316,57.316,0,0,0-1.392-7.716c-.053-.207.2-.414.561-.445a1.046,1.046,0,0,1,.584.116.365.365,0,0,1,.184.21,55.973,55.973,0,0,1,1.392,7.8c.035.217-.235.394-.629.4Z" transform="translate(-205.574 -257.596)" fill="#fff"/>
      </g>
      <g id="Сгруппировать_13382" data-name="Сгруппировать 13382" transform="translate(323.878 67.267)">
        <path id="Контур_42150" data-name="Контур 42150" d="M206.922,259.776l-.172-.2a67.935,67.935,0,0,0-3.523-7.489c-.119-.207.083-.424.442-.493a1.026,1.026,0,0,1,.662.1.486.486,0,0,1,.177.164,67.592,67.592,0,0,1,3.556,7.549c.068.217-.152.424-.51.475Z" transform="translate(-203.193 -251.579)" fill="#fff"/>
      </g>
      <g id="Сгруппировать_13383" data-name="Сгруппировать 13383" transform="translate(261.365 17.713)">
        <path id="Контур_42151" data-name="Контур 42151" d="M190.3,237.372a1.039,1.039,0,0,1-.955.04c-3.422-1.659-7-3.251-10.621-4.753l-.086-.028a.291.291,0,0,1-.071-.515,1.063,1.063,0,0,1,.937-.088c3.642,1.51,7.251,3.122,10.706,4.8l.03.018A.294.294,0,0,1,190.3,237.372Z" transform="translate(-178.442 -231.959)" fill="#fff"/>
      </g>
      <g id="Сгруппировать_13384" data-name="Сгруппировать 13384" transform="translate(213.195 4.072)">
        <path id="Контур_42152" data-name="Контур 42152" d="M173.373,229.637a.893.893,0,0,1-.869.207c-4.135-.929-8.421-1.788-12.671-2.528l-.29-.091-.172-.394a.848.848,0,0,1,.851-.258c4.3.75,8.587,1.611,12.755,2.559a.83.83,0,0,1,.235.091C173.4,229.329,173.471,229.491,173.373,229.637Z" transform="translate(-159.37 -226.558)" fill="#fff"/>
      </g>
      <g id="Сгруппировать_13385" data-name="Сгруппировать 13385" transform="translate(186.89 0.814)">
        <path id="Контур_42153" data-name="Контур 42153" d="M163.531,227.048c-.066.22-.442.356-.8.308-4.352-.543-8.789-.98-13.192-1.316l-.394-.109-.189-.326c.033-.217.374-.356.75-.336,4.435.336,8.926.78,13.31,1.323a.935.935,0,0,1,.338.111C163.508,226.791,163.584,226.919,163.531,227.048Z" transform="translate(-148.955 -225.268)" fill="#fff"/>
      </g>
      <g id="Сгруппировать_13386" data-name="Сгруппировать 13386" transform="translate(0 96.311)">
        <path id="Контур_42154" data-name="Контур 42154" d="M76.291,263.464a56.423,56.423,0,0,0,.639,7.757c.02.207-.253.4-.626.424l-.513-.119-.207-.237a54.954,54.954,0,0,1-.624-7.825c0-.217.288-.386.664-.386a.967.967,0,0,1,.472.111A.334.334,0,0,1,76.291,263.464Z" transform="translate(-74.96 -263.078)" fill="#fff"/>
      </g>
      <g id="Сгруппировать_13387" data-name="Сгруппировать 13387" transform="translate(160.018)">
        <path id="Контур_42155" data-name="Контур 42155" d="M152.41,225.833c-4.435-.119-8.956-.149-13.406-.061l-.5-.109-.189-.265c-.035-.217.27-.4.629-.407,4.5-.078,9.04-.058,13.528.071a.892.892,0,0,1,.429.111.332.332,0,0,1,.2.293C153.074,225.684,152.786,225.853,152.41,225.833Z" transform="translate(-138.316 -224.946)" fill="#fff"/>
      </g>
      <g id="Сгруппировать_13388" data-name="Сгруппировать 13388" transform="translate(0.45 80.786)">
        <path id="Контур_42156" data-name="Контур 42156" d="M78.03,257.38a57.7,57.7,0,0,0-1.561,7.706c-.015.207-.338.376-.715.356l-.409-.119-.207-.3a61.634,61.634,0,0,1,1.561-7.767c.068-.217.407-.356.765-.326a.855.855,0,0,1,.364.106A.326.326,0,0,1,78.03,257.38Z" transform="translate(-75.138 -256.931)" fill="#fff"/>
      </g>
      <g id="Сгруппировать_13389" data-name="Сгруппировать 13389" transform="translate(133.302 0.606)">
        <path id="Контур_42157" data-name="Контур 42157" d="M142.367,225.535c.051.207-.22.407-.6.424-4.415.288-8.865.692-13.23,1.187l-.6-.109-.187-.207c-.086-.21.152-.407.525-.445,4.382-.505,8.883-.9,13.351-1.2a.973.973,0,0,1,.541.109A.36.36,0,0,1,142.367,225.535Z" transform="translate(-127.738 -225.186)" fill="#fff"/>
      </g>
      <g id="Сгруппировать_13390" data-name="Сгруппировать 13390" transform="translate(107.438 3.602)">
        <path id="Контур_42158" data-name="Контур 42158" d="M131.6,226.65c.086.207-.119.424-.475.475-4.279.7-8.572,1.51-12.73,2.42a1.078,1.078,0,0,1-.717-.1l-.136-.139c-.139-.2.048-.424.389-.5,4.175-.9,8.5-1.71,12.831-2.42a1.075,1.075,0,0,1,.667.1A.483.483,0,0,1,131.6,226.65Z" transform="translate(-117.498 -226.372)" fill="#fff"/>
      </g>
      <g id="Сгруппировать_13391" data-name="Сгруппировать 13391" transform="translate(13.023 51.341)">
        <path id="Контур_42159" data-name="Контур 42159" d="M87.122,245.841a85.2,85.2,0,0,0-5.726,7.016.925.925,0,0,1-.887.2l-.2-.078a.3.3,0,0,1-.139-.437,90.054,90.054,0,0,1,5.743-7.064,1,1,0,0,1,.919-.157.7.7,0,0,1,.169.071C87.2,245.505,87.246,245.689,87.122,245.841Z" transform="translate(-80.116 -245.273)" fill="#fff"/>
      </g>
      <g id="Сгруппировать_13392" data-name="Сгруппировать 13392" transform="translate(25.455 38.196)">
        <path id="Контур_42160" data-name="Контур 42160" d="M93.885,240.691c-2.685,2.056-5.231,4.208-7.607,6.382a1.01,1.01,0,0,1-.919.119l-.1-.061c-.222-.126-.29-.326-.121-.482,2.392-2.185,4.991-4.349,7.673-6.423a1.048,1.048,0,0,1,.955-.078l.061.03A.289.289,0,0,1,93.885,240.691Z" transform="translate(-85.039 -240.069)" fill="#fff"/>
      </g>
      <g id="Сгруппировать_13393" data-name="Сгруппировать 13393" transform="translate(41.603 26.576)">
        <path id="Контур_42161" data-name="Контур 42161" d="M99.153,237.69c-2.245,1.306-4.438,2.657-6.547,4.021a1.044,1.044,0,0,1-.955.04l-.033-.02a.284.284,0,0,1,0-.533c2.089-1.374,4.316-2.748,6.577-4.061.919-.533,1.836-1.048,2.756-1.561a1.109,1.109,0,0,1,.955,0c.258.167.258.4-.015.563C100.954,236.642,100.052,237.168,99.153,237.69Z" transform="translate(-91.432 -235.468)" fill="#fff"/>
      </g>
      <g id="Сгруппировать_13394" data-name="Сгруппировать 13394" transform="translate(60.986 16.755)">
        <path id="Контур_42162" data-name="Контур 42162" d="M99.26,236.874c-.24-.157-.189-.4.083-.543,3.47-1.639,7.095-3.21,10.787-4.683a1.09,1.09,0,0,1,.889.056.627.627,0,0,1,.068.043c.2.177.121.424-.184.543-3.66,1.452-7.269,3.013-10.686,4.645a1.062,1.062,0,0,1-.9-.03Z" transform="translate(-99.106 -231.58)" fill="#fff"/>
      </g>
    </g>
    <g id="Сгруппировать_13401" data-name="Сгруппировать 13401" transform="translate(224.737 531.064)">
      <g id="Сгруппировать_13400" data-name="Сгруппировать 13400" style="isolation: isolate">
        <g id="Сгруппировать_13396" data-name="Сгруппировать 13396" transform="translate(62.593 18.402)">
          <path id="Контур_42163" data-name="Контур 42163" d="M167.321,260.73c8.07,4.66,8.113,12.242.1,16.9a29.859,29.859,0,0,1-15.02,3.493l2.162-1.558a25.011,25.011,0,0,0,11-3.006c7-4.066,6.971-10.686-.083-14.758s-18.483-4.066-25.477,0c-3.986,2.316-5.69,5.458-5.12,8.484l-2.293,1.265c-1.341-3.786.5-7.885,5.554-10.823C146.158,256.07,159.251,256.07,167.321,260.73Z" transform="translate(-132.161 -257.235)" fill="#fff"/>
        </g>
        <g id="Сгруппировать_13397" data-name="Сгруппировать 13397" transform="translate(46.294 8.854)">
          <path id="Контур_42164" data-name="Контур 42164" d="M188.818,259.727c14.485,8.363,14.561,21.974.172,30.336-7.666,4.455-17.917,6.544-28.015,6.244l1.455-1.488c8.951.061,17.93-1.879,24.714-5.822,13.379-7.777,13.308-20.428-.159-28.2s-35.3-7.769-48.68.008c-10.451,6.074-12.689,15.119-6.761,22.491l-1.975,1.094c-6.865-8.007-4.572-18,6.878-24.659C150.836,251.364,174.333,251.364,188.818,259.727Z" transform="translate(-125.708 -253.455)" fill="#fff"/>
        </g>
        <g id="Сгруппировать_13398" data-name="Сгруппировать 13398" transform="translate(30.864)">
          <path id="Контур_42165" data-name="Контур 42165" d="M208.9,258.824c20.5,11.833,20.6,31.086.243,42.922-8.994,5.226-20.514,8.15-32.316,8.759l-.634-1.5c11.356-.525,22.451-3.3,31.1-8.327,19.339-11.239,19.238-29.538-.242-40.783-19.466-11.239-51.055-11.239-70.394,0-16.367,9.509-18.819,24.057-7.4,35.117l-1.942,1.073c-12.356-11.684-9.883-27.172,7.481-37.264C155.161,246.991,188.4,246.991,208.9,258.824Z" transform="translate(-119.599 -249.949)" fill="#fff"/>
        </g>
        <g id="Сгруппировать_13399" data-name="Сгруппировать 13399" transform="translate(0 28.972)">
          <path id="Контур_42166" data-name="Контур 42166" d="M193.3,262.89a6.9,6.9,0,0,1,1.783,1.437c1.614,1.859.99,3.922-1.715,5.506l-5.62,3.268-17.377,10.1c.836-.131,1.26-.184,1.662-.253a12.961,12.961,0,0,1,8.2,1.058c.164.083.321.169.47.255,3.258,1.882,3.326,4.314.207,6.782-.119.1-.248.2-.389.3-.386.293-.775.586-1.384,1.023a13.909,13.909,0,0,1,8.789.717,16.979,16.979,0,0,1,1.682.861c2.662,1.566,2.806,4.031.326,5.693-1.776,1.195-3.619,2.364-5.688,3.7a13.275,13.275,0,0,1,7.148.177,9.006,9.006,0,0,1,1.824.768,5.451,5.451,0,0,1,2.637,3.741c.386,1.477-3.877,4.559-5.89,5.509-9.54,4.544-14.811,7.085-24.35,11.641a50.28,50.28,0,0,1-18.857,5.132c-4.544.288-8.421-.338-11.785-2.281-.083-.045-.164-.1-.248-.144-3.17-1.907-6.39-3.786-9.628-5.655-4.483-2.589-9-5.158-13.485-7.744-3.715-2.144-5.051-4.756-3.746-7.638,4.183-9.176,8.532-18.311,12.868-27.454a8.178,8.178,0,0,1,4.551-4.344,12.474,12.474,0,0,1,9.992.472,4.316,4.316,0,0,1,1.7,1.619,4.891,4.891,0,0,1,.447,3.771c-.927,2.925-2.3,5.807-3.513,8.7-.071.164-.106.336-.174.5l28.417-16.268q4.955-2.879,9.946-5.766.97-.587,1.975-1.149l6.739-3.915A13.514,13.514,0,0,1,193.3,262.89Z" transform="translate(-107.379 -261.42)" fill="#fff"/>
        </g>
      </g>
    </g>
    <g id="Сгруппировать_13461" data-name="Сгруппировать 13461" transform="translate(99.433 65.697)" style="mix-blend-mode: screen;isolation: isolate">
      <g id="Сгруппировать_13405" data-name="Сгруппировать 13405" transform="translate(84.74 53.003)">
        <g id="Сгруппировать_13402" data-name="Сгруппировать 13402" transform="translate(11.852 16.346)">
          <path id="Контур_42167" data-name="Контур 42167" d="M118.665,96.341c10.7-6.18,19.963-3.172,22.517,7.3.445,1.856-.672,4.64-2.506,6.206a5.222,5.222,0,0,1-.816.583c-1.543.892-2.95.49-3.329-1.091-1.806-7.362-8.322-9.474-15.846-5.13-7.7,4.445-14.379,14.581-15.894,24.113a7.62,7.62,0,0,1-3.344,5.084,4.265,4.265,0,0,1-.682.318c-1.861.631-3.056-.755-2.687-3.107C98.232,117.074,107.731,102.653,118.665,96.341Z" transform="translate(-96.011 -93.154)" fill="#fff"/>
        </g>
        <g id="Сгруппировать_13403" data-name="Сгруппировать 13403" transform="translate(25.881 34.91)">
          <path id="Контур_42168" data-name="Контур 42168" d="M110.236,101.7c4.8-2.771,8.7-.543,8.719,4.978s-3.867,12.232-8.661,15-8.714.548-8.729-4.963S105.429,104.469,110.236,101.7Z" transform="translate(-101.565 -100.504)" fill="#fff"/>
        </g>
        <g id="Сгруппировать_13404" data-name="Сгруппировать 13404">
          <path id="Контур_42169" data-name="Контур 42169" d="M125.781,91.578c15.18-8.762,28.793-5.559,33.887,7.969.634,1.685-.3,4.476-2.076,6.223a5.777,5.777,0,0,1-1.134.881c-1.412.813-2.738.568-3.238-.76C149.1,94.95,138.079,92.366,125.8,99.451c-12.793,7.385-24.214,23.843-27.77,40a7.643,7.643,0,0,1-3.281,4.731,3.73,3.73,0,0,1-.957.4c-1.816.429-2.867-1.154-2.344-3.544C95.857,121.046,109.966,100.709,125.781,91.578Z" transform="translate(-91.318 -86.683)" fill="#fff"/>
        </g>
      </g>
      <g id="Сгруппировать_13406" data-name="Сгруппировать 13406" transform="translate(153.851 226.417)">
        <path id="Контур_42170" data-name="Контур 42170" d="M150.939,155.342l.073,25.7c.005,2.111-2.447,5.236-5.483,6.989s-5.5,1.467-5.506-.644,2.452-5.238,5.483-6.989a7.652,7.652,0,0,1,3.379-1.147l-.038-13.4L129.612,176.96l.056,20.292c.008,2.1-2.447,5.236-5.483,6.989s-5.5,1.457-5.5-.647,2.447-5.236,5.483-6.989a7.647,7.647,0,0,1,3.372-1.144l-.073-26.565Z" transform="translate(-118.681 -155.342)" fill="#fff"/>
      </g>
      <g id="Сгруппировать_13407" data-name="Сгруппировать 13407" transform="translate(372.34 69.647)">
        <path id="Контур_42171" data-name="Контур 42171" d="M253.529,95.3c8.183-4.726,14.9-.909,14.929,8.507,8.347-4.819,15.078-1,15.106,8.421a32.821,32.821,0,0,1-14.844,25.7l-48.615,28.066c-8.183,4.726-14.892.889-14.919-8.514a32.779,32.779,0,0,1,14.823-25.7l3.19-1.841a32.751,32.751,0,0,1,14.844-25.7Z" transform="translate(-205.187 -93.272)" fill="#fff"/>
      </g>
      <g id="Сгруппировать_13408" data-name="Сгруппировать 13408" transform="translate(0 135.111)">
        <path id="Контур_42172" data-name="Контур 42172" d="M95.135,121.774c10.436-6.026,19.011-1.142,19.044,10.853.018,6-2.1,12.694-5.521,18.62-3.443,5.961-8.186,11.156-13.4,14.167l-13.265,7.658,8.11,8.294-20.718-2.773a10.323,10.323,0,0,1-4.817-.652c-4.137-1.637-6.782-6.084-6.8-12.745-.015-6,2.114-12.689,5.544-18.632s8.166-11.131,13.389-14.146Zm-22.651,39.09A7.763,7.763,0,0,0,76,154.77c-.005-2.25-1.594-3.157-3.541-2.033a7.784,7.784,0,0,0-3.531,6.115c.008,2.238,1.6,3.142,3.554,2.013m26.154-15.1a7.768,7.768,0,0,0,3.521-6.095c-.008-2.25-1.6-3.155-3.544-2.031a7.767,7.767,0,0,0-3.528,6.115c.005,2.235,1.594,3.142,3.551,2.01m-12.78,7.38a7.757,7.757,0,0,0,3.521-6.1c-.008-2.248-1.586-3.16-3.544-2.031a7.771,7.771,0,0,0-3.528,6.115c.005,2.238,1.594,3.142,3.551,2.013" transform="translate(-57.767 -119.191)" fill="#fff"/>
      </g>
      <g id="Сгруппировать_13411" data-name="Сгруппировать 13411" transform="translate(174.052 8.615)">
        <g id="Сгруппировать_13409" data-name="Сгруппировать 13409" transform="translate(43.291)">
          <path id="Контур_42173" data-name="Контур 42173" d="M178.388,79.1c.078.71.086,1.457.126,2.187-.035.765-.04,1.52-.114,2.316l-.136,1.192-.081.6c-.023.2-.073.409-.111.619L175.3,86.9a29.456,29.456,0,0,1-1.813,6.14l2.407.346c-.318.844-.74,1.659-1.126,2.5-.184.417-.414.813-.629,1.22l-.659,1.212-.727,1.18c-.245.389-.472.8-.74,1.164-.528.75-1.03,1.528-1.6,2.228l-1.51-1.9a29.974,29.974,0,0,1-4.425,4.667l.641,2.814c-.157.134-.313.283-.475.412l-.485.366-.972.732c-.647.45-1.3.846-1.955,1.258-.654.343-1.308.7-1.957,1l-.972.391-.485.195c-.164.061-.321.091-.477.136l.624-3.544a10.121,10.121,0,0,1-4.438.45l-1.5,3.634a8.062,8.062,0,0,1-1.609-.371,4.09,4.09,0,0,1-.745-.306l-.732-.338-.662-.447a4.938,4.938,0,0,1-.644-.485,9.574,9.574,0,0,1-1.126-1.2l2.4-3.122a9.9,9.9,0,0,1-1.851-4.023l-2.766,2.324c-.035-.167-.088-.316-.111-.493l-.083-.508-.146-1.028c-.076-.71-.086-1.457-.124-2.18.035-.773.04-1.528.111-2.324l.139-1.192.081-.611c.023-.192.073-.412.109-.611l2.768-.864a29.993,29.993,0,0,1,1.824-6.153l-2.407-.346c.318-.844.74-1.669,1.119-2.5.192-.419.422-.816.636-1.222l.659-1.212.727-1.18c.242-.391.472-.788.74-1.164.528-.75,1.03-1.52,1.6-2.228l1.508,1.9a29.9,29.9,0,0,1,4.428-4.67l-.641-2.821c.157-.134.311-.275.475-.4l.482-.366.975-.732c.647-.45,1.3-.846,1.955-1.265.654-.336,1.308-.7,1.955-.993l.975-.391.485-.194c.164-.061.321-.1.475-.146l-.621,3.551a10.007,10.007,0,0,1,4.438-.447l1.493-3.634a8.806,8.806,0,0,1,1.611.371,4.707,4.707,0,0,1,.745.306l.73.338.664.447a3.957,3.957,0,0,1,.636.49,8.337,8.337,0,0,1,1.134,1.192l-2.4,3.122a9.776,9.776,0,0,1,1.844,4.036l2.771-2.336c.038.159.091.316.114.482l.083.518Zm-17.195,21.552c4.5-2.6,8.13-8.888,8.115-14.05s-3.67-7.251-8.168-4.655-8.13,8.888-8.115,14.058,3.67,7.244,8.168,4.647" transform="translate(-143.819 -69.108)" fill="#fff"/>
        </g>
        <g id="Сгруппировать_13410" data-name="Сгруппировать 13410" transform="translate(0 35.327)">
          <path id="Контур_42174" data-name="Контур 42174" d="M175.814,97.292c.1,1.013.116,2.074.172,3.1-.048,1.1-.061,2.175-.154,3.291l-.2,1.71-.109.859c-.038.278-.1.581-.162.871l-3.938,1.238a42.3,42.3,0,0,1-2.581,8.731l3.42.49c-.45,1.2-1.051,2.369-1.6,3.551-.258.586-.594,1.154-.9,1.733l-.94,1.733-1.03,1.672c-.341.558-.667,1.121-1.053,1.654-.75,1.066-1.462,2.17-2.278,3.162l-2.144-2.7a42.673,42.673,0,0,1-6.292,6.635l.914,4c-.225.187-.447.4-.677.578l-.692.528-1.382,1.038c-.914.639-1.851,1.2-2.773,1.788-.929.477-1.859,1-2.781,1.417l-1.384.561-.692.27c-.23.091-.455.134-.677.2l.887-5.039a14.32,14.32,0,0,1-6.307.636l-2.124,5.163a11.556,11.556,0,0,1-2.288-.525,5.065,5.065,0,0,1-1.058-.434l-1.036-.48-.947-.642a5.891,5.891,0,0,1-.9-.695,11.438,11.438,0,0,1-1.614-1.695l3.407-4.433a14.122,14.122,0,0,1-2.624-5.726l-3.938,3.309c-.053-.225-.121-.452-.159-.687l-.114-.73-.212-1.47c-.1-1-.119-2.064-.172-3.1.048-1.091.061-2.167.154-3.291l.2-1.7.111-.859c.035-.285.1-.581.154-.876l3.943-1.233a42.4,42.4,0,0,1,2.584-8.731l-3.422-.5c.452-1.195,1.053-2.369,1.6-3.544.26-.586.594-1.162.9-1.74l.942-1.725,1.03-1.672c.341-.556.667-1.121,1.053-1.662.748-1.056,1.46-2.162,2.278-3.155l2.144,2.7a42.108,42.108,0,0,1,6.289-6.635l-.912-4.008c.222-.189.445-.394.677-.571l.69-.528,1.384-1.036c.922-.644,1.849-1.207,2.778-1.8.924-.48,1.861-1,2.776-1.412l1.384-.561.692-.27c.23-.091.452-.141.677-.212l-.887,5.049a14.1,14.1,0,0,1,6.307-.636l2.122-5.163a12.017,12.017,0,0,1,2.288.518,5.53,5.53,0,0,1,1.058.442l1.038.48.947.634a5.9,5.9,0,0,1,.9.7,11.36,11.36,0,0,1,1.611,1.687l-3.4,4.44a14.169,14.169,0,0,1,2.622,5.726l3.933-3.314c.058.232.126.45.164.692l.114.73Zm-24.441,30.629c6.388-3.688,11.553-12.636,11.532-19.976s-5.221-10.3-11.608-6.615-11.56,12.641-11.54,19.981,5.221,10.3,11.616,6.61" transform="translate(-126.679 -83.095)" fill="#fff"/>
        </g>
      </g>
      <g id="Сгруппировать_13412" data-name="Сгруппировать 13412" transform="translate(229.718 241.26)">
        <path id="Контур_42175" data-name="Контур 42175" d="M170.94,187.2a10.366,10.366,0,0,1,.881,4.675,20.048,20.048,0,0,1-2.559,9.923,23.509,23.509,0,0,1-7.319,7.951l.02,6.92-3.339,1.93-.02-6.789q-5.482,2.963-9.8,2.874l-.023-8.145a17.2,17.2,0,0,0,4.87-.253,17.908,17.908,0,0,0,4.935-1.725l-.033-11.189-1.013.053c-3.271.1-5.551-.437-6.855-1.591s-1.957-3.185-1.965-6.077a18.832,18.832,0,0,1,2.538-9.481,24.215,24.215,0,0,1,7.224-7.8l-.015-5.329,3.339-1.927.015,5.269a19.94,19.94,0,0,1,8.888-2.283l-2.293,8.39a15.773,15.773,0,0,0-6.572,1.44l.028,10.5c.6-.081.9-.1.9-.061a13.915,13.915,0,0,1,5.486.371A4.667,4.667,0,0,1,170.94,187.2Zm-9.017,15.24a7.741,7.741,0,0,0,3.127-6.451,3.3,3.3,0,0,0-.566-2.149c-.376-.432-1.235-.647-2.589-.642l.028,9.242m-3.395-17.8-.025-8.676a7.009,7.009,0,0,0-3.011,5.885,3.133,3.133,0,0,0,.7,2.334,2.947,2.947,0,0,0,2.339.457" transform="translate(-148.719 -161.219)" fill="#fff"/>
      </g>
      <g id="Сгруппировать_13413" data-name="Сгруппировать 13413" transform="translate(225.061)">
        <path id="Контур_42176" data-name="Контур 42176" d="M193.012,66.374a14.579,14.579,0,0,1,1.323-.677l-6.4,11.08,2.387,7.62,7.822-1.8,6.4-11.08c.4,3.67-.695,8.363-3.283,12.853A23.573,23.573,0,0,1,193.082,93a11.241,11.241,0,0,1-4.582,1.563l-19.415,33.627c1.831,3.806,1.03,10.126-2.412,16.086a23.568,23.568,0,0,1-8.186,8.628,13.952,13.952,0,0,1-1.323.677l6.4-11.078-2.384-7.628-7.825,1.808-6.4,11.08c-.4-3.672.695-8.37,3.283-12.853a23.539,23.539,0,0,1,8.181-8.628A11.145,11.145,0,0,1,163,124.718L182.414,91.09c-1.831-3.809-1.031-10.126,2.412-16.086A23.6,23.6,0,0,1,193.012,66.374Z" transform="translate(-146.875 -65.697)" fill="#fff"/>
      </g>
      <g id="Сгруппировать_13416" data-name="Сгруппировать 13416" transform="translate(263.795 75.481)">
        <g id="Сгруппировать_13414" data-name="Сгруппировать 13414">
          <path id="Контур_42177" data-name="Контур 42177" d="M220.8,95.582l8.206,3.7-5.627,10.893-5.892-2.642-30.879,17.829-15.664,25.224L171,170.522c0,.892.018,1.791.063,2.657.937,22.365,12.995,35.62,31.243,34.095,18.647-20,30.718-47.966,30.985-71.735L242,119.8l.028,9.714c.078,28.21-14.361,61.789-36.769,85.536-.429.46-.861.907-1.3,1.371l-1.614,1.677-1.619.189c-.445.045-.876.1-1.308.134-22.479,2.17-37.05-14.657-37.13-42.866l-.071-24.421,21.029-33.87Z" transform="translate(-162.211 -95.582)" fill="#fff"/>
        </g>
        <g id="Сгруппировать_13415" data-name="Сгруппировать 13415" transform="translate(17.352 1.996)">
          <path id="Контур_42178" data-name="Контур 42178" d="M228.382,97.122a4.092,4.092,0,0,1,3.579-.533c2.291.96,2.551,4.794.576,8.552l-4.114,7.873-7.5,14.306-22.63,43.235a11.422,11.422,0,0,1-4.135,4.559,4.428,4.428,0,0,1-3.162.672L171.4,171.175c-1.414-.338-2.218-1.649-2.309-3.445a9.9,9.9,0,0,1,.98-4.561,11.676,11.676,0,0,1,4.465-5.243,4.344,4.344,0,0,1,3.152-.657l15.541,3.647,23.3-44.511,4.907-9.375,2.8-5.352A11.411,11.411,0,0,1,228.382,97.122Z" transform="translate(-169.081 -96.372)" fill="#fff"/>
        </g>
      </g>
      <g id="Сгруппировать_13459" data-name="Сгруппировать 13459" transform="translate(37.901 106.747)">
        <g id="Сгруппировать_13417" data-name="Сгруппировать 13417" transform="translate(168.929 4.553)">
          <path id="Контур_42179" data-name="Контур 42179" d="M140.3,490.832a.648.648,0,0,1-.647-.647V110.411a.647.647,0,0,1,1.293,0V490.186A.648.648,0,0,1,140.3,490.832Z" transform="translate(-139.657 -109.764)" fill="#fff"/>
        </g>
        <g id="Сгруппировать_13418" data-name="Сгруппировать 13418" transform="translate(168.329 35.713)">
          <path id="Контур_42180" data-name="Контур 42180" d="M140.065,318.78a.646.646,0,0,1-.326-1.2L343.1,198.754V122.748a.647.647,0,1,1,1.293,0v76.746l-.321.187L140.391,318.692A.632.632,0,0,1,140.065,318.78Z" transform="translate(-139.419 -122.101)" fill="#fff"/>
        </g>
        <g id="Сгруппировать_13419" data-name="Сгруппировать 13419" transform="translate(69.654 97.514)">
          <path id="Контур_42181" data-name="Контур 42181" d="M100.351,262.823V147.217a.645.645,0,1,1,1.291,0V260.578l97.278-56.53a.646.646,0,0,1,.649,1.116Z" transform="translate(-100.351 -146.57)" fill="#fff"/>
        </g>
        <g id="Сгруппировать_13420" data-name="Сгруппировать 13420" transform="translate(3.397 42.078)">
          <path id="Контур_42182" data-name="Контур 42182" d="M83.668,253.071l-9.55-9.971V180.406a.645.645,0,1,1,1.291,0v62.175l8.486,8.858,112.657-66,9.231-13.677.442-46.506a.644.644,0,0,1,.644-.639h.008a.644.644,0,0,1,.639.652l-.445,46.895-9.739,14.316Z" transform="translate(-74.118 -124.621)" fill="#fff"/>
        </g>
        <g id="Сгруппировать_13421" data-name="Сгруппировать 13421" transform="translate(266.315 100.053)">
          <path id="Контур_42183" data-name="Контур 42183" d="M178.862,223.005a.646.646,0,0,1-.647-.644v-74.14a.647.647,0,0,1,1.293,0v74.14A.646.646,0,0,1,178.862,223.005Z" transform="translate(-178.215 -147.575)" fill="#fff"/>
        </g>
        <g id="Сгруппировать_13422" data-name="Сгруппировать 13422" transform="translate(372.882 51.077)">
          <path id="Контур_42184" data-name="Контур 42184" d="M221.052,176.912a.649.649,0,0,1-.543-1l10.868-16.973V128.828a.645.645,0,0,1,1.291,0v30.493L221.6,176.614A.65.65,0,0,1,221.052,176.912Z" transform="translate(-220.408 -128.184)" fill="#fff"/>
        </g>
        <g id="Сгруппировать_13423" data-name="Сгруппировать 13423" transform="translate(69.653 8.099)">
          <path id="Контур_42185" data-name="Контур 42185" d="M101,316.359a.642.642,0,0,1-.561-.962l15.874-28.172V111.815a.645.645,0,1,1,1.291,0V287.563l-16.041,28.47A.642.642,0,0,1,101,316.359Z" transform="translate(-100.351 -111.168)" fill="#fff"/>
        </g>
        <g id="Сгруппировать_13424" data-name="Сгруппировать 13424" transform="translate(159.231 160.97)">
          <path id="Контур_42186" data-name="Контур 42186" d="M136.464,311.929a.646.646,0,0,1-.647-.647V172.341a.645.645,0,1,1,1.291,0V311.282A.646.646,0,0,1,136.464,311.929Z" transform="translate(-135.817 -171.694)" fill="#fff"/>
        </g>
        <g id="Сгруппировать_13425" data-name="Сгруппировать 13425" transform="translate(169.205 115.524)">
          <path id="Контур_42187" data-name="Контур 42187" d="M140.412,283.793a.646.646,0,0,1-.326-1.2L322.144,176.653l15.675-22.673a.646.646,0,0,1,1.063.732L322.917,177.7,140.736,283.705A.623.623,0,0,1,140.412,283.793Z" transform="translate(-139.766 -153.7)" fill="#fff"/>
        </g>
        <g id="Сгруппировать_13426" data-name="Сгруппировать 13426" transform="translate(169.205 23.309)">
          <path id="Контур_42188" data-name="Контур 42188" d="M140.412,233.264a.636.636,0,0,1-.4-.141.646.646,0,0,1-.1-.907l11.441-14.3V117.837a.645.645,0,1,1,1.291,0V218.372l-11.722,14.649A.641.641,0,0,1,140.412,233.264Z" transform="translate(-139.766 -117.19)" fill="#fff"/>
        </g>
        <g id="Сгруппировать_13427" data-name="Сгруппировать 13427" transform="translate(125.639 20.539)">
          <path id="Контур_42189" data-name="Контур 42189" d="M132.072,173.793a.645.645,0,0,1-.528-.275l-9.027-12.805V116.74a.645.645,0,1,1,1.291,0V160.3l8.792,12.472a.645.645,0,0,1-.157.9A.654.654,0,0,1,132.072,173.793Z" transform="translate(-122.517 -116.093)" fill="#fff"/>
        </g>
        <g id="Сгруппировать_13429" data-name="Сгруппировать 13429" transform="translate(0 93.016)">
          <g id="Сгруппировать_13428" data-name="Сгруппировать 13428">
            <path id="Контур_42190" data-name="Контур 42190" d="M76.8,145.342c2.23-1.288,4.046-.253,4.054,2.316a8.885,8.885,0,0,1-4.026,6.973c-2.235,1.291-4.051.255-4.059-2.306A8.88,8.88,0,0,1,76.8,145.342Z" transform="translate(-72.773 -144.789)" fill="#fff"/>
          </g>
        </g>
        <g id="Сгруппировать_13431" data-name="Сгруппировать 13431" transform="translate(66.257 92.961)">
          <g id="Сгруппировать_13430" data-name="Сгруппировать 13430">
            <path id="Контур_42191" data-name="Контур 42191" d="M103.037,145.32c2.23-1.286,4.046-.253,4.054,2.316a8.881,8.881,0,0,1-4.026,6.973c-2.235,1.291-4.051.258-4.059-2.306A8.88,8.88,0,0,1,103.037,145.32Z" transform="translate(-99.006 -144.767)" fill="#fff"/>
          </g>
        </g>
        <g id="Сгруппировать_13433" data-name="Сгруппировать 13433" transform="translate(82.214 5.275)">
          <g id="Сгруппировать_13432" data-name="Сгруппировать 13432">
            <path id="Контур_42192" data-name="Контур 42192" d="M109.355,110.6c2.23-1.288,4.046-.253,4.054,2.316a8.874,8.874,0,0,1-4.026,6.973c-2.235,1.291-4.051.255-4.059-2.306A8.887,8.887,0,0,1,109.355,110.6Z" transform="translate(-105.324 -110.05)" fill="#fff"/>
          </g>
        </g>
        <g id="Сгруппировать_13435" data-name="Сгруппировать 13435" transform="translate(122.242 13.347)">
          <g id="Сгруппировать_13434" data-name="Сгруппировать 13434">
            <path id="Контур_42193" data-name="Контур 42193" d="M125.2,113.8c2.23-1.288,4.046-.253,4.054,2.316a8.874,8.874,0,0,1-4.026,6.973c-2.235,1.291-4.051.255-4.059-2.306A8.887,8.887,0,0,1,125.2,113.8Z" transform="translate(-121.172 -113.246)" fill="#fff"/>
          </g>
        </g>
        <g id="Сгруппировать_13437" data-name="Сгруппировать 13437" transform="translate(132.107 37.523)">
          <g id="Сгруппировать_13436" data-name="Сгруппировать 13436">
            <path id="Контур_42194" data-name="Контур 42194" d="M129.109,123.371c2.23-1.288,4.046-.253,4.054,2.316a8.878,8.878,0,0,1-4.026,6.973c-2.235,1.291-4.051.255-4.059-2.306A8.887,8.887,0,0,1,129.109,123.371Z" transform="translate(-125.078 -122.818)" fill="#fff"/>
          </g>
        </g>
        <g id="Сгруппировать_13439" data-name="Сгруппировать 13439" transform="translate(177.39 18.756)">
          <g id="Сгруппировать_13438" data-name="Сгруппировать 13438">
            <path id="Контур_42195" data-name="Контур 42195" d="M147.041,115.94c2.228-1.286,4.044-.25,4.051,2.316a8.878,8.878,0,0,1-4.026,6.976c-2.235,1.291-4.051.255-4.059-2.309A8.886,8.886,0,0,1,147.041,115.94Z" transform="translate(-143.007 -115.387)" fill="#fff"/>
          </g>
        </g>
        <g id="Сгруппировать_13441" data-name="Сгруппировать 13441" transform="translate(165.808)">
          <g id="Сгруппировать_13440" data-name="Сгруппировать 13440">
            <path id="Контур_42196" data-name="Контур 42196" d="M142.452,108.514c2.23-1.286,4.046-.253,4.054,2.316a8.882,8.882,0,0,1-4.026,6.976c-2.235,1.288-4.051.255-4.059-2.308A8.887,8.887,0,0,1,142.452,108.514Z" transform="translate(-138.421 -107.961)" fill="#fff"/>
          </g>
        </g>
        <g id="Сгруппировать_13443" data-name="Сгруппировать 13443" transform="translate(262.918 94.67)">
          <g id="Сгруппировать_13442" data-name="Сгруппировать 13442">
            <path id="Контур_42197" data-name="Контур 42197" d="M180.9,146c2.23-1.288,4.046-.253,4.054,2.314a8.888,8.888,0,0,1-4.029,6.976c-2.235,1.291-4.051.255-4.059-2.306A8.886,8.886,0,0,1,180.9,146Z" transform="translate(-176.87 -145.444)" fill="#fff"/>
          </g>
        </g>
        <g id="Сгруппировать_13445" data-name="Сгруппировать 13445" transform="translate(380.455 46.522)">
          <g id="Сгруппировать_13444" data-name="Сгруппировать 13444" transform="translate(0)">
            <path id="Контур_42198" data-name="Контур 42198" d="M227.437,126.935c2.23-1.288,4.046-.253,4.054,2.314a8.881,8.881,0,0,1-4.029,6.976c-2.233,1.291-4.049.255-4.056-2.306A8.88,8.88,0,0,1,227.437,126.935Z" transform="translate(-223.406 -126.381)" fill="#fff"/>
          </g>
        </g>
        <g id="Сгруппировать_13447" data-name="Сгруппировать 13447" transform="translate(368.614 31.159)">
          <g id="Сгруппировать_13446" data-name="Сгруппировать 13446" transform="translate(0)">
            <path id="Контур_42199" data-name="Контур 42199" d="M222.749,120.851c2.23-1.288,4.046-.253,4.054,2.316a8.881,8.881,0,0,1-4.026,6.973c-2.235,1.291-4.051.255-4.059-2.306A8.88,8.88,0,0,1,222.749,120.851Z" transform="translate(-218.718 -120.298)" fill="#fff"/>
          </g>
        </g>
        <g id="Сгруппировать_13449" data-name="Сгруппировать 13449" transform="translate(155.833 295.959)">
          <g id="Сгруппировать_13448" data-name="Сгруппировать 13448">
            <path id="Контур_42200" data-name="Контур 42200" d="M138.5,225.693c2.23-1.288,4.046-.253,4.054,2.316a8.881,8.881,0,0,1-4.026,6.973c-2.235,1.291-4.051.255-4.059-2.306A8.88,8.88,0,0,1,138.5,225.693Z" transform="translate(-134.472 -225.14)" fill="#fff"/>
          </g>
        </g>
        <g id="Сгруппировать_13450" data-name="Сгруппировать 13450" transform="translate(32.547 194.441)">
          <path id="Контур_42201" data-name="Контур 42201" d="M86.308,260.154a.647.647,0,0,1-.328-1.2l126.684-73.915a.646.646,0,0,1,.652,1.116L86.631,260.065A.656.656,0,0,1,86.308,260.154Z" transform="translate(-85.659 -184.946)" fill="#fff"/>
        </g>
        <g id="Сгруппировать_13451" data-name="Сгруппировать 13451" transform="translate(43.003 231.069)">
          <path id="Контур_42202" data-name="Контур 42202" d="M90.448,220.267a.646.646,0,0,1-.326-1.2l33.766-19.615,15.419,2.811a.647.647,0,0,1-.232,1.273l-14.95-2.728L90.771,220.179A.637.637,0,0,1,90.448,220.267Z" transform="translate(-89.799 -199.448)" fill="#fff"/>
        </g>
        <g id="Сгруппировать_13452" data-name="Сгруппировать 13452" transform="translate(95.496 206.898)">
          <path id="Контур_42203" data-name="Контур 42203" d="M111.23,228.6a.645.645,0,0,1-.336-1.2l38.221-23.181,3.91-13.871a.646.646,0,1,1,1.243.351L150.22,205.06l-.217.131L111.564,228.5A.641.641,0,0,1,111.23,228.6Z" transform="translate(-110.582 -189.878)" fill="#fff"/>
        </g>
        <g id="Сгруппировать_13454" data-name="Сгруппировать 13454" transform="translate(39.608 246.878)">
          <g id="Сгруппировать_13453" data-name="Сгруппировать 13453">
            <path id="Контур_42204" data-name="Контур 42204" d="M92.486,206.26c2.23-1.286,4.046-.253,4.054,2.316a8.885,8.885,0,0,1-4.029,6.976c-2.233,1.288-4.049.255-4.056-2.309A8.884,8.884,0,0,1,92.486,206.26Z" transform="translate(-88.455 -205.707)" fill="#fff"/>
          </g>
        </g>
        <g id="Сгруппировать_13456" data-name="Сгруппировать 13456" transform="translate(92.1 239.772)">
          <g id="Сгруппировать_13455" data-name="Сгруппировать 13455">
            <path id="Контур_42205" data-name="Контур 42205" d="M113.269,203.447c2.23-1.288,4.046-.253,4.054,2.316a8.878,8.878,0,0,1-4.026,6.973c-2.235,1.291-4.051.255-4.059-2.306A8.887,8.887,0,0,1,113.269,203.447Z" transform="translate(-109.238 -202.894)" fill="#fff"/>
          </g>
        </g>
        <g id="Сгруппировать_13458" data-name="Сгруппировать 13458" transform="translate(29.152 263.804)">
          <g id="Сгруппировать_13457" data-name="Сгруппировать 13457">
            <path id="Контур_42206" data-name="Контур 42206" d="M88.346,212.963c2.23-1.288,4.046-.253,4.054,2.314a8.881,8.881,0,0,1-4.029,6.976c-2.233,1.291-4.049.255-4.056-2.306A8.876,8.876,0,0,1,88.346,212.963Z" transform="translate(-84.315 -212.409)" fill="#fff"/>
          </g>
        </g>
      </g>
      <g id="Сгруппировать_13460" data-name="Сгруппировать 13460" transform="translate(41.944 179.396)">
        <path id="Контур_42207" data-name="Контур 42207" d="M96.578,144.56a24.841,24.841,0,0,1,11.217,19.42c-.013,3.945-1.579,6.579-4.031,7.552a6.123,6.123,0,0,1-2.852.384l-12.275,1.642,4.8-4.913-7.857-4.536a24.792,24.792,0,0,1-11.209-19.425c.018-7.1,5.1-10,11.282-6.428Zm2.5,16.854c1.159.669,2.1.131,2.1-1.192a4.608,4.608,0,0,0-2.091-3.622c-1.154-.667-2.094-.131-2.1,1.2a4.605,4.605,0,0,0,2.086,3.612m-15.5-8.946c1.159.669,2.1.134,2.1-1.192a4.6,4.6,0,0,0-2.091-3.622c-1.154-.667-2.094-.131-2.1,1.2a4.605,4.605,0,0,0,2.086,3.612m7.57,4.372c1.162.669,2.1.131,2.106-1.192a4.616,4.616,0,0,0-2.091-3.624c-1.159-.669-2.094-.129-2.1,1.2a4.6,4.6,0,0,0,2.084,3.612" transform="translate(-74.374 -136.725)" fill="#fff"/>
      </g>
    </g>
  </g>
</svg>
