<svg id="linkedin_1_" data-name="linkedin(1)" xmlns="http://www.w3.org/2000/svg" width="43.726" height="43.726" viewBox="0 0 43.726 43.726">
  <g id="Сгруппировать_17" data-name="Сгруппировать 17">
    <g id="Сгруппировать_16" data-name="Сгруппировать 16">
      <path id="Контур_12" data-name="Контур 12" d="M38.089,0H5.637A5.643,5.643,0,0,0,0,5.637V38.089a5.643,5.643,0,0,0,5.637,5.637H38.089a5.643,5.643,0,0,0,5.637-5.637V5.637A5.643,5.643,0,0,0,38.089,0Zm3.928,38.089a3.933,3.933,0,0,1-3.928,3.928H5.637a3.933,3.933,0,0,1-3.928-3.928V5.637A3.933,3.933,0,0,1,5.637,1.708H38.089a3.933,3.933,0,0,1,3.928,3.928Z" fill="#fff"/>
    </g>
  </g>
  <g id="Сгруппировать_19" data-name="Сгруппировать 19" transform="translate(16.869 15.859)">
    <g id="Сгруппировать_18" data-name="Сгруппировать 18">
      <path id="Контур_13" data-name="Контур 13" d="M215.879,187.79h0A6.293,6.293,0,0,0,210.9,185.7a7.788,7.788,0,0,0-3.9.927,8.083,8.083,0,0,0-1.544,1.172v-.814a.854.854,0,0,0-.854-.854h-6.218a.854.854,0,0,0-.854.854v19a.854.854,0,0,0,.854.854h6.172a.854.854,0,0,0,.854-.854V195.21a2.625,2.625,0,0,1,2.4-2.69l.218-.012a1.919,1.919,0,0,1,1.431.536,2.215,2.215,0,0,1,.677,1.607v11.336a.854.854,0,0,0,.854.854H216.8a.854.854,0,0,0,.854-.854V193.907C217.655,191.2,217.058,189.144,215.879,187.79Zm.069,17.342h-4.11V194.65a3.93,3.93,0,0,0-1.211-2.847,3.607,3.607,0,0,0-2.7-1l-.218.012a4.332,4.332,0,0,0-4.013,4.4v9.922h-4.464v-17.3h4.51v2.242a.854.854,0,0,0,1.542.506,8.772,8.772,0,0,1,2.557-2.475,6.117,6.117,0,0,1,3.055-.7,4.6,4.6,0,0,1,3.7,1.505h0c.9,1.034,1.357,2.714,1.357,5Z" transform="translate(-197.524 -185.699)" fill="#fff"/>
    </g>
  </g>
  <g id="Сгруппировать_21" data-name="Сгруппировать 21" transform="translate(7.095 16.289)">
    <g id="Сгруппировать_20" data-name="Сгруппировать 20">
      <path id="Контур_14" data-name="Контур 14" d="M90.146,190.729H83.928a.854.854,0,0,0-.854.854v7.111a.854.854,0,0,0,1.708,0v-6.257h4.51v17.3h-4.51v-3.779a.854.854,0,1,0-1.708,0v4.633a.854.854,0,0,0,.854.854h6.218a.854.854,0,0,0,.854-.854v-19A.854.854,0,0,0,90.146,190.729Z" transform="translate(-83.074 -190.729)" fill="#fff"/>
    </g>
  </g>
  <g id="Сгруппировать_23" data-name="Сгруппировать 23" transform="translate(7.094 27.243)">
    <g id="Сгруппировать_22" data-name="Сгруппировать 22">
      <path id="Контур_15" data-name="Контур 15" d="M84.528,319.25a.853.853,0,1,0,.25.6A.862.862,0,0,0,84.528,319.25Z" transform="translate(-83.069 -319)" fill="#fff"/>
    </g>
  </g>
  <g id="Сгруппировать_25" data-name="Сгруппировать 25" transform="translate(6.725 6.726)">
    <g id="Сгруппировать_24" data-name="Сгруппировать 24">
      <path id="Контур_16" data-name="Контур 16" d="M83.082,78.753a4.332,4.332,0,1,0,4.332,4.332A4.337,4.337,0,0,0,83.082,78.753Zm0,6.956a2.624,2.624,0,1,1,2.624-2.624A2.627,2.627,0,0,1,83.082,85.709Z" transform="translate(-78.75 -78.753)" fill="#fff"/>
    </g>
  </g>
  <g id="Сгруппировать_27" data-name="Сгруппировать 27" transform="translate(25.376 4.099)">
    <g id="Сгруппировать_26" data-name="Сгруппировать 26">
      <path id="Контур_17" data-name="Контур 17" d="M304.95,48h-6.96a.854.854,0,0,0,0,1.708h6.96a.854.854,0,0,0,0-1.708Z" transform="translate(-297.136 -48)" fill="#fff"/>
    </g>
  </g>
  <g id="Сгруппировать_29" data-name="Сгруппировать 29" transform="translate(21.49 4.099)">
    <g id="Сгруппировать_28" data-name="Сгруппировать 28">
      <path id="Контур_18" data-name="Контур 18" d="M252.5,48h-.01a.854.854,0,1,0,0,1.708h.01a.854.854,0,1,0,0-1.708Z" transform="translate(-251.636 -48)" fill="#fff"/>
    </g>
  </g>
</svg>
