<svg xmlns="http://www.w3.org/2000/svg" width="38.687" height="38.687" viewBox="0 0 38.687 38.687">
  <path id="linkedin_1_" data-name="linkedin(1)" d="M19.343,0A19.343,19.343,0,1,0,38.687,19.343,19.345,19.345,0,0,0,19.343,0ZM13.722,29.242H9.011V15.069h4.711ZM11.367,13.133h-.031a2.455,2.455,0,1,1,.062-4.9,2.456,2.456,0,1,1-.031,4.9ZM30.709,29.242H26V21.659c0-1.906-.682-3.205-2.387-3.205A2.579,2.579,0,0,0,21.2,20.177a3.226,3.226,0,0,0-.155,1.15v7.915H16.329s.062-12.843,0-14.173H21.04v2.007a4.677,4.677,0,0,1,4.246-2.339c3.1,0,5.423,2.026,5.423,6.379Zm0,0" fill="#8e8e8e"/>
</svg>
