<svg xmlns="http://www.w3.org/2000/svg" width="1503.709" height="239" viewBox="0 0 1503.709 239">
  <path id="logo" d="M46,104.281h70.883V279h76.211V104.281h70.883V40H46v64.291Zm337.249,95.68L433.548,279h69.708l-56.394-85.472a71.859,71.859,0,0,0,47.661-71.869c0-52.192-35.85-81.31-87.265-81.31H299.031V279h62.5V199.961h21.719ZM361.53,92.55h39.246c22.486,0,32.395,11.343,32.395,28.74s-10.287,28.74-32.395,28.74H361.53ZM540.63,40V278.632H704.106V234.755H590.173V177.993H693.819V135.67H590.173V83.478H704.106V40Zm334.2,187.585,73.542-115.726V279h40.013V40.358H951.81L874.444,164.838,796.331,40.358H758.22V279h40.013V111.839L872.92,227.565h1.912Zm303.729-72.238A51.485,51.485,0,0,0,1214,103.564c0-41.228-29.726-63.534-79.667-63.534h-79.258v238.6h86.887c49.533,0,80.015-23.82,80.015-67.318a56.762,56.762,0,0,0-43.438-55.976ZM1085.58,144V66.838h49.154c32.016,0,49.921,12.1,49.921,38.2s-17.527,38.957-49.921,38.957H1085.58Zm0,25.722h56.762c32.385,0,49.921,15.884,49.921,41.228,0,24.966-17.148,41.218-49.921,41.218H1085.58V169.707ZM1300.1,40h-19.817V278.632H1300.1Zm54.87,11.721h91.079V279h12.2V51.711h91.457V40H1355.361V51.721Z" transform="translate(-46 -40)" fill="#d3f7fc" fill-rule="evenodd" opacity="0.5"/>
</svg>
