<svg xmlns="http://www.w3.org/2000/svg" xmlns:xlink="http://www.w3.org/1999/xlink" width="114.269" height="111.376" viewBox="0 0 114.269 111.376">
  <defs>
    <clipPath id="clip-path">
      <rect id="Rectangle_1011" data-name="Rectangle 1011" width="114.269" height="111.376" transform="translate(0 0)" fill="#fff"/>
    </clipPath>
  </defs>
  <g id="meetinng_seqiurity" transform="translate(0 0)" clip-path="url(#clip-path)">
    <path id="Path_15932" data-name="Path 15932" d="M229.835,229.668H156.8a6.149,6.149,0,0,1-4.242-1.676,5.594,5.594,0,0,1-1.757-4.047V171.927a5.593,5.593,0,0,1,1.757-4.047A6.149,6.149,0,0,1,156.8,166.2h73.033a6.149,6.149,0,0,1,4.242,1.676,5.593,5.593,0,0,1,1.757,4.047v52.017a5.593,5.593,0,0,1-1.757,4.047A6.149,6.149,0,0,1,229.835,229.668Z" transform="translate(-124.21 -138.277)" fill="#cef"/>
    <path id="Path_15933" data-name="Path 15933" d="M428.373,166.2H391.847v63.464h36.526a6.254,6.254,0,0,0,2.3-.435,6.032,6.032,0,0,0,1.946-1.241,5.711,5.711,0,0,0,1.3-1.857,5.5,5.5,0,0,0,.457-2.19V171.927a5.593,5.593,0,0,0-1.757-4.047,6.149,6.149,0,0,0-4.242-1.676Z" transform="translate(-322.749 -138.277)" fill="#f6583e"/>
    <path id="Path_15934" data-name="Path 15934" d="M150.8,354.816v26.009a5.593,5.593,0,0,0,1.757,4.047,6.149,6.149,0,0,0,4.242,1.676h73.032a6.251,6.251,0,0,0,2.3-.435,6.024,6.024,0,0,0,1.946-1.241,5.714,5.714,0,0,0,1.3-1.857,5.5,5.5,0,0,0,.457-2.19V354.816Z" transform="translate(-124.21 -295.157)" fill="#fff"/>
    <path id="Path_15935" data-name="Path 15935" d="M391.847,354.816v31.732h36.526a6.251,6.251,0,0,0,2.3-.435,6.028,6.028,0,0,0,1.946-1.241,5.711,5.711,0,0,0,1.3-1.857,5.5,5.5,0,0,0,.457-2.19V354.816Z" transform="translate(-322.749 -295.157)" fill="#0a0849"/>
    <path id="Path_15936" data-name="Path 15936" d="M308.844,560.91l2.876-17.476h23.436l2.581,17.474Z" transform="translate(-254.382 -452.043)" fill="#004db6"/>
    <path id="Path_15937" data-name="Path 15937" d="M391.847,560.915H406.1l-2.581-17.474H391.847Z" transform="translate(-322.749 -452.048)" fill="#0a0849"/>
    <path id="Path_15938" data-name="Path 15938" d="M302.741,637.271H260.9a2.711,2.711,0,0,1-1.87-.739,2.442,2.442,0,0,1,0-3.569,2.711,2.711,0,0,1,1.87-.739h41.846a2.711,2.711,0,0,1,1.87.739,2.442,2.442,0,0,1,0,3.569A2.711,2.711,0,0,1,302.741,637.271Z" transform="translate(-212.71 -525.895)" fill="#18a7f8"/>
    <path id="Path_15939" data-name="Path 15939" d="M412.782,632.224H391.85v5.047h20.932a2.711,2.711,0,0,0,1.87-.739,2.442,2.442,0,0,0,0-3.569A2.712,2.712,0,0,0,412.782,632.224Z" transform="translate(-322.751 -525.895)" fill="#18a7f8"/>
    <path id="Path_15940" data-name="Path 15940" d="M480.4,414.287a5.833,5.833,0,1,0-6.107-5.826A5.972,5.972,0,0,0,480.4,414.287Z" transform="translate(-390.654 -334.931)" fill="#f6bf5f"/>
    <path id="Path_15941" data-name="Path 15941" d="M508.922,402.635v11.652a6.26,6.26,0,0,0,4.318-1.706,5.639,5.639,0,0,0,0-8.24A6.259,6.259,0,0,0,508.922,402.635Z" transform="translate(-419.179 -334.931)" fill="#f6bf5f"/>
    <path id="Path_15942" data-name="Path 15942" d="M465.4,477.253h-8.013a6.315,6.315,0,0,0-4.328,1.739,5.746,5.746,0,0,0-1.789,4.142v1.321a1.505,1.505,0,0,0,.473,1.089,1.655,1.655,0,0,0,1.142.451h17.066a1.655,1.655,0,0,0,1.142-.451,1.505,1.505,0,0,0,.473-1.089v-1.321a5.749,5.749,0,0,0-1.806-4.159,6.319,6.319,0,0,0-4.359-1.723Z" transform="translate(-371.696 -396.996)" fill="#56e5f9"/>
    <path id="Path_15943" data-name="Path 15943" d="M246.974,414.287a5.833,5.833,0,1,0-6.107-5.826A5.972,5.972,0,0,0,246.974,414.287Z" transform="translate(-198.392 -334.931)" fill="#f6bf5f"/>
    <path id="Path_15944" data-name="Path 15944" d="M275.5,402.635v11.652a6.26,6.26,0,0,0,4.318-1.706,5.639,5.639,0,0,0,0-8.24A6.259,6.259,0,0,0,275.5,402.635Z" transform="translate(-226.921 -334.931)" fill="#f6bf5f"/>
    <path id="Path_15945" data-name="Path 15945" d="M231.98,477.25h-8.013a6.315,6.315,0,0,0-4.328,1.739,5.747,5.747,0,0,0-1.789,4.142v1.321a1.48,1.48,0,0,0,.123.589,1.537,1.537,0,0,0,.35.5,1.622,1.622,0,0,0,.524.334,1.684,1.684,0,0,0,.618.117h17.066a1.655,1.655,0,0,0,1.142-.451,1.505,1.505,0,0,0,.473-1.089v-1.321a5.749,5.749,0,0,0-1.806-4.16,6.32,6.32,0,0,0-4.36-1.723Z" transform="translate(-179.434 -396.993)" fill="#42d260"/>
    <path id="Path_15946" data-name="Path 15946" d="M480.4,239.867a5.833,5.833,0,1,0-6.107-5.826A5.972,5.972,0,0,0,480.4,239.867Z" transform="translate(-390.654 -189.855)" fill="#f6bf5f"/>
    <path id="Path_15947" data-name="Path 15947" d="M508.922,228.216v11.652a6.364,6.364,0,0,0,2.337-.443,6.14,6.14,0,0,0,1.981-1.263,5.82,5.82,0,0,0,1.324-1.89,5.58,5.58,0,0,0,0-4.459,5.818,5.818,0,0,0-1.324-1.89,6.134,6.134,0,0,0-1.981-1.263A6.364,6.364,0,0,0,508.922,228.216Z" transform="translate(-419.179 -189.856)" fill="#f6bf5f"/>
    <path id="Path_15948" data-name="Path 15948" d="M465.406,302.833h-8.013a6.316,6.316,0,0,0-4.328,1.739,5.747,5.747,0,0,0-1.789,4.143v1.321a1.48,1.48,0,0,0,.123.59,1.534,1.534,0,0,0,.35.5,1.62,1.62,0,0,0,.524.334,1.684,1.684,0,0,0,.618.117h17.066a1.655,1.655,0,0,0,1.142-.451,1.505,1.505,0,0,0,.473-1.089v-1.321a5.749,5.749,0,0,0-1.806-4.16A6.32,6.32,0,0,0,465.406,302.833Z" transform="translate(-371.698 -251.92)" fill="#fff0ad"/>
    <path id="Path_15949" data-name="Path 15949" d="M246.974,239.867a5.833,5.833,0,1,0-6.107-5.826A5.972,5.972,0,0,0,246.974,239.867Z" transform="translate(-198.392 -189.855)" fill="#f6bf5f"/>
    <path id="Path_15950" data-name="Path 15950" d="M231.981,302.833h-8.013a6.316,6.316,0,0,0-4.328,1.739,5.747,5.747,0,0,0-1.789,4.143v1.321a1.505,1.505,0,0,0,.473,1.089,1.655,1.655,0,0,0,1.142.451h17.066a1.655,1.655,0,0,0,1.142-.451,1.505,1.505,0,0,0,.473-1.089v-1.321a5.647,5.647,0,0,0-.469-2.251,5.871,5.871,0,0,0-1.337-1.908,6.194,6.194,0,0,0-2-1.275,6.427,6.427,0,0,0-2.36-.448Z" transform="translate(-179.436 -251.92)" fill="#f6583e"/>
    <path id="Path_15951" data-name="Path 15951" d="M218.179,219.715H143.748a8.143,8.143,0,0,1-5.618-2.22,7.407,7.407,0,0,1-2.327-5.36V158.784a7.277,7.277,0,0,1,.6-2.9,7.567,7.567,0,0,1,1.722-2.459,7.98,7.98,0,0,1,2.578-1.643,8.279,8.279,0,0,1,3.04-.577h74.431a8.281,8.281,0,0,1,3.041.577,7.984,7.984,0,0,1,2.578,1.643,7.566,7.566,0,0,1,1.722,2.459,7.276,7.276,0,0,1,.6,2.9v53.351a7.409,7.409,0,0,1-2.327,5.36,8.144,8.144,0,0,1-5.618,2.22Zm-74.431-63.464a2.765,2.765,0,0,0-1.016.193,2.665,2.665,0,0,0-.861.549,2.529,2.529,0,0,0-.576.822,2.43,2.43,0,0,0-.2.969v53.351a2.475,2.475,0,0,0,.778,1.791,2.721,2.721,0,0,0,1.877.742h74.431a2.77,2.77,0,0,0,1.016-.193,2.668,2.668,0,0,0,.861-.549,2.527,2.527,0,0,0,.576-.822,2.434,2.434,0,0,0,.2-.969V158.784a2.475,2.475,0,0,0-.778-1.791,2.721,2.721,0,0,0-1.877-.742H143.748Z" transform="translate(-111.855 -125.8)" fill="#18a7f8"/>
    <path id="Path_15952" data-name="Path 15952" d="M429.738,151.2H391.847v5.047h37.891a2.077,2.077,0,0,1,.761.144,2,2,0,0,1,.645.411,1.894,1.894,0,0,1,.431.616,1.822,1.822,0,0,1,.151.726v53.828a2.631,2.631,0,0,1-.826,1.9,2.892,2.892,0,0,1-2,.788H391.847v5.047h37.891a7.584,7.584,0,0,0,2.786-.528,7.311,7.311,0,0,0,2.362-1.505,6.93,6.93,0,0,0,1.578-2.253,6.666,6.666,0,0,0,.554-2.658V158.148a6.67,6.67,0,0,0-.554-2.658,6.935,6.935,0,0,0-1.578-2.253,7.309,7.309,0,0,0-2.362-1.505,7.586,7.586,0,0,0-2.786-.528Z" transform="translate(-322.749 -125.8)" fill="#18a7f8"/>
    <path id="Path_15953" data-name="Path 15953" d="M42.145,6.934h-.268A28.67,28.67,0,0,1,24.088.79,2.74,2.74,0,0,0,20.7.79,28.67,28.67,0,0,1,2.913,6.934H2.645a2.712,2.712,0,0,0-1.87.739A2.467,2.467,0,0,0,0,9.457V23.508A27.652,27.652,0,0,0,6.024,40.673,29.943,29.943,0,0,0,21.669,50.914a2.751,2.751,0,0,0,1.453,0A29.944,29.944,0,0,0,38.766,40.673,27.652,27.652,0,0,0,44.79,23.508V9.457a2.467,2.467,0,0,0-.775-1.784,2.712,2.712,0,0,0-1.87-.739Z" transform="translate(0 -0.204)" fill="#42d260"/>
    <path id="Path_15954" data-name="Path 15954" d="M149.4,9.457V23.508a27.652,27.652,0,0,1-6.024,17.164,29.944,29.944,0,0,1-15.644,10.241,2.727,2.727,0,0,1-.727.1V.2a2.715,2.715,0,0,1,1.693.585,28.67,28.67,0,0,0,17.789,6.144h.268a2.712,2.712,0,0,1,1.87.739,2.467,2.467,0,0,1,.775,1.784Z" transform="translate(-104.605 -0.204)" fill="#42d260"/>
    <path id="Path_15955" data-name="Path 15955" d="M101.088,103.509,90.155,113.939a2.739,2.739,0,0,1-3.742,0l-5.643-5.384a2.443,2.443,0,0,1,0-3.57,2.737,2.737,0,0,1,3.742,0l3.772,3.6,9.062-8.647a2.737,2.737,0,0,1,3.742,0,2.443,2.443,0,0,1,0,3.57Z" transform="translate(-65.889 -82.545)" fill="#fff"/>
    <path id="Path_15956" data-name="Path 15956" d="M139.8,103.509l-10.933,10.431a2.647,2.647,0,0,1-.858.547,2.75,2.75,0,0,1-1.013.191v-6.092l9.062-8.647a2.737,2.737,0,0,1,3.742,0,2.443,2.443,0,0,1,0,3.57Z" transform="translate(-104.605 -82.545)" fill="#fff"/>
  </g>
</svg>
