<svg id="one_to_one" xmlns="http://www.w3.org/2000/svg" width="111.697" height="80.596" viewBox="0 0 111.697 80.596">
  <path id="Path_15957" data-name="Path 15957" d="M73.3,0H25.165a3.358,3.358,0,0,0-2.317.915,3.055,3.055,0,0,0-.96,2.21V68.292a3.055,3.055,0,0,0,.96,2.21,3.358,3.358,0,0,0,2.317.915H121a3.358,3.358,0,0,0,2.317-.915,3.055,3.055,0,0,0,.959-2.21V46.9Z" transform="translate(-17.234 0)" fill="#211260"/>
  <path id="Path_15958" data-name="Path 15958" d="M257.277,237.73h47.7a3.358,3.358,0,0,0,2.317-.916,3.054,3.054,0,0,0,.96-2.21V213.217l-50.976-3.127Z" transform="translate(-201.21 -166.312)" fill="#0a0849"/>
  <path id="Path_15959" data-name="Path 15959" d="M94.119,162.506a17.68,17.68,0,0,0-12.178,4.82,16.084,16.084,0,0,0-5.052,11.618v12.968a3.054,3.054,0,0,0,.96,2.21,3.357,3.357,0,0,0,2.317.916h27.908a3.357,3.357,0,0,0,2.317-.916,3.054,3.054,0,0,0,.959-2.21V178.945a16.084,16.084,0,0,0-5.052-11.619,17.68,17.68,0,0,0-12.178-4.82Z" transform="translate(-60.221 -128.644)" fill="#42d260"/>
  <path id="Path_15960" data-name="Path 15960" d="M109,272.769H76.84a3.4,3.4,0,0,0-1.582.389,3.218,3.218,0,0,0-1.189,1.07l-1.22,1.846H40l-1.22-1.846a3.217,3.217,0,0,0-1.189-1.07,3.4,3.4,0,0,0-1.583-.389H3.854a3.358,3.358,0,0,0-2.317.915,3.054,3.054,0,0,0-.96,2.21v11.562a8.874,8.874,0,0,0,2.787,6.41,9.754,9.754,0,0,0,6.719,2.66h92.684a9.756,9.756,0,0,0,6.719-2.66,8.874,8.874,0,0,0,2.787-6.41V275.895a3.054,3.054,0,0,0-.959-2.21A3.358,3.358,0,0,0,109,272.769Z" transform="translate(-0.577 -215.93)" fill="#18a7f8"/>
  <path id="Path_15961" data-name="Path 15961" d="M111.123,78.238a12.91,12.91,0,0,0-6.933,2.007,12.044,12.044,0,0,0-4.6,5.343,11.4,11.4,0,0,0-.71,6.879,11.745,11.745,0,0,0,3.415,6.1,12.676,12.676,0,0,0,6.389,3.258,13.04,13.04,0,0,0,7.21-.678,12.37,12.37,0,0,0,5.6-4.385,11.521,11.521,0,0,0,2.1-6.614,11.648,11.648,0,0,0-3.659-8.414A12.805,12.805,0,0,0,111.123,78.238Z" transform="translate(-77.225 -61.935)" fill="#fff0ad"/>
  <path id="Path_15962" data-name="Path 15962" d="M304.977,0h-47.7V43.778a3.055,3.055,0,0,0,.96,2.21,3.358,3.358,0,0,0,2.316.915H271.93l10.835-4.168L293.6,46.9h14.653V3.126a3.054,3.054,0,0,0-.96-2.21A3.358,3.358,0,0,0,304.977,0Z" transform="translate(-201.21 0)" fill="#56e5f9"/>
  <path id="Path_15963" data-name="Path 15963" d="M334.989,116.726a10.69,10.69,0,0,0-10.626,10.509v12.07h21.671V127.062a9.938,9.938,0,0,0-.848-4,10.344,10.344,0,0,0-2.4-3.376,10.913,10.913,0,0,0-3.585-2.227,11.311,11.311,0,0,0-4.209-.732Z" transform="translate(-253.644 -92.402)" fill="#ffbe40"/>
  <path id="Path_15964" data-name="Path 15964" d="M339.308,76.5a9.252,9.252,0,1,0-9.687-9.242A9.472,9.472,0,0,0,339.308,76.5Z" transform="translate(-257.753 -45.93)" fill="#fff0ad"/>
  <path id="Path_15965" data-name="Path 15965" d="M309.631,272.769H277.472a3.4,3.4,0,0,0-1.582.389,3.218,3.218,0,0,0-1.189,1.07l-1.22,1.846h-16.2v20.453H303.4a9.755,9.755,0,0,0,6.719-2.66,8.873,8.873,0,0,0,2.787-6.41V275.895a3.055,3.055,0,0,0-.96-2.21A3.358,3.358,0,0,0,309.631,272.769Z" transform="translate(-201.21 -215.93)" fill="#18a7f8"/>
</svg>
