<svg xmlns="http://www.w3.org/2000/svg" width="153.774" height="178.769" viewBox="0 0 153.774 178.769"><defs><style>.a{fill:#ffaf00;}.b{fill:#ff8831;}.c{fill:#f9f7f8;}.d{fill:#3c3c3c;}.e{fill:#ffba00;}.f{fill:#fb9424;}</style></defs><g transform="translate(0)"><path class="a" d="M154.767,0H70.595a3.6,3.6,0,0,0-3.579,3.235A31.274,31.274,0,0,1,39.035,30.97a3.6,3.6,0,0,0-3.241,3.579V74.827c0,48.417,31.781,89.477,75.782,103.768a3.58,3.58,0,0,0,2.209,0c44-14.291,75.782-55.351,75.782-103.768V34.549a3.6,3.6,0,0,0-3.241-3.579A31.274,31.274,0,0,1,158.345,3.235,3.6,3.6,0,0,0,154.767,0Z" transform="translate(-35.794)"/><path class="b" d="M319.579,30.97A31.274,31.274,0,0,1,291.6,3.235,3.6,3.6,0,0,0,288.019,0h-10.8A3.6,3.6,0,0,1,280.8,3.235,31.274,31.274,0,0,0,308.777,30.97a3.6,3.6,0,0,1,3.241,3.579V74.826c0,46.826-29.727,86.769-71.486,102.271q2.128.79,4.3,1.5a3.58,3.58,0,0,0,2.209,0c44-14.29,75.782-55.351,75.782-103.768V34.549a3.6,3.6,0,0,0-3.241-3.579Z" transform="translate(-169.046)"/><path class="c" d="M138.192,189.51a1.457,1.457,0,0,1-1.009,0A97.59,97.59,0,0,1,93.29,156.817,94.543,94.543,0,0,1,74.217,99.63V68.255a1.449,1.449,0,0,1,.995-1.369A44.84,44.84,0,0,0,103.229,39.1a1.449,1.449,0,0,1,1.367-.988H170.78a1.449,1.449,0,0,1,1.367.988,44.841,44.841,0,0,0,28.017,27.788,1.449,1.449,0,0,1,.995,1.369V99.63a94.545,94.545,0,0,1-19.073,57.187,97.593,97.593,0,0,1-43.893,32.693Z" transform="translate(-60.801 -24.804)"/></g><g transform="translate(41.421 28.133)"><path class="d" d="M202.782,80.573a28.582,28.582,0,0,0-28.55,28.55v32.2h57.1v-32.2A28.582,28.582,0,0,0,202.782,80.573Zm17.748,49.95h-35.5v-21.4a17.748,17.748,0,0,1,35.5,0v21.4Z" transform="translate(-167.317 -80.573)"/><path class="e" d="M214.555,261.092H165.228a10.8,10.8,0,0,1-10.8-10.8V218.966a10.8,10.8,0,0,1,10.8-10.8h49.327a10.8,10.8,0,0,1,10.8,10.8V250.29A10.8,10.8,0,0,1,214.555,261.092Z" transform="translate(-154.426 -163.615)"/><path class="f" d="M306.5,208.164H295.7a10.8,10.8,0,0,1,10.8,10.8V250.29a10.8,10.8,0,0,1-10.8,10.8h10.8a10.8,10.8,0,0,0,10.8-10.8V218.966A10.8,10.8,0,0,0,306.5,208.164Z" transform="translate(-246.374 -163.615)"/><path class="d" d="M249.933,255.357a7.021,7.021,0,1,0-12.683,4.15,1.392,1.392,0,0,1,.261.826v7.477a5.4,5.4,0,0,0,10.8,0v-7.477a1.389,1.389,0,0,1,.26-.824A6.983,6.983,0,0,0,249.933,255.357Z" transform="translate(-207.447 -189.76)"/></g></svg>