<svg xmlns="http://www.w3.org/2000/svg" width="182.333" height="58" viewBox="0 0 182.333 58">
  <g id="PARTNERS" transform="translate(-143 -692)">
    <text id="OFFICIAL_PARTNERS" data-name="OFFICIAL PARTNERS" transform="translate(143 722)" fill="#fff" font-size="19" font-family="SegoeUI-Bold, Segoe UI" font-weight="700"><tspan x="0" y="21">OFFICIAL PARTNERS</tspan></text>
    <g id="Red5Pro_logo_white_red" transform="translate(140.936 689.226)">
      <path id="Контур_113" data-name="Контур 113" d="M31.876,23.472H27.228V3.029h7.83C40.72,3.029,42.45,7,42.45,9.771a6.529,6.529,0,0,1-3.77,6.045l3.592,7.655H37.16L33.945,16.6h-2.07v6.871Zm5.9-13.7a2.358,2.358,0,0,0-2.57-2.425h-3.33v4.885h3.443A2.421,2.421,0,0,0,37.776,9.772Z" transform="translate(8.682 0.096)" fill="#fff"/>
      <path id="Контур_114" data-name="Контур 114" d="M46.162,15.559V19.12h9.457v4.354H41.486V3.029H55.618V7.376H46.16V11.2h7.39v4.357H46.162Z" transform="translate(14.026 0.096)" fill="#fff"/>
      <path id="Контур_115" data-name="Контур 115" d="M55.17,23.472V3.029h7.361c7.768,0,10.131,5.931,10.131,10.19,0,4.388-2.363,10.253-10.131,10.253Zm7.359-4.354c4.731,0,5.4-4.383,5.4-5.9s-.668-5.872-5.4-5.872H59.807V19.118Z" transform="translate(19.155 0.096)" fill="#fff"/>
      <path id="Контур_116" data-name="Контур 116" d="M73.445,17.344a4.809,4.809,0,0,0,3.513,2.046A2.463,2.463,0,0,0,79.5,16.853a2.432,2.432,0,0,0-2.564-2.484H71.813V3.472H82.682V7.566H76.436v2.86h.494c5.6,0,6.95,3.913,6.95,6.543,0,2.131-1.375,6.514-6.95,6.514a8.222,8.222,0,0,1-6.485-3.447Z" transform="translate(24.88 0.262)" fill="#fff"/>
      <path id="Контур_117" data-name="Контур 117" d="M90.108,23.472h-4.7V3.029h7.88c5.668,0,7.39,3.975,7.39,6.742a7.01,7.01,0,0,1-7.038,6.836H90.108v6.866Zm5.9-13.7a2.351,2.351,0,0,0-2.564-2.425H90.108v4.885h3.421A2.422,2.422,0,0,0,96.008,9.772Z" transform="translate(30.49 0.096)" fill="#db1f26"/>
      <path id="Контур_118" data-name="Контур 118" d="M104.559,23.472H99.922V3.029h7.827c5.666,0,7.387,3.975,7.387,6.742a6.522,6.522,0,0,1-3.767,6.045l3.592,7.655h-5.11l-3.212-6.87h-2.081v6.871Zm5.9-13.7A2.349,2.349,0,0,0,107.9,7.347h-3.338v4.885h3.451A2.413,2.413,0,0,0,110.461,9.772Z" transform="translate(35.928 0.096)" fill="#db1f26"/>
      <path id="Контур_119" data-name="Контур 119" d="M133.832,13.315c0,4.388-2.389,10.574-10.128,10.574-7.773,0-10.161-6.185-10.161-10.574,0-4.259,2.387-10.541,10.161-10.541C131.442,2.774,133.832,9.057,133.832,13.315Zm-4.753,0c0-1.516-.674-6.137-5.376-6.137-4.731,0-5.406,4.621-5.406,6.137s.674,6.195,5.406,6.195C128.406,19.51,129.08,14.831,129.08,13.315Z" transform="translate(41.034)" fill="#db1f26"/>
      <g id="Сгруппировать_82" data-name="Сгруппировать 82" transform="translate(4.064 2.968)">
        <g id="Сгруппировать_81" data-name="Сгруппировать 81">
          <path id="Контур_120" data-name="Контур 120" d="M18.271,12.585v-5.9h6.144V2.915H4.064V13.549h6.085v5.9H4.064V23.27H24.415V12.585Z" transform="translate(-4.064 -2.915)" fill="#db1f26"/>
        </g>
      </g>
      <g id="Сгруппировать_83" data-name="Сгруппировать 83" transform="translate(177.251 3.213)">
        <path id="Контур_121" data-name="Контур 121" d="M137.182,6.566a3.575,3.575,0,1,1-3.548-3.473A3.508,3.508,0,0,1,137.182,6.566Zm-6.258,0a2.714,2.714,0,0,0,2.721,2.777A2.667,2.667,0,0,0,136.3,6.589a2.688,2.688,0,1,0-5.371-.023Zm2.139,1.8h-.8V4.884a10.962,10.962,0,0,1,1.332-.106,1.814,1.814,0,0,1,1.186.279.877.877,0,0,1,.363.742.9.9,0,0,1-.725.83v.04c.341.109.507.384.615.851a3.124,3.124,0,0,0,.26.846h-.848a2.432,2.432,0,0,1-.276-.846c-.067-.366-.274-.531-.719-.531h-.389V8.368ZM133.1,6.42h.378c.445,0,.795-.151.795-.514,0-.322-.223-.532-.736-.532a2.08,2.08,0,0,0-.437.041Z" transform="translate(-130.036 -3.093)" fill="#fff"/>
      </g>
    </g>
  </g>
</svg>
