<svg xmlns="http://www.w3.org/2000/svg" width="24.001" height="24" viewBox="0 0 24.001 24"><defs><style>.a{fill:#f6583e;}</style></defs><path class="a" d="M9.5,19A9.5,9.5,0,1,1,19,9.5,9.511,9.511,0,0,1,9.5,19Zm0-17.5a8,8,0,1,0,8,8A8.009,8.009,0,0,0,9.5,1.5Z"/><path class="a" d="M23.25,24a.744.744,0,0,1-.53-.22l-7.56-7.56a.75.75,0,1,1,1.061-1.061l7.56,7.56A.75.75,0,0,1,23.25,24Z"/><path class="a" d="M8.751,13.5a.749.749,0,0,1-.732-.918l1.5-6.5a.75.75,0,1,1,1.461.336l-1.5,6.5a.749.749,0,0,1-.729.582Z"/><path class="a" d="M12.75,12.5a.75.75,0,0,1-.5-1.308L14.129,9.5,12.248,7.808a.751.751,0,0,1,1-1.116l2.5,2.25a.752.752,0,0,1,0,1.116l-2.5,2.25a.749.749,0,0,1-.5.192Z"/><path class="a" d="M6.25,12.5a.749.749,0,0,1-.5-.192l-2.5-2.25a.752.752,0,0,1,0-1.116l2.5-2.25a.751.751,0,0,1,1,1.116L4.871,9.5l1.881,1.692a.75.75,0,0,1-.5,1.308Z"/></svg>