<svg xmlns="http://www.w3.org/2000/svg" xmlns:xlink="http://www.w3.org/1999/xlink" width="24" height="19.512" viewBox="0 0 24 19.512">
  <defs>
    <clipPath id="clip-path">
      <rect id="Rectangle_1789" data-name="Rectangle 1789" width="24" height="19.512" fill="#f6583e" stroke="#f6583e" stroke-width="0.3"/>
    </clipPath>
  </defs>
  <g id="Telemedicine_app" data-name="Telemedicine app" opacity="0.5">
    <g id="Group_13544" data-name="Group 13544" clip-path="url(#clip-path)">
      <path id="Path_43837" data-name="Path 43837" d="M0,17.485a.571.571,0,0,1,.538-.239c.584.014,1.17,0,1.77,0a1.875,1.875,0,0,1-.058-.623q0-5.8,0-11.6A1.14,1.14,0,0,1,3.515,3.75q1.1,0,2.2,0c.3,0,.466.139.467.374s-.17.375-.465.375c-.734,0-1.469,0-2.2,0C3.108,4.5,3,4.607,3,5.008q0,5.871,0,11.742a.49.49,0,0,0,.688.5c.11-.035.057-.116.058-.173.012-.515,0-1.03.043-1.545A6.939,6.939,0,0,1,8.429,9.714l.238-.076c-.026-.09-.1-.1-.159-.142A3.547,3.547,0,0,1,6.939,6.51c-.013-1.508,0-3.016,0-4.523A1.942,1.942,0,0,1,8.92,0q1.57,0,3.14,0a1.942,1.942,0,0,1,2,1.992c0,1.469,0,2.937,0,4.406a3.6,3.6,0,0,1-1.617,3.125c-.034.024-.091.034-.092.111a6.8,6.8,0,0,1,4.892,6.388c.013.343.013.688,0,1.031-.007.172.051.2.208.2,1.023-.007,2.047,0,3.07,0,.356,0,.475-.121.475-.479q0-3.187,0-6.375c0-.055,0-.109,0-.164,0-.312.141-.486.383-.481s.366.174.366.474q0,2.953,0,5.906a4.745,4.745,0,0,1-.05,1.118h1.76c.438,0,.563.127.539.558a1.8,1.8,0,0,1-1.763,1.7C15.444,19.49,8.656,19.5,1.867,19.5A1.7,1.7,0,0,1,.056,18.164c-.013-.042,0-.1-.057-.117Zm13.477-6.546a10.172,10.172,0,0,1,.322,1.448.35.35,0,0,0,.252.331,1.362,1.362,0,0,1,.764,1.648A1.384,1.384,0,1,1,12.94,12.7c.079-.036.154-.053.134-.175a7.185,7.185,0,0,0-.551-1.949.283.283,0,0,0-.181-.164,5.958,5.958,0,0,0-3-.173.354.354,0,0,0-.286.228,12.05,12.05,0,0,0-.483,1.438c-.04.136,0,.163.118.208a1.622,1.622,0,0,1,1.062,1.559q0,1.183,0,2.367c0,.322-.135.454-.454.458-.094,0-.187,0-.281,0a.361.361,0,0,1-.381-.312.329.329,0,0,1,.237-.4c.139-.04.13-.119.13-.222,0-.617,0-1.234,0-1.851a.937.937,0,1,0-1.874,0c0,.617,0,1.234,0,1.851a.2.2,0,0,0,.153.231.329.329,0,0,1,.217.4.355.355,0,0,1-.335.309,2.664,2.664,0,0,1-.3,0c-.351,0-.477-.128-.477-.481q0-1.148,0-2.3a1.637,1.637,0,0,1,1.261-1.671c.059-.017.123-.011.145-.091.123-.438.25-.875.381-1.332-.052.02-.081.029-.109.041a6.127,6.127,0,0,0-3.086,3.246,7.353,7.353,0,0,0-.473,3.1c0,.189.039.243.238.242q4.956-.011,9.911-.005c.555,0,1.109,0,1.664,0,.144,0,.206-.022.2-.186-.018-.3-.01-.609-.015-.913a6.036,6.036,0,0,0-1.455-3.931,5.689,5.689,0,0,0-1.555-1.284M10.52,4.5q-1.324,0-2.648,0c-.081,0-.194-.048-.188.118a21.921,21.921,0,0,0,.05,2.363,2.88,2.88,0,0,0,2.754,2.391,2.879,2.879,0,0,0,2.774-2.4,22.281,22.281,0,0,0,.051-2.293c.006-.158-.046-.19-.194-.189-.867.007-1.734,0-2.6,0M.811,18a.906.906,0,0,0,.97.747h20.5a.877.877,0,0,0,.9-.746ZM10.5,3.75c.874,0,1.749,0,2.623,0,.151,0,.2-.035.193-.19-.01-.538,0-1.077,0-1.616A1.187,1.187,0,0,0,12.1.751q-1.6,0-3.209,0a1.187,1.187,0,0,0-1.207,1.2c0,.539.006,1.077,0,1.616,0,.157.045.19.194.189.874-.007,1.749,0,2.623,0m3.634,10.227a.634.634,0,1,0-1.269,0,.634.634,0,0,0,1.269,0" transform="translate(0.001 0.001)" fill="#f6583e" stroke="#f6583e" stroke-width="0.3"/>
      <path id="Path_43838" data-name="Path 43838" d="M232.1,31.457c-1.343,0-2.687,0-4.03,0-.221,0-.41-.037-.483-.275s.068-.362.242-.477a2.77,2.77,0,0,0,1.183-2.184c.113-1.137.027-2.279.049-3.418a1.125,1.125,0,0,1,.906-1.124,1.475,1.475,0,0,1,.3-.023q2.917,0,5.834,0a1.128,1.128,0,0,1,1.208,1.217q0,2.531,0,5.061a1.131,1.131,0,0,1-1.228,1.221H232.1m-3.135-.767a.644.644,0,0,0,.088.016q3.537,0,7.075,0c.306,0,.434-.145.434-.478q0-2.518,0-5.037c0-.363-.125-.484-.5-.484H230.3c-.366,0-.488.124-.489.493,0,.968.013,1.937-.012,2.9a4.2,4.2,0,0,1-.836,2.585" transform="translate(-213.313 -22.456)" fill="#f6583e" stroke="#f6583e" stroke-width="0.3"/>
      <path id="Path_43839" data-name="Path 43839" d="M153.594,20.98a.365.365,0,0,0-.37.4c0,.128-.029.169-.165.171a.371.371,0,1,0-.011.74c.15,0,.176.045.177.184a.37.37,0,1,0,.74,0c0-.139.028-.184.178-.183a.362.362,0,0,0,.389-.376.358.358,0,0,0-.378-.363c-.16,0-.187-.052-.189-.2a.361.361,0,0,0-.371-.371" transform="translate(-143.095 -19.666)" fill="#f6583e" stroke="#f6583e" stroke-width="0.3"/>
      <path id="Path_43840" data-name="Path 43840" d="M153.594,20.98a.361.361,0,0,1,.371.371c0,.145.029.2.189.2a.358.358,0,0,1,.378.363.362.362,0,0,1-.389.376c-.15,0-.176.045-.178.183a.37.37,0,1,1-.74,0c0-.138-.027-.184-.177-.184a.371.371,0,1,1,.011-.74c.136,0,.163-.043.165-.171a.365.365,0,0,1,.37-.4" transform="translate(-143.095 -19.666)" fill="#f6583e" stroke="#f6583e" stroke-width="0.3"/>
      <path id="Path_43841" data-name="Path 43841" d="M289.227,60.616c-.476,0-.951,0-1.427,0-.289,0-.461-.149-.454-.385s.172-.364.451-.364q1.427,0,2.854,0c.276,0,.442.144.443.373s-.166.375-.44.376c-.476,0-.951,0-1.427,0" transform="translate(-269.345 -56.115)" fill="#f6583e" stroke="#f6583e" stroke-width="0.3"/>
      <path id="Path_43842" data-name="Path 43842" d="M288.861,95.774c.351,0,.7,0,1.052,0,.271,0,.438.153.433.382a.379.379,0,0,1-.425.366q-1.076,0-2.151,0a.376.376,0,1,1-.008-.748c.366,0,.733,0,1.1,0" transform="translate(-269.348 -89.774)" fill="#f6583e" stroke="#f6583e" stroke-width="0.3"/>
    </g>
  </g>
</svg>
