<svg xmlns="http://www.w3.org/2000/svg" width="153.26" height="129.681" viewBox="0 0 153.26 129.681">
  <g id="Big_Blue_quote" data-name="Big Blue quote" transform="translate(0 -36.545)">
    <g id="Group_78" data-name="Group 78" transform="translate(0 36.545)" opacity="0.37">
      <path id="Path_83" data-name="Path 83" d="M53.051,95.492H32.42a8.805,8.805,0,0,1-8.843-8.843V83.7a22.717,22.717,0,0,1,6.909-16.671,22.722,22.722,0,0,1,16.671-6.907h5.894a5.976,5.976,0,0,0,5.894-5.894V42.44a5.976,5.976,0,0,0-5.894-5.9H47.157a45.954,45.954,0,0,0-18.283,3.73A46.711,46.711,0,0,0,3.731,65.42,45.933,45.933,0,0,0,0,83.7v64.839a17.055,17.055,0,0,0,5.157,12.528,17.058,17.058,0,0,0,12.527,5.157H53.053a17.608,17.608,0,0,0,17.683-17.684V113.176A17.612,17.612,0,0,0,53.051,95.492Z" transform="translate(0 -36.545)" fill="#b0e9ee"/>
      <path id="Path_84" data-name="Path 84" d="M321.4,100.649a17.053,17.053,0,0,0-12.526-5.157H288.242a8.8,8.8,0,0,1-8.84-8.843V83.7A23.581,23.581,0,0,1,302.98,60.125h5.893a5.978,5.978,0,0,0,5.9-5.894V42.44a5.978,5.978,0,0,0-5.9-5.9H302.98a45.965,45.965,0,0,0-18.286,3.73A46.724,46.724,0,0,0,259.552,65.42,45.945,45.945,0,0,0,255.82,83.7v64.839A17.608,17.608,0,0,0,273.5,166.226h35.367a17.607,17.607,0,0,0,17.682-17.684V113.176A17.054,17.054,0,0,0,321.4,100.649Z" transform="translate(-173.293 -36.545)" fill="#b0e9ee"/>
    </g>
  </g>
</svg>
