<svg xmlns="http://www.w3.org/2000/svg" xmlns:xlink="http://www.w3.org/1999/xlink" width="54.574" height="46.178" viewBox="0 0 54.574 46.178">
  <defs>
    <linearGradient id="linear-gradient" x1="-0.862" y1="3.412" x2="2.165" y2="0.5" gradientUnits="objectBoundingBox">
      <stop offset="0" stop-color="#fff"/>
      <stop offset="1" stop-color="#f6bf5f"/>
    </linearGradient>
  </defs>
  <g id="quote_yellow" data-name="quote yellow" transform="translate(0 -36.545)" opacity="0.72">
    <g id="Group_78" data-name="Group 78" transform="translate(0 36.545)" opacity="0.37">
      <path id="Path_83" data-name="Path 83" d="M18.891,57.535H11.544A3.135,3.135,0,0,1,8.4,54.387V53.338a8.089,8.089,0,0,1,2.46-5.936,8.091,8.091,0,0,1,5.936-2.46h2.1a2.128,2.128,0,0,0,2.1-2.1v-4.2a2.128,2.128,0,0,0-2.1-2.1h-2.1a16.364,16.364,0,0,0-6.51,1.328,16.633,16.633,0,0,0-8.954,8.954A16.356,16.356,0,0,0,0,53.337V76.426a6.073,6.073,0,0,0,1.836,4.461A6.074,6.074,0,0,0,6.3,82.723H18.892a6.27,6.27,0,0,0,6.3-6.3V63.833a6.272,6.272,0,0,0-6.3-6.3Z" transform="translate(0 -36.545)" fill="url(#linear-gradient)"/>
      <path id="Path_84" data-name="Path 84" d="M279.172,59.372a6.073,6.073,0,0,0-4.46-1.836h-7.347a3.135,3.135,0,0,1-3.148-3.149V53.338a8.4,8.4,0,0,1,8.4-8.4h2.1a2.129,2.129,0,0,0,2.1-2.1v-4.2a2.129,2.129,0,0,0-2.1-2.1h-2.1a16.368,16.368,0,0,0-6.512,1.328,16.638,16.638,0,0,0-8.953,8.954,16.361,16.361,0,0,0-1.329,6.51V76.426a6.27,6.27,0,0,0,6.3,6.3h12.594a6.27,6.27,0,0,0,6.3-6.3V63.833A6.073,6.073,0,0,0,279.172,59.372Z" transform="translate(-226.433 -36.545)" fill="url(#linear-gradient)"/>
    </g>
  </g>
</svg>
