<svg xmlns="http://www.w3.org/2000/svg" width="943.708" height="790.177" viewBox="0 0 943.708 790.177">
  <g id="Center_settings" data-name="Center settings" transform="translate(-840.903 -203.514)">
    <g id="Settings_BG" data-name="Settings BG" transform="translate(722.746 58.043)">
      <g id="Сгруппировать_5804" data-name="Сгруппировать 5804" transform="translate(419.246 686.118)" opacity="0.8">
        <path id="Контур_23847" data-name="Контур 23847" d="M225.619,438.24c4.723,4.723,1.854,16.7-2.525,24.814a121.624,121.624,0,0,0,30.61,15.523c3.988-8.367,12.063-18.467,18.915-16.631,6.445,1.727,9.945,13.521,10.226,22.731a123.247,123.247,0,0,0,34.26-1.854c-.723-9.239,1.211-22.008,8.063-23.85,6.451-1.728,15.386,6.76,20.235,14.6A122.267,122.267,0,0,0,374.126,454.8c-5.245-7.632-9.945-19.667-4.935-24.676,4.717-4.717,16.688-1.848,24.809,2.531a121.52,121.52,0,0,0,15.523-30.611c-8.373-3.988-18.473-12.063-16.631-18.909,1.722-6.445,13.515-9.945,22.725-10.221a122.994,122.994,0,0,0-1.854-34.255c-9.239.717-22-1.228-23.844-8.074-1.727-6.45,6.749-15.385,14.6-20.229a121.8,121.8,0,0,0-18.772-28.728c-7.632,5.245-19.655,9.945-24.665,4.935-4.729-4.717-1.854-16.7,2.519-24.809a121.62,121.62,0,0,0-30.61-15.523c-3.988,8.367-12.057,18.461-18.909,16.625-6.445-1.722-9.945-13.509-10.221-22.725a123.249,123.249,0,0,0-34.26,1.854c.717,9.239-1.222,22.008-8.069,23.844-6.45,1.727-15.385-6.749-20.229-14.6A121.976,121.976,0,0,0,212.575,270c5.245,7.638,9.945,19.667,4.935,24.677-4.717,4.717-16.688,1.848-24.809-2.531a121.465,121.465,0,0,0-15.523,30.616c8.367,3.983,18.467,12.051,16.637,18.9-1.727,6.445-13.521,9.945-22.737,10.215a122.848,122.848,0,0,0,1.854,34.266c9.234-.723,22.014,1.222,23.85,8.069,1.727,6.45-6.755,15.391-14.605,20.235a121.977,121.977,0,0,0,18.771,28.728C208.586,437.93,220.609,433.23,225.619,438.24ZM235.547,304.6a81.744,81.744,0,1,1,0,115.6A81.745,81.745,0,0,1,235.547,304.6Z" transform="translate(-170.623 -239.681)" fill="#fff"/>
        <path id="Контур_23848" data-name="Контур 23848" d="M298.732,367.791a66.781,66.781,0,1,1,0-94.448,66.859,66.859,0,0,1,0,94.448m3.73,3.73a72.058,72.058,0,1,0-101.9,0,72.058,72.058,0,0,0,101.9,0Z" transform="translate(-128.783 -197.846)" fill="#fff"/>
      </g>
      <g id="Сгруппировать_5805" data-name="Сгруппировать 5805" transform="translate(575.408 319.952)" opacity="0.6">
        <path id="Контур_23849" data-name="Контур 23849" d="M227.265,282.126c2.525,2.525.987,8.935-1.354,13.279a65.152,65.152,0,0,0,16.378,8.3c2.135-4.476,6.456-9.882,10.123-8.9,3.449.924,5.32,7.236,5.469,12.166a66.183,66.183,0,0,0,18.335-.993c-.385-4.941.648-11.776,4.315-12.763,3.449-.924,8.235,3.615,10.823,7.816a65.4,65.4,0,0,0,15.374-10.048c-2.806-4.08-5.326-10.525-2.646-13.205,2.525-2.525,8.935-.987,13.279,1.354a65.148,65.148,0,0,0,8.3-16.378c-4.482-2.135-9.882-6.456-8.9-10.117.924-3.449,7.237-5.32,12.166-5.469a65.929,65.929,0,0,0-.993-18.33c-4.947.379-11.776-.66-12.763-4.321-.924-3.455,3.615-8.235,7.816-10.823a65.218,65.218,0,0,0-10.048-15.374c-4.086,2.806-10.513,5.32-13.2,2.64-2.525-2.525-.993-8.935,1.349-13.274a64.957,64.957,0,0,0-16.378-8.3c-2.135,4.476-6.45,9.876-10.117,8.9-3.449-.924-5.32-7.231-5.469-12.166a65.93,65.93,0,0,0-18.33,1c.385,4.941-.66,11.776-4.321,12.757-3.449.924-8.235-3.61-10.823-7.816A65.4,65.4,0,0,0,220.281,192.1c2.806,4.086,5.326,10.519,2.646,13.2-2.525,2.525-8.935.987-13.279-1.354a65.151,65.151,0,0,0-8.3,16.378c4.476,2.135,9.882,6.45,8.9,10.117-.924,3.449-7.237,5.32-12.166,5.469a65.781,65.781,0,0,0,.993,18.335c4.941-.39,11.776.654,12.763,4.316.924,3.455-3.615,8.235-7.816,10.829a65.308,65.308,0,0,0,10.043,15.374C218.146,281.96,224.585,279.446,227.265,282.126Zm5.308-71.51a43.742,43.742,0,1,1,0,61.858A43.742,43.742,0,0,1,232.573,210.616Z" transform="translate(-197.835 -175.875)" fill="#fff"/>
        <path id="Контур_23850" data-name="Контур 23850" d="M266.385,244.426a35.734,35.734,0,1,1,0-50.541,35.783,35.783,0,0,1,0,50.541m2,1.991a38.556,38.556,0,1,0-54.53,0,38.55,38.55,0,0,0,54.53,0Z" transform="translate(-175.447 -153.486)" fill="#fff"/>
      </g>
      <g id="Сгруппировать_5806" data-name="Сгруппировать 5806" transform="translate(834.506 710.47)" opacity="0.8">
        <path id="Контур_23851" data-name="Контур 23851" d="M291.9,420.548c4.2,4.2,1.653,14.852-2.244,22.077a108.163,108.163,0,0,0,27.224,13.8c3.547-7.443,10.731-16.424,16.826-14.795,5.733,1.538,8.849,12.028,9.1,20.223a109.49,109.49,0,0,0,30.473-1.653c-.643-8.212,1.085-19.575,7.173-21.21,5.739-1.538,13.693,6.009,18,12.993A108.776,108.776,0,0,0,424,435.279c-4.666-6.789-8.849-17.492-4.39-21.945,4.2-4.2,14.846-1.647,22.065,2.25a108.369,108.369,0,0,0,13.813-27.236c-7.455-3.547-16.436-10.726-14.8-16.815,1.538-5.733,12.023-8.844,20.218-9.09a109.5,109.5,0,0,0-1.647-30.473c-8.218.637-19.575-1.09-21.21-7.179-1.538-5.739,6-13.687,12.987-18a108.444,108.444,0,0,0-16.7-25.555c-6.789,4.666-17.486,8.843-21.939,4.39-4.207-4.2-1.653-14.852,2.238-22.071a108.069,108.069,0,0,0-27.224-13.8c-3.547,7.443-10.726,16.424-16.82,14.789-5.733-1.538-8.849-12.023-9.09-20.218a109.3,109.3,0,0,0-30.478,1.653c.643,8.218-1.085,19.575-7.173,21.2-5.739,1.538-13.693-6-18-12.987A108.566,108.566,0,0,0,280.3,270.9c4.666,6.795,8.849,17.492,4.39,21.951-4.195,4.2-14.846,1.641-22.065-2.255a108.465,108.465,0,0,0-13.813,27.236c7.443,3.546,16.43,10.72,14.8,16.815-1.532,5.733-12.023,8.843-20.223,9.09a109.327,109.327,0,0,0,1.647,30.478c8.218-.643,19.581,1.085,21.216,7.179,1.538,5.733-6.009,13.687-12.993,18a108.445,108.445,0,0,0,16.7,25.555C276.753,420.272,287.45,416.094,291.9,420.548Zm8.832-118.872a72.714,72.714,0,1,1,0,102.833A72.711,72.711,0,0,1,300.735,301.675Z" transform="translate(-242.983 -243.925)" fill="#fff"/>
        <path id="Контур_23852" data-name="Контур 23852" d="M356.938,357.875a59.4,59.4,0,1,1,0-84,59.471,59.471,0,0,1,0,84m3.317,3.323a64.1,64.1,0,1,0-90.644,0,64.1,64.1,0,0,0,90.644,0Z" transform="translate(-205.765 -206.708)" fill="#fff"/>
      </g>
      <g id="Сгруппировать_5807" data-name="Сгруппировать 5807" transform="translate(118.157 655.767)">
        <path id="Контур_23853" data-name="Контур 23853" d="M180.866,460.812c5.383,5.383,2.118,19.036-2.875,28.3a138.615,138.615,0,0,0,34.9,17.7c4.545-9.543,13.75-21.055,21.566-18.967,7.351,1.968,11.34,15.42,11.661,25.922a140.755,140.755,0,0,0,39.064-2.118c-.821-10.531,1.389-25.1,9.2-27.19,7.351-1.974,17.543,7.7,23.07,16.654A139.442,139.442,0,0,0,350.21,479.7c-5.985-8.706-11.346-22.427-5.63-28.137,5.383-5.383,19.03-2.112,28.292,2.881a138.461,138.461,0,0,0,17.7-34.909c-9.549-4.545-21.061-13.75-18.967-21.56,1.968-7.351,15.414-11.334,25.916-11.656a140.3,140.3,0,0,0-2.112-39.058c-10.536.815-25.1-1.4-27.19-9.2-1.974-7.357,7.7-17.543,16.648-23.07a139.094,139.094,0,0,0-21.406-32.762c-8.706,5.986-22.415,11.345-28.126,5.63-5.389-5.377-2.118-19.035,2.869-28.292a138.4,138.4,0,0,0-34.9-17.692c-4.545,9.538-13.75,21.05-21.56,18.955-7.346-1.968-11.34-15.408-11.655-25.916a140.525,140.525,0,0,0-39.064,2.118c.815,10.536-1.4,25.1-9.2,27.184-7.357,1.974-17.555-7.69-23.07-16.648a139.159,139.159,0,0,0-32.763,21.406c5.98,8.711,11.346,22.427,5.63,28.137-5.383,5.383-19.03,2.112-28.292-2.887a138.8,138.8,0,0,0-17.7,34.915c9.544,4.545,21.061,13.744,18.972,21.56-1.968,7.346-15.414,11.334-25.922,11.65a140.156,140.156,0,0,0,2.112,39.07c10.531-.821,25.1,1.395,27.2,9.2,1.974,7.357-7.7,17.555-16.654,23.075a139.1,139.1,0,0,0,21.405,32.763C161.446,460.456,175.156,455.1,180.866,460.812Zm11.323-152.392a93.214,93.214,0,1,1,0,131.825A93.217,93.217,0,0,1,192.188,308.419Z" transform="translate(-118.157 -234.392)" fill="#fff"/>
        <path id="Контур_23854" data-name="Контур 23854" d="M264.236,380.469a76.149,76.149,0,1,1,0-107.693,76.235,76.235,0,0,1,0,107.693m4.258,4.258a82.169,82.169,0,1,0-116.2,0,82.175,82.175,0,0,0,116.2,0Z" transform="translate(-70.448 -186.686)" fill="#fff"/>
      </g>
      <g id="Сгруппировать_5808" data-name="Сгруппировать 5808" transform="translate(619.2 447.479)" opacity="0.8">
        <path id="Контур_23855" data-name="Контур 23855" d="M255.183,377.6c4.27,4.264,1.676,15.093-2.284,22.433a109.993,109.993,0,0,0,27.672,14.031c3.6-7.564,10.9-16.694,17.1-15.036,5.825,1.561,8.993,12.224,9.245,20.55a111.526,111.526,0,0,0,30.972-1.682c-.654-8.344,1.1-19.89,7.288-21.555,5.831-1.561,13.911,6.106,18.3,13.2a110.654,110.654,0,0,0,25.968-16.975c-4.746-6.9-8.993-17.779-4.465-22.306,4.264-4.27,15.087-1.676,22.427,2.284a110.018,110.018,0,0,0,14.037-27.672c-7.575-3.6-16.705-10.9-15.041-17.1,1.561-5.825,12.218-8.987,20.551-9.239a111.511,111.511,0,0,0-1.676-30.966c-8.356.648-19.9-1.108-21.56-7.3-1.561-5.831,6.106-13.9,13.2-18.284a110.179,110.179,0,0,0-16.969-25.974c-6.9,4.746-17.767,8.993-22.3,4.465-4.27-4.264-1.676-15.1,2.284-22.433a109.88,109.88,0,0,0-27.672-14.025c-3.6,7.564-10.9,16.688-17.1,15.03-5.825-1.561-8.993-12.218-9.239-20.55a111.525,111.525,0,0,0-30.972,1.681c.648,8.35-1.108,19.9-7.294,21.549-5.831,1.567-13.911-6.095-18.284-13.2a110.272,110.272,0,0,0-25.974,16.975c4.74,6.9,8.993,17.779,4.465,22.307-4.27,4.264-15.093,1.67-22.433-2.29A109.941,109.941,0,0,0,211.391,273.2c7.564,3.6,16.694,10.9,15.036,17.09-1.555,5.831-12.218,8.987-20.55,9.239a111.106,111.106,0,0,0,1.676,30.972c8.35-.654,19.9,1.1,21.56,7.294,1.567,5.831-6.106,13.916-13.2,18.3a110.294,110.294,0,0,0,16.975,25.968C239.786,377.316,250.655,373.069,255.183,377.6Zm8.975-120.812a73.9,73.9,0,1,1,0,104.508A73.89,73.89,0,0,1,264.158,256.785Z" transform="translate(-205.466 -198.097)" fill="#fff"/>
        <path id="Контур_23856" data-name="Контур 23856" d="M321.277,313.908a60.369,60.369,0,1,1,0-85.375,60.441,60.441,0,0,1,0,85.375m3.369,3.374a65.14,65.14,0,1,0-92.118,0,65.141,65.141,0,0,0,92.118,0Z" transform="translate(-167.642 -160.278)" fill="#fff"/>
      </g>
      <g id="Сгруппировать_5818" data-name="Сгруппировать 5818" transform="translate(338.118 266.681)" opacity="0.8">
        <path id="Контур_23855-2" data-name="Контур 23855" d="M255.183,377.6c4.27,4.264,1.676,15.093-2.284,22.433a109.993,109.993,0,0,0,27.672,14.031c3.6-7.564,10.9-16.694,17.1-15.036,5.825,1.561,8.993,12.224,9.245,20.55a111.526,111.526,0,0,0,30.972-1.682c-.654-8.344,1.1-19.89,7.288-21.555,5.831-1.561,13.911,6.106,18.3,13.2a110.654,110.654,0,0,0,25.968-16.975c-4.746-6.9-8.993-17.779-4.465-22.306,4.264-4.27,15.087-1.676,22.427,2.284a110.018,110.018,0,0,0,14.037-27.672c-7.575-3.6-16.705-10.9-15.041-17.1,1.561-5.825,12.218-8.987,20.551-9.239a111.511,111.511,0,0,0-1.676-30.966c-8.356.648-19.9-1.108-21.56-7.3-1.561-5.831,6.106-13.9,13.2-18.284a110.179,110.179,0,0,0-16.969-25.974c-6.9,4.746-17.767,8.993-22.3,4.465-4.27-4.264-1.676-15.1,2.284-22.433a109.88,109.88,0,0,0-27.672-14.025c-3.6,7.564-10.9,16.688-17.1,15.03-5.825-1.561-8.993-12.218-9.239-20.55a111.525,111.525,0,0,0-30.972,1.681c.648,8.35-1.108,19.9-7.294,21.549-5.831,1.567-13.911-6.095-18.284-13.2a110.272,110.272,0,0,0-25.974,16.975c4.74,6.9,8.993,17.779,4.465,22.307-4.27,4.264-15.093,1.67-22.433-2.29A109.941,109.941,0,0,0,211.391,273.2c7.564,3.6,16.694,10.9,15.036,17.09-1.555,5.831-12.218,8.987-20.55,9.239a111.106,111.106,0,0,0,1.676,30.972c8.35-.654,19.9,1.1,21.56,7.294,1.567,5.831-6.106,13.916-13.2,18.3a110.294,110.294,0,0,0,16.975,25.968C239.786,377.316,250.655,373.069,255.183,377.6Zm8.975-120.812a73.9,73.9,0,1,1,0,104.508A73.89,73.89,0,0,1,264.158,256.785Z" transform="translate(-205.466 -198.097)" fill="#fff"/>
        <path id="Контур_23856-2" data-name="Контур 23856" d="M321.277,313.908a60.369,60.369,0,1,1,0-85.375,60.441,60.441,0,0,1,0,85.375m3.369,3.374a65.14,65.14,0,1,0-92.118,0,65.141,65.141,0,0,0,92.118,0Z" transform="translate(-167.642 -160.278)" fill="#fff"/>
      </g>
      <g id="Сгруппировать_5809" data-name="Сгруппировать 5809" transform="translate(322.077 508.069)" opacity="0.7">
        <path id="Контур_23857" data-name="Контур 23857" d="M196.206,362.147c3.644,3.644,1.429,12.906-1.957,19.179a94.124,94.124,0,0,0,23.667,12c3.082-6.468,9.32-14.272,14.617-12.855,4.981,1.331,7.69,10.45,7.9,17.572a95.389,95.389,0,0,0,26.484-1.44c-.557-7.133.941-17.01,6.232-18.427,4.987-1.337,11.9,5.216,15.644,11.288A94.667,94.667,0,0,0,311,374.95c-4.057-5.905-7.69-15.208-3.816-19.076,3.65-3.65,12.907-1.429,19.179,1.957a94.023,94.023,0,0,0,12-23.667c-6.473-3.082-14.278-9.325-12.855-14.616,1.331-4.981,10.444-7.684,17.566-7.9a95.147,95.147,0,0,0-1.435-26.479c-7.139.557-17.01-.947-18.427-6.238-1.343-4.987,5.217-11.9,11.282-15.638a94.222,94.222,0,0,0-14.513-22.209c-5.9,4.051-15.19,7.69-19.064,3.816-3.656-3.644-1.435-12.906,1.945-19.179a93.9,93.9,0,0,0-23.661-12c-3.082,6.468-9.32,14.272-14.617,12.855-4.981-1.337-7.684-10.445-7.9-17.572a95.386,95.386,0,0,0-26.484,1.435c.551,7.145-.947,17.015-6.238,18.433-4.987,1.337-11.9-5.216-15.638-11.288A94.518,94.518,0,0,0,186.117,232.1c4.052,5.905,7.69,15.2,3.816,19.076-3.644,3.644-12.9,1.429-19.179-1.957a93.933,93.933,0,0,0-12,23.667c6.468,3.082,14.278,9.314,12.861,14.611-1.331,4.981-10.45,7.69-17.572,7.9a95,95,0,0,0,1.429,26.49c7.139-.557,17.015.941,18.439,6.238,1.337,4.987-5.222,11.9-11.288,15.638a94.2,94.2,0,0,0,14.508,22.209C183.035,361.906,192.332,358.273,196.206,362.147Zm7.673-103.309a63.19,63.19,0,1,1,0,89.364A63.191,63.191,0,0,1,203.878,258.838Z" transform="translate(455.139 -60.399) rotate(106)" fill="#fff"/>
        <path id="Контур_23858" data-name="Контур 23858" d="M252.717,307.684a51.621,51.621,0,1,1,0-73.008,51.681,51.681,0,0,1,0,73.008m2.887,2.881a55.7,55.7,0,1,0-78.776,0,55.7,55.7,0,0,0,78.776,0Z" transform="translate(-121.349 -176.315)" fill="#fff"/>
      </g>
      <g id="Сгруппировать_5810" data-name="Сгруппировать 5810" transform="translate(672.671 784.991)" opacity="0.6">
        <path id="Контур_23859" data-name="Контур 23859" d="M248.222,377.641c2.869,2.869,1.125,10.152-1.538,15.087a73.98,73.98,0,0,0,18.617,9.434c2.422-5.085,7.328-11.225,11.495-10.112,3.92,1.05,6.049,8.224,6.221,13.825a75.085,75.085,0,0,0,20.831-1.131c-.442-5.612.735-13.377,4.9-14.5,3.92-1.056,9.36,4.1,12.3,8.878a74.42,74.42,0,0,0,17.463-11.414c-3.191-4.643-6.049-11.96-3-15.007,2.869-2.869,10.152-1.125,15.087,1.538a74.154,74.154,0,0,0,9.44-18.611c-5.1-2.427-11.236-7.334-10.117-11.5,1.05-3.92,8.218-6.043,13.819-6.215a74.84,74.84,0,0,0-1.125-20.826c-5.618.436-13.383-.746-14.5-4.907-1.056-3.925,4.1-9.354,8.872-12.3a74.029,74.029,0,0,0-11.414-17.469c-4.637,3.191-11.948,6.048-15,3-2.869-2.864-1.125-10.152,1.532-15.082a73.845,73.845,0,0,0-18.611-9.434c-2.422,5.085-7.334,11.225-11.495,10.106-3.92-1.05-6.049-8.212-6.215-13.819a74.847,74.847,0,0,0-20.832,1.13c.436,5.618-.746,13.377-4.907,14.5-3.92,1.05-9.354-4.1-12.3-8.878a74.174,74.174,0,0,0-17.469,11.414c3.185,4.643,6.049,11.954,3,15-2.869,2.869-10.152,1.125-15.087-1.538a74.091,74.091,0,0,0-9.44,18.617c5.09,2.422,11.231,7.328,10.117,11.495-1.05,3.919-8.218,6.043-13.825,6.209a74.695,74.695,0,0,0,1.131,20.837c5.612-.442,13.383.74,14.5,4.907,1.05,3.92-4.109,9.354-8.883,12.3a74.155,74.155,0,0,0,11.414,17.469C237.864,377.451,245.175,374.593,248.222,377.641Zm6.037-81.261a49.7,49.7,0,1,1,0,70.294A49.7,49.7,0,0,1,254.259,296.38Z" transform="translate(-214.783 -256.91)" fill="#fff"/>
        <path id="Контур_23860" data-name="Контур 23860" d="M292.675,334.8a40.6,40.6,0,1,1,0-57.428,40.656,40.656,0,0,1,0,57.428m2.267,2.267a43.811,43.811,0,1,0-61.956,0,43.808,43.808,0,0,0,61.956,0Z" transform="translate(-189.343 -231.473)" fill="#fff"/>
      </g>
      <g id="Сгруппировать_5811" data-name="Сгруппировать 5811" transform="translate(853.279 480.391)" opacity="0.7">
        <path id="Контур_23861" data-name="Контур 23861" d="M292.992,372.572c4.011,4.011,1.572,14.192-2.146,21.09a103.248,103.248,0,0,0,26.014,13.188c3.386-7.11,10.249-15.69,16.068-14.129,5.48,1.463,8.453,11.489,8.694,19.317a104.8,104.8,0,0,0,29.113-1.578c-.614-7.845,1.033-18.7,6.852-20.263,5.48-1.469,13.079,5.739,17.2,12.413a104.089,104.089,0,0,0,24.407-15.959c-4.459-6.485-8.453-16.711-4.2-20.969,4.011-4.011,14.186-1.572,21.084,2.152a103.3,103.3,0,0,0,13.193-26.019c-7.116-3.392-15.7-10.249-14.134-16.068,1.463-5.475,11.483-8.448,19.317-8.683a104.59,104.59,0,0,0-1.578-29.113c-7.851.608-18.7-1.044-20.264-6.863-1.469-5.481,5.739-13.073,12.407-17.193a103.5,103.5,0,0,0-15.954-24.413c-6.485,4.459-16.705,8.453-20.964,4.195-4.011-4.006-1.573-14.186,2.146-21.084A103.35,103.35,0,0,0,384.238,209.4c-3.392,7.11-10.249,15.69-16.069,14.129-5.475-1.469-8.453-11.483-8.689-19.317a104.777,104.777,0,0,0-29.113,1.578c.608,7.851-1.039,18.7-6.858,20.263-5.481,1.469-13.079-5.733-17.188-12.407A103.633,103.633,0,0,0,281.9,229.6c4.453,6.5,8.453,16.717,4.2,20.975-4.011,4.011-14.186,1.573-21.084-2.152a103.3,103.3,0,0,0-13.193,26.019c7.11,3.386,15.7,10.244,14.134,16.069-1.463,5.475-11.483,8.447-19.317,8.677a104.443,104.443,0,0,0,1.578,29.124c7.845-.614,18.7,1.033,20.264,6.852,1.469,5.48-5.739,13.079-12.413,17.2a103.735,103.735,0,0,0,15.954,24.413C278.519,372.308,288.734,368.314,292.992,372.572ZM301.428,259a69.467,69.467,0,1,1,0,98.242A69.47,69.47,0,0,1,301.428,259Z" transform="translate(-246.255 -203.832)" fill="#fff"/>
        <path id="Контур_23862" data-name="Контур 23862" d="M355.123,312.7a56.75,56.75,0,1,1,0-80.256,56.811,56.811,0,0,1,0,80.256m3.174,3.174a61.236,61.236,0,1,0-86.6,0,61.241,61.241,0,0,0,86.6,0Z" transform="translate(-210.7 -168.28)" fill="#fff"/>
      </g>
      <g id="Сгруппировать_5812" data-name="Сгруппировать 5812" transform="translate(744.491 665.424)" opacity="0.4">
        <path id="Контур_23863" data-name="Контур 23863" d="M251.727,324.284c2.1,2.1.827,7.42-1.119,11.024a53.954,53.954,0,0,0,13.6,6.9c1.768-3.719,5.354-8.2,8.4-7.386,2.864.763,4.419,6,4.539,10.094a54.879,54.879,0,0,0,15.225-.821c-.321-4.1.539-9.779,3.581-10.594,2.864-.769,6.835,3,8.987,6.485a54.331,54.331,0,0,0,12.763-8.338c-2.336-3.392-4.419-8.74-2.192-10.967,2.095-2.094,7.415-.821,11.018,1.125a53.961,53.961,0,0,0,6.9-13.6c-3.724-1.768-8.206-5.354-7.392-8.4.769-2.864,6.009-4.419,10.1-4.545a54.582,54.582,0,0,0-.827-15.213c-4.1.316-9.773-.545-10.594-3.587-.769-2.869,3-6.835,6.485-8.987a54.13,54.13,0,0,0-8.338-12.769c-3.392,2.336-8.729,4.425-10.955,2.2-2.1-2.095-.826-7.42,1.119-11.024a53.929,53.929,0,0,0-13.6-6.892c-1.767,3.713-5.354,8.2-8.4,7.386-2.864-.769-4.419-6-4.539-10.1a54.87,54.87,0,0,0-15.225.826c.321,4.1-.539,9.779-3.581,10.594-2.869.763-6.841-3-8.987-6.491a54.065,54.065,0,0,0-12.763,8.344c2.324,3.392,4.419,8.734,2.192,10.961-2.094,2.095-7.414.821-11.024-1.125a54.144,54.144,0,0,0-6.9,13.6c3.719,1.773,8.206,5.354,7.392,8.4-.763,2.864-6,4.413-10.1,4.534a54.667,54.667,0,0,0,.826,15.225c4.1-.321,9.779.539,10.594,3.581.769,2.869-3,6.841-6.491,8.993a54.177,54.177,0,0,0,8.344,12.763C244.164,324.146,249.507,322.063,251.727,324.284Zm4.413-59.367a36.314,36.314,0,1,1,0,51.356A36.316,36.316,0,0,1,256.141,264.917Z" transform="translate(-227.298 -236.075)" fill="#fff"/>
        <path id="Контур_23864" data-name="Контур 23864" d="M284.209,292.986a29.667,29.667,0,1,1,0-41.956,29.7,29.7,0,0,1,0,41.956m1.659,1.659a32.013,32.013,0,1,0-45.273,0,32.018,32.018,0,0,0,45.273,0Z" transform="translate(-208.711 -217.489)" fill="#fff"/>
      </g>
      <g id="Сгруппировать_5813" data-name="Сгруппировать 5813" transform="translate(502.483 460.04)" opacity="0.4">
        <path id="Контур_23865" data-name="Контур 23865" d="M209.556,288.5c2.1,2.095.826,7.414-1.119,11.024a53.9,53.9,0,0,0,13.6,6.892c1.773-3.719,5.36-8.2,8.407-7.386,2.858.763,4.419,6,4.539,10.1a55.052,55.052,0,0,0,15.219-.827c-.321-4.1.539-9.779,3.581-10.594,2.869-.769,6.841,3,8.993,6.485a54.451,54.451,0,0,0,12.763-8.339c-2.336-3.392-4.425-8.74-2.2-10.961,2.1-2.1,7.414-.826,11.024,1.119a54.018,54.018,0,0,0,6.9-13.6c-3.724-1.773-8.206-5.36-7.392-8.4.763-2.864,6-4.419,10.095-4.539a54.4,54.4,0,0,0-.821-15.219c-4.1.316-9.779-.545-10.594-3.587-.769-2.869,3-6.835,6.485-8.987a54.154,54.154,0,0,0-8.338-12.763c-3.392,2.33-8.734,4.419-10.955,2.192-2.1-2.095-.826-7.42,1.119-11.024a54.028,54.028,0,0,0-13.6-6.892c-1.773,3.719-5.354,8.2-8.4,7.386-2.864-.769-4.419-6-4.539-10.1a54.827,54.827,0,0,0-15.219.826c.321,4.1-.545,9.779-3.587,10.594-2.864.769-6.835-3-8.981-6.485a54.187,54.187,0,0,0-12.769,8.338c2.33,3.392,4.419,8.734,2.2,10.961-2.1,2.1-7.42.821-11.024-1.125a54.144,54.144,0,0,0-6.9,13.6c3.719,1.773,8.206,5.354,7.391,8.4-.769,2.864-6,4.419-10.1,4.539a54.639,54.639,0,0,0,.826,15.219c4.1-.321,9.773.545,10.594,3.587.769,2.864-3,6.835-6.491,8.987a54.331,54.331,0,0,0,8.338,12.763C201.993,288.363,207.336,286.274,209.556,288.5Zm4.413-59.373a36.314,36.314,0,1,1,0,51.356A36.316,36.316,0,0,1,213.97,229.128Z" transform="translate(-185.127 -200.286)" fill="#fff"/>
        <path id="Контур_23866" data-name="Контур 23866" d="M242.038,257.2a29.667,29.667,0,1,1,0-41.956,29.7,29.7,0,0,1,0,41.956m1.659,1.659a32.013,32.013,0,1,0-45.273,0,32.018,32.018,0,0,0,45.273,0Z" transform="translate(-166.54 -181.7)" fill="#fff"/>
      </g>
      <g id="Сгруппировать_5814" data-name="Сгруппировать 5814" transform="translate(540.017 589.942)" opacity="0.2">
        <path id="Контур_23867" data-name="Контур 23867" d="M208.542,283.85c1.452,1.452.568,5.125-.775,7.615a37.441,37.441,0,0,0,9.394,4.763c1.222-2.565,3.7-5.664,5.8-5.1,1.98.528,3.053,4.149,3.139,6.972a38.034,38.034,0,0,0,10.513-.568c-.224-2.835.373-6.755,2.473-7.317,1.98-.534,4.723,2.072,6.209,4.482a37.581,37.581,0,0,0,8.815-5.762c-1.612-2.341-3.053-6.037-1.515-7.575,1.446-1.446,5.119-.562,7.609.781a37.061,37.061,0,0,0,4.763-9.394c-2.571-1.228-5.664-3.7-5.1-5.8.528-1.98,4.149-3.053,6.973-3.139a37.542,37.542,0,0,0-.568-10.508c-2.835.218-6.749-.379-7.317-2.479-.528-1.98,2.072-4.723,4.482-6.209a37.524,37.524,0,0,0-5.762-8.815c-2.341,1.613-6.031,3.053-7.569,1.515-1.446-1.446-.568-5.125.775-7.615a37.423,37.423,0,0,0-9.394-4.757c-1.222,2.565-3.7,5.664-5.8,5.1-1.974-.534-3.053-4.149-3.133-6.978a37.793,37.793,0,0,0-10.513.574c.218,2.835-.379,6.749-2.479,7.311-1.974.534-4.717-2.066-6.2-4.476a37.289,37.289,0,0,0-8.815,5.762c1.607,2.341,3.053,6.031,1.515,7.569-1.452,1.446-5.125.568-7.615-.775a37.343,37.343,0,0,0-4.763,9.394c2.565,1.222,5.67,3.7,5.107,5.8-.534,1.974-4.149,3.047-6.978,3.133a37.593,37.593,0,0,0,.568,10.513c2.835-.224,6.755.373,7.317,2.473.534,1.98-2.072,4.723-4.482,6.209a37.467,37.467,0,0,0,5.762,8.815C203.314,283.758,207,282.311,208.542,283.85Zm3.047-41.009a25.084,25.084,0,1,1,0,35.477A25.09,25.09,0,0,1,211.59,242.84Z" transform="translate(-191.667 -222.922)" fill="#fff"/>
        <path id="Контур_23868" data-name="Контур 23868" d="M230.979,262.232a20.492,20.492,0,1,1,0-28.981,20.519,20.519,0,0,1,0,28.981m1.142,1.142a22.109,22.109,0,1,0-31.27,0,22.1,22.1,0,0,0,31.27,0Z" transform="translate(-178.828 -210.084)" fill="#fff"/>
      </g>
      <g id="Сгруппировать_5815" data-name="Сгруппировать 5815" transform="translate(641.584 669.038)" opacity="0.2">
        <path id="Контур_23869" data-name="Контур 23869" d="M228.82,306.936c1.67,1.67.654,5.905-.9,8.78a43.058,43.058,0,0,0,10.829,5.486c1.406-2.961,4.264-6.531,6.686-5.882,2.284.614,3.524,4.786,3.621,8.04a43.566,43.566,0,0,0,12.115-.654c-.253-3.265.43-7.788,2.852-8.436,2.284-.608,5.446,2.387,7.156,5.165a43.2,43.2,0,0,0,10.163-6.64c-1.859-2.7-3.518-6.955-1.75-8.729,1.67-1.67,5.905-.654,8.78.9a42.866,42.866,0,0,0,5.486-10.829c-2.961-1.412-6.531-4.264-5.882-6.686.608-2.278,4.78-3.518,8.04-3.615a43.349,43.349,0,0,0-.654-12.115c-3.271.253-7.788-.436-8.436-2.858-.608-2.278,2.387-5.44,5.165-7.156a43.044,43.044,0,0,0-6.64-10.158c-2.7,1.854-6.955,3.518-8.723,1.745-1.676-1.67-.66-5.905.889-8.775a43.078,43.078,0,0,0-10.829-5.492c-1.406,2.961-4.264,6.531-6.686,5.882-2.278-.608-3.518-4.78-3.615-8.04a43.335,43.335,0,0,0-12.115.66c.253,3.265-.436,7.782-2.858,8.43-2.278.608-5.44-2.387-7.15-5.165a42.959,42.959,0,0,0-10.163,6.64c1.854,2.7,3.518,6.955,1.745,8.729-1.67,1.67-5.905.654-8.774-.9a43.072,43.072,0,0,0-5.492,10.829c2.961,1.412,6.531,4.264,5.882,6.686-.608,2.278-4.78,3.518-8.04,3.615a43.4,43.4,0,0,0,.66,12.12c3.265-.258,7.782.43,8.43,2.852.614,2.278-2.387,5.44-5.165,7.156a43.2,43.2,0,0,0,6.64,10.163C222.795,306.827,227.047,305.162,228.82,306.936Zm3.512-47.27a28.915,28.915,0,1,1,0,40.894A28.918,28.918,0,0,1,232.332,259.665Z" transform="translate(-209.366 -236.705)" fill="#fff"/>
        <path id="Контур_23870" data-name="Контур 23870" d="M254.681,282.015a23.619,23.619,0,1,1,0-33.4,23.646,23.646,0,0,1,0,33.4m1.32,1.32a25.486,25.486,0,1,0-36.045,0,25.486,25.486,0,0,0,36.045,0Z" transform="translate(-194.568 -221.907)" fill="#fff"/>
      </g>
      <g id="Сгруппировать_5816" data-name="Сгруппировать 5816" transform="translate(723.59 145.471)">
        <path id="Контур_23871" data-name="Контур 23871" d="M296.842,409.715c6.284,6.278,2.468,22.221-3.357,33.021a161.576,161.576,0,0,0,40.734,20.654c5.308-11.133,16.051-24.567,25.17-22.128,8.574,2.3,13.239,17.991,13.607,30.254a164.27,164.27,0,0,0,45.594-2.473c-.964-12.287,1.618-29.285,10.731-31.735,8.585-2.3,20.482,8.993,26.926,19.437a162.693,162.693,0,0,0,38.226-24.986c-6.978-10.158-13.234-26.174-6.571-32.843,6.284-6.278,22.215-2.456,33.021,3.369a162.011,162.011,0,0,0,20.659-40.739c-11.15-5.308-24.585-16.051-22.14-25.164,2.3-8.579,17.991-13.228,30.249-13.6a163.627,163.627,0,0,0-2.468-45.589c-12.292.958-29.285-1.63-31.73-10.743-2.307-8.585,8.981-20.476,19.426-26.92A162.162,162.162,0,0,0,509.939,201.3c-10.158,6.978-26.157,13.234-32.826,6.571-6.29-6.278-2.468-22.22,3.357-33.021a162.093,162.093,0,0,0-40.739-20.654c-5.3,11.133-16.046,24.573-25.159,22.123-8.579-2.3-13.239-17.979-13.607-30.243a163.846,163.846,0,0,0-45.594,2.473c.958,12.292-1.624,29.285-10.731,31.724-8.585,2.3-20.482-8.975-26.926-19.431a162.363,162.363,0,0,0-38.231,24.987c6.978,10.163,13.239,26.169,6.571,32.837-6.278,6.284-22.215,2.462-33.015-3.369a161.67,161.67,0,0,0-20.66,40.745c11.133,5.3,24.573,16.04,22.134,25.159-2.3,8.579-17.985,13.234-30.255,13.6a163.733,163.733,0,0,0,2.468,45.606c12.287-.964,29.29,1.618,31.741,10.731,2.3,8.585-8.993,20.482-19.437,26.932a162.271,162.271,0,0,0,24.981,38.231C274.174,409.3,290.18,403.047,296.842,409.715Zm13.211-177.849a108.786,108.786,0,1,1,0,153.844A108.789,108.789,0,0,1,310.053,231.866Z" transform="translate(-223.656 -145.471)" fill="#fff"/>
        <path id="Контур_23872" data-name="Контур 23872" d="M394.142,315.958a88.872,88.872,0,1,1,0-125.684,88.974,88.974,0,0,1,0,125.684m4.964,4.964a95.892,95.892,0,1,0-135.612,0,95.894,95.894,0,0,0,135.612,0Z" transform="translate(-167.978 -89.796)" fill="#fff"/>
      </g>
    </g>
    <g id="ICON" transform="translate(-9)">
      <g id="wrench" transform="translate(1230.468 822.484)">
        <g id="Сгруппировать_5782" data-name="Сгруппировать 5782" transform="translate(0 0)">
          <g id="Сгруппировать_5781" data-name="Сгруппировать 5781" transform="translate(0)">
            <path id="Контур_23473" data-name="Контур 23473" d="M87.114,13.168a2.557,2.557,0,0,0-4.339-1.448L79.16,15.337a5.237,5.237,0,0,1-7.233,0,5.108,5.108,0,0,1,0-7.23l3.615-3.615A2.557,2.557,0,0,0,74.094.153,15.34,15.34,0,0,0,57.109,19.309l-37.8,37.8,0,0A15.345,15.345,0,0,0,.15,74.095,2.557,2.557,0,0,0,4.49,75.543L8.1,71.925a5.237,5.237,0,0,1,7.233,0,5.108,5.108,0,0,1,0,7.23L11.722,82.77a2.557,2.557,0,0,0,1.448,4.339A15.34,15.34,0,0,0,30.155,67.953l37.8-37.8,0,0A15.345,15.345,0,0,0,87.114,13.168Z" transform="translate(0 -0.002)" fill="#fff"/>
          </g>
        </g>
        <g id="Сгруппировать_5784" data-name="Сгруппировать 5784" transform="translate(47.247 47.247)">
          <g id="Сгруппировать_5783" data-name="Сгруппировать 5783">
            <path id="Контур_23474" data-name="Контур 23474" d="M301.888,286.547a15.1,15.1,0,0,0-3.92.569l-9.909-9.908-10.849,10.848,9.907,9.908a15.125,15.125,0,0,0-.569,3.922,15.339,15.339,0,1,0,15.339-15.339Zm8.389,14.827-1.52,5.672a2.562,2.562,0,0,1-1.807,1.807l-5.672,1.52a2.554,2.554,0,0,1-2.469-.662l-4.152-4.152a2.554,2.554,0,0,1-.662-2.469l1.52-5.672a2.562,2.562,0,0,1,1.807-1.807l5.672-1.52a2.54,2.54,0,0,1,2.469.662l4.152,4.152A2.554,2.554,0,0,1,310.277,301.375Z" transform="translate(-277.211 -277.209)" fill="#fff"/>
          </g>
        </g>
        <g id="Сгруппировать_5786" data-name="Сгруппировать 5786" transform="translate(0 0)">
          <g id="Сгруппировать_5785" data-name="Сгруппировать 5785" transform="translate(0)">
            <path id="Контур_23475" data-name="Контур 23475" d="M30.151,19.164a15.4,15.4,0,0,0-3.972-14.82,15.713,15.713,0,0,0-21.693,0,15.341,15.341,0,0,0,14.82,25.665L29.17,40.016,40.017,29.17Zm-6.686-4.741L21.944,20.1A2.562,2.562,0,0,1,20.137,21.9l-5.672,1.52A2.554,2.554,0,0,1,12,22.762L7.843,18.61a2.554,2.554,0,0,1-.662-2.469L8.7,10.468A2.562,2.562,0,0,1,10.51,8.661l5.672-1.52a2.548,2.548,0,0,1,2.469.662L22.8,11.954A2.554,2.554,0,0,1,23.465,14.423Z" transform="translate(-0.001 0)" fill="#fff"/>
          </g>
        </g>
      </g>
      <g id="programming-code-signs" transform="translate(930.883 796.586)">
        <g id="Сгруппировать_5776" data-name="Сгруппировать 5776" transform="translate(-0.001 11.304)">
          <path id="Контур_23460" data-name="Контур 23460" d="M102.625,52.393,72.1,21.864a2.6,2.6,0,0,0-3.578,0L61.9,28.482a2.531,2.531,0,0,0,0,3.58l22.122,22.12L61.9,76.3a2.531,2.531,0,0,0,0,3.58L68.519,86.5a2.527,2.527,0,0,0,3.58,0l30.527-30.528A2.534,2.534,0,0,0,102.625,52.393Z" transform="translate(16.256 -8.687)" fill="#fff"/>
          <path id="Контур_23461" data-name="Контур 23461" d="M41.466,76.311,19.348,54.19,41.47,32.07a2.53,2.53,0,0,0,0-3.58l-6.619-6.619a2.53,2.53,0,0,0-3.58,0L.741,52.4a2.533,2.533,0,0,0,0,3.581L31.27,86.508a2.527,2.527,0,0,0,3.58,0l6.619-6.619A2.527,2.527,0,0,0,41.466,76.311Z" transform="translate(0.001 -8.693)" fill="#fff"/>
          <path id="Контур_23462" data-name="Контур 23462" d="M68.322,14.21a2.533,2.533,0,0,0-1.506-1.218L61.45,11.409a2.531,2.531,0,0,0-3.144,1.711L33.4,97.476a2.532,2.532,0,0,0,1.71,3.144l5.366,1.583a2.525,2.525,0,0,0,3.144-1.711L68.526,16.135A2.525,2.525,0,0,0,68.322,14.21Z" transform="translate(8.85 -11.304)" fill="#fff"/>
        </g>
      </g>
      <g id="video-camera_6_" data-name="video-camera(6)" transform="translate(1652 523.629)">
        <g id="Сгруппировать_5778" data-name="Сгруппировать 5778" transform="translate(0 96.512)">
          <g id="Сгруппировать_5777" data-name="Сгруппировать 5777">
            <path id="Контур_23471" data-name="Контур 23471" d="M43.969,96.512H8.5a8.53,8.53,0,0,0-8.5,8.5v28.661a8.53,8.53,0,0,0,8.5,8.5H43.969a8.53,8.53,0,0,0,8.5-8.5V105.017A8.475,8.475,0,0,0,43.969,96.512Z" transform="translate(0 -96.512)" fill="#fff"/>
          </g>
        </g>
        <g id="Сгруппировать_5780" data-name="Сгруппировать 5780" transform="translate(56.726 101.053)">
          <g id="Сгруппировать_5779" data-name="Сгруппировать 5779" transform="translate(0 0)">
            <path id="Контур_23472" data-name="Контур 23472" d="M356.217,123.984a4.332,4.332,0,0,0-1.446.6L341.5,132.234v19.731l13.352,7.654a5.056,5.056,0,0,0,6.974-1.871,5.2,5.2,0,0,0,.68-2.551V128.917A5.119,5.119,0,0,0,356.217,123.984Z" transform="translate(-341.504 -123.847)" fill="#fff"/>
          </g>
        </g>
      </g>
      <path id="secure" d="M62.037,7.9A1.846,1.846,0,0,0,60.7,6.381L38,.068a1.845,1.845,0,0,0-.989,0l-22.7,6.313A1.846,1.846,0,0,0,12.982,7.9c-.132.947-3.135,23.315,4.569,34.443A36.24,36.24,0,0,0,37.076,56.426a1.851,1.851,0,0,0,.867,0A36.239,36.239,0,0,0,57.468,42.348C65.172,31.22,62.168,8.852,62.037,7.9ZM52.147,20.964,36.664,36.447a1.845,1.845,0,0,1-2.61,0l-9.573-9.573a1.845,1.845,0,0,1,0-2.61l1.9-1.9a1.846,1.846,0,0,1,2.61,0l6.367,6.367L47.637,16.453a1.845,1.845,0,0,1,2.61,0l1.9,1.9A1.846,1.846,0,0,1,52.147,20.964Z" transform="translate(1441.278 891)" fill="#fff"/>
      <g id="user-group_1_" data-name="user-group(1)" transform="translate(1418.79 548.592)">
        <path id="Контур_23465" data-name="Контур 23465" d="M142.771,65.784c8.337,0,15.1-8.209,15.1-18.335s-2.219-18.335-15.1-18.335-15.1,8.209-15.1,18.335S134.434,65.784,142.771,65.784Z" transform="translate(-98.666)" fill="#fff"/>
        <path id="Контур_23466" data-name="Контур 23466" d="M125.621,222.544c-.279-17.64-2.583-22.667-20.213-25.848,0,0-2.482,3.162-8.266,3.162s-8.266-3.162-8.266-3.162c-17.437,3.147-19.882,8.1-20.2,25.275-.026,1.4-.038,1.476-.043,1.313,0,.305,0,.869,0,1.853,0,0,4.2,8.461,28.51,8.461s28.51-8.461,28.51-8.461c0-.632,0-1.072,0-1.371A11.119,11.119,0,0,1,125.621,222.544Z" transform="translate(-53.037 -129.505)" fill="#fff"/>
        <path id="Контур_23467" data-name="Контур 23467" d="M267.288,74.8c6.771,0,12.26-6.667,12.26-14.891s-1.8-14.892-12.26-14.892a17.481,17.481,0,0,0-4.575.543c2.416,4.453,2.747,9.861,2.747,14.179a25.142,25.142,0,0,1-3.765,13.419A10.5,10.5,0,0,0,267.288,74.8Z" transform="translate(-202.234 -12.29)" fill="#fff"/>
        <path id="Контур_23468" data-name="Контур 23468" d="M307.51,202.119c-.227-14.327-2.1-18.409-16.417-20.994,0,0-2.016,2.568-6.713,2.568-.194,0-.383-.006-.568-.014a18.836,18.836,0,0,1,7.7,5.962c3.457,4.74,4.252,11.108,4.416,20.463,9.633-1.9,11.607-5.879,11.607-5.879,0-.518,0-.873,0-1.116A8.539,8.539,0,0,1,307.51,202.119Z" transform="translate(-219.326 -117.472)" fill="#fff"/>
        <path id="Контур_23469" data-name="Контур 23469" d="M60.215,74.8a10.506,10.506,0,0,0,5.594-1.642A25.142,25.142,0,0,1,62.044,59.74c0-4.318.331-9.726,2.746-14.179a17.477,17.477,0,0,0-4.575-.543c-10.458,0-12.26,6.667-12.26,14.892S53.444,74.8,60.215,74.8Z" transform="translate(-37.059 -12.291)" fill="#fff"/>
        <path id="Контур_23470" data-name="Контур 23470" d="M23.724,183.678c-.185.008-.373.014-.568.014-4.7,0-6.713-2.568-6.713-2.568C2.124,183.708.253,187.79.026,202.118a8.7,8.7,0,0,1-.026.99c0,.243,0,.6,0,1.116,0,0,1.974,3.975,11.607,5.879.165-9.355.959-15.723,4.417-20.463A18.836,18.836,0,0,1,23.724,183.678Z" transform="translate(0 -117.471)" fill="#fff"/>
      </g>
      <g id="share_5_" data-name="share(5)" transform="translate(1328.008 419.605)">
        <path id="Контур_23463" data-name="Контур 23463" d="M48.112,31.21A7.708,7.708,0,0,0,43.321,32.9L28.492,24.535A5.389,5.389,0,0,0,28.5,22.37l14.821-8.45A7.789,7.789,0,1,0,48.112,0a7.753,7.753,0,0,0-7.7,8.84L25.59,17.291a7.8,7.8,0,1,0-.066,12.289l14.891,8.4a7.783,7.783,0,1,0,7.7-6.773Z" transform="translate(7.184 0)" fill="#fff"/>
      </g>
      <g id="XMLID_455_" transform="translate(1644 841.553)">
        <path id="XMLID_458_" d="M3.223,153.281H30.212a22.562,22.562,0,1,0-.407-27.4A24.711,24.711,0,0,0,0,150.057,3.223,3.223,0,0,0,3.223,153.281ZM47.92,123.2A16.116,16.116,0,1,1,31.8,139.313,16.135,16.135,0,0,1,47.92,123.2Z" transform="translate(0 -90.681)" fill="#fff"/>
        <path id="XMLID_461_" d="M65.733,1.25A13.484,13.484,0,1,0,79.217,14.734,13.5,13.5,0,0,0,65.733,1.25Z" transform="translate(-41.021)" fill="#fff"/>
        <path id="XMLID_462_" d="M181.223,189.643h3.223v3.223a3.223,3.223,0,0,0,6.447,0v-3.223h3.223a3.223,3.223,0,1,0,0-6.447h-3.223v-3.223a3.223,3.223,0,0,0-6.447,0V183.2h-3.223a3.223,3.223,0,1,0,0,6.447Z" transform="translate(-139.75 -137.788)" fill="#fff"/>
      </g>
      <g id="microphone-black-shape" transform="translate(1200.759 549.582)">
        <g id="Сгруппировать_5820" data-name="Сгруппировать 5820" transform="translate(73.087)">
          <path id="Контур_23873" data-name="Контур 23873" d="M154.721,30.75a8.565,8.565,0,0,0,8.541-8.541V8.542a8.224,8.224,0,0,0-2.509-6.033,8.506,8.506,0,0,0-12.065,0,8.224,8.224,0,0,0-2.509,6.033V22.209a8.566,8.566,0,0,0,8.542,8.541Z" transform="translate(-139.345)" fill="#fff"/>
          <path id="Контур_23874" data-name="Контур 23874" d="M103.33,183.231a1.708,1.708,0,0,0-2.909,1.2v3.417A11.948,11.948,0,0,1,80.014,196.3a11.516,11.516,0,0,1-3.51-8.448v-3.417a1.709,1.709,0,0,0-3.417,0v3.417a15.373,15.373,0,0,0,13.667,15.268v3.524H79.921a1.709,1.709,0,0,0,0,3.417H97a1.709,1.709,0,0,0,0-3.417H90.171v-3.524a15.375,15.375,0,0,0,13.667-15.268v-3.417A1.641,1.641,0,0,0,103.33,183.231Z" transform="translate(-73.087 -165.64)" fill="#fff"/>
        </g>
      </g>
      <g id="chat_3_" data-name="chat(3)" transform="translate(1510.373 758.699)">
        <path id="Контур_23875" data-name="Контур 23875" d="M24.886,24.319A13.117,13.117,0,0,0,0,30.066a12.93,12.93,0,0,0,1.25,5.586L.023,41.8a1.121,1.121,0,0,0,1.316,1.319l6.22-1.23a12.887,12.887,0,0,0,2.594.908A15.328,15.328,0,0,1,24.886,24.319Z" transform="translate(0 -16.996)" fill="#fff"/>
        <path id="Контур_23876" data-name="Контур 23876" d="M186.436,163.659a13.042,13.042,0,0,0,.561-1.383h-.041a13.085,13.085,0,0,0-11.768-17.258h0a13.07,13.07,0,1,0-.628,26.126,12.928,12.928,0,0,0,5.569-1.251c6.812,1.347,6.281,1.251,6.437,1.251a1.121,1.121,0,0,0,1.1-1.34Z" transform="translate(-149.445 -135.442)" fill="#fff"/>
      </g>
      <g id="ethics" transform="translate(1399.435 752.699)">
        <path id="Контур_23877" data-name="Контур 23877" d="M121,130.653A9.653,9.653,0,1,0,130.653,121,9.668,9.668,0,0,0,121,130.653Zm14.695-1.394-6.114,6.135-3.969-3.99,1.5-1.5,2.467,2.445,4.612-4.591Z" transform="translate(-112.348 -112.348)" fill="#fff"/>
        <path id="Контур_23878" data-name="Контур 23878" d="M18.306,36.611A18.369,18.369,0,0,0,36.611,18.306h-4.29A13.98,13.98,0,1,1,18.306,4.362,13.749,13.749,0,0,1,26.65,7.151l-1.63,1.63,7.572,1.5-1.5-7.573L29.718,4.083A18.276,18.276,0,1,0,18.306,36.611Z" transform="translate(0 0)" fill="#fff"/>
      </g>
      <g id="headphones" transform="translate(1295.66 669.797)">
        <g id="Сгруппировать_5822" data-name="Сгруппировать 5822" transform="translate(3.65 12.773)">
          <g id="Сгруппировать_5821" data-name="Сгруппировать 5821">
            <path id="Контур_23879" data-name="Контур 23879" d="M93.737,210A2.74,2.74,0,0,0,91,212.737v7.421a2.737,2.737,0,0,0,5.474,0v-7.421A2.74,2.74,0,0,0,93.737,210Z" transform="translate(-91 -210)" fill="#fff"/>
          </g>
        </g>
        <g id="Сгруппировать_5824" data-name="Сгруппировать 5824" transform="translate(0 14.742)">
          <g id="Сгруппировать_5823" data-name="Сгруппировать 5823">
            <path id="Контур_23880" data-name="Контур 23880" d="M32.825,243.134a4.526,4.526,0,0,1,.078-.768,2.732,2.732,0,0,0-1.9,2.593v3.771a2.732,2.732,0,0,0,1.9,2.593,4.526,4.526,0,0,1-.078-.768Z" transform="translate(-31 -242.366)" fill="#fff"/>
          </g>
        </g>
        <g id="Сгруппировать_5826" data-name="Сгруппировать 5826" transform="translate(10.949 12.773)">
          <g id="Сгруппировать_5825" data-name="Сгруппировать 5825">
            <path id="Контур_23881" data-name="Контур 23881" d="M221.036,210a2.74,2.74,0,0,0-2.737,2.737v7.421a2.74,2.74,0,0,0,2.737,2.737,2.7,2.7,0,0,0,.784-.128,2.732,2.732,0,0,1-2.609,1.953h-2.905a2.737,2.737,0,1,0,0,1.825h2.905a4.567,4.567,0,0,0,4.562-4.562v-9.245A2.74,2.74,0,0,0,221.036,210Z" transform="translate(-211 -210)" fill="#fff"/>
          </g>
        </g>
        <g id="Сгруппировать_5828" data-name="Сгруппировать 5828" transform="translate(25.469 14.742)">
          <g id="Сгруппировать_5827" data-name="Сгруппировать 5827">
            <path id="Контур_23882" data-name="Контур 23882" d="M449.722,242.366a4.524,4.524,0,0,1,.078.768v7.421a4.524,4.524,0,0,1-.078.768,2.732,2.732,0,0,0,1.9-2.593v-3.771A2.732,2.732,0,0,0,449.722,242.366Z" transform="translate(-449.722 -242.366)" fill="#fff"/>
          </g>
        </g>
        <g id="Сгруппировать_5830" data-name="Сгруппировать 5830" transform="translate(0)">
          <g id="Сгруппировать_5829" data-name="Сгруппировать 5829">
            <path id="Контур_23883" data-name="Контур 23883" d="M44.686,0A13.7,13.7,0,0,0,31,13.686v.023a4.518,4.518,0,0,1,1.867-.848,11.847,11.847,0,0,1,23.638,0,4.519,4.519,0,0,1,1.867.848v-.023A13.7,13.7,0,0,0,44.686,0Z" transform="translate(-31 0)" fill="#fff"/>
          </g>
        </g>
      </g>
      <g id="Сгруппировать_5819" data-name="Сгруппировать 5819" transform="translate(988.616 486.867)">
        <path id="Контур_23450" data-name="Контур 23450" d="M183.248,157.489a23.185,23.185,0,0,0-20.25-20.2,24.277,24.277,0,0,0-2.748-.156,23.126,23.126,0,0,0-16.256,39.538,18.213,18.213,0,0,1,5.615,12.939v2.672h21.347V189.6a17.811,17.811,0,0,1,5.415-12.73,23.051,23.051,0,0,0,6.877-19.377h0Z" fill="#fff"/>
        <path id="Контур_23451" data-name="Контур 23451" d="M235.171,497.272a5.346,5.346,0,0,0,5.032-3.558H230.139A5.346,5.346,0,0,0,235.171,497.272Z" transform="translate(-74.888 -287.2)" fill="#fff"/>
        <path id="Контур_23452" data-name="Контур 23452" d="M210.286,444.194a1.781,1.781,0,0,0,1.779,1.779H226.3a1.781,1.781,0,0,0,1.779-1.779v-5.337H210.286Z" transform="translate(-58.898 -243.017)" fill="#fff"/>
      </g>
      <text id="SDK" transform="translate(1545 313)" fill="#fff0ad" font-size="72" font-family="SegoeUI-Bold, Segoe UI" font-weight="700"><tspan x="0" y="78">SDK</tspan></text>
      <text id="CC" transform="translate(1139 386)" fill="#fff" font-size="65" font-family="SegoeUI-Bold, Segoe UI" font-weight="700"><tspan x="0" y="70">CC</tspan></text>
    </g>
  </g>
</svg>
