<svg xmlns="http://www.w3.org/2000/svg" width="32.856" height="59.283" viewBox="0 0 32.856 59.283">
  <g id="Path_15997" data-name="Path 15997" transform="translate(134.155 58.284) rotate(180)" stroke-linecap="round" stroke-linejoin="bevel">
    <path d="M 130.9251556396484 57.78383255004883 C 130.9251098632812 57.78383255004883 130.9251708984375 57.78383255004883 130.9251251220703 57.78383255004883 C 130.2206726074219 57.78382110595703 129.5535736083984 57.51424026489258 129.0467376708984 57.02476119995117 L 129.0436096191406 57.02173233032227 L 129.04052734375 57.01865005493164 L 102.5893020629883 30.56741142272949 C 101.5353393554688 29.51313209533691 101.5353393554688 27.79779243469238 102.589241027832 26.74356269836426 L 129.04052734375 0.2922818064689636 C 129.5512847900391 -0.2183281928300858 130.2302703857422 -0.499498188495636 130.9524383544922 -0.499498188495636 C 131.6746063232422 -0.499498188495636 132.3535919189453 -0.2183381915092468 132.8643646240234 0.2921918034553528 C 133.9185485839844 1.34654176235199 133.9185485839844 3.061921834945679 132.8644714355469 4.116151809692383 L 108.3251495361328 28.65546226501465 L 132.8644561767578 53.19474029541016 L 132.8675231933594 53.19781112670898 L 132.8705444335938 53.20094299316406 C 133.8879089355469 54.25430297851562 133.8879241943359 55.90467071533203 132.8705749511719 56.95818328857422 C 132.3563537597656 57.4906005859375 131.6654205322266 57.78383255004883 130.9251556396484 57.78383255004883 Z" stroke="none"/>
    <path d="M 130.9251251220703 57.28383255004883 C 131.5021362304688 57.28384399414062 132.078369140625 57.05868530273438 132.5108947753906 56.6108512878418 C 133.3358154296875 55.75661087036133 133.3358154296875 54.40240097045898 132.5108947753906 53.54829025268555 L 107.618049621582 28.65546226501465 L 132.5108947753906 3.762631893157959 C 133.3714599609375 2.901931762695312 133.3714599609375 1.506531834602356 132.5108947753906 0.645831823348999 C 131.6500549316406 -0.21460822224617 130.2547912597656 -0.21460822224617 129.3940734863281 0.645831823348999 L 102.9428482055664 27.09706115722656 C 102.082405090332 27.95776176452637 102.082405090332 29.3531608581543 102.9428482055664 30.2138614654541 L 129.3940734863281 56.66510009765625 C 129.8219299316406 57.07830429077148 130.3738861083984 57.2838249206543 130.9251251220703 57.28383255004883 M 130.9251708984375 58.28383255004883 L 130.9251556396484 58.28383255004883 C 130.0904083251953 58.2838134765625 129.2999572753906 57.96440124511719 128.6994018554688 57.38442230224609 L 128.6869659423828 57.37221145629883 L 102.2357406616211 30.92097091674805 C 100.9868698120117 29.67171096801758 100.9868698120117 27.63921165466309 102.2356414794922 26.39006233215332 L 128.6869659423828 -0.06127819418907166 C 129.292236328125 -0.6663382053375244 130.0967559814453 -0.999498188495636 130.9524383544922 -0.999498188495636 C 131.80810546875 -0.999498188495636 132.6126403808594 -0.6663581728935242 133.2178344726562 -0.0614381916821003 C 134.4670257568359 1.187951803207397 134.4670257568359 3.220511913299561 133.2180633544922 4.469681739807129 L 109.0322723388672 28.65546226501465 L 133.2301940917969 52.85358047485352 C 134.4356536865234 54.10170364379883 134.4356842041016 56.05722045898438 133.2302398681641 57.30550003051758 C 132.6209106445312 57.9364128112793 131.8022918701172 58.28383255004883 130.9251708984375 58.28383255004883 Z" stroke="none" fill="#000"/>
  </g>
</svg>
