<svg width="1790" height="1188" viewBox="0 0 1790 1188" fill="none" xmlns="http://www.w3.org/2000/svg">
<g clip-path="url(#clip0)">
<g opacity="0.33">
<path d="M15.8062 -3L431.444 -2.99963V-1.99963L16.3621 -2C10.708 7.11426 5.20557 16.4961 0 25.8984L8.96454e-05 257.381H-0.99991L-1 25.6406C4.34082 15.9844 9.99512 6.34863 15.8062 -3Z" fill="white"/>
<path fill-rule="evenodd" clip-rule="evenodd" d="M1.99997 660.725C10.4893 675.732 19.6458 690.52 29.2673 704.76C40.9075 721.989 53.5251 738.864 66.7703 754.916C79.9954 770.939 94.1428 786.505 108.819 801.181C123.49 815.853 139.056 830 155.084 843.23C171.148 856.483 188.023 869.102 205.24 880.733C222.554 892.434 240.626 903.413 258.955 913.367C277.441 923.409 296.602 932.64 315.905 940.802C335.407 949.051 355.546 956.423 375.762 962.713C396.209 969.07 417.216 974.471 438.198 978.764C459.468 983.117 481.232 986.438 502.887 988.638C524.862 990.869 547.273 992.001 569.497 992.001C591.723 992.001 614.135 990.869 636.11 988.638C657.758 986.439 679.523 983.117 700.799 978.764C721.783 974.471 742.789 969.07 763.235 962.713C783.458 956.42 803.597 949.048 823.092 940.802C842.424 932.625 861.585 923.396 880.042 913.367C898.363 903.416 916.437 892.437 933.76 880.733C942.634 874.738 951.417 868.48 960.047 862.007C1002.75 1048.99 1170.08 1188.5 1370 1188.5C1602.23 1188.5 1790.5 1000.24 1790.5 768C1790.5 595.394 1686.5 447.078 1537.75 382.293C1543.41 375.34 1548.76 368.139 1553.76 360.733C1564.6 344.693 1573.91 327.548 1581.42 309.773C1589.08 291.668 1594.96 272.721 1598.9 253.46C1602.95 233.695 1605 213.353 1605 192.999C1605 174.69 1603.34 156.354 1600.06 138.497C1596.86 121.062 1592.07 103.818 1585.83 87.2471C1579.7 70.9707 1572.08 55.1152 1563.18 40.1221C1555.41 27.033 1546.58 14.4525 1536.89 2.65079H1535.59C1545.46 14.5967 1554.44 27.3521 1562.32 40.6328C1571.19 55.5742 1578.78 71.376 1584.89 87.5996C1591.12 104.115 1595.89 121.301 1599.08 138.678C1602.34 156.474 1604 174.75 1604 192.999C1604 213.286 1601.96 233.562 1597.92 253.26C1594 272.456 1588.13 291.34 1580.5 309.384C1573.01 327.1 1563.74 344.188 1552.94 360.174C1547.9 367.633 1542.5 374.882 1536.8 381.879C1485.66 359.759 1429.26 347.5 1370 347.5C1317.19 347.5 1266.66 357.234 1220.1 375.005C1220.7 363.509 1221 351.979 1221 340.5C1221 324.868 1220.44 309.102 1219.34 293.639C1218.25 278.309 1216.6 262.843 1214.43 247.669C1212.29 232.632 1209.58 217.507 1206.4 202.713C1203.24 188.036 1199.52 173.287 1195.34 158.875C1179.46 104.066 1156.37 51.5411 1126.67 2.65079H1125.5C1155.31 51.6135 1178.47 104.234 1194.38 159.153C1198.55 173.544 1202.26 188.27 1205.42 202.924C1208.6 217.695 1211.3 232.798 1213.44 247.811C1215.61 262.962 1217.25 278.404 1218.34 293.709C1219.44 309.146 1220 324.889 1220 340.5C1220 352.109 1219.69 363.771 1219.07 375.397C1183.96 388.903 1151.12 406.985 1121.28 428.911C1111.55 421.327 1102.28 413.135 1093.57 404.426C1080.04 390.894 1067.76 376.005 1057.06 360.174C1046.26 344.186 1036.99 327.098 1029.49 309.384C1021.86 291.34 1016 272.457 1012.07 253.26C1008.04 233.562 1006 213.286 1006 192.999C1006 174.75 1007.65 156.474 1010.92 138.678C1014.11 121.299 1018.88 104.113 1025.1 87.5996C1031.21 71.3779 1038.81 55.5762 1047.68 40.6328C1055.56 27.3498 1064.54 14.5937 1074.41 2.65079H1073.11C1063.42 14.4512 1054.59 27.0323 1046.82 40.1221C1037.92 55.1152 1030.3 70.9697 1024.17 87.2471C1017.92 103.817 1013.14 121.061 1009.94 138.497C1006.66 156.353 1005 174.69 1005 192.999C1005 213.353 1007.05 233.695 1011.09 253.46C1015.03 272.722 1020.92 291.668 1028.57 309.773C1036.09 327.549 1045.4 344.693 1056.23 360.733C1066.97 376.617 1079.29 391.556 1092.87 405.133C1101.54 413.804 1110.77 421.966 1120.44 429.527C1016.75 506.108 949.499 629.201 949.499 768C949.499 799.936 953.059 831.041 959.804 860.939C951.073 867.497 942.182 873.836 933.2 879.904C915.906 891.589 897.86 902.552 879.564 912.488C861.143 922.497 842.012 931.714 822.703 939.881C803.236 948.115 783.127 955.476 762.938 961.758C742.522 968.106 721.548 973.498 700.599 977.784C679.353 982.131 657.622 985.448 636.009 987.643C614.066 989.871 591.688 991.001 569.497 991.001C547.308 991.001 524.931 989.871 502.988 987.643C481.358 985.446 459.627 982.129 438.398 977.784C417.45 973.498 396.476 968.106 376.059 961.758C355.877 955.479 335.769 948.118 316.294 939.881C297.021 931.731 277.89 922.516 259.432 912.488C241.131 902.55 223.087 891.587 205.801 879.904C188.611 868.292 171.761 855.693 155.72 842.459C139.714 829.246 124.172 815.12 109.526 800.474C94.8699 785.817 80.7441 770.275 67.5415 754.279C54.3179 738.254 41.7192 721.404 30.0959 704.2C20.1584 689.493 10.719 674.202 1.99997 658.689V660.725ZM1122.51 429.867C1151.98 408.264 1184.37 390.419 1218.99 377.039C1218.43 387.079 1217.65 397.09 1216.64 407.012C1214.45 428.617 1211.13 450.348 1206.78 471.6C1206.54 472.809 1206.28 474.02 1206.03 475.23C1200.15 473.17 1194.34 470.926 1188.61 468.504C1170.9 461.012 1153.81 451.737 1137.83 440.937C1132.61 437.415 1127.5 433.721 1122.51 429.867ZM1207.76 471.8C1207.51 473.054 1207.25 474.307 1206.98 475.561C1219.33 479.841 1231.96 483.312 1244.74 485.926C1264.44 489.956 1284.71 492 1305 492C1325.28 492 1345.56 489.956 1365.26 485.926C1384.45 481.999 1403.33 476.138 1421.38 468.504C1439.1 461.012 1456.18 451.737 1472.17 440.937C1488 430.242 1502.89 417.958 1516.42 404.426C1523.21 397.637 1529.69 390.506 1535.81 383.086C1484.96 361.152 1428.9 349 1370 349C1317.15 349 1266.58 358.786 1220.01 376.645C1219.45 386.852 1218.66 397.028 1217.63 407.113C1215.44 428.755 1212.12 450.519 1207.76 471.8ZM1244.54 486.905C1231.76 484.291 1219.12 480.822 1206.77 476.547C1202.65 495.93 1197.59 515.313 1191.71 534.235C1185.42 554.448 1178.05 574.587 1169.8 594.093C1161.62 613.424 1152.39 632.585 1142.37 651.045C1132.4 669.396 1121.42 687.468 1109.73 704.76C1098.1 721.976 1085.49 738.851 1072.23 754.916C1059.01 770.929 1044.86 786.494 1030.18 801.181C1015.49 815.869 999.924 830.017 983.913 843.23C976.55 849.305 969.018 855.246 961.361 861.019C1003.67 1047.66 1170.56 1187 1370 1187C1601.41 1187 1789 999.407 1789 768C1789 595.859 1685.19 447.964 1536.76 383.499C1530.57 391.024 1524.01 398.253 1517.13 405.133C1503.55 418.709 1488.62 431.034 1472.73 441.765C1456.69 452.601 1439.55 461.907 1421.77 469.425C1403.67 477.083 1384.72 482.965 1365.46 486.905C1345.69 490.949 1325.35 493 1305 493C1284.65 493 1264.3 490.949 1244.54 486.905ZM1190.75 533.938C1196.64 515.008 1201.7 495.612 1205.82 476.216C1199.88 474.137 1194.01 471.872 1188.23 469.425C1170.45 461.907 1153.31 452.601 1137.27 441.765C1131.96 438.178 1126.75 434.413 1121.67 430.483C1018.16 506.773 950.999 629.544 950.999 768C950.999 799.588 954.494 830.359 961.12 859.948C968.64 854.27 976.04 848.429 983.277 842.459C999.263 829.266 1014.8 815.14 1029.47 800.474C1044.14 785.809 1058.26 770.267 1071.46 754.279C1084.69 738.238 1097.29 721.389 1108.9 704.2C1120.57 686.936 1131.53 668.891 1141.49 650.567C1151.5 632.136 1160.71 613.003 1168.88 593.703C1177.12 574.228 1184.48 554.12 1190.75 533.938Z" fill="white"/>
</g>
</g>
<defs>
<clipPath id="clip0">
<rect width="1790" height="1188" fill="white"/>
</clipPath>
</defs>
</svg>
