<svg width="378" height="1946" viewBox="0 0 378 1946" fill="none" xmlns="http://www.w3.org/2000/svg">
<g opacity="0.33">
<g opacity="0.33">
<path fill-rule="evenodd" clip-rule="evenodd" d="M0 921.683C5.91392 918.702 11.7742 915.634 17.5645 912.488C35.8599 902.552 53.9055 891.589 71.2002 879.904C80.1823 873.836 89.0726 867.497 97.8044 860.939C91.0593 831.041 87.499 799.936 87.499 768C87.499 629.201 154.748 506.108 258.441 429.527C248.766 421.966 239.539 413.804 230.867 405.133C217.29 391.556 204.965 376.617 194.234 360.733C183.398 344.693 174.092 327.549 166.574 309.773C158.916 291.668 153.034 272.722 149.093 253.46C145.048 233.695 142.998 213.353 142.998 192.999C142.998 174.69 144.659 156.353 147.936 138.497C151.136 121.061 155.924 103.817 162.168 87.2471C168.3 70.9697 175.921 55.1152 184.818 40.1221C192.586 27.0323 201.415 14.4512 211.11 2.65082H212.406C202.538 14.5937 193.561 27.3498 185.678 40.6328C176.81 55.5762 169.215 71.3779 163.104 87.5996C156.881 104.113 152.109 121.299 148.92 138.678C145.654 156.474 143.998 174.75 143.998 192.999C143.998 213.286 146.042 233.562 150.073 253.26C154.001 272.457 159.863 291.34 167.495 309.384C174.987 327.098 184.262 344.186 195.062 360.174C205.758 376.005 218.042 390.894 231.574 404.426C240.284 413.135 249.555 421.327 259.277 428.911C289.119 406.985 321.962 388.903 357.074 375.397C357.689 363.771 357.998 352.109 357.998 340.5C357.998 324.889 357.44 309.146 356.341 293.709C355.255 278.404 353.607 262.962 351.444 247.811C349.301 232.798 346.601 217.695 343.418 202.924C340.264 188.27 336.551 173.544 332.383 159.153C316.47 104.234 293.306 51.6135 263.495 2.65082H264.666C294.369 51.5411 317.462 104.066 333.343 158.875C337.518 173.287 341.237 188.036 344.396 202.713C347.583 217.507 350.288 232.632 352.434 247.669C354.601 262.843 356.25 278.309 357.338 293.639C358.44 309.102 358.998 324.868 358.998 340.5C358.998 351.979 358.696 363.509 358.096 375.005C364.653 372.502 371.29 370.159 378 367.98V369.558C371.26 371.756 364.594 374.12 358.009 376.645C357.451 386.852 356.658 397.028 355.634 407.113C353.439 428.755 350.118 450.519 345.763 471.8C345.507 473.054 345.246 474.307 344.982 475.561C355.799 479.311 366.84 482.44 378 484.916V485.939C366.768 483.457 355.658 480.315 344.773 476.547C340.654 495.93 335.593 515.313 329.709 534.235C323.423 554.448 316.052 574.587 307.801 594.093C299.623 613.424 290.392 632.585 280.367 651.045C270.396 669.396 259.416 687.468 247.733 704.76C236.104 721.976 223.485 738.851 210.227 754.916C197.012 770.929 182.865 786.494 168.177 801.181C153.49 815.869 137.924 830.017 121.913 843.23C114.55 849.305 107.018 855.246 99.3608 861.019C132.041 1005.19 239.062 1121.14 378 1166.44V1168.02C238.549 1122.73 131.056 1006.56 98.0469 862.007C89.4174 868.48 80.6336 874.738 71.76 880.733C54.4365 892.437 36.363 903.416 18.0417 913.367C12.095 916.598 6.07512 919.747 0 922.803V921.683ZM356.985 377.039C322.369 390.419 289.975 408.264 260.51 429.867C265.503 433.721 270.614 437.415 275.826 440.937C291.814 451.737 308.902 461.012 326.615 468.504C332.342 470.926 338.152 473.17 344.03 475.23C344.285 474.02 344.536 472.809 344.784 471.6C349.132 450.348 352.448 428.617 354.639 407.012C355.647 397.09 356.43 387.079 356.985 377.039ZM343.821 476.216C339.703 495.612 334.641 515.008 328.754 533.938C322.478 554.12 315.119 574.228 306.88 593.703C298.715 613.003 289.499 632.136 279.488 650.567C269.532 668.891 258.569 686.936 246.904 704.2C235.294 721.389 222.694 738.238 209.455 754.279C196.261 770.267 182.136 785.809 167.47 800.474C152.805 815.14 137.263 829.266 121.277 842.459C114.04 848.429 106.64 854.27 99.1196 859.948C92.4944 830.359 88.999 799.588 88.999 768C88.999 629.544 156.155 506.773 259.671 430.483C264.754 434.413 269.957 438.178 275.266 441.765C291.306 452.601 308.451 461.907 326.225 469.425C332.011 471.872 337.882 474.137 343.821 476.216Z" fill="white"/>
<path d="M0 1273.57V1271.59C27.1451 1317.92 48.4257 1367.4 63.343 1418.88C67.518 1433.29 71.237 1448.04 74.396 1462.71C77.583 1477.51 80.288 1492.63 82.434 1507.67C84.601 1522.84 86.25 1538.31 87.338 1553.64C88.44 1569.1 88.998 1584.87 88.998 1600.5C88.998 1611.98 88.6959 1623.51 88.0959 1635.01C134.659 1617.23 185.193 1607.5 237.999 1607.5C287.084 1607.5 334.205 1615.91 378 1631.37V1632.96C334.221 1617.44 287.096 1609 237.999 1609C185.146 1609 134.578 1618.79 88.009 1636.65C87.451 1646.85 86.658 1657.03 85.634 1667.11C83.439 1688.75 80.1179 1710.52 75.7629 1731.8C75.5069 1733.05 75.2459 1734.31 74.9819 1735.56C87.3279 1739.84 99.965 1743.31 112.739 1745.93C132.439 1749.96 152.713 1752 172.999 1752C193.284 1752 213.558 1749.96 233.259 1745.93C252.451 1742 271.334 1736.14 289.383 1728.5C307.096 1721.01 324.184 1711.74 340.172 1700.94C353.535 1691.91 366.228 1681.75 378 1670.66V1672.03C366.383 1682.9 353.881 1692.88 340.732 1701.76C324.692 1712.6 307.547 1721.91 289.773 1729.42C271.665 1737.08 252.719 1742.96 233.459 1746.91C213.694 1750.95 193.352 1753 172.999 1753C152.645 1753 132.303 1750.95 112.538 1746.91C99.761 1744.29 87.1219 1740.82 74.7729 1736.55C70.6539 1755.93 65.593 1775.31 59.709 1794.24C53.423 1814.45 46.052 1834.59 37.801 1854.09C29.623 1873.42 20.3919 1892.58 10.3669 1911.04C7.02099 1917.2 3.56151 1923.33 0 1929.41V1927.42C3.25245 1921.84 6.4181 1916.22 9.48804 1910.57C19.499 1892.14 28.715 1873 36.88 1853.7C45.119 1834.23 52.478 1814.12 58.754 1793.94C64.641 1775.01 69.703 1755.61 73.821 1736.22C67.882 1734.14 62.011 1731.87 56.225 1729.42C38.451 1721.91 21.306 1712.6 5.26611 1701.76C3.49885 1700.57 1.74329 1699.36 0 1698.12V1696.9C1.92708 1698.27 3.86932 1699.62 5.82593 1700.94C21.814 1711.74 38.902 1721.01 56.615 1728.5C62.342 1730.93 68.152 1733.17 74.03 1735.23C74.285 1734.02 74.5359 1732.81 74.7839 1731.6C79.1319 1710.35 82.448 1688.62 84.639 1667.01C85.647 1657.09 86.43 1647.08 86.985 1637.04C56.0469 1649 26.8838 1664.52 0 1683.11V1681.28C26.9266 1662.76 56.1185 1647.3 87.074 1635.4C87.689 1623.77 87.998 1612.11 87.998 1600.5C87.998 1584.89 87.4401 1569.15 86.3411 1553.71C85.2551 1538.4 83.607 1522.96 81.444 1507.81C79.301 1492.8 76.601 1477.7 73.418 1462.92C70.264 1448.27 66.5511 1433.54 62.3831 1419.15C47.6469 1368.29 26.6925 1319.41 0 1273.57Z" fill="white"/>
</g>
</g>
</svg>
