<svg xmlns="http://www.w3.org/2000/svg" width="69.606" height="69.606" viewBox="0 0 69.606 69.606">
  <g id="Check" transform="translate(-137 -1536.758)">
    <path id="check-mark" d="M69.606,34.8A34.8,34.8,0,1,1,34.8,0,34.784,34.784,0,0,1,69.606,34.8Zm-5.438,0A29.365,29.365,0,1,0,34.8,64.169,29.349,29.349,0,0,0,64.168,34.8Zm0,0" transform="translate(137 1536.758)" fill="#4ccfcd" opacity="0.33"/>
    <path id="check-mark-2" data-name="check-mark" d="M50.188,23.76a2.719,2.719,0,0,1,0,3.845L31.947,45.847a2.72,2.72,0,0,1-3.845,0l-8.683-8.684a2.719,2.719,0,0,1,3.845-3.845l6.761,6.761L46.342,23.76a2.72,2.72,0,0,1,3.845,0Z" transform="translate(138 1536.758)" fill="#42d260"/>
  </g>
</svg>
