<svg xmlns="http://www.w3.org/2000/svg" width="1004.79" height="656.527" viewBox="0 0 1004.79 656.527">
  <g id="QA_CENTER" data-name="QA CENTER" transform="translate(-728.664 -244.543)">
    <g id="Сгруппировать_5787" data-name="Сгруппировать 5787" transform="translate(188.551 54.729)">
      <g id="Сгруппировать_5789" data-name="Сгруппировать 5789" transform="translate(541.113 281.83)">
        <g id="Сгруппировать_5787-2" data-name="Сгруппировать 5787" transform="translate(33.665 67.607)">
          <rect id="Прямоугольник_1637" data-name="Прямоугольник 1637" width="54.574" height="44.033" transform="translate(0 354.15)" fill="#f6583e" opacity="0.1"/>
          <rect id="Прямоугольник_1638" data-name="Прямоугольник 1638" width="54.574" height="88.063" transform="translate(81.86 310.12)" fill="#f6583e" opacity="0.2"/>
          <rect id="Прямоугольник_1639" data-name="Прямоугольник 1639" width="54.574" height="134.598" transform="translate(163.72 263.585)" fill="#f6583e" opacity="0.3"/>
          <rect id="Прямоугольник_1640" data-name="Прямоугольник 1640" width="54.574" height="182.53" transform="translate(245.581 215.653)" fill="#f6583e" opacity="0.35"/>
          <rect id="Прямоугольник_1645" data-name="Прямоугольник 1645" width="54.573" height="227.599" transform="translate(326.382 170.583)" fill="#f6583e" opacity="0.4"/>
          <rect id="Прямоугольник_1646" data-name="Прямоугольник 1646" width="54.573" height="269.196" transform="translate(408.242 128.987)" fill="#f6583e" opacity="0.45"/>
          <rect id="Прямоугольник_1647" data-name="Прямоугольник 1647" width="54.574" height="314.528" transform="translate(490.101 83.655)" fill="#f6583e" opacity="0.5"/>
          <rect id="Прямоугольник_1648" data-name="Прямоугольник 1648" width="54.574" height="365.059" transform="translate(571.961 33.123)" fill="#f6583e" opacity="0.6"/>
          <rect id="Прямоугольник_1649" data-name="Прямоугольник 1649" width="54.573" height="556.057" transform="translate(898.343 -157.873)" fill="#f6583e"/>
          <rect id="Прямоугольник_1653" data-name="Прямоугольник 1653" width="54.573" height="411.059" transform="translate(652.762 -12.877)" fill="#f6583e" opacity="0.7"/>
          <rect id="Прямоугольник_1654" data-name="Прямоугольник 1654" width="54.573" height="455.196" transform="translate(734.623 -57.013)" fill="#f6583e" opacity="0.8"/>
          <rect id="Прямоугольник_1655" data-name="Прямоугольник 1655" width="54.573" height="506.059" transform="translate(816.483 -107.877)" fill="#f6583e" opacity="0.9"/>
          <rect id="Прямоугольник_1656" data-name="Прямоугольник 1656" width="54.573" height="556.056" transform="translate(898.343 -157.873)" fill="#f6583e"/>
        </g>
        <g id="Сгруппировать_5788" data-name="Сгруппировать 5788">
          <path id="Контур_23479" data-name="Контур 23479" d="M295.421,72.445V688.518h943.846" transform="translate(-295.421 -163.461)" fill="none" stroke="#fff" stroke-linecap="round" stroke-linejoin="round" stroke-width="2"/>
          <path id="Контур_23480" data-name="Контур 23480" d="M324.641,147.449a11.368,11.368,0,1,1-11.365-11.365A11.366,11.366,0,0,1,324.641,147.449Z" transform="translate(-252.321 377.609)" fill="#fff" opacity="0.1"/>
          <path id="Контур_23481" data-name="Контур 23481" d="M335.337,147.449a11.365,11.365,0,1,1-11.364-11.365A11.361,11.361,0,0,1,335.337,147.449Z" transform="translate(-181.163 377.609)" fill="#fff" opacity="0.2"/>
          <path id="Контур_23482" data-name="Контур 23482" d="M346.041,147.449a11.365,11.365,0,1,1-11.364-11.365A11.362,11.362,0,0,1,346.041,147.449Z" transform="translate(-110.006 377.609)" fill="#fff" opacity="0.3"/>
          <path id="Контур_23483" data-name="Контур 23483" d="M356.745,147.449a11.365,11.365,0,1,1-11.365-11.365A11.362,11.362,0,0,1,356.745,147.449Z" transform="translate(-38.848 377.609)" fill="#fff" opacity="0.35"/>
          <path id="Контур_23484" data-name="Контур 23484" d="M367.449,147.449a11.365,11.365,0,1,1-11.364-11.365A11.366,11.366,0,0,1,367.449,147.449Z" transform="translate(32.31 377.609)" fill="#fff" opacity="0.3"/>
          <path id="Контур_23485" data-name="Контур 23485" d="M378.16,147.449a11.368,11.368,0,1,1-11.372-11.365A11.368,11.368,0,0,1,378.16,147.449Z" transform="translate(103.461 377.609)" fill="#fff" opacity="0.4"/>
          <path id="Контур_23486" data-name="Контур 23486" d="M388.856,147.449a11.365,11.365,0,1,1-11.364-11.365A11.362,11.362,0,0,1,388.856,147.449Z" transform="translate(174.619 377.609)" fill="#fff" opacity="0.5"/>
          <path id="Контур_23487" data-name="Контур 23487" d="M399.56,147.449A11.365,11.365,0,1,1,388.2,136.084,11.362,11.362,0,0,1,399.56,147.449Z" transform="translate(245.776 377.609)" fill="#fff" opacity="0.6"/>
          <path id="Контур_23488" data-name="Контур 23488" d="M410.264,147.449A11.365,11.365,0,1,1,398.9,136.084,11.361,11.361,0,0,1,410.264,147.449Z" transform="translate(316.934 377.609)" fill="#fff" opacity="0.7"/>
          <path id="Контур_23489" data-name="Контур 23489" d="M420.968,147.449A11.365,11.365,0,1,1,409.6,136.084,11.366,11.366,0,0,1,420.968,147.449Z" transform="translate(388.092 377.609)" fill="#fff" opacity="0.8"/>
          <path id="Контур_23490" data-name="Контур 23490" d="M431.679,147.449a11.369,11.369,0,1,1-11.372-11.365A11.368,11.368,0,0,1,431.679,147.449Z" transform="translate(459.243 377.609)" fill="#fff" opacity="0.9"/>
        </g>
      </g>
    </g>
    <g id="quality_1_" data-name="quality(1)" transform="translate(1649 816.336)">
      <circle id="Эллипс_201" data-name="Эллипс 201" cx="29.5" cy="29.5" r="29.5" transform="translate(12 13.664)" fill="#fff"/>
      <path id="Контур_23476" data-name="Контур 23476" d="M114.086,89.2a25.186,25.186,0,1,0,25.186,25.187A25.216,25.216,0,0,0,114.086,89.2Zm12.631,19.149-15.2,14.337a1.477,1.477,0,0,1-1.054.422,1.493,1.493,0,0,1-1.092-.46l-7.955-8.165a1.532,1.532,0,0,1,2.186-2.147l6.9,7.092,14.107-13.3a1.532,1.532,0,1,1,2.108,2.224Zm0,0" transform="translate(-71.859 -71.859)" fill="#f6583e"/>
      <path id="Контур_23477" data-name="Контур 23477" d="M78.4,51.708l6.057-9.181L78.4,33.346a1.55,1.55,0,0,1-.249-.92l.613-11-9.794-4.964a1.514,1.514,0,0,1-.671-.671L63.349,5.994l-11,.613a1.544,1.544,0,0,1-.92-.249L42.227.3,33.045,6.357a1.544,1.544,0,0,1-.919.249l-11-.613-4.964,9.795a1.514,1.514,0,0,1-.671.671L5.693,21.4l.613,11a1.552,1.552,0,0,1-.249.92L0,42.527l6.057,9.181a1.551,1.551,0,0,1,.249.92l-.613,11,9.795,4.945a1.514,1.514,0,0,1,.671.671L21.1,79.042l11-.614h.076a1.619,1.619,0,0,1,.844.249l9.181,6.057,9.182-6.057a1.554,1.554,0,0,1,.919-.249l11,.614,4.945-9.795a1.514,1.514,0,0,1,.671-.671l9.794-4.945-.613-11a1.927,1.927,0,0,1,.288-.92ZM42.227,70.78A28.253,28.253,0,1,1,70.479,42.527,28.28,28.28,0,0,1,42.227,70.78Zm0,0" fill="#fff"/>
    </g>
  </g>
</svg>
