<svg xmlns="http://www.w3.org/2000/svg" width="24" height="20" viewBox="0 0 24 20">
  <g id="computer" transform="translate(0 -4)">
    <path id="Контур_15360" data-name="Контур 15360" d="M22.25,20H1.75A1.752,1.752,0,0,1,0,18.25V5.75A1.752,1.752,0,0,1,1.75,4h20.5A1.752,1.752,0,0,1,24,5.75v12.5A1.752,1.752,0,0,1,22.25,20ZM1.75,5.5a.25.25,0,0,0-.25.25v12.5a.25.25,0,0,0,.25.25h20.5a.25.25,0,0,0,.25-.25V5.75a.25.25,0,0,0-.25-.25Z" fill="#f6583e"/>
    <path id="Контур_15361" data-name="Контур 15361" d="M16.25,24H7.75a.75.75,0,0,1,0-1.5h8.5a.75.75,0,0,1,0,1.5Z" fill="#f6583e"/>
    <path id="Контур_15362" data-name="Контур 15362" d="M12,24a.75.75,0,0,1-.75-.75v-4a.75.75,0,0,1,1.5,0v4A.75.75,0,0,1,12,24Z" fill="#f6583e"/>
    <path id="Контур_15363" data-name="Контур 15363" d="M15.25,14.5a.751.751,0,0,1-.569-1.239L15.762,12,14.68,10.738a.75.75,0,0,1,1.139-.977l1.5,1.75a.75.75,0,0,1,0,.977l-1.5,1.75a.747.747,0,0,1-.569.262Z" fill="#f6583e"/>
    <path id="Контур_15364" data-name="Контур 15364" d="M8.75,14.5a.751.751,0,0,1-.57-.262l-1.5-1.75a.75.75,0,0,1,0-.977l1.5-1.75a.751.751,0,0,1,1.139.978L8.238,12,9.32,13.262A.749.749,0,0,1,8.75,14.5Z" fill="#f6583e"/>
    <path id="Контур_15365" data-name="Контур 15365" d="M11.25,16a.75.75,0,0,1-.732-.918l1.5-6.5a.75.75,0,1,1,1.462.336l-1.5,6.5A.748.748,0,0,1,11.25,16Z" fill="#f6583e"/>
  </g>
</svg>
