<svg xmlns="http://www.w3.org/2000/svg" width="24" height="24" viewBox="0 0 24 24">
  <g id="virus-warning_1_" data-name="virus-warning(1)" transform="translate(0)">
    <path id="Контур_15387" data-name="Контур 15387" d="M22.288,24H11.712A1.71,1.71,0,0,1,10,22.3a1.633,1.633,0,0,1,.272-.916l5.271-8.565a1.709,1.709,0,0,1,2.92.012L23.744,21.4A1.607,1.607,0,0,1,24,22.3,1.71,1.71,0,0,1,22.288,24ZM17,13.5a.2.2,0,0,0-.172.089L11.5,22.3a.211.211,0,0,0,.212.2H22.288a.211.211,0,0,0,.212-.2.146.146,0,0,0-.017-.078L17.178,13.6A.2.2,0,0,0,17,13.5Z" fill="#f6583e"/>
    <path id="Контур_15388" data-name="Контур 15388" d="M17,20a.75.75,0,0,1-.75-.75v-3.5a.75.75,0,0,1,1.5,0v3.5A.75.75,0,0,1,17,20Z" fill="#f6583e"/>
    <circle id="Эллипс_20" data-name="Эллипс 20" cx="0.75" cy="0.75" r="0.75" transform="translate(16.25 20.5)" fill="#f6583e"/>
    <path id="Контур_15389" data-name="Контур 15389" d="M7.89,22.01a.749.749,0,0,1-.586-.282A6,6,0,0,1,6,18V8.75A2.752,2.752,0,0,1,8.75,6h6.5A2.752,2.752,0,0,1,18,8.75V9.76a.75.75,0,0,1-1.5,0V8.75A1.252,1.252,0,0,0,15.25,7.5H8.75A1.252,1.252,0,0,0,7.5,8.75V18a4.5,4.5,0,0,0,.976,2.792A.75.75,0,0,1,7.89,22.01Z" fill="#f6583e"/>
    <path id="Контур_15390" data-name="Контур 15390" d="M15.25,7.5H8.75A.75.75,0,0,1,8,6.75V5.5a4,4,0,0,1,8,0V6.75A.75.75,0,0,1,15.25,7.5ZM9.5,6h5V5.5a2.5,2.5,0,0,0-5,0Z" fill="#f6583e"/>
    <path id="Контур_15391" data-name="Контур 15391" d="M15,5a.75.75,0,0,1-.75-.75A4.254,4.254,0,0,1,18.5,0a.75.75,0,0,1,0,1.5,2.752,2.752,0,0,0-2.75,2.75A.75.75,0,0,1,15,5Z" fill="#f6583e"/>
    <path id="Контур_15392" data-name="Контур 15392" d="M9,5a.75.75,0,0,1-.75-.75A2.752,2.752,0,0,0,5.5,1.5.75.75,0,0,1,5.5,0,4.254,4.254,0,0,1,9.75,4.25.75.75,0,0,1,9,5Z" fill="#f6583e"/>
    <path id="Контур_15393" data-name="Контур 15393" d="M6.75,11.5a.787.787,0,0,1-.237-.038l-3-1a.751.751,0,0,1-.495-.549l-1-4.5a.75.75,0,1,1,1.464-.326L4.39,9.173l2.6.865A.75.75,0,0,1,6.75,11.5Z" fill="#f6583e"/>
    <path id="Контур_15394" data-name="Контур 15394" d="M6.75,15h-3a.751.751,0,0,1-.416-.126l-3-2a.75.75,0,0,1,.832-1.248L3.978,13.5H6.75a.75.75,0,0,1,0,1.5Z" fill="#f6583e"/>
    <path id="Контур_15395" data-name="Контур 15395" d="M1.749,23a.739.739,0,0,1-.4-.119.75.75,0,0,1-.226-1.036l2.25-3.5a.751.751,0,0,1,.379-.3l2.75-.98A.75.75,0,0,1,7,18.476l-2.51.9L2.381,22.656A.75.75,0,0,1,1.749,23Z" fill="#f6583e"/>
    <path id="Контур_15396" data-name="Контур 15396" d="M12,15.03a.75.75,0,0,1-.75-.75V7.75a.75.75,0,0,1,1.5,0v6.53A.75.75,0,0,1,12,15.03Z" fill="#f6583e"/>
  </g>
</svg>
