<svg id="instagram_2_" data-name="instagram(2)" xmlns="http://www.w3.org/2000/svg" width="43.726" height="43.726" viewBox="0 0 43.726 43.726">
  <g id="Сгруппировать_3" data-name="Сгруппировать 3">
    <g id="Сгруппировать_2" data-name="Сгруппировать 2">
      <path id="Контур_5" data-name="Контур 5" d="M30.915,0H12.81A12.825,12.825,0,0,0,0,12.81V30.915a12.825,12.825,0,0,0,12.81,12.81H30.915a12.825,12.825,0,0,0,12.81-12.81V12.81A12.825,12.825,0,0,0,30.915,0Zm11.1,30.915a11.115,11.115,0,0,1-11.1,11.1H12.81a11.115,11.115,0,0,1-11.1-11.1V12.81a11.115,11.115,0,0,1,11.1-11.1H30.915a11.115,11.115,0,0,1,11.1,11.1Z" fill="#fff"/>
    </g>
  </g>
  <g id="Сгруппировать_5" data-name="Сгруппировать 5" transform="translate(3.758 3.758)">
    <g id="Сгруппировать_4" data-name="Сгруппировать 4">
      <path id="Контур_6" data-name="Контур 6" d="M71.158,44H53.053A9.063,9.063,0,0,0,44,53.053V71.158a9.063,9.063,0,0,0,9.053,9.053h5.21a.854.854,0,1,0,0-1.708h-5.21a7.353,7.353,0,0,1-7.345-7.345V53.053a7.353,7.353,0,0,1,7.345-7.345H71.158A7.353,7.353,0,0,1,78.5,53.053V71.158A7.353,7.353,0,0,1,71.158,78.5H66.005a.854.854,0,1,0,0,1.708h5.153a9.063,9.063,0,0,0,9.053-9.053V53.053A9.063,9.063,0,0,0,71.158,44Z" transform="translate(-44 -44)" fill="#fff"/>
    </g>
  </g>
  <g id="Сгруппировать_7" data-name="Сгруппировать 7" transform="translate(21.009 38.26)">
    <g id="Сгруппировать_6" data-name="Сгруппировать 6">
      <path id="Контур_7" data-name="Контур 7" d="M247.458,448.25a.854.854,0,1,0,.25.6A.86.86,0,0,0,247.458,448.25Z" transform="translate(-246 -448)" fill="#fff"/>
    </g>
  </g>
  <g id="Сгруппировать_9" data-name="Сгруппировать 9" transform="translate(13.503 13.028)">
    <g id="Сгруппировать_8" data-name="Сгруппировать 8">
      <path id="Контур_8" data-name="Контур 8" d="M159.628,152.817a.854.854,0,0,0-1.207-.039l-.038.036a.854.854,0,1,0,1.172,1.242l.033-.031A.854.854,0,0,0,159.628,152.817Z" transform="translate(-158.115 -152.547)" fill="#fff"/>
    </g>
  </g>
  <g id="Сгруппировать_11" data-name="Сгруппировать 11" transform="translate(10.077 10.077)">
    <g id="Сгруппировать_10" data-name="Сгруппировать 10">
      <path id="Контур_9" data-name="Контур 9" d="M129.785,118a11.819,11.819,0,0,0-5.4,1.307.854.854,0,1,0,.783,1.518,9.965,9.965,0,0,1,4.615-1.116,10.072,10.072,0,1,1-8.77,5.109.854.854,0,1,0-1.485-.843A11.787,11.787,0,1,0,129.785,118Z" transform="translate(-118 -118)" fill="#fff"/>
    </g>
  </g>
  <g id="Сгруппировать_13" data-name="Сгруппировать 13" transform="translate(14.177 14.177)">
    <g id="Сгруппировать_12" data-name="Сгруппировать 12">
      <path id="Контур_10" data-name="Контур 10" d="M173.686,166a7.686,7.686,0,1,0,7.686,7.686A7.695,7.695,0,0,0,173.686,166Zm0,13.664a5.978,5.978,0,1,1,5.978-5.978A5.985,5.985,0,0,1,173.686,179.664Z" transform="translate(-166 -166)" fill="#fff"/>
    </g>
  </g>
  <g id="Сгруппировать_15" data-name="Сгруппировать 15" transform="translate(29.827 7.409)">
    <g id="Сгруппировать_14" data-name="Сгруппировать 14">
      <path id="Контур_11" data-name="Контур 11" d="M352.5,86.75A3.245,3.245,0,1,0,355.741,90,3.249,3.249,0,0,0,352.5,86.75Zm0,4.782A1.537,1.537,0,1,1,354.032,90,1.539,1.539,0,0,1,352.5,91.532Z" transform="translate(-349.25 -86.75)" fill="#fff"/>
    </g>
  </g>
</svg>
