<svg width="248" height="231" viewBox="0 0 248 231" fill="none" xmlns="http://www.w3.org/2000/svg">
<path d="M152.851 202.815C149.471 211.006 146.222 218.838 143.016 226.687C142.283 228.48 141.567 230.2 139.256 230.304C136.93 230.404 136.075 228.704 135.202 227.004C133.958 224.586 132.636 222.204 131.467 219.753C130.844 218.446 130.147 218.053 128.722 218.599C126.422 219.475 124.06 220.185 121.702 220.892C119.702 221.492 117.618 222.592 115.742 220.647C113.828 218.666 115.085 216.668 115.876 214.734C119.376 206.166 122.883 197.597 126.476 189.066C126.805 188.54 126.917 187.907 126.789 187.3C126.66 186.693 126.301 186.159 125.787 185.812C121.924 182.438 118.854 178.252 116.796 173.554C116.577 172.847 116.113 172.242 115.488 171.847C114.862 171.453 114.116 171.295 113.385 171.402C80.662 171.455 47.939 171.467 15.2157 171.44C14.4477 171.44 13.6817 171.44 12.9157 171.44C5.12465 171.379 0.118654 166.42 0.108654 158.66C0.0866538 139.655 0.0839871 120.651 0.100654 101.646C0.100654 72.328 0.257654 43.01 0.000653799 13.695C-0.0713462 5.41403 5.81165 -0.014969 13.5797 3.10042e-05C87.1217 0.146698 160.662 0.176698 234.201 0.090031C243.024 0.090031 247.71 4.81103 247.711 13.669C247.711 61.7357 247.711 109.802 247.711 157.869C247.711 166.669 242.947 171.438 234.156 171.442C220.181 171.448 206.205 171.48 192.23 171.396C191.54 171.3 190.839 171.453 190.253 171.828C189.666 172.202 189.232 172.774 189.03 173.44C186.968 178.137 183.902 182.325 180.049 185.71C179.497 186.065 179.106 186.621 178.959 187.26C178.811 187.899 178.92 188.571 179.261 189.131C182.961 197.892 186.546 206.702 190.187 215.488C190.93 217.281 191.574 219.074 189.959 220.703C188.459 222.215 186.719 221.751 184.959 221.157C182.383 220.289 179.754 219.578 177.192 218.671C175.775 218.171 174.956 218.336 174.26 219.819C172.96 222.586 171.426 225.24 170.024 227.959C169.749 228.68 169.252 229.296 168.605 229.717C167.958 230.139 167.195 230.344 166.424 230.304C164.657 230.211 163.735 229.111 163.107 227.575C160.119 220.265 157.112 212.962 154.088 205.666C153.737 204.815 153.357 203.977 152.854 202.816L152.851 202.815ZM123.954 25.196C97.7117 25.196 71.4697 25.1857 45.2277 25.165C43.6197 25.165 42.7647 25.382 42.2277 27.197C41.3785 30.3826 39.7003 33.2862 37.3641 35.6123C35.0278 37.9383 32.1169 39.6038 28.9277 40.439C27.3147 40.917 27.0347 41.639 27.0367 43.096C27.0693 71.556 27.0647 100.016 27.0227 128.475C26.9742 128.776 26.9872 129.084 27.0609 129.379C27.1346 129.675 27.2674 129.953 27.4515 130.196C27.6355 130.439 27.8668 130.642 28.1315 130.793C28.3963 130.944 28.6889 131.04 28.9917 131.075C32.1379 131.903 35.0109 133.544 37.3222 135.834C39.6336 138.123 41.3019 140.981 42.1597 144.119C42.7157 145.993 43.5357 146.372 45.3047 146.368C67.4567 146.313 89.609 146.315 111.762 146.376C113.607 146.381 114.298 145.851 114.875 144.06C117.844 134.76 124.14 126.882 132.556 121.933C140.972 116.985 150.917 115.315 160.488 117.242C175.763 120.342 185.872 129.62 190.949 144.33C191.47 145.841 192.067 146.469 193.749 146.38C196.893 146.215 200.049 146.274 203.203 146.361C204.51 146.397 205.045 146.05 205.442 144.691C206.276 141.413 207.972 138.418 210.353 136.017C212.735 133.615 215.716 131.895 218.987 131.034C219.271 130.998 219.545 130.904 219.791 130.759C220.038 130.613 220.252 130.418 220.421 130.186C220.59 129.955 220.709 129.691 220.772 129.412C220.835 129.132 220.84 128.843 220.787 128.561C220.741 100.016 220.739 71.4707 220.78 42.926C220.83 42.6444 220.823 42.3553 220.758 42.0766C220.693 41.7979 220.572 41.5353 220.402 41.3051C220.232 41.075 220.017 40.882 219.769 40.738C219.522 40.5941 219.248 40.5022 218.964 40.468C212.225 38.442 207.627 34.057 205.626 27.258C205.115 25.519 204.366 25.158 202.682 25.158C176.439 25.2154 150.197 25.2287 123.955 25.198L123.954 25.196ZM113.44 164.31C113.234 161.51 112.722 158.868 112.94 156.286C113.159 153.629 112.191 153.331 109.873 153.34C86.9467 153.427 64.0197 153.396 41.0937 153.39C37.4167 153.39 36.2607 152.42 35.9937 149.19C35.8531 146.226 34.6626 143.41 32.6351 141.244C30.6076 139.078 27.8755 137.704 24.9277 137.368C20.2647 136.678 20.0017 136.382 20.0017 131.768C20.0017 101.168 20.0017 70.568 20.0017 39.968C20.0017 35.01 20.2507 34.725 25.1837 34.015C30.8837 33.194 35.5677 28.815 35.8487 23.293C36.0587 19.151 37.7887 18.032 41.8667 18.039C84.054 18.1164 126.242 18.132 168.43 18.086C181.384 18.086 194.339 18.0887 207.294 18.094C210.359 18.094 211.594 19.215 211.846 22.045C212.457 28.959 216.565 33.237 223.446 34.126C227.132 34.602 227.817 35.34 227.817 38.996C227.823 70.1067 227.823 101.217 227.817 132.327C227.817 136.158 227.168 136.863 223.348 137.317C217.007 138.071 212.355 142.703 211.863 148.753C211.563 152.453 210.603 153.368 206.939 153.384C202.763 153.403 198.587 153.403 194.411 153.384C193.473 153.379 192.741 153.389 192.864 154.692C193.164 157.852 192.582 160.974 192.243 164.311H194.843C207.968 164.311 221.093 164.311 234.219 164.311C239.059 164.311 240.619 162.755 240.619 157.878C240.623 109.805 240.623 61.7327 240.619 13.66C240.619 8.74503 239.104 7.21003 234.258 7.20903C160.704 7.20303 87.152 7.20203 13.6007 7.20603C8.72865 7.20603 7.20065 8.73203 7.20065 13.617C7.19665 61.6904 7.19665 109.763 7.20065 157.835C7.20065 162.82 8.73265 164.309 13.8107 164.309C46.1973 164.309 78.584 164.309 110.971 164.309L113.44 164.31ZM185.801 156.4C185.799 149.896 183.872 143.538 180.263 138.128C176.654 132.717 171.524 128.496 165.52 125.996C159.516 123.496 152.906 122.829 146.523 124.08C140.141 125.33 134.271 128.442 129.654 133.023C125.038 137.604 121.88 143.449 120.58 149.822C119.279 156.194 119.895 162.809 122.348 168.833C124.801 174.856 128.982 180.019 134.364 183.67C139.746 187.321 146.089 189.298 152.593 189.35C156.937 189.37 161.243 188.533 165.264 186.887C169.285 185.241 172.943 182.819 176.027 179.759C179.111 176.698 181.562 173.06 183.239 169.052C184.916 165.044 185.786 160.745 185.801 156.4ZM138.758 218.446L147.884 196.163C144.318 195.625 140.823 194.693 137.463 193.385C136.009 192.822 134.441 191.085 133.241 191.791C132.117 192.453 131.817 194.55 131.206 196.037C129.006 201.39 126.835 206.752 124.484 212.527C126.884 211.775 128.815 211.187 130.733 210.566C131.182 210.366 131.667 210.257 132.159 210.248C132.651 210.238 133.14 210.327 133.597 210.51C134.054 210.692 134.469 210.965 134.819 211.311C135.169 211.657 135.445 212.07 135.633 212.525C136.578 214.325 137.533 216.125 138.758 218.446V218.446ZM181.304 212.558C178.496 205.726 175.89 199.384 173.281 193.043C172.911 192.143 172.817 191.028 171.259 191.911C167.539 193.965 163.476 195.323 159.269 195.92C157.978 196.12 157.969 196.559 158.39 197.538C159.259 199.56 160.063 201.611 160.904 203.645C162.898 208.465 164.899 213.284 167.02 218.402C168.198 216.184 169.187 214.316 170.18 212.451C170.551 211.575 171.253 210.882 172.133 210.521C173.013 210.159 174 210.16 174.88 210.522C176.88 211.134 178.873 211.785 181.309 212.558" fill="#84CBF3"/>
<path d="M124.72 81.3451H195.491C196.343 81.3451 197.196 81.3241 198.044 81.3761C198.921 81.4046 199.756 81.763 200.381 82.3797C201.006 82.9964 201.376 83.826 201.416 84.7032C201.457 85.5804 201.165 86.4406 200.6 87.1123C200.034 87.784 199.236 88.2177 198.365 88.3271C197.521 88.4312 196.67 88.4689 195.82 88.4401C148.298 88.4447 100.777 88.4447 53.2567 88.4401C52.2388 88.4792 51.2199 88.4017 50.2197 88.2091C49.4401 88.0089 48.7546 87.5435 48.2809 86.8929C47.8071 86.2422 47.5747 85.447 47.6236 84.6436C47.6724 83.8402 47.9995 83.079 48.5486 82.4905C49.0977 81.9021 49.8346 81.5233 50.6327 81.4191C51.5656 81.3362 52.5028 81.3128 53.4387 81.3491C77.1987 81.3491 100.959 81.3491 124.72 81.3491" fill="#84CBF3"/>
<path d="M124.395 108.111C100.635 108.111 76.8744 108.111 53.1137 108.111C52.263 108.152 51.4106 108.132 50.5627 108.052C49.7882 107.935 49.0762 107.559 48.543 106.985C48.0098 106.411 47.6867 105.673 47.6265 104.892C47.5663 104.111 47.7725 103.333 48.2114 102.684C48.6504 102.035 49.2963 101.555 50.0437 101.32C50.9514 101.104 51.8844 101.014 52.8167 101.052C100.593 101.041 148.37 101.041 196.147 101.052C196.996 101.025 197.845 101.085 198.682 101.23C199.499 101.348 200.24 101.776 200.75 102.426C201.26 103.076 201.499 103.898 201.419 104.72C201.432 105.15 201.359 105.579 201.206 105.981C201.052 106.383 200.821 106.751 200.524 107.063C200.228 107.376 199.873 107.626 199.479 107.8C199.085 107.975 198.661 108.069 198.231 108.079C197.471 108.15 196.7 108.115 195.931 108.115H124.395" fill="#84CBF3"/>
<path d="M124.456 68.646C100.609 68.646 76.7615 68.646 52.9135 68.646C52.1488 68.6984 51.3808 68.6793 50.6195 68.589C49.7978 68.4654 49.0462 68.0557 48.497 67.4321C47.9478 66.8086 47.6363 66.0112 47.6174 65.1805C47.5985 64.3497 47.8734 63.539 48.3937 62.8912C48.914 62.2433 49.6463 61.7999 50.4615 61.639C51.3026 61.5056 52.1565 61.4721 53.0055 61.539C100.7 61.5357 148.395 61.5357 196.089 61.539C196.854 61.4893 197.622 61.5117 198.383 61.606C199.235 61.7227 200.015 62.1469 200.577 62.7988C201.138 63.4508 201.442 64.2855 201.431 65.1458C201.42 66.0061 201.095 66.8327 200.517 67.47C199.939 68.1073 199.148 68.5113 198.293 68.606C197.528 68.6794 196.759 68.6938 195.993 68.649H124.456" fill="#84CBF3"/>
<path d="M124.418 48.858C110.186 48.858 95.9522 48.86 81.7176 48.864C80.2436 48.864 78.8176 48.846 77.7926 47.515C77.4264 47.0684 77.179 46.5365 77.0732 45.9688C76.9674 45.401 77.0067 44.8157 77.1874 44.2672C77.3681 43.7186 77.6844 43.2246 78.107 42.8309C78.5295 42.4372 79.0446 42.1566 79.6046 42.015C80.5191 41.8158 81.4555 41.7351 82.3906 41.775C110.429 41.7637 138.467 41.7607 166.505 41.766C167.016 41.766 167.53 41.745 168.039 41.782C170.489 41.962 171.939 43.264 171.963 45.294C171.993 47.422 170.463 48.836 167.879 48.84C153.391 48.866 138.903 48.8707 124.416 48.854" fill="#84CBF3"/>
</svg>
