<svg width="248" height="243" viewBox="0 0 248 243" fill="none" xmlns="http://www.w3.org/2000/svg">
<path d="M108.164 0.001H139.056C139.456 4.552 140.899 8.901 141.697 13.38C141.872 14.364 142.707 14.46 143.479 14.691C147.547 15.8736 151.48 17.4826 155.21 19.491C155.695 19.8071 156.27 19.9573 156.848 19.9188C157.426 19.8804 157.976 19.6556 158.415 19.278C161.468 17.248 164.621 15.361 167.655 13.305C168.867 12.484 169.564 12.595 170.607 13.636C176.688 19.7027 182.832 25.71 189.038 31.658C189.527 32.0248 189.855 32.5669 189.953 33.1706C190.051 33.7743 189.911 34.3924 189.563 34.895C188.336 37.489 187.269 40.156 186.093 42.895C197.593 43.022 205.937 47.86 211.541 57.271C216.049 64.841 215.777 73.137 214.985 81.383C214.294 88.574 210.724 94.469 205.076 99.136C204.261 99.81 203.006 100.236 203.312 101.663C203.618 103.09 204.991 102.682 205.86 102.934C211.922 104.691 218.278 105.443 224.094 108.023C225.055 108.449 225.638 107.957 226.306 107.623C229.793 105.853 233.256 104.038 236.734 102.252C237.408 101.818 238.184 101.568 238.984 101.527C241.713 101.593 244.444 101.603 247.175 101.635V158.835C246.642 158.697 246.263 159.035 245.839 159.245C222.883 170.472 199.92 181.687 176.951 192.889C176.419 193.108 175.97 193.491 175.671 193.983C175.372 194.475 175.238 195.05 175.288 195.623C175.163 198.344 174.084 200.935 172.241 202.941C170.397 204.947 167.906 206.24 165.205 206.593C164.936 206.591 164.669 206.643 164.421 206.746C164.172 206.85 163.947 207.002 163.759 207.194C163.571 207.387 163.424 207.615 163.326 207.866C163.228 208.116 163.182 208.384 163.19 208.653C162.819 211.106 161.666 213.373 159.901 215.116C158.136 216.859 155.855 217.985 153.398 218.326C151.818 218.512 151.458 219.126 151.222 220.446C150.825 222.898 149.652 225.157 147.875 226.892C146.098 228.627 143.81 229.746 141.35 230.084C139.988 230.284 139.536 230.604 139.324 231.974C139.075 233.961 138.295 235.844 137.065 237.424C135.835 239.004 134.201 240.223 132.336 240.952C126.599 243.326 121.453 241.952 117.121 237.711C115.815 236.432 114.84 236.236 113.033 237.046C111.356 237.799 109.53 238.163 107.692 238.11C105.855 238.057 104.053 237.588 102.422 236.74C100.791 235.891 99.3737 234.685 98.2757 233.21C97.1777 231.736 96.4277 230.032 96.082 228.226C96.0492 227.654 95.8038 227.114 95.3938 226.713C94.9839 226.312 94.439 226.079 93.866 226.059C91.37 225.684 89.0631 224.509 87.2919 222.711C85.5208 220.913 84.381 218.588 84.044 216.087C83.844 214.849 83.275 214.666 82.214 214.458C76.536 213.344 73.052 209.844 72.014 204.227C71.845 203.313 71.614 202.941 70.605 202.76C64.574 201.679 61.148 198.28 59.975 192.403C59.875 191.893 60.056 191.303 59.435 190.938C55.625 188.714 51.826 186.47 48.146 184.307C46.988 185.27 47.811 187.256 46.183 187.284C43.471 187.331 40.683 187.822 38.036 186.966C25.936 183.06 13.856 179.08 1.752 175.177C0.522 174.775 0 174.309 0 172.908C0.0546667 147.069 0.0546667 121.23 0 95.391C0 93.854 0.539 93.733 1.911 93.591C9.3 92.847 16.062 94.129 22 98.749C22.995 99.523 24.326 99.89 25.293 100.689C30.399 104.9 35.952 105.428 41.929 102.806C42.639 102.494 43.804 102.913 43.94 101.567C44.049 100.488 43.348 100.043 42.646 99.508C40.1287 97.5583 37.9591 95.197 36.229 92.524C30.967 84.561 31.663 75.708 32.2 66.896C32.4062 64.0556 33.2043 61.2897 34.543 58.776C39.656 48.862 47.843 43.488 59.223 43.04C60.886 42.974 61.14 42.662 60.433 41.207C59.366 39.013 58.54 36.707 57.495 34.5C57.2261 34.0792 57.1286 33.5714 57.2225 33.081C57.3164 32.5905 57.5947 32.1547 58 31.863C64.2973 25.7777 70.5483 19.6463 76.753 13.469C77.818 12.403 78.498 12.622 79.541 13.309C82.671 15.371 85.873 17.33 89.001 19.396C89.3802 19.7286 89.8569 19.9295 90.3598 19.9688C90.8626 20.0081 91.3647 19.8836 91.791 19.614C95.6576 17.5145 99.7449 15.8497 103.978 14.65C104.695 14.441 105.378 14.25 105.525 13.387C106.316 8.909 107.765 4.553 108.164 0V0.001ZM239.176 109.881C237.936 110.494 237.155 110.867 236.386 111.263C213.619 123.003 190.861 134.761 168.112 146.537C165.603 147.937 162.73 148.55 159.868 148.295C158.277 148.107 156.707 147.774 155.176 147.302C148.315 145.391 141.46 143.461 134.611 141.51C130.053 140.037 125.105 140.352 120.771 142.392C113.509 145.892 106.276 149.446 99.071 153.054C98.3284 153.383 97.6643 153.865 97.1226 154.47C96.581 155.075 96.1744 155.789 95.9297 156.563C95.685 157.337 95.6079 158.155 95.7034 158.961C95.799 159.768 96.0651 160.544 96.484 161.24C98.14 164.04 101.284 164.64 104.607 162.722C108.892 160.25 113.146 157.722 117.416 155.228C125.216 150.661 131.98 151.28 138.763 157.24C149.353 166.545 159.92 175.876 170.463 185.231C170.88 185.732 171.469 186.06 172.114 186.152C172.759 186.244 173.416 186.094 173.957 185.731C195.008 175.356 216.083 165.03 237.183 154.752C237.835 154.531 238.392 154.094 238.761 153.513C239.131 152.932 239.291 152.242 239.215 151.558C239.144 138.489 239.176 125.418 239.176 112.348V109.881ZM114.456 136.322C112.923 135.822 111.422 135.312 109.904 134.853C104.162 133.116 98.266 132.171 92.309 133.021C82.219 134.46 72.384 137.179 62.401 139.178C61.9024 139.23 61.4342 139.443 61.0666 139.784C60.699 140.125 60.4518 140.576 60.362 141.069C57.146 152.336 53.8757 163.587 50.551 174.822C50.219 175.941 50.319 176.505 51.365 177.096C54.632 178.942 57.876 180.828 61.056 182.811C62.149 183.493 62.594 183.152 63.382 182.346C65.9356 179.611 68.6398 177.021 71.482 174.587C73.1142 173.234 75.0693 172.327 77.1566 171.955C79.2438 171.583 81.3919 171.758 83.3912 172.463C85.3905 173.169 87.1727 174.381 88.5639 175.981C89.9551 177.581 90.9078 179.514 91.329 181.592C91.3698 182.203 91.6395 182.776 92.0844 183.197C92.5294 183.618 93.1166 183.855 93.729 183.862C96.1386 184.254 98.3635 185.395 100.087 187.124C101.81 188.853 102.945 191.081 103.329 193.492C103.537 194.892 104.106 195.23 105.386 195.484C110.935 196.59 114.449 200.175 115.393 205.596C115.546 206.48 115.707 206.936 116.772 207.089C120.629 207.643 123.311 209.82 125.765 212.789C128.91 216.394 132.634 219.45 136.783 221.832C137.568 222.34 138.494 222.584 139.428 222.529C140.361 222.474 141.252 222.122 141.972 221.526C142.614 221.049 143.087 220.38 143.325 219.617C143.562 218.853 143.551 218.034 143.292 217.277C142.826 216.085 141.994 215.072 140.916 214.384C135.79 210.201 130.648 206.037 125.552 201.82C124.101 200.62 121.546 199.626 121.552 198.1C121.56 196.623 123.79 195.224 124.859 193.669C125.852 192.224 126.567 192.429 127.803 193.457C134.233 198.812 140.712 204.111 147.239 209.352C149.773 211.398 152.87 211.265 154.539 209.185C156.188 207.13 155.654 204.969 152.921 202.729C147.804 198.537 142.683 194.348 137.56 190.162C136.091 188.953 133.497 187.644 133.533 186.443C133.58 184.874 135.807 183.418 136.95 181.813C137.803 180.613 138.384 180.597 139.529 181.564C144.095 185.418 148.763 189.157 153.401 192.929C155.564 194.689 157.656 196.549 159.938 198.148C162.887 200.212 166.715 198.803 167.321 195.548C167.721 193.395 166.381 192.038 164.909 190.748C154.442 181.539 143.98 172.324 133.523 163.103C129.505 159.561 126.171 159.227 121.523 161.938C117.041 164.55 112.582 167.199 108.089 169.792C106.171 170.986 103.976 171.663 101.719 171.756C99.461 171.849 97.2178 171.355 95.208 170.323C92.9848 169.328 91.1003 167.705 89.7859 165.654C88.4714 163.604 87.784 161.214 87.808 158.778C87.617 153.43 89.728 149.171 94.532 146.606C100.441 143.451 106.538 140.634 112.541 137.648C113.221 137.31 114.116 137.227 114.465 136.322H114.456ZM143.492 75.34C143.507 71.299 143.464 68.026 142.461 64.795C140.008 56.895 131.948 50.736 123.875 50.76C119.627 50.7114 115.473 52.0188 112.019 54.4923C108.564 56.9658 105.989 60.4764 104.666 64.514C103.366 68.533 103.866 72.624 103.745 76.693C103.499 84.893 106.975 91.118 114.23 95.245C114.694 95.4422 115.083 95.7823 115.34 96.2158C115.597 96.6492 115.709 97.1534 115.66 97.655C115.572 100.644 115.546 103.64 115.666 106.628C115.727 108.128 115.166 108.602 113.726 108.935C106.86 110.524 100.018 112.21 93.189 113.946C90.6796 114.468 88.4074 115.791 86.7142 117.715C85.0209 119.64 83.9979 122.062 83.799 124.617C83.605 126.292 84.13 126.501 85.583 126.184C95.752 123.971 105.627 125.099 115.427 128.367C121.777 130.543 128.259 132.313 134.833 133.667C142.823 135.246 150.602 137.86 158.457 140.076C159.464 140.332 160.498 140.472 161.537 140.493C162.959 140.565 163.556 140.043 163.537 138.579C163.469 134.329 163.612 130.079 163.488 125.826C163.301 119.439 159.973 115.465 153.606 113.861C146.929 112.179 140.252 110.488 133.539 108.951C131.931 108.583 131.504 107.936 131.569 106.421C131.704 103.747 131.695 101.068 131.541 98.395C131.433 97.6654 131.577 96.9207 131.949 96.2842C132.322 95.6477 132.901 95.1575 133.59 94.895C136.047 93.5557 138.167 91.6749 139.79 89.395C142.708 85.3229 144.025 80.3191 143.49 75.338L143.492 75.34ZM215.248 113.324C208.773 111.724 203.048 110.254 197.284 108.941C195.834 108.611 195.303 108.114 195.366 106.625C195.488 103.717 195.466 100.798 195.356 97.889C195.292 97.3128 195.417 96.7315 195.712 96.2324C196.007 95.7332 196.456 95.3433 196.991 95.121C202.376 92.108 206.018 87.621 206.874 81.611C207.693 75.862 207.881 69.996 206.074 64.303C203.664 56.703 195.44 50.695 187.607 50.765C183.399 50.7277 179.287 52.0161 175.852 54.4475C172.418 56.8789 169.837 60.3299 168.474 64.311C167.154 68.403 167.605 72.573 167.501 76.725C167.301 84.925 170.765 91.151 178.033 95.251C178.526 95.4705 178.936 95.8439 179.199 96.3152C179.463 96.7866 179.566 97.3307 179.495 97.866C179.401 100.697 179.331 103.542 179.515 106.366C179.628 108.11 178.915 108.649 177.336 108.994C173.558 109.818 169.819 110.816 165.614 111.855C172.879 118.755 171.214 127.404 171.462 135.904L215.247 113.324H215.248ZM63.682 130.907C67.365 130.113 70.933 129.266 74.537 128.607C75.984 128.342 75.808 127.467 75.795 126.535C75.7139 123.378 76.3409 120.242 77.63 117.359C78.539 115.359 80.03 113.719 81.279 111.759C77.35 110.793 73.646 109.806 69.903 108.997C68.315 108.654 67.616 108.097 67.728 106.363C67.8818 103.61 67.8818 100.852 67.728 98.099C67.6438 97.4863 67.7636 96.863 68.0689 96.3252C68.3741 95.7873 68.8478 95.3649 69.417 95.123C72.1112 93.7391 74.4318 91.7257 76.1819 89.2537C77.932 86.7817 79.0599 83.9239 79.47 80.923C79.7821 77.7106 79.862 74.4799 79.709 71.256C79.6811 67.5356 78.6781 63.8876 76.8 60.676C72.947 53.839 65.465 50.176 56.913 51.013C50.031 51.685 43.249 57.379 40.992 64.113C39.622 68.2 40.07 72.364 39.947 76.513C39.7 84.801 43.148 91.118 50.5 95.291C50.9305 95.4682 51.2933 95.778 51.5357 96.1754C51.7781 96.5728 51.8875 97.0372 51.848 97.501C51.768 100.649 51.782 103.801 51.841 106.95C51.862 108.079 51.55 108.597 50.317 108.837C47.935 109.301 45.6 110.001 42.884 110.701C47.63 113.419 51.984 115.91 56.343 118.409C58.766 119.799 61.961 120.684 63.382 122.741C64.803 124.798 63.607 128.03 63.682 130.908V130.907ZM95.726 74.061C95.726 72.437 95.64 70.7 95.739 68.973C96.691 52.345 111.839 40.566 128.539 43.441C139.646 45.354 149.254 54.589 150.939 66.008C152.839 78.836 152.039 91.145 140.216 99.986C138.944 100.937 139.309 102.235 140.85 102.623C145.434 103.777 150.038 104.858 154.615 106.037C155.312 106.189 156.036 106.155 156.715 105.937C161.07 104.86 165.431 103.803 169.781 102.707C170.405 102.55 171.32 102.781 171.412 101.7C171.472 101.313 171.416 100.917 171.251 100.562C171.085 100.207 170.819 99.9093 170.484 99.706C168.639 98.4448 167.008 96.8958 165.654 95.118C157.454 84.168 158.14 72.218 161.641 59.983C161.974 58.823 162.37 57.934 161.582 56.714C152.002 41.894 138.422 34.297 120.412 35.466C104.839 36.477 93.278 44.182 85.347 57.266C85.0914 57.6058 84.9374 58.0111 84.9031 58.4349C84.8688 58.8587 84.9554 59.2835 85.153 59.66C86.6666 62.9579 87.5313 66.5163 87.7 70.141C88.53 81.714 86.772 92.329 76.513 99.925C75.131 100.948 75.538 102.225 77.271 102.665C81.699 103.781 86.147 104.822 90.565 105.972C91.4151 106.176 92.3039 106.153 93.142 105.904C97.418 104.838 101.702 103.804 105.972 102.715C106.592 102.557 107.516 102.809 107.672 101.767C107.742 101.341 107.676 100.903 107.483 100.517C107.29 100.131 106.98 99.815 106.597 99.615C104.848 98.36 103.279 96.8704 101.936 95.188C96.869 89.034 95.258 81.888 95.728 74.062L95.726 74.061ZM121.544 27.374C135.627 27.391 147.48 31.674 156.685 39.174C160.432 42.256 163.745 45.8308 166.534 49.801C166.934 50.369 167.122 51.208 168.31 50.446C176.399 45.258 176.42 45.29 180.11 36.558C180.161 36.4085 180.226 36.2642 180.304 36.127C180.976 35.127 180.56 34.438 179.775 33.683C176.275 30.315 172.796 26.928 169.383 23.477C169.243 23.268 169.058 23.0924 168.843 22.9624C168.627 22.8325 168.386 22.7514 168.135 22.7249C167.885 22.6984 167.632 22.7271 167.394 22.809C167.156 22.8909 166.939 23.0241 166.758 23.199C163.984 25.074 161.11 26.805 158.316 28.653C157.967 28.9698 157.52 29.1568 157.05 29.1825C156.58 29.2082 156.115 29.071 155.734 28.794C149.821 25.1028 143.322 22.4493 136.515 20.948C136.052 20.8967 135.621 20.6851 135.297 20.3499C134.973 20.0147 134.776 19.5768 134.741 19.112C134.126 16.026 133.361 12.969 132.821 9.872C132.561 8.381 132.057 7.745 130.377 7.79C125.877 7.91133 121.374 7.91133 116.868 7.79C115.196 7.745 114.675 8.372 114.412 9.86C113.878 12.879 113.096 15.853 112.529 18.866C112.496 19.4062 112.274 19.9175 111.9 20.3093C111.527 20.7011 111.027 20.9483 110.489 21.007C103.84 22.4755 97.4884 25.064 91.707 28.662C91.2717 28.9937 90.734 29.1625 90.1872 29.1389C89.6404 29.1154 89.1191 28.901 88.714 28.533C86.014 26.699 83.198 25.017 80.463 23.224C79.563 22.636 78.931 22.387 78.01 23.319C74.485 26.882 70.863 30.354 67.278 33.861C66.829 34.3 66.217 34.723 66.613 35.455C68.889 39.655 69.013 45.208 74.57 47.375C75.8215 47.9173 76.9279 48.7463 77.8 49.795C79.274 51.495 80.175 51.011 81.057 49.362C81.2183 49.0894 81.3998 48.8294 81.6 48.584C92.054 34.736 106.187 27.884 121.538 27.373L121.544 27.374ZM8.043 135.201C8.043 145.756 8.087 156.31 7.998 166.864C7.94457 167.185 7.95601 167.512 8.03165 167.828C8.10729 168.144 8.24558 168.442 8.43833 168.704C8.63108 168.965 8.87437 169.185 9.15378 169.351C9.4332 169.517 9.74306 169.625 10.065 169.669C14.586 171.027 19.083 172.469 23.533 174.037C24.942 174.537 25.274 174.137 25.586 172.903C30.0813 155.138 34.6147 137.383 39.186 119.637C39.565 118.176 39.171 117.583 37.971 116.908C30.671 112.796 23.402 108.621 16.124 104.466C14.599 103.596 13.124 102.633 11.539 101.877C9.139 100.728 8.044 101.44 8.044 104.009C8.044 114.409 8.044 124.806 8.044 135.2L8.043 135.201ZM55.828 128.381C56.111 127.408 55.537 126.956 54.769 126.531C52.676 125.373 50.576 124.22 48.55 122.957C47.202 122.117 46.693 122.115 46.25 123.884C42.326 139.584 38.277 155.252 34.28 170.934C33.78 172.904 32.436 175.348 33.152 176.759C33.968 178.359 36.991 178.191 38.932 179.088C40.532 179.825 41.068 179.176 41.487 177.713C44.5503 166.988 47.6503 156.273 50.787 145.568C52.454 139.835 54.147 134.11 55.828 128.381V128.381ZM119.607 219.081C119.583 218.268 119.338 217.477 118.897 216.793C118.456 216.11 117.837 215.56 117.107 215.202C116.323 214.782 115.426 214.622 114.546 214.745C113.665 214.868 112.846 215.266 112.207 215.884C109.863 218.022 107.57 220.219 105.357 222.484C103.287 224.605 103.224 227.21 105.031 228.984C106.838 230.758 109.49 230.684 111.668 228.666C113.821 226.666 115.876 224.574 117.968 222.513C118.921 221.612 119.506 220.389 119.609 219.081H119.607ZM78.933 179.601C78.3243 179.687 77.7372 179.886 77.202 180.188C73.9053 182.657 70.9591 185.563 68.444 188.825C67.223 190.49 67.698 192.494 69.278 193.925C70.858 195.356 72.787 195.715 74.535 194.407C77.6959 192.024 80.5405 189.248 83 186.146C83.475 185.509 83.7337 184.736 83.7386 183.941C83.7435 183.146 83.4941 182.37 83.027 181.727C82.6006 181.036 81.9948 180.474 81.2742 180.101C80.5536 179.727 79.7451 179.556 78.935 179.606L78.933 179.601ZM107.646 207.406C107.627 206.548 107.361 205.714 106.879 205.004C106.397 204.294 105.721 203.738 104.931 203.403C104.14 203.068 103.27 202.969 102.425 203.117C101.58 203.265 100.795 203.654 100.166 204.237C97.91 206.349 95.6953 208.502 93.522 210.697C91.295 212.954 91.189 215.521 93.141 217.349C94.962 219.055 97.624 218.913 99.775 216.895C101.855 214.943 103.86 212.912 105.895 210.914C106.895 210.003 107.519 208.752 107.646 207.406V207.406ZM84.392 206.867C85.092 206.62 85.94 206.686 86.597 206.136C89.5959 203.673 92.3677 200.946 94.879 197.988C95.4817 197.191 95.7634 196.197 95.6682 195.202C95.573 194.208 95.1079 193.285 94.365 192.617C93.66 191.897 92.7242 191.449 91.7217 191.35C90.7191 191.251 89.7138 191.509 88.882 192.077C85.8237 194.467 83.0442 197.194 80.596 200.206C80.0955 200.824 79.806 201.587 79.77 202.382C79.734 203.176 79.9534 203.962 80.396 204.623C80.8037 205.318 81.3891 205.892 82.092 206.287C82.795 206.681 83.5901 206.881 84.396 206.867H84.392ZM127.317 234.158C128.114 234.221 128.91 234.032 129.595 233.62C130.279 233.208 130.818 232.592 131.135 231.858C131.523 231.071 131.635 230.177 131.454 229.319C131.272 228.461 130.808 227.689 130.135 227.126C129.273 226.311 128.317 225.591 127.41 224.82C126.848 224.342 126.398 224.114 125.939 224.991C124.863 226.748 123.523 228.328 121.966 229.676C121.632 230.007 120.766 230.376 121.414 230.956C123.046 232.402 124.464 234.277 127.314 234.163" fill="#84CBF3"/>
</svg>
