<svg width="239" height="226" viewBox="0 0 239 226" fill="none" xmlns="http://www.w3.org/2000/svg">
<path d="M238.615 51.7997C237.441 54.3737 237.708 57.1997 237.286 59.8927C234.016 80.7727 225.417 98.9697 210.007 113.608C201.671 121.525 192.297 128.226 183.18 135.208C180.901 136.954 178.614 138.691 176.291 140.376C176.089 140.473 175.909 140.61 175.761 140.779C175.614 140.948 175.501 141.144 175.431 141.357C175.361 141.57 175.335 141.795 175.353 142.019C175.372 142.242 175.436 142.459 175.54 142.658C178.307 150.812 176.266 158.114 170.094 163.65C157.453 174.987 143.522 184.506 127.688 190.965C125.682 191.806 123.556 192.324 121.388 192.499C115.803 192.899 113.149 190.778 112.188 184.931C109.275 187.854 106.511 190.631 103.745 193.403C102.209 194.942 100.716 196.527 99.118 198.003C98.7994 198.359 98.4107 198.647 97.9761 198.847C97.5416 199.046 97.0705 199.155 96.5922 199.164C96.114 199.174 95.6389 199.085 95.1966 198.903C94.7542 198.721 94.3541 198.45 94.0211 198.107C93.6882 197.763 93.4295 197.355 93.2614 196.907C93.0932 196.46 93.0191 195.982 93.0436 195.504C93.0682 195.027 93.191 194.559 93.4042 194.131C93.6174 193.703 93.9166 193.323 94.283 193.016C97.583 189.621 100.969 186.302 104.318 182.952C107.447 179.821 110.47 176.572 113.739 173.594C116.228 171.152 118.257 168.281 119.728 165.119C120.121 164.361 120.376 163.801 119.341 163.312C114.664 161.103 111.312 157.27 107.801 153.665C107.635 153.419 107.421 153.209 107.171 153.05C106.921 152.89 106.64 152.783 106.348 152.736C106.055 152.69 105.755 152.703 105.468 152.777C105.18 152.851 104.911 152.983 104.677 153.165C99.856 155.82 94.919 158.206 89.424 159.221C82.357 160.521 78.156 156.281 79.481 149.168C80.504 143.675 82.899 138.743 85.559 133.925C85.7314 133.706 85.8572 133.454 85.9287 133.184C86.0001 132.915 86.0157 132.633 85.9745 132.358C85.9333 132.082 85.8362 131.818 85.689 131.581C85.5419 131.344 85.3479 131.14 85.119 130.981C81.462 127.41 77.577 124.006 75.319 119.264C74.889 118.364 74.419 118.495 73.694 118.893C70.7 120.337 67.941 122.225 65.51 124.493C56.275 133.928 46.866 143.193 37.548 152.548C33.887 156.224 32.948 160.548 34.806 164.618C35.4408 166.061 36.4052 167.336 37.6217 168.34C38.8382 169.344 40.273 170.049 41.811 170.398C43.349 170.747 44.9475 170.731 46.4781 170.351C48.0088 169.97 49.429 169.237 50.625 168.209C52.753 166.409 54.604 164.274 56.755 162.503C59.3916 160.344 62.7344 159.237 66.1384 159.397C69.5425 159.558 72.7667 160.973 75.189 163.37C80.249 168.339 80.903 176.628 76.089 181.933C70.405 188.192 64.274 194.049 58.3 200.042C55.685 202.665 54.158 205.676 54.765 209.442C55.0042 211.241 55.7258 212.942 56.8533 214.365C57.9809 215.787 59.4723 216.878 61.1696 217.522C62.8668 218.166 64.7067 218.338 66.494 218.021C68.2814 217.705 69.9496 216.91 71.322 215.722C74.916 212.656 78.104 209.116 81.476 205.79C82.028 205.245 82.556 204.67 83.147 204.171C83.7873 203.54 84.6454 203.18 85.5438 203.165C86.4422 203.15 87.312 203.481 87.973 204.09C88.3236 204.402 88.6047 204.785 88.7981 205.213C88.9915 205.641 89.0929 206.105 89.0957 206.575C89.0986 207.045 89.0028 207.51 88.8145 207.94C88.6263 208.371 88.3498 208.757 88.003 209.074C85.395 211.843 82.662 214.493 79.969 217.182C77.776 219.372 75.676 221.663 72.869 223.13C69.3488 225.016 65.2777 225.606 61.3669 224.796C57.456 223.987 53.9538 221.829 51.472 218.7C48.9186 215.671 47.5361 211.826 47.5756 207.865C47.615 203.903 49.0738 200.087 51.687 197.11C57.413 190.783 63.617 184.889 69.63 178.824C71.152 177.29 72.302 175.63 72.294 173.349C72.3536 172.018 72.007 170.701 71.3005 169.572C70.5939 168.444 69.5607 167.556 68.338 167.029C67.1918 166.424 65.8879 166.185 64.6018 166.344C63.3157 166.503 62.1092 167.053 61.145 167.919C59.492 169.319 58.045 170.969 56.452 172.443C48.967 179.353 38.38 179.343 31.794 172.443C25.094 165.426 25.317 155.036 32.43 147.795C38.852 141.258 45.374 134.818 51.867 128.35C52.408 127.811 53.067 127.387 54.152 126.525C50.871 126.15 48.518 125.317 47.158 122.916C45.68 120.306 45.958 117.538 46.617 114.768C48.281 107.816 51.725 101.659 55.353 95.6147C60.6641 86.4916 66.8176 77.8857 73.733 69.9097C79.822 63.0707 87.158 60.0497 96.226 63.2177C97.705 63.7347 98.005 62.7347 98.555 61.9967C104.864 53.5347 111.439 45.2777 117.908 36.9397C133.508 16.8307 153.964 5.17766 179.03 1.41466C190.778 -0.489833 202.757 -0.471257 214.499 1.46966C220.603 2.62804 226.168 5.73119 230.361 10.3151C234.555 14.8989 237.152 20.7172 237.764 26.8997C237.956 28.8317 237.656 30.8647 238.614 32.6927L238.615 51.7997ZM231.225 49.0397C231.314 48.7416 231.381 48.4375 231.425 48.1297C231.912 40.9154 231.632 33.6699 230.591 26.5147C230.025 22.0076 228.02 17.8035 224.874 14.5271C221.728 11.2508 217.608 9.07728 213.128 8.32966C204.461 6.88228 195.638 6.60714 186.898 7.51166C173.131 8.67866 160.098 12.3117 148.093 19.2987C139.345 24.3846 131.618 31.051 125.304 38.9587C110.287 57.6587 95.804 76.7507 82.975 97.0527C79.275 102.918 78.49 109.012 81.194 115.44C82.772 119.192 85.871 121.758 88.576 124.64C89.711 125.848 90.227 125.918 91.176 124.418C95.8623 116.821 101.153 109.614 106.998 102.868C115.447 93.3297 127.126 92.5317 136.625 100.878C139.663 103.459 141.838 106.908 142.858 110.762C143.878 114.616 143.694 118.689 142.331 122.436C140.549 127.57 136.753 131.104 132.685 134.402C126.747 139.151 120.562 143.583 114.156 147.68C113.656 148.006 112.12 148.164 113.381 149.391C115.769 151.716 117.9 154.355 120.772 156.113C127.856 160.45 134.872 159.987 141.788 155.613C162.025 142.831 181.039 128.37 199.688 113.413C205.333 108.893 210.36 103.651 214.641 97.8227C222.877 86.6097 227.741 74.0077 230.148 60.3787C230.281 59.7855 230.248 59.1672 230.052 58.5915C229.857 58.0159 229.507 57.5053 229.04 57.1157C216.76 44.9003 204.507 32.6593 192.281 20.3927C191.787 19.8987 191.263 19.4287 190.815 18.8927C189.357 17.1557 189.342 15.2747 190.738 13.8747C192.069 12.5397 194.081 12.5747 195.76 13.9977C196.292 14.4477 196.767 14.9667 197.26 15.4607C207.915 26.1153 218.573 36.7673 229.234 47.4167C229.815 47.9967 230.258 48.7827 231.228 49.0337L231.225 49.0397ZM136.528 117.764C136.628 110.764 132.844 105.351 127.381 103.075C122.361 100.984 116.99 102.14 112.881 106.843C102.581 118.643 93.77 131.443 87.631 145.943C86.803 147.896 85.231 150.676 86.548 152.015C88.062 153.549 90.807 151.857 92.793 151.015C107.207 144.901 119.932 136.115 131.715 125.915C134.604 123.415 136.449 120.198 136.525 117.764H136.528ZM169.681 148.855C169.557 148.029 170.037 146.555 169.053 146.055C168.213 145.626 167.353 146.865 166.563 147.418C159.572 152.281 152.542 157.087 145.333 161.625C141.85 163.8 137.975 165.273 133.926 165.961C131.56 166.383 128.726 164.761 126.92 166.799C125.32 168.599 124.436 171.053 123.32 173.26C121.623 176.474 120.316 179.879 119.426 183.404C119.026 185.122 119.561 185.953 121.382 185.504C122.894 185.185 124.377 184.747 125.819 184.193C140.297 178.073 153.05 169.238 164.866 159.005C166.396 157.797 167.627 156.252 168.462 154.491C169.297 152.73 169.715 150.8 169.682 148.851L169.681 148.855ZM92.782 69.6137C92.1216 69.1719 91.3324 68.9636 90.54 69.0217C85.757 68.6557 82.16 70.9477 79.177 74.3217C71.2978 83.4142 64.4236 93.331 58.674 103.9C56.3574 107.842 54.5732 112.074 53.368 116.486C52.654 119.334 53.028 119.711 55.812 119.069C61.248 117.815 65.982 115 70.863 112.477C71.5032 112.251 72.0417 111.804 72.381 111.216C72.7202 110.628 72.838 109.938 72.713 109.271C72.2933 104.597 73.3256 99.9086 75.669 95.8437C80.353 87.6127 85.895 79.9377 91.257 72.1437C91.9387 71.418 92.4594 70.5565 92.785 69.6157" fill="#84CBF3"/>
<path d="M0.005 183.688C1.449 181.197 2.274 178.411 4.195 176.127C7.09269 172.784 11.1669 170.686 15.5711 170.269C19.9753 169.853 24.3707 171.149 27.844 173.889C35.182 179.769 36.634 190.432 31.035 197.566C26.618 203.195 20.794 205.566 13.805 204.15C7.13 202.796 2.735 198.615 0.705 192.033C0.562 191.57 0.675 190.894 0 190.679L0.005 183.688ZM27.469 187.459C27.483 186.115 27.2322 184.782 26.7309 183.535C26.2296 182.288 25.4877 181.152 24.5474 180.192C23.6072 179.232 22.4871 178.467 21.251 177.94C20.015 177.413 18.6872 177.134 17.3435 177.12C15.9998 177.106 14.6665 177.357 13.4198 177.858C12.173 178.36 11.0372 179.101 10.0772 180.042C9.11717 180.982 8.35175 182.102 7.82462 183.338C7.29749 184.574 7.01899 185.902 7.005 187.246C7.00223 189.953 8.06005 192.553 9.95175 194.49C11.8435 196.427 14.4185 197.545 17.125 197.606C19.8308 197.594 22.4253 196.527 24.3569 194.632C26.2885 192.737 27.405 190.164 27.469 187.459" fill="#84CBF3"/>
<path d="M169.629 35.6837C176.224 35.6756 182.673 37.6239 188.159 41.2822C193.646 44.9405 197.925 50.1443 200.453 56.235C202.981 62.3257 203.646 69.0296 202.363 75.4982C201.08 81.9669 197.907 87.9095 193.245 92.5741C188.584 97.2387 182.643 100.416 176.175 101.703C169.707 102.99 163.003 102.329 156.911 99.8047C150.819 97.2802 145.612 93.0051 141.95 87.5205C138.289 82.0359 136.336 75.5883 136.34 68.9937C136.366 60.1709 139.881 51.7165 146.117 45.4759C152.354 39.2352 160.806 35.7151 169.629 35.6837V35.6837ZM169.31 95.3367C183.735 95.6547 195.59 84.1177 195.99 69.3727C196.379 55.0627 184.729 43.1017 170.007 42.6917C155.685 42.2917 143.681 53.9917 143.347 68.6757C143.296 72.1326 143.927 75.5656 145.205 78.778C146.484 81.9904 148.383 84.9189 150.795 87.3956C153.208 89.8724 156.085 91.8486 159.262 93.2112C162.44 94.5737 165.855 95.2957 169.312 95.3357" fill="#84CBF3"/>
<path d="M169.596 88.3327C165.78 88.3182 162.053 87.174 158.887 85.0442C155.72 82.9145 153.255 79.8946 151.803 76.3656C150.351 72.8366 149.976 68.9565 150.726 65.2148C151.476 61.473 153.318 58.0373 156.018 55.3409C158.719 52.6446 162.157 50.8084 165.9 50.064C169.643 49.3195 173.523 49.7003 177.049 51.1581C180.576 52.6159 183.592 55.0855 185.717 58.2554C187.842 61.4253 188.98 65.1535 188.989 68.9697C188.989 71.5149 188.487 74.0351 187.512 76.3862C186.537 78.7373 185.108 80.8731 183.306 82.6714C181.505 84.4698 179.367 85.8954 177.015 86.8668C174.662 87.8382 172.141 88.3364 169.596 88.3327V88.3327ZM169.714 81.3387C172.157 81.3293 174.543 80.5939 176.567 79.2259C178.592 77.8579 180.164 75.9191 181.084 73.6557C182.004 71.3922 182.231 68.9064 181.735 66.5138C181.24 64.1213 180.044 61.93 178.301 60.2184C176.557 58.5067 174.344 57.352 171.943 56.9008C169.541 56.4495 167.06 56.7222 164.814 57.6842C162.568 58.6462 160.659 60.254 159.328 62.3035C157.998 64.353 157.307 66.7516 157.343 69.1947C157.388 72.4408 158.713 75.5379 161.03 77.8121C163.347 80.0863 166.468 81.3537 169.714 81.3387Z" fill="#84CBF3"/>
</svg>
