<?xml version="1.0" encoding="iso-8859-1"?>
<!-- Generator: Adobe Illustrator 19.0.0, SVG Export Plug-In . SVG Version: 6.00 Build 0)  -->
<svg version="1.1" id="Capa_1" xmlns="http://www.w3.org/2000/svg" xmlns:xlink="http://www.w3.org/1999/xlink" x="0px" y="0px"
	 viewBox="0 0 512 512" style="enable-background:new 0 0 512 512;" xml:space="preserve">
<g>
	<g>
		<path d="M0,0v512h512V0H0z M482,482H30V120h452V482z M482,90H30V30h452V90z"/>
	</g>
</g>
<g>
	<g>
		<rect x="60" y="45" width="30" height="30"/>
	</g>
</g>
<g>
	<g>
		<rect x="110" y="45" width="30" height="30"/>
	</g>
</g>
<g>
	<g>
		<rect x="160" y="45" width="30" height="30"/>
	</g>
</g>
<g>
	<g>
		<path d="M438.516,211.303C440.755,205.63,442,199.459,442,193c0-27.57-22.43-50-50-50H227c-27.57,0-50,22.43-50,50s22.43,50,50,50
			h165c10.158,0,19.612-3.052,27.51-8.277l24.384,24.384l21.213-21.213L438.516,211.303z M392,213H227c-11.028,0-20-8.972-20-20
			s8.972-20,20-20h165c11.028,0,20,8.972,20,20S403.028,213,392,213z"/>
	</g>
</g>
<g>
	<g>
		<path d="M438.516,428.303C440.755,422.63,442,416.459,442,410c0-27.57-22.43-50-50-50h-66c-27.57,0-50,22.43-50,50s22.43,50,50,50
			h66c10.158,0,19.612-3.052,27.51-8.277l24.384,24.384l21.213-21.213L438.516,428.303z M392,430h-66c-11.028,0-20-8.972-20-20
			s8.972-20,20-20h66c11.028,0,20,8.972,20,20S403.028,430,392,430z"/>
	</g>
</g>
<g>
	<g>
		<path d="M251.5,260.999h-132c-27.57,0-50,22.43-50,50c0,6.459,1.245,12.63,3.485,18.302l-26.591,26.591l21.212,21.214
			l24.384-24.384c7.898,5.225,17.352,8.277,27.51,8.277h132c27.57,0,50-22.43,50-50S279.07,260.999,251.5,260.999z M251.5,331h-132
			c-11.028,0-20-8.972-20-20s8.972-20,20-20h132c11.028,0,20,8.972,20,20S262.528,331,251.5,331z"/>
	</g>
</g>
<g>
</g>
<g>
</g>
<g>
</g>
<g>
</g>
<g>
</g>
<g>
</g>
<g>
</g>
<g>
</g>
<g>
</g>
<g>
</g>
<g>
</g>
<g>
</g>
<g>
</g>
<g>
</g>
<g>
</g>
</svg>
