<svg height="512pt" viewBox="0 0 512.001 512" width="512pt" xmlns="http://www.w3.org/2000/svg"><path d="m391.265625 275.789062c0 4.140626 3.355469 7.5 7.5 7.5 4.140625 0 7.5-3.359374 7.5-7.5 0-15.164062-12.335937-27.5-27.5-27.5h-115.269531v-13.5c0-4.140624-3.355469-7.5-7.5-7.5-4.140625 0-7.5 3.359376-7.5 7.5v13.5h-115.261719c-15.164063 0-27.5 12.335938-27.5 27.5 0 4.140626 3.355469 7.5 7.5 7.5 4.140625 0 7.5-3.359374 7.5-7.5 0-6.894531 5.605469-12.5 12.5-12.5h245.53125c6.890625 0 12.5 5.609376 12.5 12.5zm0 0"/><path d="m489.355469 302.832031h-184.167969c-12.484375 0-22.644531 10.160157-22.644531 22.644531v126.667969c0 12.488281 10.160156 22.644531 22.644531 22.644531h49.878906l-3.765625 22.210938h-1.769531c-4.140625 0-7.5 3.359375-7.5 7.5s3.359375 7.5 7.5 7.5h95.484375c4.140625 0 7.5-3.359375 7.5-7.5s-3.359375-7.5-7.5-7.5h-1.773437l-3.761719-22.207031h49.875c12.488281 0 22.644531-10.160157 22.644531-22.644531v-126.671876c0-12.484374-10.15625-22.644531-22.644531-22.644531zm-184.167969 15h184.167969c4.214843 0 7.644531 3.429688 7.644531 7.644531v97.792969h-40.34375v-1.011719c0-.582031-.066406-1.164062-.203125-1.734374-1.320313-5.542969-4.414063-10.679688-8.957031-14.859376-6.089844-5.585937-14.230469-8.664062-22.929688-8.664062h-54.558594c-8.703124 0-16.847656 3.078125-22.914062 8.660156-4.597656 4.207032-7.714844 9.414063-9.015625 15.066406-.128906.550782-.191406 1.117188-.191406 1.683594v.863282h-40.34375v-97.796876c0-4.214843 3.429687-7.644531 7.644531-7.644531zm47.730469 105.441407c.726562-2.375 2.203125-4.625 4.3125-6.5625 3.304687-3.039063 7.84375-4.710938 12.777343-4.710938h54.558594c4.929688 0 9.472656 1.675781 12.78125 4.710938 2.105469 1.9375 3.582032 4.183593 4.308594 6.539062v.023438zm75.109375 73.726562h-61.511719l3.761719-22.207031h53.988281zm68.972656-44.851562c0 4.214843-3.429688 7.640624-7.644531 7.640624h-184.167969c-4.214844 0-7.644531-3.425781-7.644531-7.640624v-13.875h199.457031zm0 0"/><path d="m380.066406 383.820312 8.320313 5.070313c2.746093 1.675781 5.824219 2.511719 8.902343 2.511719 3.078126 0 6.15625-.835938 8.902344-2.511719l8.320313-5.070313c5.066406-3.089843 8.210937-8.695312 8.210937-14.628906v-16.605468c0-10.253907-8.332031-18.597657-18.578125-18.597657h-13.714843c-10.242188 0-18.578126 8.34375-18.578126 18.597657v16.605468c.003907 5.933594 3.148438 11.539063 8.214844 14.628906zm6.789063-31.238281c0-1.980469 1.605469-3.59375 3.578125-3.59375h13.710937c1.972657 0 3.582031 1.613281 3.582031 3.59375v16.605469c0 .742188-.390624 1.4375-1.023437 1.824219l-8.316406 5.070312c-.675781.414063-1.519531.414063-2.191407 0l-8.320312-5.070312c-.628906-.382813-1.019531-1.082031-1.019531-1.824219zm0 0"/><path d="m163.914062 171.957031h49.878907l-3.761719 22.210938h-1.773438c-4.140624 0-7.5 3.355469-7.5 7.5 0 4.140625 3.359376 7.5 7.5 7.5h95.484376c4.140624 0 7.5-3.359375 7.5-7.5 0-4.144531-3.359376-7.5-7.5-7.5h-1.769532l-3.765625-22.210938h49.878907c12.484374 0 22.644531-10.15625 22.644531-22.644531v-70.3125c0-4.140625-3.359375-7.5-7.5-7.5-4.144531 0-7.5 3.359375-7.5 7.5v41.4375h-40.34375v-1.011719c0-.582031-.070313-1.164062-.203125-1.734375-1.320313-5.542968-4.414063-10.679687-8.957032-14.859375-6.089843-5.585937-14.234374-8.664062-22.929687-8.664062h-54.5625c-8.703125 0-16.84375 3.078125-22.914063 8.65625-4.59375 4.207031-7.710937 9.417969-9.015624 15.070312-.125.550781-.191407 1.117188-.191407 1.683594v.859375h-40.339843v-97.792969c0-4.214843 3.425781-7.644531 7.640624-7.644531h184.171876c4.214843 0 7.640624 3.429688 7.640624 7.644531v24.355469c0 4.140625 3.359376 7.5 7.5 7.5 4.144532 0 7.5-3.359375 7.5-7.5v-24.355469c0-12.484375-10.15625-22.644531-22.640624-22.644531h-184.171876c-12.484374 0-22.640624 10.160156-22.640624 22.644531v126.667969c0 12.488281 10.15625 22.644531 22.640624 22.644531zm122.84375 22.210938h-61.515624l3.765624-22.210938h53.984376zm-70.796874-80.289063c3.304687-3.039062 7.839843-4.710937 12.773437-4.710937h54.558594c4.933593 0 9.476562 1.675781 12.78125 4.707031 2.105469 1.941406 3.585937 4.1875 4.308593 6.542969v.019531h-88.734374c.726562-2.375 2.199218-4.625 4.3125-6.558594zm139.765624 21.558594v13.875c0 4.214844-3.425781 7.644531-7.640624 7.644531h-184.167969c-4.214844 0-7.644531-3.429687-7.644531-7.644531v-13.875zm0 0"/><path d="m249.160156 31.15625c-10.242187 0-18.578125 8.339844-18.578125 18.59375v16.605469c0 5.9375 3.144531 11.542969 8.210938 14.628906l8.320312 5.070313c2.746094 1.675781 5.824219 2.511718 8.902344 2.511718 3.082031 0 6.160156-.835937 8.90625-2.511718l8.316406-5.070313c5.066407-3.085937 8.214844-8.691406 8.214844-14.628906v-16.605469c0-10.253906-8.335937-18.59375-18.582031-18.59375zm17.292969 18.59375v16.605469c0 .738281-.390625 1.4375-1.019531 1.820312l-8.320313 5.074219c-.675781.410156-1.515625.410156-2.191406 0l-8.320313-5.074219c-.628906-.382812-1.019531-1.082031-1.019531-1.820312v-16.605469c0-1.980469 1.605469-3.59375 3.578125-3.59375h13.714844c1.972656 0 3.578125 1.613281 3.578125 3.59375zm0 0"/><path d="m206.8125 302.832031h-184.167969c-12.488281 0-22.644531 10.160157-22.644531 22.644531v126.671876c0 12.484374 10.15625 22.640624 22.644531 22.640624h49.878907l-3.765626 22.210938h-1.769531c-4.144531 0-7.5 3.359375-7.5 7.5s3.355469 7.5 7.5 7.5h95.480469c4.144531 0 7.5-3.359375 7.5-7.5s-3.355469-7.5-7.5-7.5h-1.769531l-3.761719-22.207031h49.875c12.488281 0 22.644531-10.160157 22.644531-22.644531v-126.671876c0-12.484374-10.160156-22.644531-22.644531-22.644531zm-184.167969 15h184.167969c4.214844 0 7.644531 3.429688 7.644531 7.644531v97.792969h-40.34375v-1.011719c0-.582031-.066406-1.167968-.203125-1.734374-1.320312-5.546876-4.414062-10.683594-8.957031-14.859376-6.089844-5.585937-14.234375-8.664062-22.929687-8.664062h-54.558594c-8.703125 0-16.847656 3.078125-22.917969 8.65625-4.59375 4.207031-7.710937 9.417969-9.011719 15.070312-.128906.550782-.191406 1.117188-.191406 1.683594v.863282h-40.34375v-97.796876c0-4.214843 3.429688-7.644531 7.644531-7.644531zm122.839844 179.167969h-61.511719l3.761719-22.207031h53.988281zm68.972656-44.851562c0 4.214843-3.429687 7.640624-7.644531 7.640624h-184.167969c-4.214843 0-7.644531-3.425781-7.644531-7.640624v-13.875h63c4.140625 0 7.5-3.359376 7.5-7.5 0-4.144532-3.359375-7.5-7.5-7.5h-7.625c.726562-2.375 2.199219-4.625 4.3125-6.5625 3.304688-3.039063 7.84375-4.710938 12.777344-4.710938h54.558594c4.929687 0 9.472656 1.675781 12.78125 4.710938 2.105468 1.9375 3.582031 4.183593 4.308593 6.539062v.023438h-49.738281c-4.140625 0-7.5 3.355468-7.5 7.5 0 4.140624 3.359375 7.5 7.5 7.5h105.082031zm0 0"/><path d="m97.523438 383.820312 8.320312 5.070313c2.746094 1.675781 5.820312 2.511719 8.902344 2.511719 3.078125 0 6.15625-.835938 8.902344-2.511719l8.320312-5.070313c5.0625-3.089843 8.210938-8.695312 8.210938-14.628906v-16.605468c0-10.253907-8.335938-18.597657-18.578126-18.597657h-13.714843c-10.242188 0-18.578125 8.34375-18.578125 18.597657v16.605468c.003906 5.933594 3.148437 11.539063 8.214844 14.628906zm6.789062-31.238281c0-1.980469 1.601562-3.59375 3.578125-3.59375h13.710937c1.972657 0 3.582032 1.613281 3.582032 3.59375v16.605469c0 .742188-.394532 1.4375-1.023438 1.824219l-8.316406 5.070312c-.679688.414063-1.519531.414063-2.191406 0l-8.320313-5.070312c-.628906-.382813-1.019531-1.082031-1.019531-1.824219zm0 0"/></svg>