<svg height="512pt" viewBox="0 0 512 512.00156" width="512pt" xmlns="http://www.w3.org/2000/svg"><path d="m469.351562 512h-426.703124c-23.515626 0-42.648438-19.128906-42.648438-42.648438v-290.167968c0-23.515625 19.132812-42.648438 42.648438-42.648438h426.703124c23.515626 0 42.648438 19.132813 42.648438 42.648438v290.167968c0 23.519532-19.132812 42.648438-42.648438 42.648438zm-426.703124-358.398438c-14.105469 0-25.582032 11.476563-25.582032 25.582032v290.167968c0 14.105469 11.476563 25.582032 25.582032 25.582032h426.703124c14.105469 0 25.582032-11.476563 25.582032-25.582032v-290.167968c0-14.105469-11.476563-25.582032-25.582032-25.582032zm0 0"/><path d="m341.335938 153.601562h-170.667969c-4.710938 0-8.535157-3.824218-8.535157-8.535156 0-32.9375 26.796876-59.730468 59.734376-59.730468h68.265624c32.941407 0 59.734376 26.792968 59.734376 59.730468 0 4.710938-3.824219 8.535156-8.53125 8.535156zm-161.273438-17.066406h151.886719c-3.960938-19.449218-21.207031-34.132812-41.804688-34.132812h-68.269531c-20.617188 0-37.851562 14.683594-41.8125 34.132812zm0 0"/><path d="m255.992188 102.402344c-1.542969 0-3.105469-.417969-4.515626-1.296875l-136.53125-85.335938c-4.003906-2.5-5.214843-7.765625-2.714843-11.757812 2.5-3.9921878 7.765625-5.214844 11.757812-2.714844l136.535157 85.335937c4.003906 2.5 5.214843 7.765626 2.714843 11.757813-1.621093 2.59375-4.394531 4.011719-7.246093 4.011719zm0 0"/><path d="m435.199219 469.335938c-23.523438 0-42.664063-19.140626-42.664063-42.667969 0-23.527344 19.140625-42.667969 42.664063-42.667969 23.527343 0 42.667969 19.140625 42.667969 42.667969 0 23.527343-19.140626 42.667969-42.667969 42.667969zm0-68.269532c-14.113281 0-25.597657 11.488282-25.597657 25.601563s11.484376 25.601562 25.597657 25.601562c14.117187 0 25.601562-11.488281 25.601562-25.601562s-11.484375-25.601563-25.601562-25.601563zm0 0"/><path d="m435.199219 435.203125c-2.183594 0-4.367188-.835937-6.03125-2.5l-42.667969-42.667969c-3.335938-3.335937-3.335938-8.730468 0-12.066406s8.730469-3.335938 12.066406 0l42.667969 42.667969c3.335937 3.335937 3.335937 8.726562 0 12.066406-1.664063 1.664063-3.847656 2.5-6.035156 2.5zm0 0"/><path d="m332.800781 469.335938h-256c-18.824219 0-34.132812-15.308594-34.132812-34.132813v-221.859375c0-18.824219 15.308593-34.132812 34.132812-34.132812h256c18.824219 0 34.132813 15.308593 34.132813 34.132812v221.859375c0 18.824219-15.308594 34.132813-34.132813 34.132813zm-256-273.066407c-9.414062 0-17.066406 7.652344-17.066406 17.066407v221.867187c0 9.410156 7.652344 17.066406 17.066406 17.066406h256c9.414063 0 17.066407-7.65625 17.066407-17.066406v-221.859375c0-9.414062-7.652344-17.066406-17.066407-17.066406h-256zm0 0"/><path d="m256.007812 102.402344c-2.839843 0-5.621093-1.425782-7.242187-4.011719-2.492187-3.992187-1.28125-9.257813 2.710937-11.757813l136.535157-85.335937c3.992187-2.488281 9.257812-1.2773438 11.757812 2.714844 2.492188 3.992187 1.28125 9.257812-2.710937 11.757812l-136.535156 85.335938c-1.40625.878906-2.96875 1.296875-4.515626 1.296875zm0 0"/><path d="m469.335938 264.535156h-68.269532c-4.710937 0-8.53125-3.824218-8.53125-8.535156v-68.265625c0-4.710937 3.820313-8.53125 8.53125-8.53125h68.269532c4.707031 0 8.53125 3.820313 8.53125 8.53125v68.265625c0 4.710938-3.824219 8.535156-8.53125 8.535156zm-59.734376-17.066406h51.199219v-51.199219h-51.199219zm0 0"/><path d="m469.335938 315.734375h-68.269532c-4.710937 0-8.53125-3.824219-8.53125-8.53125 0-4.710937 3.820313-8.535156 8.53125-8.535156h68.269532c4.707031 0 8.53125 3.824219 8.53125 8.535156 0 4.707031-3.824219 8.53125-8.53125 8.53125zm0 0"/><path d="m469.335938 349.867188h-68.269532c-4.710937 0-8.53125-3.820313-8.53125-8.53125 0-4.710938 3.820313-8.535157 8.53125-8.535157h68.269532c4.707031 0 8.53125 3.824219 8.53125 8.535157 0 4.710937-3.824219 8.53125-8.53125 8.53125zm0 0"/><path d="m435.199219 221.867188c-4.707031 0-8.53125-3.820313-8.53125-8.53125v-25.601563c0-4.710937 3.824219-8.53125 8.53125-8.53125 4.710937 0 8.535156 3.820313 8.535156 8.53125v25.601563c0 4.710937-3.824219 8.53125-8.535156 8.53125zm0 0"/><path d="m230.402344 290.136719h-136.535156c-4.710938 0-8.53125-3.824219-8.53125-8.535157 0-4.710937 3.820312-8.535156 8.53125-8.535156h136.535156c4.707031 0 8.53125 3.824219 8.53125 8.535156 0 4.710938-3.824219 8.535157-8.53125 8.535157zm0 0"/><path d="m213.335938 290.136719h-102.402344c-2.628906 0-5.109375-1.214844-6.722656-3.289063-1.613282-2.070312-2.195313-4.769531-1.554688-7.320312l8.535156-34.132813c.945313-3.789062 4.359375-6.460937 8.277344-6.460937h85.332031c3.917969 0 7.332031 2.664062 8.277344 6.460937l8.535156 34.132813c.636719 2.550781.058594 5.25-1.554687 7.320312-1.613282 2.074219-4.097656 3.289063-6.722656 3.289063zm-91.46875-17.070313h80.535156l-4.265625-17.066406h-72.003907zm0 0"/><path d="m162.132812 435.203125c-1.976562 0-3.957031-.691406-5.5625-2.066406l-60.6875-52.15625c-3.285156-2.824219-3.933593-7.664063-1.503906-11.246094 8.261719-12.210937 24.832032-20.113281 42.230469-19.867187 2.238281.019531 4.378906.914062 5.964844 2.5l19.558593 19.566406 19.566407-19.566406c1.589843-1.585938 3.730469-2.480469 5.964843-2.5h.472657c17.226562 0 33.578125 7.765624 41.761719 19.867187 2.429687 3.582031 1.78125 8.421875-1.503907 11.246094l-60.6875 52.15625c-1.613281 1.375-3.59375 2.066406-5.574219 2.066406zm-48.339843-61.332031 48.339843 41.550781 48.34375-41.550781c-5.0625-3.789063-11.992187-6.277344-19.320312-6.824219l-22.988281 22.988281c-3.335938 3.335938-8.730469 3.335938-12.066407 0l-22.988281-22.988281c-7.332031.546875-14.261719 3.035156-19.320312 6.824219zm0 0"/><path d="m230.402344 469.335938h-136.535156c-4.710938 0-8.53125-3.824219-8.53125-8.535157v-59.734375c0-15.84375 5.5625-29.761718 15.675781-39.191406 5.136719-4.789062 11.160156-8.199219 17.851562-10.164062-5.179687-9.199219-7.929687-21.425782-7.929687-35.976563 0-16.589844 7.210937-31.511719 19.789062-40.960937 1.476563-1.109376 3.277344-1.707032 5.128906-1.707032h52.574219c1.851563 0 3.644531.597656 5.128907 1.707032 12.570312 9.449218 19.78125 24.382812 19.78125 40.960937 0 14.550781-2.75 26.777344-7.929688 35.976563 6.699219 1.964843 12.722656 5.375 17.851562 10.164062 10.113282 9.429688 15.675782 23.347656 15.675782 39.191406v59.734375c0 4.710938-3.824219 8.535157-8.53125 8.535157zm-128-17.066407h119.464844v-51.203125c0-11.058594-3.636719-20.546875-10.25-26.707031-5.921876-5.523437-14.019532-8.089844-23.285157-7.449219-3.875.289063-7.5625-2.195312-8.738281-5.972656-1.179688-3.773438.390625-7.859375 3.789062-9.882812 11.628907-6.894532 12.882813-26.992188 12.882813-35.320313 0-10.34375-3.839844-19.335937-10.878906-25.597656h-46.507813c-7.039062 6.261719-10.878906 15.246093-10.878906 25.597656 0 8.328125 1.253906 28.425781 12.886719 35.328125 3.394531 2.015625 4.972656 6.101562 3.789062 9.882812-1.179687 3.78125-4.738281 6.238282-8.738281 5.972657-9.300781-.648438-17.375 1.929687-23.289062 7.449219-6.613282 6.152343-10.246094 15.640624-10.246094 26.699218zm0 0"/><path d="m290.132812 469.335938c-4.710937 0-8.53125-3.824219-8.53125-8.535157v-68.265625c0-4.710937 3.820313-8.535156 8.53125-8.535156 4.710938 0 8.535157 3.824219 8.535157 8.535156v68.265625c0 4.710938-3.824219 8.535157-8.535157 8.535157zm0 0"/><path d="m290.132812 401.066406c-14.113281 0-25.597656-11.484375-25.597656-25.597656v-34.132812c0-14.113282 11.484375-25.601563 25.597656-25.601563 14.117188 0 25.601563 11.488281 25.601563 25.601563v34.132812c0 14.113281-11.484375 25.597656-25.601563 25.597656zm0-68.265625c-4.699218 0-8.53125 3.832031-8.53125 8.535157v34.132812c0 4.703125 3.832032 8.53125 8.53125 8.53125 4.703126 0 8.535157-3.828125 8.535157-8.53125v-34.132812c0-4.703126-3.832031-8.535157-8.535157-8.535157zm0 0"/><path d="m307.199219 435.203125h-34.132813c-4.710937 0-8.53125-3.824219-8.53125-8.535156 0-4.710938 3.820313-8.53125 8.53125-8.53125h34.132813c4.710937 0 8.535156 3.820312 8.535156 8.53125 0 4.710937-3.824219 8.535156-8.535156 8.535156zm0 0"/></svg>