<svg height="480pt" viewBox="0 0 480 480" width="480pt" xmlns="http://www.w3.org/2000/svg"><path d="m256 432c0 8.835938-7.164062 16-16 16s-16-7.164062-16-16 7.164062-16 16-16 16 7.164062 16 16zm0 0"/><path d="m216 40c0 4.417969-3.582031 8-8 8s-8-3.582031-8-8 3.582031-8 8-8 8 3.582031 8 8zm0 0"/><path d="m240 48h40c4.417969 0 8-3.582031 8-8s-3.582031-8-8-8h-40c-4.417969 0-8 3.582031-8 8s3.582031 8 8 8zm0 0"/><path d="m384 97.097656v-57.097656c-.027344-22.082031-17.917969-39.9726562-40-40h-208c-22.082031.0273438-39.972656 17.917969-40 40v137.097656c-54.183594 6.6875-96 46.628906-96 94.902344s41.816406 88.214844 96 94.902344v73.097656c.027344 22.082031 17.917969 39.972656 40 40h208c22.082031-.027344 39.972656-17.917969 40-40v-153.097656c54.183594-6.6875 96-46.628906 96-94.902344s-41.816406-88.214844-96-94.902344zm-272-57.097656c0-13.253906 10.746094-24 24-24h208c13.253906 0 24 10.746094 24 24v56c-5.351562.035156-10.695312.402344-16 1.097656v-25.097656c0-4.417969-3.582031-8-8-8h-208c-4.417969 0-8 3.582031-8 8v105.097656c-5.304688-.695312-10.648438-1.0625-16-1.097656zm224 40v20.039062c-46.199219 11.839844-80 48.5625-80 92 0 43.441407 33.800781 80.121094 80 91.960938v100h-192v-20c46.199219-11.839844 80-48.558594 80-91.960938 0-43.398437-33.800781-80.160156-80-92v-100.039062zm-320 192c0-44.113281 43.0625-80 96-80s96 35.886719 96 80-43.0625 80-96 80-96-35.886719-96-80zm352 168c0 13.253906-10.746094 24-24 24h-208c-13.253906 0-24-10.746094-24-24v-72c5.351562-.035156 10.695312-.402344 16-1.097656v25.097656c0 4.417969 3.582031 8 8 8h208c4.417969 0 8-3.582031 8-8v-105.097656c5.304688.695312 10.648438 1.0625 16 1.097656zm0-168c-52.9375 0-96-35.886719-96-80s43.0625-80 96-80 96 35.886719 96 80-43.0625 80-96 80zm0 0"/><path d="m240 144c0 4.417969-3.582031 8-8 8s-8-3.582031-8-8 3.582031-8 8-8 8 3.582031 8 8zm0 0"/><path d="m208 136c0 4.417969-3.582031 8-8 8s-8-3.582031-8-8 3.582031-8 8-8 8 3.582031 8 8zm0 0"/><path d="m176 128c0 4.417969-3.582031 8-8 8s-8-3.582031-8-8 3.582031-8 8-8 8 3.582031 8 8zm0 0"/><path d="m320 336c0 4.417969-3.582031 8-8 8s-8-3.582031-8-8 3.582031-8 8-8 8 3.582031 8 8zm0 0"/><path d="m288 328c0 4.417969-3.582031 8-8 8s-8-3.582031-8-8 3.582031-8 8-8 8 3.582031 8 8zm0 0"/><path d="m256 320c0 4.417969-3.582031 8-8 8s-8-3.582031-8-8 3.582031-8 8-8 8 3.582031 8 8zm0 0"/><path d="m168 256c-.007812-13.304688-8.25-25.214844-20.695312-29.914062-12.449219-4.699219-26.503907-1.207032-35.304688 8.769531-8.800781-9.976563-22.855469-13.46875-35.304688-8.769531-12.445312 4.699218-20.6875 16.609374-20.695312 29.914062 0 17.375 37.777344 64 56 64s56-46.625 56-64zm-96 0c0-8.835938 7.164062-16 16-16s16 7.164062 16 16v2.160156c0 4.417969 3.582031 8 8 8s8-3.582031 8-8v-2.160156c0-8.835938 7.164062-16 16-16s16 7.164062 16 16c-.175781 10.03125-30.9375 46.824219-39.871094 48-9.191406-1.175781-39.953125-37.96875-40.128906-48zm0 0"/><path d="m392 152c-9.191406-.003906-17.9375 3.953125-24 10.855469-8.800781-9.976563-22.855469-13.46875-35.304688-8.769531-12.445312 4.699218-20.6875 16.609374-20.695312 29.914062 0 17.375 37.777344 64 56 64s56-46.625 56-64c0-17.671875-14.328125-32-32-32zm-23.871094 80c-9.191406-1.183594-39.953125-37.976562-40.128906-48 0-8.835938 7.164062-16 16-16s16 7.164062 16 16v2.160156c0 4.417969 3.582031 8 8 8s8-3.582031 8-8v-2.160156c0-8.835938 7.164062-16 16-16s16 7.164062 16 16c-.175781 10.03125-30.9375 46.824219-39.871094 48zm0 0"/></svg>